<svg width="266" height="266" viewBox="0 0 266 266" fill="none" xmlns="http://www.w3.org/2000/svg">
<rect x="80.9336" y="-1.01875" width="203.439" height="203.439" rx="14.059" transform="rotate(23.639 80.9336 -1.01875)" fill="#0081D8" stroke="white" stroke-width="2.32582"/>
<mask id="mask0_11_4" style="mask-type:alpha" maskUnits="userSpaceOnUse" x="2" y="2" width="262" height="262">
<rect x="80.6655" y="-1.01872" width="203.439" height="203.439" rx="14.059" transform="rotate(23.639 80.6655 -1.01872)" fill="#0081D8" stroke="white" stroke-width="2.32582"/>
</mask>
<g mask="url(#mask0_11_4)">
<path d="M3.83826 61.5967C28.0395 74.9922 83.6755 93.7459 112.61 61.5967C148.778 21.4101 219.238 29.4474 251.387 39.3601" stroke="white" stroke-width="0.581455"/>
<path d="M4.4809 76.6567C29.4793 88.498 86.1881 103.703 113.036 69.7917C146.595 27.4025 217.422 30.9768 250.133 38.8406" stroke="white" stroke-width="0.581455"/>
<path d="M1.46438 91.922C26.4628 103.763 83.1715 118.968 110.019 85.057C143.579 42.6678 214.406 46.2421 247.117 54.1059" stroke="white" stroke-width="0.581455"/>
<path d="M-1.75013 107.461C23.2483 119.302 79.957 134.507 106.805 100.596C140.364 58.2067 211.191 61.781 243.902 69.6448" stroke="white" stroke-width="0.581455"/>
<path d="M-1.75013 107.461C23.2483 119.302 79.957 134.507 106.805 100.596C140.364 58.2067 211.191 61.781 243.902 69.6448" stroke="white" stroke-width="0.581455"/>
<path d="M4.67979 160.507C32.6495 172.161 96.1888 186.934 126.589 152.798C164.589 110.128 244.066 113.155 280.724 120.769" stroke="white" stroke-width="0.581455"/>
<path d="M-1.75013 184.398C26.2195 196.051 89.7588 210.824 120.159 176.688C158.159 134.018 237.636 137.045 274.294 144.66" stroke="white" stroke-width="0.581455"/>
<path d="M-0.678775 201.545C27.2909 213.198 90.8302 227.971 121.23 193.835C159.23 151.165 238.708 154.192 275.366 161.807" stroke="white" stroke-width="0.581455"/>
<path d="M7.35839 218.691C35.3281 230.344 98.8674 245.117 129.267 210.981C167.267 168.311 246.745 171.339 283.403 178.953" stroke="white" stroke-width="0.581455"/>
<path d="M20.7546 244.41C48.7242 256.063 112.264 270.836 142.663 236.7C180.663 194.03 260.141 197.057 296.799 204.671" stroke="white" stroke-width="0.581455"/>
<path d="M17.0033 144.433C42.0017 156.274 98.7104 171.479 125.558 137.568C159.117 95.1789 229.945 98.7531 262.655 106.617" stroke="white" stroke-width="0.581455"/>
<path d="M-4.96553 125.143C23.1732 136.786 87.1013 151.535 117.703 117.386C155.956 74.6999 235.926 77.6959 272.809 85.2959" stroke="white" stroke-width="0.581455"/>
</g>
</svg>
