<svg xmlns="http://www.w3.org/2000/svg" width="84" height="73" viewBox="0 0 84 73" fill="none">
  <g clip-path="url(#clip0_145_743)">
    <path d="M83.2888 35.6494C83.3116 41.1539 82.1191 45.9618 79.8456 50.5036C77.9507 54.2895 75.4053 57.5978 72.326 60.5086C69.3802 63.2921 66.0746 65.5606 62.4532 67.37C59.0955 69.0481 55.5725 70.2695 51.8949 71.0497C49.2381 71.6142 46.5568 71.9297 43.8422 72.0546C40.9314 72.1884 38.0392 72.0287 35.1675 71.6061C28.3748 70.6061 22.0924 68.2484 16.4336 64.3457C11.2233 60.7527 7.06541 56.2077 4.18959 50.5555C2.85465 47.9318 1.91042 45.1653 1.32354 42.2739C0.765145 39.527 0.602347 36.7532 0.777354 33.9713C1.0012 30.4035 1.82821 26.9598 3.22827 23.6589C5.08498 19.2817 7.75485 15.4609 11.1484 12.1332C14.0698 9.26938 17.3672 6.92466 21.0017 5.04061C23.9483 3.51341 27.0317 2.34714 30.2404 1.51014C32.3373 0.963497 34.4658 0.575007 36.6229 0.334128C38.8093 0.0908148 41.003 -0.0803152 43.1959 0.036475C45.357 0.151643 47.5214 0.34386 49.6622 0.656923C53.1184 1.1622 56.4549 2.14762 59.6807 3.48989C63.6367 5.1355 67.2769 7.30017 70.5646 10.052C73.5901 12.5841 76.1811 15.4901 78.273 18.8316C80.2917 22.0563 81.7439 25.5146 82.5554 29.2348C83.0454 31.4863 83.3165 33.758 83.2888 35.6494ZM2.69918 36.1262C2.80581 37.389 2.8864 38.6543 3.02559 39.913C3.30397 42.4224 3.97144 44.8385 4.91567 47.1767C6.75609 51.7364 9.5326 55.6545 13.1076 59.0285C16.0266 61.7828 19.3086 64.0058 22.9186 65.7553C28.2926 68.3603 33.9832 69.7213 39.9399 70.0213C42.014 70.126 44.0823 70.0432 46.1523 69.8656C48.4664 69.6669 50.7464 69.2776 52.9914 68.7066C57.6531 67.5217 62.0095 65.6344 66.0013 62.9426C70.7843 59.717 74.6776 55.6675 77.472 50.605C79.6047 46.7404 80.8656 42.6081 81.183 38.2122C81.3637 35.7013 81.2359 33.1968 80.7679 30.7093C80.238 27.8901 79.3483 25.1958 78.0638 22.6354C76.2706 19.0619 73.8913 15.9199 70.9813 13.1664C68.1958 10.5306 65.0832 8.3675 61.662 6.64485C55.8851 3.73564 49.7338 2.28387 43.283 2.0657C40.3502 1.96676 37.4304 2.18898 34.5375 2.67561C31.6869 3.15493 28.9039 3.90109 26.2063 4.94572C19.5048 7.54186 13.7938 11.5022 9.38039 17.2022C5.07114 22.7676 2.78465 29.054 2.69918 36.1262Z" fill="white"/>
    <path d="M4.60541 36.6186C4.58995 30.552 6.13408 25.4879 9.04734 20.8325C11.6562 16.6629 15.0977 13.2971 19.1913 10.576C23.2058 7.9085 27.577 6.05446 32.2753 5.00578C34.1719 4.58242 36.1116 4.30342 38.0465 4.10634C39.7811 3.92953 41.5401 3.85167 43.282 3.90844C49.6702 4.11445 55.7401 5.59865 61.4226 8.5695C64.7265 10.297 67.722 12.4447 70.3536 15.0749C74.2567 18.9768 77.0462 23.5438 78.4919 28.891C79.3002 31.8805 79.5794 34.9308 79.3596 38.0047C78.9526 43.6876 76.9542 48.8021 73.542 53.3634C69.8896 58.2459 65.1986 61.8461 59.6831 64.4146C56.7722 65.7699 53.7336 66.7448 50.5908 67.3847C48.3458 67.8413 46.0748 68.1495 43.781 68.1811C42.061 68.2047 40.3338 68.2322 38.6211 68.1033C34.8906 67.8227 31.248 67.0668 27.7202 65.8023C23.7463 64.3782 20.0744 62.4041 16.7582 59.7909C12.9056 56.756 9.79621 53.1047 7.60089 48.7129C6.42956 46.3706 5.58139 43.9147 5.09869 41.334C4.77147 39.5886 4.57692 37.8376 4.60541 36.6186ZM75.3873 36.0898C75.2343 34.724 75.1252 33.3525 74.9185 31.9948C74.4732 29.0767 73.4264 26.3613 71.9425 23.8171C69.0789 18.9079 65.0204 15.2249 60.0583 12.5104C54.8439 9.65792 49.2282 8.2313 43.2983 8.02448C40.569 7.92959 37.8503 8.11613 35.1609 8.60194C32.7165 9.04315 30.3323 9.70334 28.0189 10.6182C23.822 12.2776 20.0492 14.5931 16.825 17.7594C12.554 21.9533 9.77423 26.9202 8.94234 32.8983C8.58907 35.4385 8.65337 37.9649 9.13281 40.4751C9.819 44.0688 11.2508 47.3576 13.3761 50.3406C16.3822 54.5597 20.2714 57.7471 24.8802 60.0934C29.8757 62.636 35.1959 63.9086 40.7831 64.0943C43.1013 64.1713 45.4139 64.0383 47.7142 63.6953C50.5794 63.2678 53.3633 62.5525 56.0535 61.4827C61.5398 59.3002 66.243 56.0398 69.8807 51.3593C73.3646 46.8734 75.2408 41.8052 75.3873 36.0898Z" fill="white"/>
    <path d="M68.5652 48.2124C68.5652 49.1849 68.5652 50.1127 68.5652 51.077C50.8691 51.077 33.1738 51.077 15.4257 51.077C15.4257 50.1865 15.42 49.2984 15.4379 48.4103C15.4395 48.3438 15.6104 48.2303 15.7089 48.223C16.5213 48.163 16.5189 48.1678 16.7533 47.3933C17.0138 46.5328 17.389 45.7315 17.9588 45.0234C18.1574 44.7769 18.3796 44.6949 18.6938 44.6949C19.8733 44.6941 21.0536 44.6958 22.2306 44.6349C23.8602 44.5514 25.3775 43.9845 26.8996 43.4549C28.7547 42.8101 30.613 42.1718 32.5642 41.8733C36.0252 41.3429 39.1314 42.0874 41.7639 44.4703C41.9625 44.6495 42.0634 44.6447 42.2555 44.4622C43.9185 42.8879 45.925 42.0785 48.1821 41.7849C50.524 41.48 52.7299 42.0534 54.922 42.733C56.2146 43.1337 57.495 43.5765 58.7762 44.0129C60.3879 44.5619 62.0492 44.7436 63.7415 44.7185C64.2975 44.7104 64.8559 44.6747 65.4086 44.7095C65.621 44.7233 65.8823 44.8482 66.0199 45.0088C66.7223 45.8247 67.1301 46.798 67.3703 47.8345C67.4419 48.1443 67.5713 48.2392 67.8627 48.2173C68.0793 48.1986 68.2966 48.2124 68.5652 48.2124ZM17.1684 48.1719C17.3548 48.1832 17.4997 48.1986 17.6438 48.1995C19.5697 48.2011 21.4972 48.1565 23.4223 48.2108C25.7885 48.2781 28.0872 47.8572 30.3925 47.4265C32.0969 47.1086 33.8071 46.815 35.5531 46.8912C36.9027 46.9496 38.1791 47.2497 39.2999 48.0551C39.4212 48.1427 39.5978 48.193 39.7484 48.1938C41.2405 48.2027 42.7325 48.2027 44.2245 48.1913C44.3898 48.1897 44.5859 48.1484 44.7154 48.0535C45.8574 47.2189 47.1679 46.9448 48.5427 46.8904C50.4808 46.8142 52.366 47.223 54.2626 47.5344C55.7433 47.7777 57.228 48.0932 58.7192 48.154C61.3061 48.2595 63.8994 48.1938 66.4903 48.197C66.5937 48.197 66.6979 48.1719 66.8282 48.1548C66.8143 48.0218 66.8282 47.9075 66.7875 47.8166C66.4529 47.0689 66.1167 46.3211 65.7635 45.5822C65.6186 45.2797 65.3597 45.2205 65.0187 45.2391C64.221 45.2821 63.4192 45.2919 62.6207 45.2643C60.5653 45.1929 58.6305 44.596 56.7087 43.9131C54.8609 43.2562 53.0001 42.6179 51.0368 42.3745C47.6962 41.9601 44.7471 42.7614 42.3393 45.2002C42.1008 45.4419 41.9063 45.4565 41.6588 45.201C41.3398 44.8717 41.0142 44.5384 40.6462 44.2683C37.9731 42.3064 34.9866 41.8198 31.8104 42.5887C30.0115 43.0242 28.2346 43.5798 26.4918 44.2043C24.0116 45.0924 21.4793 45.416 18.8631 45.2481C18.6841 45.2367 18.4667 45.3705 18.3169 45.4963C18.1672 45.622 18.0622 45.8126 17.9661 45.9894C17.6039 46.6617 17.2661 47.3479 17.1684 48.1719ZM42.0162 50.575C42.0162 50.5742 42.0162 50.5734 42.0162 50.5726C50.3726 50.5726 58.7298 50.5726 67.0862 50.5726C68.0084 50.5726 68.0084 50.5701 68.0084 49.648C68.0084 48.7477 68.0084 48.7639 67.1196 48.7648C64.1216 48.7664 61.1237 48.7502 58.1258 48.7502C53.2964 48.7502 48.4679 48.7615 43.6385 48.7607C41.9161 48.7607 40.1937 48.7315 38.4713 48.7331C31.6338 48.7404 24.7971 48.7558 17.9596 48.7656C17.4582 48.7664 16.956 48.755 16.4554 48.7283C16.1363 48.7112 15.9719 48.7972 16.0012 49.1532C16.0264 49.4622 16.0321 49.7769 15.9995 50.0843C15.9572 50.4825 16.1086 50.5823 16.4985 50.5823C25.0047 50.5726 33.5108 50.575 42.0162 50.575ZM45.7744 48.1832C48.5924 48.1832 51.4112 48.1832 54.2293 48.1832C53.8597 48.0348 53.4804 47.9634 53.1011 47.8913C51.4633 47.5774 49.8158 47.3665 48.1431 47.4671C47.3063 47.5182 46.4972 47.6934 45.7744 48.1832ZM29.7885 48.1759C32.6106 48.1759 35.4327 48.1759 38.2539 48.1759C38.2539 48.1321 38.2539 48.0892 38.2539 48.0454C35.4294 46.8864 32.6089 47.6447 29.7885 48.1759Z" fill="white"/>
    <path d="M43.978 32.3257C44.2279 32.4311 44.4476 32.526 44.669 32.6177C46.3605 33.3176 46.8082 34.7029 46.2311 36.3866C45.7069 37.9162 44.5022 38.7589 42.9336 38.9957C41.8404 39.1603 40.7253 39.2074 39.6174 39.2358C38.1124 39.2739 36.6057 39.2496 35.0998 39.235C34.9826 39.2341 34.867 39.0979 34.7506 39.0241C34.8434 38.9146 34.9232 38.724 35.0298 38.7078C35.8348 38.5861 36.1612 38.0176 36.3493 37.3355C37.1991 34.2527 38.0367 31.1675 38.8767 28.0823C38.9052 27.9785 38.9255 27.8706 38.9329 27.7644C38.9915 26.9339 38.8971 26.813 38.0798 26.6589C37.987 26.6411 37.8763 26.6516 37.8039 26.603C37.6997 26.5332 37.624 26.4221 37.5361 26.3288C37.6411 26.2599 37.7469 26.1293 37.8511 26.1301C40.0065 26.1512 42.162 26.1561 44.3158 26.2364C45.1403 26.2672 45.9608 26.5032 46.6145 27.0523C47.7907 28.0401 47.7907 29.9258 46.6438 30.9648C45.9942 31.5536 45.203 31.8642 44.3793 32.1116C44.2759 32.1424 44.1733 32.1748 44.0716 32.2113C44.0512 32.2194 44.039 32.2503 43.978 32.3257ZM40.302 38.6461C41.2194 38.6421 42.0041 38.3379 42.5714 37.5967C43.2552 36.7037 43.5571 35.6737 43.5002 34.5625C43.4611 33.8131 43.1794 33.1375 42.3891 32.8804C41.9186 32.728 41.409 32.698 40.9182 32.6055C40.5714 32.5398 40.451 32.7134 40.3704 33.0232C40.0025 34.4312 39.6183 35.8343 39.23 37.2365C38.9264 38.3323 39.16 38.6461 40.302 38.6461ZM40.6618 32.024C41.5034 31.9761 42.2694 31.9567 42.9947 31.6793C44.5535 31.0832 44.9629 28.6387 44.3931 27.5211C44.1041 26.9541 43.4367 26.65 42.7025 26.7271C42.061 26.7944 41.9446 27.2834 41.8128 27.7782C41.5555 28.7425 41.2861 29.7028 41.0232 30.6655C40.9076 31.0905 40.7969 31.5163 40.6618 32.024Z" fill="white"/>
    <path d="M26.9648 36.2829C27.1521 36.4224 27.3116 36.5417 27.5013 36.6828C27.0373 37.3965 26.487 38.0048 25.796 38.4654C23.875 39.7453 21.8196 40.0153 19.6943 39.0729C17.8335 38.2481 16.8804 36.7533 16.8608 34.7184C16.8258 31.1904 18.3423 28.4848 21.3752 26.6867C23.1627 25.6275 25.1155 25.6283 27.0869 26.153C27.4003 26.2365 27.7194 26.3533 28.0352 26.3517C28.2746 26.3509 28.5822 26.2495 28.7345 26.0808C28.9437 25.8497 29.1333 25.7994 29.4654 25.8773C29.3734 26.3404 29.2904 26.7962 29.1927 27.2487C28.9966 28.1587 28.789 29.0663 28.5936 29.9763C28.5456 30.1993 28.4789 30.3583 28.1989 30.3161C28.0051 30.2877 27.9514 30.2326 27.9384 30.012C27.9001 29.3574 27.9164 28.6664 27.7039 28.0614C27.2367 26.7288 25.8334 26.1692 24.3813 26.6396C23.1188 27.0484 22.3121 27.986 21.6454 29.063C20.4277 31.029 19.8058 33.145 19.8506 35.4832C19.8986 37.9764 21.9198 38.9829 23.8644 38.4825C24.8802 38.2205 25.7072 37.6487 26.4146 36.8928C26.5969 36.6966 26.7736 36.4954 26.9648 36.2829Z" fill="white"/>
    <path d="M67.1424 25.8982C66.8413 27.2851 66.5474 28.6403 66.2503 29.9956C66.2104 30.1781 66.1885 30.3614 65.8987 30.3249C65.6056 30.2884 65.6187 30.1172 65.5983 29.9015C65.5373 29.2754 65.5373 28.6257 65.3533 28.0337C65.0204 26.9607 63.8067 26.3321 62.694 26.4935C61.4852 26.6695 60.5833 27.3232 59.8792 28.2567C58.3457 30.2908 57.504 32.5763 57.513 35.1384C57.5146 35.6056 57.5952 36.0784 57.6888 36.5391C58.0054 38.1044 59.7677 38.7167 60.8316 38.6024C62.252 38.4499 63.3403 37.7329 64.256 36.6948C64.663 36.2333 64.6647 36.2341 65.1531 36.7151C64.5759 37.5715 63.8564 38.2804 62.9431 38.7921C60.7364 40.0306 57.9867 39.8546 56.1862 38.3493C55.1671 37.4977 54.6168 36.3979 54.5492 35.0792C54.3694 31.5698 55.7759 28.8293 58.69 26.8852C60.2122 25.8698 61.9354 25.646 63.7237 25.9339C64.3904 26.0409 65.0399 26.2567 65.7074 26.3508C65.928 26.3816 66.2267 26.2388 66.4082 26.0815C66.698 25.8325 66.6695 25.7992 67.1424 25.8982Z" fill="white"/>
    <path d="M43.5482 14.9947C43.1217 14.6873 42.6862 14.3904 42.2727 14.0668C42.0741 13.9111 41.9284 13.9241 41.7387 14.0685C41.3 14.401 40.8491 14.7165 40.3021 15.1123C40.5023 14.4902 40.6521 13.9784 40.8336 13.4788C40.9264 13.2225 40.8955 13.0579 40.6586 12.8989C40.2036 12.5932 39.7673 12.259 39.3416 11.8592C39.8739 11.8592 40.4071 11.8462 40.9386 11.8641C41.2365 11.8738 41.4026 11.8048 41.4832 11.4804C41.6101 10.9735 41.8039 10.4828 42.0057 9.87781C42.2003 10.4715 42.385 10.9662 42.521 11.4739C42.604 11.7829 42.7611 11.8778 43.0672 11.8649C43.5898 11.8438 44.114 11.8592 44.6732 11.9452C44.2564 12.2477 43.851 12.568 43.4196 12.8478C43.125 13.0393 43.0794 13.2371 43.2047 13.5575C43.3838 14.0133 43.5084 14.4902 43.6557 14.9582C43.6207 14.9703 43.5841 14.9825 43.5482 14.9947Z" fill="white"/>
    <path d="M63.7978 19.7952C63.311 19.7952 62.8218 19.8244 62.3383 19.7862C61.95 19.7554 61.7856 19.9022 61.6887 20.2615C61.5618 20.7343 61.377 21.1926 61.1808 21.7611C60.9741 21.1293 60.7885 20.6111 60.6403 20.0831C60.576 19.8536 60.4678 19.783 60.2431 19.787C59.7075 19.7984 59.1711 19.7903 58.6347 19.7903C58.6216 19.7408 58.6086 19.6913 58.5956 19.6427C58.9839 19.3653 59.3607 19.0725 59.7628 18.817C60.0583 18.6297 60.1633 18.4431 60.0217 18.0895C59.8328 17.6191 59.7083 17.1228 59.5211 16.5275C60.0396 16.9054 60.4946 17.2047 60.9089 17.5518C61.1482 17.7513 61.307 17.7278 61.5349 17.5526C61.9492 17.2339 62.3871 16.9443 62.9211 16.5688C62.7225 17.1844 62.5923 17.6994 62.3863 18.1828C62.2585 18.4837 62.3546 18.6248 62.5784 18.7822C62.9325 19.0303 63.2744 19.2964 63.6268 19.5478C63.7082 19.6054 63.8116 19.6329 63.9044 19.6751C63.8702 19.7141 63.8336 19.7546 63.7978 19.7952Z" fill="white"/>
    <path d="M22.7818 21.6525C22.6263 21.1837 22.4537 20.7198 22.3219 20.2445C22.2291 19.9087 22.0752 19.7595 21.6992 19.7903C21.2059 19.8301 20.7069 19.8 20.1721 19.7108C20.5449 19.4351 20.9023 19.1342 21.2962 18.8925C21.6747 18.6605 21.7618 18.4059 21.5803 17.9987C21.3923 17.5754 21.2629 17.126 21.1815 16.637C21.63 16.9517 22.0907 17.2518 22.5237 17.5883C22.7427 17.7587 22.8884 17.7295 23.0878 17.5713C23.5168 17.2307 23.9637 16.9111 24.483 16.5234C24.2933 17.1471 24.1607 17.6808 23.9661 18.1901C23.857 18.4756 23.9466 18.6046 24.1655 18.7506C24.5896 19.0336 24.9999 19.3378 25.4158 19.6338C25.4093 19.6703 25.4036 19.7076 25.3971 19.7441C24.8819 19.7603 24.3666 19.7952 23.8522 19.7846C23.5567 19.7782 23.4159 19.8706 23.3385 20.1618C23.2067 20.6638 23.0292 21.1537 22.8713 21.6484C22.8412 21.65 22.8111 21.6508 22.7818 21.6525Z" fill="white"/>
    <path d="M49.7182 12.7042C50.1626 12.8348 50.6217 12.9313 51.0482 13.1065C51.4642 13.2776 51.7125 13.1941 51.9379 12.8089C52.1748 12.405 52.4744 12.0384 52.8439 11.6653C52.8439 12.1406 52.8732 12.6183 52.835 13.0903C52.7999 13.5201 52.9465 13.7278 53.3754 13.8178C53.8313 13.9135 54.2725 14.083 54.7275 14.3101C54.2261 14.4877 53.7303 14.6848 53.2208 14.8348C52.9245 14.9224 52.8463 15.0854 52.8545 15.3669C52.87 15.8722 52.8586 16.3783 52.8586 16.976C52.4996 16.5105 52.165 16.1155 51.8761 15.6897C51.7035 15.435 51.5358 15.4066 51.2656 15.5088C50.7772 15.6945 50.2758 15.8486 49.6604 16.0563C50.0365 15.5129 50.3328 15.0563 50.6616 14.6232C50.826 14.4066 50.8049 14.2485 50.6478 14.0514C50.3148 13.6329 49.9958 13.203 49.671 12.778C49.6881 12.7537 49.7035 12.7286 49.7182 12.7042Z" fill="white"/>
    <path d="M31.1447 17.0003C31.1447 16.4221 31.1219 15.9671 31.152 15.5153C31.1764 15.1495 31.139 14.9095 30.7027 14.8081C30.2216 14.6962 29.765 14.4829 29.2855 14.229C29.7267 14.0903 30.1589 13.9111 30.6099 13.8251C31.0893 13.7335 31.2179 13.4902 31.1789 13.0384C31.1406 12.5899 31.1707 12.1357 31.2676 11.6613C31.5777 12.096 31.9074 12.5177 32.1906 12.9695C32.3469 13.2185 32.5114 13.2485 32.7629 13.1674C33.2716 13.0035 33.7844 12.8551 34.3404 12.7683C34.0278 13.1868 33.7364 13.6224 33.3953 14.0165C33.178 14.2679 33.2098 14.4464 33.3913 14.6856C33.7038 15.1001 33.9904 15.534 34.3591 16.0628C33.7429 15.8535 33.2382 15.7051 32.7547 15.5088C32.4536 15.3864 32.2826 15.4618 32.1092 15.7108C31.826 16.1187 31.515 16.508 31.1447 17.0003Z" fill="white"/>
    <path d="M61.6423 46.9789C60.4531 46.6812 59.2451 46.4412 58.0786 46.0713C56.5964 45.6017 55.1491 45.0235 53.6831 44.5011C53.3648 44.3876 53.0246 44.3333 52.7145 44.2035C52.5785 44.1467 52.4939 43.9675 52.3856 43.8442C52.5435 43.7915 52.7291 43.6568 52.8553 43.6982C54.2537 44.1629 55.6456 44.6496 57.0351 45.1402C58.4775 45.6488 59.9174 46.163 61.4608 46.2814C61.5959 46.2919 61.7489 46.2514 61.8629 46.3025C62.0151 46.3698 62.1372 46.5036 62.2723 46.6082C62.1396 46.6942 62.011 46.7891 61.8718 46.8613C61.8189 46.8888 61.7383 46.8661 61.6708 46.8661C61.661 46.9034 61.6512 46.9408 61.6423 46.9789Z" fill="white"/>
    <path d="M22.3788 46.871C22.2664 46.871 22.1997 46.8913 22.1598 46.8677C22.0165 46.7818 21.8822 46.6804 21.7455 46.5855C21.8879 46.489 22.0198 46.3365 22.1753 46.3073C22.5188 46.2416 22.8769 46.2595 23.2237 46.2051C24.8533 45.9496 26.3795 45.3527 27.918 44.7907C28.9843 44.4014 30.0661 44.0542 31.1413 43.6893C31.3522 43.6179 31.5874 43.5984 31.6143 43.8717C31.6248 43.9756 31.4214 44.1597 31.2797 44.2108C29.7665 44.759 28.246 45.287 26.7279 45.8215C25.2953 46.3243 23.8472 46.7615 22.3788 46.871Z" fill="white"/>
    <path d="M35.2146 44.1661C36.3916 44.1751 37.9023 44.5206 39.2641 45.4022C39.3325 45.446 39.4269 45.4768 39.4611 45.54C39.5344 45.6771 39.5767 45.8304 39.6313 45.9772C39.4644 45.9804 39.2527 46.0518 39.138 45.9764C38.3476 45.4525 37.488 45.1142 36.565 44.9099C35.029 44.5684 33.5247 44.6747 32.0449 45.1937C31.8552 45.2602 31.6346 45.3949 31.5329 45.1102C31.4303 44.8247 31.6721 44.7436 31.8797 44.6657C32.8182 44.3121 33.7901 44.1678 35.2146 44.1661Z" fill="white"/>
    <path d="M52.5338 44.9318C52.4451 45.2862 52.288 45.3024 52.0487 45.2392C51.3967 45.068 50.7455 44.8604 50.0796 44.7801C48.2579 44.5611 46.5485 44.9228 44.9889 45.9139C44.932 45.9504 44.8766 46.0178 44.8188 46.0194C44.6756 46.0226 44.5307 45.9959 44.3866 45.9813C44.4257 45.8442 44.4224 45.6276 44.5095 45.5814C45.1998 45.2156 45.8786 44.7931 46.6153 44.5571C48.4191 43.9788 50.2449 44.025 52.0438 44.6333C52.2294 44.6958 52.3856 44.8393 52.5338 44.9318Z" fill="white"/>
  </g>
  <defs>
    <clipPath id="clip0_145_743">
      <rect width="82.5806" height="72.1009" fill="white" transform="translate(0.709717)"/>
    </clipPath>
  </defs>
</svg>