<svg width="513" height="190" viewBox="0 0 513 190" fill="none" xmlns="http://www.w3.org/2000/svg">
<rect width="513" height="190" fill="#F39221"/>
<path d="M256 155.575C290.242 155.575 318 127.688 318 93.2876C318 58.8871 290.242 31 256 31C221.758 31 194 58.8871 194 93.2876C194 127.688 221.758 155.575 256 155.575Z" fill="#108BCE"/>
<path d="M255.787 144.445C284.498 144.445 307.773 121.062 307.773 92.2174C307.773 63.373 284.498 39.99 255.787 39.99C227.076 39.99 203.801 63.373 203.801 92.2174C203.801 121.062 227.076 144.445 255.787 144.445Z" fill="#F39221"/>
<path d="M306.388 153.816L275.32 143.206L301.383 121.235L306.388 153.816Z" fill="#108BCE"/>
<path d="M301.478 147.72L271.739 134.608L293.789 116.019L301.478 147.72Z" fill="#F39221"/>
<path d="M251.952 59.8962H271.553C274.26 59.8962 276.454 62.1004 276.454 64.8193V118.331C276.454 121.523 273.878 124.11 270.701 124.11H241.299C237.887 124.11 235.12 121.331 235.12 117.903V76.8059C235.12 67.467 242.656 59.8962 251.952 59.8962Z" fill="white"/>
<path d="M251.952 59.8962H271.553C274.26 59.8962 276.454 62.1004 276.454 64.8193V118.331C276.454 121.523 273.878 124.11 270.701 124.11H241.299C237.887 124.11 235.12 121.331 235.12 117.903V76.8059C235.12 67.467 242.656 59.8962 251.952 59.8962Z" stroke="white"/>
<path d="M269.849 94.7859H240.447C239.27 94.7859 238.316 95.7442 238.316 96.9264V118.759C238.316 119.941 239.27 120.9 240.447 120.9H269.849C271.025 120.9 271.979 119.941 271.979 118.759V96.9264C271.979 95.7442 271.025 94.7859 269.849 94.7859Z" stroke="#F39221" stroke-width="2"/>
<path d="M240.021 94.7859H247.265V103.776H238.316V96.4983C238.316 95.5526 239.079 94.7859 240.021 94.7859Z" stroke="#F39221" stroke-width="2"/>
<path d="M255.787 94.7859H247.265V103.776H255.787V94.7859Z" stroke="#F39221" stroke-width="2"/>
<path d="M238.316 112.338H272.405" stroke="#F39221" stroke-width="2"/>
<path d="M247.265 120.9V112.766" stroke="#F39221" stroke-width="2"/>
<path d="M256.639 112.766V120.9" stroke="#F39221" stroke-width="2"/>
<path d="M264.309 112.766V121.328" stroke="#F39221" stroke-width="2"/>
<path d="M263.031 94.7859V99.923C263.031 102.051 261.314 103.776 259.196 103.776H255.787V94.7859H263.031Z" stroke="#F39221" stroke-width="2"/>
</svg>
