<svg width="214" height="49" viewBox="0 0 214 49" fill="none" xmlns="http://www.w3.org/2000/svg">
<path d="M16.0308 13.7494C16.0308 14.0578 16.0148 14.3237 15.9828 14.547C15.9615 14.7596 15.9241 14.9351 15.8708 15.0733C15.8175 15.2009 15.7481 15.2966 15.6628 15.3604C15.5882 15.4242 15.5028 15.4561 15.4068 15.4561H10.2232V32.0925C10.2232 32.1989 10.1859 32.2945 10.1112 32.3796C10.0472 32.4647 9.93527 32.5338 9.77526 32.587C9.61529 32.6402 9.39661 32.6827 9.11934 32.7146C8.85267 32.7465 8.51669 32.7624 8.11139 32.7624C7.70608 32.7624 7.36477 32.7465 7.08746 32.7146C6.82083 32.6827 6.60752 32.6402 6.44751 32.587C6.28754 32.5338 6.1702 32.4647 6.09555 32.3796C6.03156 32.2945 5.99954 32.1989 5.99954 32.0925V15.4561H0.815938C0.709279 15.4561 0.618621 15.4242 0.54396 15.3604C0.469299 15.2966 0.405303 15.2009 0.351974 15.0733C0.298645 14.9351 0.255981 14.7596 0.223984 14.547C0.202652 14.3237 0.191986 14.0578 0.191986 13.7494C0.191986 13.4304 0.202652 13.1593 0.223984 12.9359C0.255981 12.7127 0.298645 12.5372 0.351974 12.4096C0.405303 12.2713 0.469299 12.1756 0.54396 12.1225C0.618621 12.0587 0.709279 12.0268 0.815938 12.0268H15.4068C15.5028 12.0268 15.5882 12.0587 15.6628 12.1225C15.7481 12.1756 15.8175 12.2713 15.8708 12.4096C15.9241 12.5372 15.9615 12.7127 15.9828 12.9359C16.0148 13.1593 16.0308 13.4304 16.0308 13.7494ZM30.7497 31.0239C30.7497 31.3322 30.7337 31.5928 30.7017 31.8054C30.6804 32.0075 30.643 32.1723 30.5897 32.2999C30.5364 32.4275 30.467 32.5232 30.3817 32.587C30.3071 32.6402 30.2218 32.6667 30.1257 32.6667H19.7265C19.3745 32.6667 19.0759 32.5657 18.8306 32.3637C18.596 32.151 18.4786 31.8107 18.4786 31.3429V13.3507C18.4786 12.8828 18.596 12.5478 18.8306 12.3458C19.0759 12.1331 19.3745 12.0268 19.7265 12.0268H30.0617C30.1578 12.0268 30.2431 12.0534 30.3177 12.1065C30.3924 12.1597 30.4564 12.2554 30.5097 12.3936C30.5631 12.5212 30.6004 12.6914 30.6217 12.9041C30.6537 13.1061 30.6697 13.3666 30.6697 13.6856C30.6697 13.9834 30.6537 14.2386 30.6217 14.4513C30.6004 14.6533 30.5631 14.8181 30.5097 14.9457C30.4564 15.0733 30.3924 15.169 30.3177 15.2328C30.2431 15.286 30.1578 15.3126 30.0617 15.3126H22.6703V20.3529H28.9258C29.0218 20.3529 29.1071 20.3848 29.1818 20.4487C29.2671 20.5018 29.3365 20.5922 29.3898 20.7198C29.4431 20.8368 29.4805 21.0016 29.5018 21.2143C29.5338 21.4163 29.5498 21.6662 29.5498 21.964C29.5498 22.2723 29.5338 22.5275 29.5018 22.7296C29.4805 22.9316 29.4431 23.0964 29.3898 23.224C29.3365 23.341 29.2671 23.4261 29.1818 23.4792C29.1071 23.5324 29.0218 23.559 28.9258 23.559H22.6703V29.381H30.1257C30.2218 29.381 30.3071 29.4128 30.3817 29.4766C30.467 29.5298 30.5364 29.6202 30.5897 29.7478C30.643 29.8754 30.6804 30.0456 30.7017 30.2582C30.7337 30.4602 30.7497 30.7155 30.7497 31.0239ZM45.8527 30.9122C45.8527 31.2312 45.8366 31.5023 45.8045 31.7257C45.7834 31.9383 45.7458 32.1191 45.6926 32.268C45.6393 32.4062 45.5701 32.5072 45.4847 32.5711C45.41 32.6348 45.3192 32.6667 45.2127 32.6667H35.7254C35.3735 32.6667 35.0748 32.5657 34.8294 32.3637C34.5946 32.151 34.4776 31.8107 34.4776 31.3429V12.601C34.4776 12.4947 34.5093 12.399 34.5735 12.3139C34.6482 12.2288 34.7653 12.1597 34.9253 12.1065C35.0854 12.0534 35.2987 12.0108 35.5653 11.9789C35.8428 11.947 36.1841 11.9311 36.5892 11.9311C37.0053 11.9311 37.3466 11.947 37.6131 11.9789C37.8797 12.0108 38.093 12.0534 38.2531 12.1065C38.4132 12.1597 38.5251 12.2288 38.5889 12.3139C38.6637 12.399 38.7012 12.4947 38.7012 12.601V29.2055H45.2127C45.3192 29.2055 45.41 29.2374 45.4847 29.3012C45.5701 29.3543 45.6393 29.4501 45.6926 29.5883C45.7458 29.7159 45.7834 29.8914 45.8045 30.1147C45.8366 30.3273 45.8527 30.5932 45.8527 30.9122ZM82.8736 26.4779C82.8736 27.5626 82.6712 28.5143 82.2658 29.3331C81.8606 30.1519 81.3111 30.8378 80.6179 31.3907C79.9247 31.933 79.1141 32.3424 78.1861 32.6189C77.2581 32.8954 76.2663 33.0336 75.2103 33.0336C74.4959 33.0336 73.829 32.9751 73.2105 32.8582C72.6027 32.7412 72.0641 32.6029 71.5948 32.4435C71.1255 32.2733 70.7306 32.0978 70.4108 31.9171C70.1016 31.7363 69.8773 31.5768 69.7387 31.4385C69.6002 31.3003 69.4988 31.1036 69.435 30.8484C69.3814 30.5825 69.3548 30.205 69.3548 29.7159C69.3548 29.3863 69.3654 29.1098 69.3869 28.8865C69.408 28.6632 69.4401 28.4824 69.4828 28.3442C69.536 28.2059 69.6002 28.1102 69.6749 28.057C69.7602 27.9932 69.8562 27.9614 69.9626 27.9614C70.1121 27.9614 70.32 28.0517 70.5866 28.2325C70.864 28.4027 71.2159 28.594 71.6426 28.8067C72.0692 29.0194 72.576 29.2161 73.1624 29.3969C73.7597 29.567 74.4478 29.6521 75.2263 29.6521C75.7383 29.6521 76.197 29.5936 76.6024 29.4766C77.0076 29.349 77.3489 29.1736 77.6264 28.9503C77.9141 28.727 78.1329 28.4505 78.282 28.1208C78.4315 27.7912 78.5063 27.4244 78.5063 27.0202C78.5063 26.5524 78.3783 26.1536 78.1223 25.824C77.8663 25.4837 77.5301 25.1859 77.1144 24.9307C76.7089 24.6649 76.2451 24.4203 75.7222 24.197C75.1997 23.9631 74.6611 23.7185 74.1065 23.4633C73.5518 23.2081 73.0133 22.921 72.4907 22.602C71.9678 22.2723 71.4985 21.8842 71.0828 21.4376C70.6773 20.9803 70.3466 20.4433 70.0906 19.8266C69.8346 19.2098 69.7067 18.4708 69.7067 17.6095C69.7067 16.6205 69.8882 15.7539 70.2507 15.0095C70.6241 14.2545 71.12 13.6325 71.7388 13.1433C72.3678 12.6435 73.104 12.2713 73.9464 12.0268C74.7997 11.7822 75.701 11.6599 76.6502 11.6599C77.141 11.6599 77.6315 11.6971 78.1223 11.7716C78.6127 11.846 79.0715 11.947 79.4981 12.0746C79.9247 12.2022 80.3032 12.3458 80.634 12.5053C80.9647 12.6648 81.1831 12.7977 81.29 12.9041C81.3965 13.0104 81.4661 13.1008 81.4978 13.1752C81.5405 13.2496 81.5726 13.3507 81.5937 13.4783C81.6258 13.5952 81.6473 13.7494 81.6579 13.9409C81.6685 14.1216 81.6739 14.3502 81.6739 14.6267C81.6739 14.9351 81.6634 15.1956 81.6419 15.4083C81.6313 15.6209 81.6047 15.7964 81.562 15.9346C81.5299 16.0729 81.4767 16.1739 81.4019 16.2377C81.3377 16.3015 81.2473 16.3334 81.1299 16.3334C81.0125 16.3334 80.8258 16.259 80.5698 16.1101C80.3138 15.9612 79.9995 15.8017 79.6261 15.6316C79.2527 15.4508 78.8209 15.2913 78.3301 15.1531C77.8393 15.0042 77.3008 14.9298 76.7144 14.9298C76.2557 14.9298 75.8557 14.9883 75.5144 15.1052C75.173 15.2116 74.885 15.3657 74.6505 15.5678C74.4263 15.7592 74.2556 15.9931 74.1385 16.2696C74.0317 16.5461 73.9785 16.8385 73.9785 17.1469C73.9785 17.6041 74.101 18.0029 74.3464 18.3432C74.6024 18.6728 74.9382 18.9706 75.3543 19.2364C75.7809 19.4916 76.2611 19.7362 76.7943 19.9701C77.3274 20.1935 77.8714 20.4327 78.4261 20.6879C78.9807 20.9431 79.5247 21.2355 80.0578 21.5652C80.5913 21.8842 81.0661 22.2723 81.4818 22.7296C81.8978 23.1762 82.234 23.7079 82.49 24.3246C82.746 24.9307 82.8736 25.6485 82.8736 26.4779ZM100.28 24.8669C100.28 26.0792 100.121 27.1851 99.8005 28.1846C99.4807 29.1842 98.9953 30.0456 98.3448 30.7686C97.6939 31.4917 96.8782 32.05 95.8969 32.4435C94.9157 32.8369 93.7689 33.0336 92.4572 33.0336C91.1879 33.0336 90.0841 32.8582 89.1455 32.5072C88.2069 32.1563 87.428 31.6459 86.8096 30.976C86.1908 30.3061 85.7324 29.482 85.4334 28.5037C85.1351 27.5254 84.9856 26.4088 84.9856 25.1541C84.9856 23.9418 85.1457 22.8359 85.4655 21.8364C85.7963 20.8261 86.2867 19.9648 86.9376 19.2524C87.5881 18.5293 88.3987 17.971 89.3694 17.5775C90.3507 17.1841 91.4971 16.9874 92.8091 16.9874C94.089 16.9874 95.1983 17.1628 96.1369 17.5138C97.0755 17.854 97.8489 18.3591 98.4567 19.0291C99.0752 19.699 99.5339 20.5231 99.8325 21.5014C100.131 22.4797 100.28 23.6015 100.28 24.8669ZM96.1369 25.0265C96.1369 24.3246 96.0782 23.6813 95.9607 23.0964C95.8543 22.5009 95.6676 21.9852 95.401 21.5492C95.1341 21.1133 94.7771 20.773 94.3289 20.5284C93.8917 20.2838 93.3371 20.1615 92.6651 20.1615C92.0678 20.1615 91.5452 20.2732 91.0971 20.4965C90.6493 20.7092 90.2814 21.0282 89.9933 21.4535C89.7053 21.8682 89.4868 22.3733 89.3373 22.9688C89.1988 23.5537 89.1295 24.2236 89.1295 24.9786C89.1295 25.6804 89.1878 26.3291 89.3052 26.9246C89.4227 27.5094 89.6093 28.0198 89.8653 28.4558C90.1319 28.8918 90.4892 29.2321 90.9374 29.4766C91.3852 29.7106 91.9398 29.8275 92.6009 29.8275C93.2091 29.8275 93.7371 29.7212 94.1849 29.5086C94.6331 29.2852 95.001 28.9662 95.289 28.5515C95.5768 28.1368 95.7901 27.637 95.9287 27.0522C96.0676 26.4567 96.1369 25.7814 96.1369 25.0265ZM107.512 32.1244C107.512 32.2308 107.48 32.3265 107.416 32.4115C107.352 32.486 107.24 32.5498 107.08 32.6029C106.931 32.6561 106.728 32.6933 106.472 32.7146C106.216 32.7465 105.891 32.7624 105.496 32.7624C105.102 32.7624 104.776 32.7465 104.52 32.7146C104.264 32.6933 104.056 32.6561 103.896 32.6029C103.747 32.5498 103.64 32.486 103.576 32.4115C103.512 32.3265 103.48 32.2308 103.48 32.1244V11.1495C103.48 11.0431 103.512 10.9475 103.576 10.8624C103.64 10.7773 103.747 10.7082 103.896 10.655C104.056 10.5912 104.264 10.5434 104.52 10.5115C104.776 10.4796 105.102 10.4636 105.496 10.4636C105.891 10.4636 106.216 10.4796 106.472 10.5115C106.728 10.5434 106.931 10.5912 107.08 10.655C107.24 10.7082 107.352 10.7773 107.416 10.8624C107.48 10.9475 107.512 11.0431 107.512 11.1495V32.1244ZM125.079 32.1244C125.079 32.2308 125.052 32.3265 124.999 32.4115C124.945 32.486 124.849 32.5498 124.711 32.6029C124.583 32.6561 124.407 32.6933 124.183 32.7146C123.969 32.7465 123.697 32.7624 123.367 32.7624C123.015 32.7624 122.727 32.7465 122.503 32.7146C122.29 32.6933 122.119 32.6561 121.991 32.6029C121.863 32.5498 121.772 32.486 121.719 32.4115C121.666 32.3265 121.639 32.2308 121.639 32.1244V30.4815C120.85 31.3322 120.044 31.9702 119.223 32.3956C118.413 32.8209 117.57 33.0336 116.695 33.0336C115.714 33.0336 114.887 32.8741 114.216 32.5551C113.554 32.2361 113.016 31.8001 112.6 31.2471C112.194 30.6942 111.901 30.0562 111.72 29.3331C111.549 28.5994 111.464 27.6902 111.464 26.6055V17.8966C111.464 17.7902 111.49 17.6998 111.543 17.6254C111.608 17.5403 111.714 17.4712 111.864 17.418C112.024 17.3649 112.232 17.3277 112.488 17.3064C112.754 17.2745 113.079 17.2586 113.464 17.2586C113.858 17.2586 114.184 17.2745 114.439 17.3064C114.695 17.3277 114.898 17.3649 115.047 17.418C115.207 17.4712 115.319 17.5403 115.383 17.6254C115.447 17.6998 115.479 17.7902 115.479 17.8966V25.9356C115.479 26.68 115.527 27.2489 115.623 27.6423C115.719 28.0358 115.863 28.376 116.055 28.6632C116.258 28.9396 116.508 29.1576 116.807 29.3171C117.117 29.466 117.474 29.5404 117.879 29.5404C118.391 29.5404 118.903 29.3543 119.415 28.9822C119.938 28.61 120.492 28.0677 121.079 27.3552V17.8966C121.079 17.7902 121.106 17.6998 121.159 17.6254C121.223 17.5403 121.329 17.4712 121.479 17.418C121.639 17.3649 121.847 17.3277 122.103 17.3064C122.359 17.2745 122.684 17.2586 123.079 17.2586C123.474 17.2586 123.799 17.2745 124.055 17.3064C124.311 17.3277 124.513 17.3649 124.663 17.418C124.812 17.4712 124.919 17.5403 124.983 17.6254C125.047 17.6998 125.079 17.7902 125.079 17.8966V32.1244ZM139.942 29.8595C139.942 30.1359 139.931 30.3699 139.91 30.5613C139.899 30.7421 139.878 30.8962 139.845 31.0239C139.824 31.1515 139.792 31.2578 139.75 31.3429C139.717 31.4173 139.638 31.5183 139.51 31.6459C139.382 31.7629 139.163 31.9117 138.854 32.0925C138.544 32.2627 138.192 32.4168 137.798 32.5551C137.403 32.6933 136.971 32.805 136.502 32.89C136.043 32.9751 135.568 33.0176 135.078 33.0176C133.979 33.0176 133.004 32.8475 132.15 32.5072C131.308 32.1669 130.598 31.6672 130.022 31.0079C129.446 30.338 129.009 29.5245 128.71 28.5675C128.423 27.6104 128.278 26.5152 128.278 25.2817C128.278 23.8568 128.454 22.6286 128.807 21.5971C129.169 20.555 129.67 19.6937 130.31 19.0131C130.95 18.3325 131.708 17.8274 132.582 17.4978C133.457 17.1682 134.417 17.0034 135.462 17.0034C135.889 17.0034 136.304 17.0405 136.71 17.115C137.126 17.1894 137.51 17.2904 137.862 17.418C138.224 17.5457 138.544 17.6892 138.822 17.8487C139.11 18.0082 139.312 18.1464 139.43 18.2634C139.547 18.3804 139.627 18.4814 139.67 18.5665C139.723 18.6409 139.76 18.7419 139.782 18.8695C139.814 18.9971 139.835 19.1567 139.845 19.3481C139.867 19.5288 139.878 19.7522 139.878 20.018C139.878 20.6347 139.824 21.0707 139.717 21.3259C139.611 21.5705 139.472 21.6928 139.302 21.6928C139.12 21.6928 138.928 21.6183 138.726 21.4695C138.523 21.3206 138.283 21.1558 138.006 20.975C137.728 20.7943 137.398 20.6294 137.014 20.4805C136.63 20.3317 136.171 20.2572 135.638 20.2572C134.593 20.2572 133.793 20.6613 133.238 21.4695C132.683 22.267 132.406 23.442 132.406 24.9945C132.406 25.7602 132.476 26.4354 132.614 27.0202C132.753 27.6051 132.955 28.0943 133.222 28.4877C133.499 28.8812 133.841 29.1789 134.246 29.381C134.662 29.5723 135.142 29.668 135.686 29.668C136.241 29.668 136.715 29.5883 137.11 29.4288C137.515 29.2587 137.867 29.0726 138.166 28.8705C138.464 28.6685 138.715 28.4877 138.918 28.3282C139.12 28.1581 139.291 28.073 139.43 28.073C139.526 28.073 139.605 28.0996 139.67 28.1528C139.733 28.2059 139.782 28.3069 139.814 28.4558C139.856 28.594 139.888 28.7748 139.91 28.9981C139.931 29.2214 139.942 29.5086 139.942 29.8595ZM146.901 32.1244C146.901 32.2308 146.869 32.3265 146.805 32.4115C146.741 32.486 146.629 32.5498 146.469 32.6029C146.32 32.6561 146.117 32.6933 145.861 32.7146C145.605 32.7465 145.28 32.7624 144.885 32.7624C144.491 32.7624 144.165 32.7465 143.909 32.7146C143.653 32.6933 143.445 32.6561 143.285 32.6029C143.136 32.5498 143.029 32.486 142.965 32.4115C142.901 32.3265 142.869 32.2308 142.869 32.1244V17.9285C142.869 17.8221 142.901 17.7318 142.965 17.6573C143.029 17.5722 143.136 17.5031 143.285 17.4499C143.445 17.3862 143.653 17.3383 143.909 17.3064C144.165 17.2745 144.491 17.2586 144.885 17.2586C145.28 17.2586 145.605 17.2745 145.861 17.3064C146.117 17.3383 146.32 17.3862 146.469 17.4499C146.629 17.5031 146.741 17.5722 146.805 17.6573C146.869 17.7318 146.901 17.8221 146.901 17.9285V32.1244ZM147.205 13.0795C147.205 13.8877 147.04 14.4459 146.709 14.7543C146.378 15.0627 145.765 15.2169 144.869 15.2169C143.963 15.2169 143.349 15.068 143.029 14.7702C142.72 14.4725 142.565 13.9355 142.565 13.1593C142.565 12.3511 142.725 11.7928 143.045 11.4845C143.376 11.1654 143.995 11.006 144.901 11.006C145.797 11.006 146.405 11.1601 146.725 11.4685C147.045 11.7662 147.205 12.3032 147.205 13.0795ZM165.364 24.8669C165.364 26.0792 165.204 27.1851 164.884 28.1846C164.564 29.1842 164.078 30.0456 163.428 30.7686C162.777 31.4917 161.961 32.05 160.98 32.4435C159.999 32.8369 158.852 33.0336 157.54 33.0336C156.271 33.0336 155.167 32.8582 154.228 32.5072C153.29 32.1563 152.511 31.6459 151.893 30.976C151.274 30.3061 150.815 29.482 150.517 28.5037C150.218 27.5254 150.069 26.4088 150.069 25.1541C150.069 23.9418 150.229 22.8359 150.549 21.8364C150.879 20.8261 151.37 19.9648 152.021 19.2524C152.671 18.5293 153.482 17.971 154.452 17.5775C155.434 17.1841 156.58 16.9874 157.892 16.9874C159.172 16.9874 160.281 17.1628 161.22 17.5138C162.158 17.854 162.932 18.3591 163.54 19.0291C164.158 19.699 164.617 20.5231 164.916 21.5014C165.214 22.4797 165.364 23.6015 165.364 24.8669ZM161.22 25.0265C161.22 24.3246 161.161 23.6813 161.044 23.0964C160.937 22.5009 160.751 21.9852 160.484 21.5492C160.217 21.1133 159.86 20.773 159.412 20.5284C158.975 20.2838 158.42 20.1615 157.748 20.1615C157.151 20.1615 156.628 20.2732 156.18 20.4965C155.732 20.7092 155.364 21.0282 155.076 21.4535C154.789 21.8682 154.57 22.3733 154.421 22.9688C154.282 23.5537 154.212 24.2236 154.212 24.9786C154.212 25.6804 154.271 26.3291 154.389 26.9246C154.506 27.5094 154.692 28.0198 154.948 28.4558C155.215 28.8918 155.572 29.2321 156.02 29.4766C156.468 29.7106 157.023 29.8275 157.684 29.8275C158.292 29.8275 158.82 29.7212 159.268 29.5086C159.716 29.2852 160.084 28.9662 160.372 28.5515C160.66 28.1368 160.873 27.637 161.012 27.0522C161.151 26.4567 161.22 25.7814 161.22 25.0265ZM182.194 32.1244C182.194 32.2308 182.162 32.3265 182.098 32.4115C182.034 32.486 181.928 32.5498 181.778 32.6029C181.629 32.6561 181.421 32.6933 181.155 32.7146C180.899 32.7465 180.578 32.7624 180.194 32.7624C179.8 32.7624 179.469 32.7465 179.203 32.7146C178.947 32.6933 178.744 32.6561 178.595 32.6029C178.445 32.5498 178.339 32.486 178.275 32.4115C178.211 32.3265 178.179 32.2308 178.179 32.1244V24.0056C178.179 23.3144 178.125 22.7721 178.019 22.3787C177.923 21.9852 177.779 21.6503 177.587 21.3738C177.395 21.0867 177.144 20.8687 176.835 20.7198C176.536 20.5603 176.184 20.4805 175.779 20.4805C175.267 20.4805 174.75 20.6666 174.227 21.0388C173.705 21.411 173.16 21.9533 172.595 22.6658V32.1244C172.595 32.2308 172.563 32.3265 172.499 32.4115C172.435 32.486 172.323 32.5498 172.163 32.6029C172.014 32.6561 171.811 32.6933 171.555 32.7146C171.299 32.7465 170.974 32.7624 170.579 32.7624C170.185 32.7624 169.859 32.7465 169.603 32.7146C169.347 32.6933 169.139 32.6561 168.979 32.6029C168.83 32.5498 168.723 32.486 168.659 32.4115C168.595 32.3265 168.563 32.2308 168.563 32.1244V17.8966C168.563 17.7902 168.59 17.6998 168.643 17.6254C168.697 17.5403 168.793 17.4712 168.931 17.418C169.07 17.3649 169.246 17.3277 169.459 17.3064C169.683 17.2745 169.961 17.2586 170.291 17.2586C170.633 17.2586 170.915 17.2745 171.139 17.3064C171.363 17.3277 171.534 17.3649 171.651 17.418C171.779 17.4712 171.87 17.5403 171.923 17.6254C171.976 17.6998 172.003 17.7902 172.003 17.8966V19.5395C172.793 18.6888 173.592 18.0508 174.403 17.6254C175.224 17.2001 176.078 16.9874 176.963 16.9874C177.933 16.9874 178.749 17.1469 179.411 17.4659C180.083 17.7849 180.621 18.2209 181.027 18.7739C181.442 19.3162 181.741 19.9542 181.923 20.6879C182.104 21.4216 182.194 22.3042 182.194 23.3357V32.1244ZM199.345 24.5958C199.345 25.0849 199.233 25.4465 199.009 25.6804C198.796 25.9143 198.497 26.0313 198.113 26.0313H189.426C189.426 26.6374 189.495 27.1904 189.634 27.6902C189.783 28.1793 190.013 28.5994 190.322 28.9503C190.642 29.2905 191.047 29.5511 191.538 29.7319C192.039 29.9126 192.636 30.003 193.33 30.003C194.033 30.003 194.652 29.9551 195.185 29.8595C195.719 29.7531 196.177 29.6415 196.561 29.5245C196.956 29.3969 197.281 29.2852 197.537 29.1895C197.793 29.0832 198.001 29.03 198.161 29.03C198.257 29.03 198.337 29.0513 198.401 29.0938C198.465 29.1257 198.519 29.1895 198.561 29.2852C198.604 29.381 198.631 29.5192 198.641 29.6999C198.662 29.8701 198.673 30.0881 198.673 30.3539C198.673 30.5879 198.668 30.7899 198.657 30.96C198.647 31.1195 198.631 31.2578 198.609 31.3747C198.588 31.4917 198.556 31.5928 198.513 31.6778C198.47 31.7523 198.412 31.8267 198.337 31.9011C198.273 31.9756 198.087 32.0766 197.777 32.2042C197.468 32.3318 197.073 32.4594 196.593 32.587C196.113 32.704 195.564 32.805 194.945 32.89C194.327 32.9858 193.666 33.0336 192.961 33.0336C191.692 33.0336 190.578 32.8741 189.618 32.5551C188.668 32.2361 187.874 31.7522 187.234 31.1036C186.594 30.4549 186.114 29.6362 185.794 28.6472C185.485 27.6583 185.33 26.4992 185.33 25.17C185.33 23.9046 185.495 22.7668 185.826 21.7566C186.157 20.7358 186.637 19.8744 187.266 19.1726C187.895 18.4602 188.658 17.9178 189.554 17.5457C190.46 17.1735 191.479 16.9874 192.61 16.9874C193.804 16.9874 194.823 17.1628 195.665 17.5138C196.519 17.8647 197.217 18.3538 197.761 18.9812C198.305 19.598 198.705 20.3317 198.961 21.1824C199.217 22.0331 199.345 22.9582 199.345 23.9577V24.5958ZM195.441 23.4473C195.473 22.3202 195.244 21.4376 194.753 20.7996C194.273 20.1509 193.527 19.8266 192.514 19.8266C192.002 19.8266 191.554 19.9223 191.17 20.1137C190.797 20.3051 190.482 20.5656 190.226 20.8952C189.98 21.2143 189.788 21.5971 189.65 22.0437C189.522 22.4797 189.447 22.9476 189.426 23.4473H195.441ZM212.72 28.1049C212.72 28.9131 212.565 29.6255 212.256 30.2423C211.958 30.859 211.531 31.3747 210.976 31.7895C210.422 32.2042 209.766 32.5126 209.008 32.7146C208.251 32.9273 207.43 33.0336 206.544 33.0336C206.011 33.0336 205.499 32.9911 205.009 32.906C204.529 32.8316 204.097 32.7359 203.713 32.6189C203.329 32.4913 203.009 32.3637 202.753 32.2361C202.497 32.1085 202.31 31.9915 202.193 31.8852C202.075 31.7682 201.985 31.5928 201.921 31.3588C201.857 31.1142 201.825 30.758 201.825 30.2901C201.825 29.9818 201.835 29.7372 201.857 29.5564C201.878 29.365 201.91 29.2161 201.953 29.1098C201.996 28.9928 202.049 28.9184 202.113 28.8865C202.177 28.8439 202.257 28.8227 202.353 28.8227C202.47 28.8227 202.641 28.8918 202.865 29.03C203.099 29.1576 203.387 29.3012 203.729 29.4607C204.07 29.6202 204.465 29.7691 204.913 29.9073C205.371 30.0456 205.888 30.1147 206.465 30.1147C206.827 30.1147 207.147 30.0774 207.424 30.003C207.712 29.9286 207.958 29.8222 208.161 29.684C208.374 29.5458 208.534 29.3703 208.64 29.1576C208.747 28.945 208.801 28.7004 208.801 28.4239C208.801 28.1049 208.699 27.8337 208.496 27.6104C208.304 27.3765 208.043 27.1745 207.712 27.0043C207.393 26.8342 207.024 26.6747 206.609 26.5258C206.203 26.3769 205.782 26.2121 205.345 26.0313C204.918 25.8506 204.497 25.6432 204.081 25.4093C203.675 25.1753 203.308 24.8882 202.977 24.5479C202.657 24.2076 202.396 23.7983 202.193 23.3197C202.001 22.8412 201.905 22.267 201.905 21.5971C201.905 20.9165 202.038 20.2945 202.305 19.7309C202.572 19.1567 202.956 18.6675 203.457 18.2634C203.958 17.8594 204.566 17.5457 205.281 17.3223C206.006 17.099 206.816 16.9874 207.712 16.9874C208.161 16.9874 208.592 17.0193 209.008 17.0831C209.435 17.1469 209.819 17.2266 210.16 17.3223C210.502 17.418 210.79 17.5244 211.024 17.6414C211.259 17.7477 211.424 17.8434 211.52 17.9285C211.627 18.0029 211.702 18.0826 211.744 18.1677C211.787 18.2422 211.819 18.3379 211.84 18.4548C211.861 18.5612 211.877 18.6994 211.888 18.8695C211.91 19.0291 211.92 19.2311 211.92 19.4757C211.92 19.7628 211.91 19.9967 211.888 20.1775C211.877 20.3583 211.851 20.5018 211.808 20.6082C211.776 20.7145 211.728 20.7889 211.664 20.8315C211.6 20.8634 211.526 20.8793 211.44 20.8793C211.344 20.8793 211.195 20.8261 210.992 20.7198C210.79 20.6028 210.534 20.4805 210.224 20.3529C209.925 20.2253 209.574 20.1084 209.168 20.002C208.774 19.8851 208.32 19.8266 207.808 19.8266C207.446 19.8266 207.131 19.8638 206.865 19.9382C206.598 20.0127 206.379 20.119 206.209 20.2572C206.038 20.3955 205.91 20.5603 205.825 20.7517C205.739 20.9325 205.697 21.1292 205.697 21.3419C205.697 21.6715 205.798 21.948 206 22.1713C206.203 22.3946 206.47 22.5913 206.8 22.7615C207.131 22.9316 207.505 23.0911 207.921 23.24C208.347 23.3889 208.774 23.5537 209.201 23.7345C209.638 23.9046 210.064 24.1067 210.48 24.3406C210.907 24.5745 211.286 24.8616 211.616 25.2019C211.947 25.5422 212.214 25.9516 212.416 26.4301C212.619 26.898 212.72 27.4562 212.72 28.1049Z" fill="white"/>
<path d="M64.7035 22.3377L56.8776 15.3125L49.8311 23.1148L57.657 30.14L64.7035 22.3377Z" fill="#108BCE"/>
<path d="M63.534 22.5016L57.0417 16.6736L51.1961 23.1463L57.6884 28.9743L63.534 22.5016Z" fill="#F39221"/>
</svg>
