<?xml version="1.0" encoding="UTF-8"?>
<!DOCTYPE svg PUBLIC "-//W3C//DTD SVG 1.1//EN" "http://www.w3.org/Graphics/SVG/1.1/DTD/svg11.dtd">
<svg xmlns="http://www.w3.org/2000/svg" version="1.1" width="200px" height="200px" style="shape-rendering:geometricPrecision; text-rendering:geometricPrecision; image-rendering:optimizeQuality; fill-rule:evenodd; clip-rule:evenodd" xmlns:xlink="http://www.w3.org/1999/xlink">
<g><path style="opacity:1" fill="#fdfefd" d="M -0.5,-0.5 C 30.1667,-0.5 60.8333,-0.5 91.5,-0.5C 83.0988,1.29314 74.4321,3.12647 65.5,5C 64.7476,5.67076 64.4142,6.5041 64.5,7.5C 56.7642,10.8666 49.0976,14.5332 41.5,18.5C 41.5,19.5 41.5,20.5 41.5,21.5C 38.5093,22.0971 35.8426,23.4305 33.5,25.5C 32.7542,26.7362 32.4208,28.0695 32.5,29.5C 29.9963,30.6392 27.3297,31.3059 24.5,31.5C 23.3505,36.0508 21.6839,40.3841 19.5,44.5C 18.5,44.5 17.5,44.5 16.5,44.5C 16.762,45.9778 16.4287,47.3112 15.5,48.5C 12.7223,50.646 10.5556,53.3127 9,56.5C 7.16579,63.5011 5.33246,70.5011 3.5,77.5C 2.54163,77.9528 1.7083,78.6195 1,79.5C 0.721579,78.5842 0.221579,77.9175 -0.5,77.5C -0.5,51.5 -0.5,25.5 -0.5,-0.5 Z"/></g>
<g><path style="opacity:1" fill="#fdfefd" d="M 91.5,-0.5 C 127.5,-0.5 163.5,-0.5 199.5,-0.5C 199.5,62.5 199.5,125.5 199.5,188.5C 198.222,188.782 197.222,189.449 196.5,190.5C 195.87,187.418 194.87,184.418 193.5,181.5C 192.943,179.668 191.943,178.335 190.5,177.5C 190.5,177.167 190.5,176.833 190.5,176.5C 190.055,171.663 188.888,166.996 187,162.5C 186.102,159.931 184.935,157.598 183.5,155.5C 182.596,154.791 182.263,153.791 182.5,152.5C 182.62,150.266 182.287,148.099 181.5,146C 182.985,143.844 184.485,141.677 186,139.5C 186.497,137.19 186.663,134.857 186.5,132.5C 190.196,127.118 192.696,121.118 194,114.5C 194.75,113.874 195.584,113.374 196.5,113C 194.893,101.706 193.726,90.2056 193,78.5C 189.836,68.6922 186.669,58.8588 183.5,49C 184.336,47.7567 184.003,46.5901 182.5,45.5C 180.939,46.3473 179.439,46.0139 178,44.5C 176.09,41.1792 174.59,37.6792 173.5,34C 173.833,33.6667 174.167,33.3333 174.5,33C 172.29,31.4912 170.457,29.6579 169,27.5C 168.439,28.0219 167.772,28.3552 167,28.5C 165.125,26.8215 162.958,25.8215 160.5,25.5C 156.692,23.4271 153.026,21.0938 149.5,18.5C 149.5,18.1667 149.5,17.8333 149.5,17.5C 149.67,16.1779 149.337,15.0113 148.5,14C 139.497,9.05014 129.831,6.21681 119.5,5.5C 119.167,5.5 118.833,5.5 118.5,5.5C 117.828,3.33212 116.328,1.99879 114,1.5C 109.369,2.31433 104.703,2.31433 100,1.5C 87.7878,2.08306 75.9545,4.08306 64.5,7.5C 64.4142,6.5041 64.7476,5.67076 65.5,5C 74.4321,3.12647 83.0988,1.29314 91.5,-0.5 Z"/></g>
<g><path style="opacity:1" fill="#158ac9" d="M 83.5,4.5 C 84.8333,4.5 86.1667,4.5 87.5,4.5C 95.8578,4.37856 104.191,4.71189 112.5,5.5C 112.281,6.67504 112.614,7.67504 113.5,8.5C 115.173,6.91374 117.173,6.24707 119.5,6.5C 123.595,6.80762 127.595,7.64095 131.5,9C 137.653,11.6904 143.653,14.5238 149.5,17.5C 149.5,17.8333 149.5,18.1667 149.5,18.5C 149.351,19.552 149.517,20.552 150,21.5C 153.717,24.1828 157.551,26.6828 161.5,29C 163.827,31.1417 165.493,33.6417 166.5,36.5C 167.833,36.5 169.167,36.5 170.5,36.5C 173.883,40.5526 176.883,44.8859 179.5,49.5C 181.762,54.7769 183.762,60.2769 185.5,66C 185.836,67.0299 186.503,67.5299 187.5,67.5C 187.5,67.8333 187.5,68.1667 187.5,68.5C 191.225,81.0807 192.225,93.7473 190.5,106.5C 190.664,103.813 190.497,101.146 190,98.5C 188.157,96.7385 186.824,94.0719 186,90.5C 185.216,93.7603 185.383,96.9269 186.5,100C 181.974,102.415 181.474,104.581 185,106.5C 185.821,109.554 185.655,112.554 184.5,115.5C 183.065,116.824 182.065,118.49 181.5,120.5C 180.094,121.668 178.928,121.335 178,119.5C 177.768,120.737 177.268,121.737 176.5,122.5C 177.167,118.833 177.833,115.167 178.5,111.5C 180.968,96.7086 179.468,82.3752 174,68.5C 173.623,67.0577 172.79,66.0577 171.5,65.5C 171.167,64.1667 170.833,62.8333 170.5,61.5C 167.792,55.7535 164.792,50.0868 161.5,44.5C 160.311,43.5713 158.978,43.238 157.5,43.5C 155.761,40.7573 153.427,38.7573 150.5,37.5C 150.027,36.0937 149.027,35.427 147.5,35.5C 147.5,33.5 146.5,32.5 144.5,32.5C 143.972,31.2794 143.305,30.1127 142.5,29C 138.057,26.466 133.39,24.6326 128.5,23.5C 125.761,20.9758 122.428,19.9758 118.5,20.5C 118.082,19.7784 117.416,19.2784 116.5,19C 113.854,18.5026 111.187,18.3359 108.5,18.5C 108.167,18.5 107.833,18.5 107.5,18.5C 99.3437,17.3434 91.0104,17.1768 82.5,18C 78.9406,18.8521 75.6073,20.0188 72.5,21.5C 66.4139,22.3815 60.7473,24.5482 55.5,28C 52.7063,29.5355 50.7063,31.7022 49.5,34.5C 43.8771,37.4562 39.5437,41.7895 36.5,47.5C 33.0789,48.9726 31.0789,51.6393 30.5,55.5C 30.1667,56.1667 29.8333,56.8333 29.5,57.5C 27.9826,57.5106 26.8159,58.1772 26,59.5C 23.7397,65.4459 21.5731,71.4459 19.5,77.5C 18.678,79.3885 17.8447,81.3885 17,83.5C 16.7001,93.8887 16.5334,104.222 16.5,114.5C 15.914,114.291 15.414,113.957 15,113.5C 14.587,110.768 13.9203,108.101 13,105.5C 11.3148,107.988 9.98142,107.655 9,104.5C 7.5132,106.272 7.17987,108.272 8,110.5C 8.14924,107.721 8.98257,107.221 10.5,109C 9.47521,111.071 8.64188,113.238 8,115.5C 7.66667,114.833 7.33333,114.167 7,113.5C 6.50021,104.173 6.33355,94.8393 6.5,85.5C 7.32724,74.1838 10.8272,63.8504 17,54.5C 17.4935,52.8659 17.6602,51.1992 17.5,49.5C 18.1667,47.8333 18.8333,46.1667 19.5,44.5C 20.5,43.8333 21.5,43.1667 22.5,42.5C 23.791,42.7373 24.791,42.404 25.5,41.5C 26.0431,41.56 26.3764,41.8933 26.5,42.5C 23.622,44.5428 21.2887,47.0428 19.5,50C 20.7687,53.8198 22.102,57.6531 23.5,61.5C 25.0084,58.8379 26.6751,56.3379 28.5,54C 28.2172,50.1898 26.8839,49.6898 24.5,52.5C 21.9397,49.9718 22.6064,48.3052 26.5,47.5C 27.938,47.7189 29.2713,48.2189 30.5,49C 28.0684,50.0875 28.4017,50.5875 31.5,50.5C 31.6261,48.8002 32.2927,47.3002 33.5,46C 33.3552,45.228 33.0219,44.5613 32.5,44C 34.2556,43.7978 35.9223,43.2978 37.5,42.5C 36.2887,41.1255 35.2887,39.6255 34.5,38C 34.9054,37.0546 35.572,36.3879 36.5,36C 35.3333,35.5 34.5,34.6667 34,33.5C 31.9307,35.0854 29.764,36.4187 27.5,37.5C 32.2418,32.0915 37.2418,27.0915 42.5,22.5C 44.2964,20.1 46.6298,18.4333 49.5,17.5C 54.5878,16.6065 59.2545,14.7731 63.5,12C 70.2393,9.18906 76.906,6.68906 83.5,4.5 Z"/></g>
<g><path style="opacity:1" fill="#368ab5" d="M 87.5,4.5 C 97.7494,3.14463 108.083,3.47796 118.5,5.5C 118.833,5.5 119.167,5.5 119.5,5.5C 119.5,5.83333 119.5,6.16667 119.5,6.5C 117.173,6.24707 115.173,6.91374 113.5,8.5C 112.614,7.67504 112.281,6.67504 112.5,5.5C 104.191,4.71189 95.8578,4.37856 87.5,4.5 Z"/></g>
<g><path style="opacity:1" fill="#e4f9fb" d="M 119.5,6.5 C 119.5,6.16667 119.5,5.83333 119.5,5.5C 129.831,6.21681 139.497,9.05014 148.5,14C 149.337,15.0113 149.67,16.1779 149.5,17.5C 143.653,14.5238 137.653,11.6904 131.5,9C 127.595,7.64095 123.595,6.80762 119.5,6.5 Z"/></g>
<g><path style="opacity:1" fill="#2f86b3" d="M 83.5,4.5 C 76.906,6.68906 70.2393,9.18906 63.5,12C 59.2545,14.7731 54.5878,16.6065 49.5,17.5C 59.6996,10.4399 71.0329,6.10652 83.5,4.5 Z"/></g>
<g><path style="opacity:1" fill="#d3f5f9" d="M 118.5,5.5 C 108.083,3.47796 97.7494,3.14463 87.5,4.5C 86.1667,4.5 84.8333,4.5 83.5,4.5C 71.0329,6.10652 59.6996,10.4399 49.5,17.5C 46.6298,18.4333 44.2964,20.1 42.5,22.5C 38.846,24.3311 35.5127,26.6644 32.5,29.5C 32.4208,28.0695 32.7542,26.7362 33.5,25.5C 35.8426,23.4305 38.5093,22.0971 41.5,21.5C 41.5,20.5 41.5,19.5 41.5,18.5C 49.0976,14.5332 56.7642,10.8666 64.5,7.5C 75.9545,4.08306 87.7878,2.08306 100,1.5C 104.703,2.31433 109.369,2.31433 114,1.5C 116.328,1.99879 117.828,3.33212 118.5,5.5 Z"/></g>
<g><path style="opacity:1" fill="#b49d69" d="M 107.5,18.5 C 107.833,18.5 108.167,18.5 108.5,18.5C 111.627,19.5808 114.96,20.2474 118.5,20.5C 118.5,20.8333 118.5,21.1667 118.5,21.5C 117.5,21.5 116.5,21.5 115.5,21.5C 114.833,21.5 114.167,21.5 113.5,21.5C 109.079,20.0877 104.412,19.421 99.5,19.5C 92.7914,19.8388 86.1247,20.5055 79.5,21.5C 81.0188,20.5902 82.6854,19.7568 84.5,19C 92.1594,18.5003 99.8261,18.3336 107.5,18.5 Z"/></g>
<g><path style="opacity:1" fill="#547f83" d="M 108.5,18.5 C 111.187,18.3359 113.854,18.5026 116.5,19C 117.416,19.2784 118.082,19.7784 118.5,20.5C 114.96,20.2474 111.627,19.5808 108.5,18.5 Z"/></g>
<g><path style="opacity:1" fill="#638280" d="M 107.5,18.5 C 99.8261,18.3336 92.1594,18.5003 84.5,19C 82.6854,19.7568 81.0188,20.5902 79.5,21.5C 75.2251,22.5304 70.8917,23.6971 66.5,25C 65.6195,25.7083 64.9528,26.5416 64.5,27.5C 63.8333,27.5 63.1667,27.5 62.5,27.5C 63.2899,26.2058 64.2899,25.0391 65.5,24C 68.1042,23.6097 70.4375,22.7763 72.5,21.5C 75.6073,20.0188 78.9406,18.8521 82.5,18C 91.0104,17.1768 99.3437,17.3434 107.5,18.5 Z"/></g>
<g><path style="opacity:1" fill="#dd963c" d="M 113.5,21.5 C 96.7112,19.8786 80.3779,21.8786 64.5,27.5C 64.9528,26.5416 65.6195,25.7083 66.5,25C 70.8917,23.6971 75.2251,22.5304 79.5,21.5C 86.1247,20.5055 92.7914,19.8388 99.5,19.5C 104.412,19.421 109.079,20.0877 113.5,21.5 Z"/></g>
<g><path style="opacity:1" fill="#f29122" d="M 113.5,21.5 C 114.167,21.5 114.833,21.5 115.5,21.5C 115.62,22.5862 116.287,23.2528 117.5,23.5C 122.66,24.6012 127.66,25.9345 132.5,27.5C 133.5,27.8333 134.167,28.5 134.5,29.5C 137.565,31.9319 140.899,34.0986 144.5,36C 145.417,39.0015 147.417,40.8349 150.5,41.5C 151.386,42.325 151.719,43.325 151.5,44.5C 152.5,44.5 153.5,44.5 154.5,44.5C 157.5,47.1667 160.5,49.8333 163.5,52.5C 163.5,53.1667 163.5,53.8333 163.5,54.5C 164.167,56.1667 164.833,57.8333 165.5,59.5C 164.12,58.2935 162.953,58.6269 162,60.5C 160.933,59.8095 159.766,59.3095 158.5,59C 156.405,54.8839 154.405,50.7172 152.5,46.5C 151.02,47.9885 150.187,49.6552 150,51.5C 148.125,48.4123 146.792,45.079 146,41.5C 144.278,41.0385 142.445,40.8718 140.5,41C 138.833,39.3333 137.167,37.6667 135.5,36C 131.843,36.1078 128.177,36.1078 124.5,36C 123.789,34.7453 122.956,33.5786 122,32.5C 121.682,34.0609 120.849,35.2276 119.5,36C 120.978,37.1931 122.312,37.6931 123.5,37.5C 121.659,38.2304 119.825,38.8971 118,39.5C 104.427,39.6279 90.2607,39.4612 75.5,39C 74.1667,39.6667 74.1667,40.3333 75.5,41C 77.3774,41.5758 79.2108,41.4091 81,40.5C 86.031,43.3632 91.531,44.1966 97.5,43C 96.1667,42.3333 94.8333,41.6667 93.5,41C 102.186,40.1681 110.853,40.3348 119.5,41.5C 118.624,42.2508 117.624,42.7508 116.5,43C 118.058,43.21 119.391,43.71 120.5,44.5C 108.162,44.3335 95.8288,44.5001 83.5,45C 82.944,45.3826 82.6107,45.8826 82.5,46.5C 79.232,47.207 76.5653,48.8736 74.5,51.5C 72.8008,51.3398 71.1341,51.5065 69.5,52C 68.6243,53.5848 67.2909,54.5848 65.5,55C 66.3691,59.3808 65.5357,63.5475 63,67.5C 62.1701,92.3368 62.3367,117.003 63.5,141.5C 63.5,143.5 63.5,145.5 63.5,147.5C 64.8333,147.5 66.1667,147.5 67.5,147.5C 67.5,147.833 67.5,148.167 67.5,148.5C 65.0582,148.119 64.3915,148.786 65.5,150.5C 61.8651,151.606 58.1984,152.606 54.5,153.5C 55.9327,155.809 55.266,157.309 52.5,158C 53.056,158.383 53.3893,158.883 53.5,159.5C 52.8333,159.5 52.1667,159.5 51.5,159.5C 50.2073,157.704 48.7073,156.037 47,154.5C 46.5065,152.866 46.3398,151.199 46.5,149.5C 45.0695,149.421 43.7362,149.754 42.5,150.5C 41.4164,149.335 40.5831,148.002 40,146.5C 39.3292,145.748 38.4959,145.414 37.5,145.5C 36.8333,145.5 36.1667,145.5 35.5,145.5C 34.075,144.078 33.075,142.411 32.5,140.5C 32.573,138.973 31.9063,137.973 30.5,137.5C 29.6618,137.158 29.3284,136.492 29.5,135.5C 29.573,133.973 28.9063,132.973 27.5,132.5C 26.0949,128.615 25.0949,124.615 24.5,120.5C 22.8521,112.291 21.8521,103.958 21.5,95.5C 21.6667,92.5 21.8333,89.5 22,86.5C 23.0322,80.4173 24.5322,74.4173 26.5,68.5C 26.9628,65.779 27.6295,63.1123 28.5,60.5C 30.3264,58.8525 31.6597,56.8525 32.5,54.5C 38.5,48.1667 44.5,41.8333 50.5,35.5C 53.4474,34.2195 55.7807,32.2195 57.5,29.5C 58.1667,29.5 58.8333,29.5 59.5,29.5C 61.698,29.8799 63.3646,29.2132 64.5,27.5C 80.3779,21.8786 96.7112,19.8786 113.5,21.5 Z"/></g>
<g><path style="opacity:1" fill="#51818f" d="M 118.5,21.5 C 118.5,21.1667 118.5,20.8333 118.5,20.5C 122.428,19.9758 125.761,20.9758 128.5,23.5C 127.833,23.5 127.167,23.5 126.5,23.5C 125.833,23.5 125.167,23.5 124.5,23.5C 122.898,21.9261 120.898,21.2594 118.5,21.5 Z"/></g>
<g><path style="opacity:1" fill="#b09c6b" d="M 118.5,21.5 C 120.898,21.2594 122.898,21.9261 124.5,23.5C 122.102,23.7406 120.102,23.0739 118.5,21.5 Z"/></g>
<g><path style="opacity:1" fill="#3e829d" d="M 72.5,21.5 C 70.4375,22.7763 68.1042,23.6097 65.5,24C 64.2899,25.0391 63.2899,26.2058 62.5,27.5C 61.8333,27.5 61.1667,27.5 60.5,27.5C 58.9731,27.427 57.9731,28.0937 57.5,29.5C 54.8508,31.14 52.1841,32.8067 49.5,34.5C 50.7063,31.7022 52.7063,29.5355 55.5,28C 60.7473,24.5482 66.4139,22.3815 72.5,21.5 Z"/></g>
<g><path style="opacity:1" fill="#a09875" d="M 126.5,23.5 C 127.167,23.5 127.833,23.5 128.5,23.5C 130.076,24.1429 131.41,25.1429 132.5,26.5C 129.687,26.9754 127.687,25.9754 126.5,23.5 Z"/></g>
<g><path style="opacity:1" fill="#df963e" d="M 115.5,21.5 C 116.5,21.5 117.5,21.5 118.5,21.5C 120.102,23.0739 122.102,23.7406 124.5,23.5C 125.167,23.5 125.833,23.5 126.5,23.5C 127.687,25.9754 129.687,26.9754 132.5,26.5C 132.5,26.8333 132.5,27.1667 132.5,27.5C 127.66,25.9345 122.66,24.6012 117.5,23.5C 116.287,23.2528 115.62,22.5862 115.5,21.5 Z"/></g>
<g><path style="opacity:1" fill="#4e818d" d="M 128.5,23.5 C 133.39,24.6326 138.057,26.466 142.5,29C 143.305,30.1127 143.972,31.2794 144.5,32.5C 143.833,32.5 143.167,32.5 142.5,32.5C 142.027,31.0937 141.027,30.427 139.5,30.5C 137.434,28.8009 135.1,27.4676 132.5,26.5C 131.41,25.1429 130.076,24.1429 128.5,23.5 Z"/></g>
<g><path style="opacity:1" fill="#3085ae" d="M 42.5,22.5 C 37.2418,27.0915 32.2418,32.0915 27.5,37.5C 26.3263,38.5137 25.6596,39.847 25.5,41.5C 24.791,42.404 23.791,42.7373 22.5,42.5C 25.0433,37.6153 28.3766,33.282 32.5,29.5C 35.5127,26.6644 38.846,24.3311 42.5,22.5 Z"/></g>
<g><path style="opacity:1" fill="#7b8e7a" d="M 60.5,27.5 C 60.1667,28.1667 59.8333,28.8333 59.5,29.5C 58.8333,29.5 58.1667,29.5 57.5,29.5C 57.9731,28.0937 58.9731,27.427 60.5,27.5 Z"/></g>
<g><path style="opacity:1" fill="#d49a45" d="M 60.5,27.5 C 61.1667,27.5 61.8333,27.5 62.5,27.5C 63.1667,27.5 63.8333,27.5 64.5,27.5C 63.3646,29.2132 61.698,29.8799 59.5,29.5C 59.8333,28.8333 60.1667,28.1667 60.5,27.5 Z"/></g>
<g><path style="opacity:1" fill="#b29e6f" d="M 132.5,27.5 C 132.5,27.1667 132.5,26.8333 132.5,26.5C 135.1,27.4676 137.434,28.8009 139.5,30.5C 137.883,29.962 136.216,29.6287 134.5,29.5C 134.167,28.5 133.5,27.8333 132.5,27.5 Z"/></g>
<g><path style="opacity:1" fill="#b5a169" d="M 139.5,30.5 C 141.027,30.427 142.027,31.0937 142.5,32.5C 140.973,32.573 139.973,31.9063 139.5,30.5 Z"/></g>
<g><path style="opacity:1" fill="#b09d6c" d="M 57.5,29.5 C 55.7807,32.2195 53.4474,34.2195 50.5,35.5C 50.1667,35.5 49.8333,35.5 49.5,35.5C 49.5,35.1667 49.5,34.8333 49.5,34.5C 52.1841,32.8067 54.8508,31.14 57.5,29.5 Z"/></g>
<g><path style="opacity:1" fill="#3689b0" d="M 149.5,18.5 C 153.026,21.0938 156.692,23.4271 160.5,25.5C 163.833,29.1667 167.167,32.8333 170.5,36.5C 169.167,36.5 167.833,36.5 166.5,36.5C 165.493,33.6417 163.827,31.1417 161.5,29C 157.551,26.6828 153.717,24.1828 150,21.5C 149.517,20.552 149.351,19.552 149.5,18.5 Z"/></g>
<g><path style="opacity:1" fill="#e4f9fa" d="M 160.5,25.5 C 162.958,25.8215 165.125,26.8215 167,28.5C 167.772,28.3552 168.439,28.0219 169,27.5C 170.457,29.6579 172.29,31.4912 174.5,33C 174.167,33.3333 173.833,33.6667 173.5,34C 174.59,37.6792 176.09,41.1792 178,44.5C 179.439,46.0139 180.939,46.3473 182.5,45.5C 184.003,46.5901 184.336,47.7567 183.5,49C 186.669,58.8588 189.836,68.6922 193,78.5C 193.726,90.2056 194.893,101.706 196.5,113C 195.584,113.374 194.75,113.874 194,114.5C 192.696,121.118 190.196,127.118 186.5,132.5C 194.134,112.891 195.301,92.891 190,72.5C 189.392,70.9336 188.558,69.6002 187.5,68.5C 187.5,68.1667 187.5,67.8333 187.5,67.5C 187.657,66.1266 187.49,64.7932 187,63.5C 184.953,58.4663 182.453,53.7997 179.5,49.5C 176.883,44.8859 173.883,40.5526 170.5,36.5C 167.167,32.8333 163.833,29.1667 160.5,25.5 Z"/></g>
<g><path style="opacity:1" fill="#b09f70" d="M 142.5,32.5 C 143.167,32.5 143.833,32.5 144.5,32.5C 144.833,33.1667 145.167,33.8333 145.5,34.5C 143.973,34.573 142.973,33.9063 142.5,32.5 Z"/></g>
<g><path style="opacity:1" fill="#6d897e" d="M 144.5,32.5 C 146.5,32.5 147.5,33.5 147.5,35.5C 146.508,35.6716 145.842,35.3382 145.5,34.5C 145.167,33.8333 144.833,33.1667 144.5,32.5 Z"/></g>
<g><path style="opacity:1" fill="#869078" d="M 147.5,35.5 C 149.027,35.427 150.027,36.0937 150.5,37.5C 150.167,37.5 149.833,37.5 149.5,37.5C 148.5,37.1667 147.833,36.5 147.5,35.5 Z"/></g>
<g><path style="opacity:1" fill="#6e867c" d="M 49.5,34.5 C 49.5,34.8333 49.5,35.1667 49.5,35.5C 44.8402,39.1603 40.5069,43.1603 36.5,47.5C 39.5437,41.7895 43.8771,37.4562 49.5,34.5 Z"/></g>
<g><path style="opacity:1" fill="#f29122" d="M 165.5,59.5 C 165.833,59.5 166.167,59.5 166.5,59.5C 166.894,60.9672 167.227,62.4672 167.5,64C 165.7,67.2637 165.2,70.7637 166,74.5C 171.26,77.6552 174.26,82.3218 175,88.5C 176.071,97.3821 175.238,106.049 172.5,114.5C 170.625,113.164 169.292,113.664 168.5,116C 169.793,116.49 171.127,116.657 172.5,116.5C 172.5,117.833 172.5,119.167 172.5,120.5C 172.007,122.806 171.674,125.139 171.5,127.5C 170.542,127.953 169.708,128.619 169,129.5C 166.628,132.91 164.795,136.577 163.5,140.5C 162.504,140.414 161.671,140.748 161,141.5C 161.398,145.536 161.231,149.536 160.5,153.5C 161.32,155.111 162.654,155.778 164.5,155.5C 164.892,158.146 164.892,160.646 164.5,163C 166.037,164.11 166.703,165.61 166.5,167.5C 164.5,167.5 162.5,167.5 160.5,167.5C 160.196,166.85 159.863,166.183 159.5,165.5C 156.417,165.037 153.751,163.871 151.5,162C 146.845,161.501 142.179,161.334 137.5,161.5C 137.67,162.822 137.337,163.989 136.5,165C 133.289,166.153 129.956,166.82 126.5,167C 124.957,168.739 123.29,170.239 121.5,171.5C 117.909,171.952 114.575,172.952 111.5,174.5C 111.167,174.5 110.833,174.5 110.5,174.5C 102.082,174.802 93.7483,174.469 85.5,173.5C 80.7508,171.825 75.7508,170.659 70.5,170C 68.2547,166.279 64.9214,164.612 60.5,165C 59.17,161.785 56.8367,159.951 53.5,159.5C 53.3893,158.883 53.056,158.383 52.5,158C 55.266,157.309 55.9327,155.809 54.5,153.5C 58.1984,152.606 61.8651,151.606 65.5,150.5C 64.3915,148.786 65.0582,148.119 67.5,148.5C 87.3291,149.662 107.329,149.829 127.5,149C 128.044,148.283 128.711,147.783 129.5,147.5C 130.79,146.942 131.623,145.942 132,144.5C 132.831,113.664 132.664,82.9973 131.5,52.5C 131.039,49.6967 129.705,47.3634 127.5,45.5C 125.393,44.5318 123.059,44.1984 120.5,44.5C 119.391,43.71 118.058,43.21 116.5,43C 117.624,42.7508 118.624,42.2508 119.5,41.5C 110.853,40.3348 102.186,40.1681 93.5,41C 94.8333,41.6667 96.1667,42.3333 97.5,43C 91.531,44.1966 86.031,43.3632 81,40.5C 79.2108,41.4091 77.3774,41.5758 75.5,41C 74.1667,40.3333 74.1667,39.6667 75.5,39C 90.2607,39.4612 104.427,39.6279 118,39.5C 119.825,38.8971 121.659,38.2304 123.5,37.5C 122.312,37.6931 120.978,37.1931 119.5,36C 120.849,35.2276 121.682,34.0609 122,32.5C 122.956,33.5786 123.789,34.7453 124.5,36C 128.177,36.1078 131.843,36.1078 135.5,36C 137.167,37.6667 138.833,39.3333 140.5,41C 142.445,40.8718 144.278,41.0385 146,41.5C 146.792,45.079 148.125,48.4123 150,51.5C 150.187,49.6552 151.02,47.9885 152.5,46.5C 154.405,50.7172 156.405,54.8839 158.5,59C 159.766,59.3095 160.933,59.8095 162,60.5C 162.953,58.6269 164.12,58.2935 165.5,59.5 Z"/></g>
<g><path style="opacity:1" fill="#6b857c" d="M 150.5,37.5 C 153.427,38.7573 155.761,40.7573 157.5,43.5C 157.5,43.8333 157.5,44.1667 157.5,44.5C 156.5,43.8333 155.5,43.1667 154.5,42.5C 154.167,41.5 153.5,40.8333 152.5,40.5C 151.833,39.5 151.167,38.5 150.5,37.5 Z"/></g>
<g><path style="opacity:1" fill="#c19f5b" d="M 149.5,37.5 C 149.833,37.5 150.167,37.5 150.5,37.5C 151.167,38.5 151.833,39.5 152.5,40.5C 150.5,40.5 149.5,39.5 149.5,37.5 Z"/></g>
<g><path style="opacity:1" fill="#e39634" d="M 134.5,29.5 C 136.216,29.6287 137.883,29.962 139.5,30.5C 139.973,31.9063 140.973,32.573 142.5,32.5C 142.973,33.9063 143.973,34.573 145.5,34.5C 145.842,35.3382 146.508,35.6716 147.5,35.5C 147.833,36.5 148.5,37.1667 149.5,37.5C 149.5,39.5 150.5,40.5 152.5,40.5C 153.5,40.8333 154.167,41.5 154.5,42.5C 154.5,43.1667 154.5,43.8333 154.5,44.5C 153.5,44.5 152.5,44.5 151.5,44.5C 151.719,43.325 151.386,42.325 150.5,41.5C 147.417,40.8349 145.417,39.0015 144.5,36C 140.899,34.0986 137.565,31.9319 134.5,29.5 Z"/></g>
<g><path style="opacity:1" fill="#d6f3f7" d="M 32.5,29.5 C 28.3766,33.282 25.0433,37.6153 22.5,42.5C 21.5,43.1667 20.5,43.8333 19.5,44.5C 21.6839,40.3841 23.3505,36.0508 24.5,31.5C 27.3297,31.3059 29.9963,30.6392 32.5,29.5 Z"/></g>
<g><path style="opacity:1" fill="#c69c5b" d="M 49.5,35.5 C 49.8333,35.5 50.1667,35.5 50.5,35.5C 44.5,41.8333 38.5,48.1667 32.5,54.5C 33.063,51.7052 34.3963,49.3718 36.5,47.5C 40.5069,43.1603 44.8402,39.1603 49.5,35.5 Z"/></g>
<g><path style="opacity:1" fill="#be9d62" d="M 154.5,42.5 C 155.5,43.1667 156.5,43.8333 157.5,44.5C 159.909,46.9024 161.909,49.5691 163.5,52.5C 160.5,49.8333 157.5,47.1667 154.5,44.5C 154.5,43.8333 154.5,43.1667 154.5,42.5 Z"/></g>
<g><path style="opacity:1" fill="#e69635" d="M 120.5,44.5 C 123.059,44.1984 125.393,44.5318 127.5,45.5C 112.452,45.1988 97.4518,45.5322 82.5,46.5C 82.6107,45.8826 82.944,45.3826 83.5,45C 95.8288,44.5001 108.162,44.3335 120.5,44.5 Z"/></g>
<g><path style="opacity:1" fill="#548185" d="M 36.5,47.5 C 34.3963,49.3718 33.063,51.7052 32.5,54.5C 31.8333,54.8333 31.1667,55.1667 30.5,55.5C 31.0789,51.6393 33.0789,48.9726 36.5,47.5 Z"/></g>
<g><path style="opacity:1" fill="#fcfcfc" d="M 121.5,48.5 C 123.565,48.5172 125.565,48.8505 127.5,49.5C 128.63,75.4765 128.797,101.477 128,127.5C 127.667,119.833 127.333,112.167 127,104.5C 126.727,102.671 125.893,101.171 124.5,100C 119.556,99.0025 114.556,98.5025 109.5,98.5C 97.1703,99.0863 84.837,99.5863 72.5,100C 71.944,100.383 71.6107,100.883 71.5,101.5C 70.0695,101.421 68.7362,101.754 67.5,102.5C 66.3342,91.1813 66.1675,79.848 67,68.5C 68,66.8333 69.3333,65.5 71,64.5C 71.4604,60.0205 73.6271,56.5205 77.5,54C 80.3707,52.0655 83.3707,50.3988 86.5,49C 98.1619,48.5001 109.829,48.3335 121.5,48.5 Z"/></g>
<g><path style="opacity:1" fill="#108bd0" d="M 25.5,41.5 C 25.6596,39.847 26.3263,38.5137 27.5,37.5C 29.764,36.4187 31.9307,35.0854 34,33.5C 34.5,34.6667 35.3333,35.5 36.5,36C 35.572,36.3879 34.9054,37.0546 34.5,38C 35.2887,39.6255 36.2887,41.1255 37.5,42.5C 35.9223,43.2978 34.2556,43.7978 32.5,44C 33.0219,44.5613 33.3552,45.228 33.5,46C 32.2927,47.3002 31.6261,48.8002 31.5,50.5C 28.4017,50.5875 28.0684,50.0875 30.5,49C 29.2713,48.2189 27.938,47.7189 26.5,47.5C 22.6064,48.3052 21.9397,49.9718 24.5,52.5C 26.8839,49.6898 28.2172,50.1898 28.5,54C 26.6751,56.3379 25.0084,58.8379 23.5,61.5C 22.102,57.6531 20.7687,53.8198 19.5,50C 21.2887,47.0428 23.622,44.5428 26.5,42.5C 26.3764,41.8933 26.0431,41.56 25.5,41.5 Z"/></g>
<g><path style="opacity:1" fill="#dff8fa" d="M 19.5,44.5 C 18.8333,46.1667 18.1667,47.8333 17.5,49.5C 5.41267,68.6033 1.41267,89.2699 5.5,111.5C 5.5,112.833 5.5,114.167 5.5,115.5C 3.89058,112.851 3.05725,109.851 3,106.5C 2.51797,96.824 2.68463,87.1574 3.5,77.5C 5.33246,70.5011 7.16579,63.5011 9,56.5C 10.5556,53.3127 12.7223,50.646 15.5,48.5C 16.4287,47.3112 16.762,45.9778 16.5,44.5C 17.5,44.5 18.5,44.5 19.5,44.5 Z"/></g>
<g><path style="opacity:1" fill="#fbe8bb" d="M 80.5,49.5 C 77.5256,52.1379 74.5256,54.8046 71.5,57.5C 72.075,55.5887 73.075,53.922 74.5,52.5C 76.5168,51.4706 78.5168,50.4706 80.5,49.5 Z"/></g>
<g><path style="opacity:1" fill="#a6996d" d="M 163.5,52.5 C 164.906,52.9731 165.573,53.9731 165.5,55.5C 164.833,55.1667 164.167,54.8333 163.5,54.5C 163.5,53.8333 163.5,53.1667 163.5,52.5 Z"/></g>
<g><path style="opacity:1" fill="#418098" d="M 157.5,43.5 C 158.978,43.238 160.311,43.5713 161.5,44.5C 164.792,50.0868 167.792,55.7535 170.5,61.5C 169.527,59.8608 168.194,58.5274 166.5,57.5C 166.672,56.5084 166.338,55.8417 165.5,55.5C 165.573,53.9731 164.906,52.9731 163.5,52.5C 161.909,49.5691 159.909,46.9024 157.5,44.5C 157.5,44.1667 157.5,43.8333 157.5,43.5 Z"/></g>
<g><path style="opacity:1" fill="#3b87ac" d="M 179.5,49.5 C 182.453,53.7997 184.953,58.4663 187,63.5C 187.49,64.7932 187.657,66.1266 187.5,67.5C 186.503,67.5299 185.836,67.0299 185.5,66C 183.762,60.2769 181.762,54.7769 179.5,49.5 Z"/></g>
<g><path style="opacity:1" fill="#cd9b52" d="M 163.5,54.5 C 164.167,54.8333 164.833,55.1667 165.5,55.5C 166.338,55.8417 166.672,56.5084 166.5,57.5C 166.5,58.1667 166.5,58.8333 166.5,59.5C 166.167,59.5 165.833,59.5 165.5,59.5C 164.833,57.8333 164.167,56.1667 163.5,54.5 Z"/></g>
<g><path style="opacity:1" fill="#af9c6d" d="M 32.5,54.5 C 31.6597,56.8525 30.3264,58.8525 28.5,60.5C 28.5569,59.391 28.8902,58.391 29.5,57.5C 29.8333,56.8333 30.1667,56.1667 30.5,55.5C 31.1667,55.1667 31.8333,54.8333 32.5,54.5 Z"/></g>
<g><path style="opacity:1" fill="#fee8bc" d="M 129.5,50.5 C 130.498,81.3288 130.831,112.329 130.5,143.5C 129.833,143.833 129.167,144.167 128.5,144.5C 129.47,113.191 129.803,81.8581 129.5,50.5 Z"/></g>
<g><path style="opacity:1" fill="#a29b74" d="M 166.5,57.5 C 168.194,58.5274 169.527,59.8608 170.5,61.5C 170.833,62.8333 171.167,64.1667 171.5,65.5C 171.5,66.1667 171.5,66.8333 171.5,67.5C 169.829,64.796 168.163,62.1293 166.5,59.5C 166.5,58.8333 166.5,58.1667 166.5,57.5 Z"/></g>
<g><path style="opacity:1" fill="#4c7f89" d="M 29.5,57.5 C 28.8902,58.391 28.5569,59.391 28.5,60.5C 23.1304,68.9457 20.1304,78.279 19.5,88.5C 18.5931,94.1064 18.2598,99.773 18.5,105.5C 17.8349,102.351 17.5016,99.0175 17.5,95.5C 17.4371,89.392 18.1038,83.392 19.5,77.5C 21.5731,71.4459 23.7397,65.4459 26,59.5C 26.8159,58.1772 27.9826,57.5106 29.5,57.5 Z"/></g>
<g><path style="opacity:1" fill="#577f87" d="M 171.5,65.5 C 172.79,66.0577 173.623,67.0577 174,68.5C 179.468,82.3752 180.968,96.7086 178.5,111.5C 177.833,112.5 177.167,113.5 176.5,114.5C 177.071,108.526 177.404,102.526 177.5,96.5C 177.716,89.9201 177.049,83.5868 175.5,77.5C 175.167,76.8333 174.833,76.1667 174.5,75.5C 173.871,72.6027 172.871,69.936 171.5,67.5C 171.5,66.8333 171.5,66.1667 171.5,65.5 Z"/></g>
<g><path style="opacity:1" fill="#ea942c" d="M 166.5,59.5 C 168.163,62.1293 169.829,64.796 171.5,67.5C 171.345,70.716 172.345,73.3826 174.5,75.5C 174.833,76.1667 175.167,76.8333 175.5,77.5C 176.803,89.8351 176.803,102.168 175.5,114.5C 174.5,116.5 173.5,118.5 172.5,120.5C 172.5,119.167 172.5,117.833 172.5,116.5C 171.127,116.657 169.793,116.49 168.5,116C 169.292,113.664 170.625,113.164 172.5,114.5C 175.238,106.049 176.071,97.3821 175,88.5C 174.26,82.3218 171.26,77.6552 166,74.5C 165.2,70.7637 165.7,67.2637 167.5,64C 167.227,62.4672 166.894,60.9672 166.5,59.5 Z"/></g>
<g><path style="opacity:1" fill="#c29e60" d="M 171.5,67.5 C 172.871,69.936 173.871,72.6027 174.5,75.5C 172.345,73.3826 171.345,70.716 171.5,67.5 Z"/></g>
<g><path style="opacity:1" fill="#b09c6b" d="M 28.5,60.5 C 27.6295,63.1123 26.9628,65.779 26.5,68.5C 22.7147,74.5312 20.7147,81.1978 20.5,88.5C 20.1667,88.5 19.8333,88.5 19.5,88.5C 20.1304,78.279 23.1304,68.9457 28.5,60.5 Z"/></g>
<g><path style="opacity:1" fill="#e39435" d="M 74.5,51.5 C 74.5,51.8333 74.5,52.1667 74.5,52.5C 73.075,53.922 72.075,55.5887 71.5,57.5C 67.6982,60.4923 65.3649,64.4923 64.5,69.5C 63.5024,93.3275 63.1691,117.328 63.5,141.5C 62.3367,117.003 62.1701,92.3368 63,67.5C 65.5357,63.5475 66.3691,59.3808 65.5,55C 67.2909,54.5848 68.6243,53.5848 69.5,52C 71.1341,51.5065 72.8008,51.3398 74.5,51.5 Z"/></g>
<g><path style="opacity:1" fill="#3a88b1" d="M 17.5,49.5 C 17.6602,51.1992 17.4935,52.8659 17,54.5C 10.8272,63.8504 7.32724,74.1838 6.5,85.5C 5.50698,93.9839 5.17364,102.651 5.5,111.5C 1.41267,89.2699 5.41267,68.6033 17.5,49.5 Z"/></g>
<g><path style="opacity:1" fill="#e49634" d="M 26.5,68.5 C 24.5322,74.4173 23.0322,80.4173 22,86.5C 21.8333,89.5 21.6667,92.5 21.5,95.5C 21.8521,103.958 22.8521,112.291 24.5,120.5C 23.8333,120.167 23.1667,119.833 22.5,119.5C 20.9246,109.236 20.2579,98.9029 20.5,88.5C 20.7147,81.1978 22.7147,74.5312 26.5,68.5 Z"/></g>
<g><path style="opacity:1" fill="#b79b65" d="M 19.5,88.5 C 19.8333,88.5 20.1667,88.5 20.5,88.5C 20.2579,98.9029 20.9246,109.236 22.5,119.5C 22.1667,119.5 21.8333,119.5 21.5,119.5C 20.4915,114.717 19.4915,110.05 18.5,105.5C 18.2598,99.773 18.5931,94.1064 19.5,88.5 Z"/></g>
<g><path style="opacity:1" fill="#3587ad" d="M 187.5,68.5 C 188.558,69.6002 189.392,70.9336 190,72.5C 195.301,92.891 194.134,112.891 186.5,132.5C 185.101,135.629 183.435,138.629 181.5,141.5C 185.805,130.256 188.805,118.59 190.5,106.5C 192.225,93.7473 191.225,81.0807 187.5,68.5 Z"/></g>
<g><path style="opacity:1" fill="#1e88c2" d="M 19.5,77.5 C 18.1038,83.392 17.4371,89.392 17.5,95.5C 17.5016,99.0175 17.8349,102.351 18.5,105.5C 18.0439,110.596 19.0439,115.262 21.5,119.5C 21.2594,121.898 21.9261,123.898 23.5,125.5C 23.5,126.833 23.5,128.167 23.5,129.5C 19.8351,128.147 18.1684,125.48 18.5,121.5C 17.5,121.5 16.5,121.5 15.5,121.5C 15.7035,123.39 15.0368,124.89 13.5,126C 13.6421,130.533 13.9755,135.033 14.5,139.5C 12.7373,137.115 11.2373,134.448 10,131.5C 8.41534,126.383 6.91534,121.383 5.5,116.5C 5.5,116.167 5.5,115.833 5.5,115.5C 5.5,114.167 5.5,112.833 5.5,111.5C 5.17364,102.651 5.50698,93.9839 6.5,85.5C 6.33355,94.8393 6.50021,104.173 7,113.5C 7.33333,114.167 7.66667,114.833 8,115.5C 8.64188,113.238 9.47521,111.071 10.5,109C 8.98257,107.221 8.14924,107.721 8,110.5C 7.17987,108.272 7.5132,106.272 9,104.5C 9.98142,107.655 11.3148,107.988 13,105.5C 13.9203,108.101 14.587,110.768 15,113.5C 15.414,113.957 15.914,114.291 16.5,114.5C 16.5334,104.222 16.7001,93.8887 17,83.5C 17.8447,81.3885 18.678,79.3885 19.5,77.5 Z"/></g>
<g><path style="opacity:1" fill="#fcfefd" d="M -0.5,77.5 C 0.221579,77.9175 0.721579,78.5842 1,79.5C 1.7083,78.6195 2.54163,77.9528 3.5,77.5C 2.68463,87.1574 2.51797,96.824 3,106.5C 3.05725,109.851 3.89058,112.851 5.5,115.5C 5.5,115.833 5.5,116.167 5.5,116.5C 5.33591,119.187 5.50258,121.854 6,124.5C 7.74971,127.246 8.74971,130.246 9,133.5C 10.116,136.756 11.9493,139.422 14.5,141.5C 17.8151,147.447 21.6485,153.113 26,158.5C 29.7615,162.77 33.9281,166.437 38.5,169.5C 39.1667,170.5 39.8333,171.5 40.5,172.5C 41.5025,174.011 42.1692,175.678 42.5,177.5C 46.9444,177.778 50.611,179.611 53.5,183C 55.74,183.977 58.0733,184.477 60.5,184.5C 63.2406,184.707 65.5739,185.707 67.5,187.5C 67.8039,188.15 68.1373,188.817 68.5,189.5C 71.0618,190.641 73.7284,191.474 76.5,192C 85.6731,192.783 94.8397,193.616 104,194.5C 105.436,194.441 106.769,194.108 108,193.5C 110.153,195.444 112.653,195.944 115.5,195C 116.833,194.333 116.833,193.667 115.5,193C 120.093,191.524 124.76,190.357 129.5,189.5C 133.346,186.244 137.679,184.077 142.5,183C 145.826,182.828 149.159,182.995 152.5,183.5C 157.01,185.088 161.343,187.255 165.5,190C 170.139,191.128 174.805,192.128 179.5,193C 182.789,195.209 186.456,196.042 190.5,195.5C 191.5,195.5 192.5,195.5 193.5,195.5C 194.386,196.776 195.386,196.776 196.5,195.5C 197.535,193.872 197.535,192.205 196.5,190.5C 197.222,189.449 198.222,188.782 199.5,188.5C 199.5,192.167 199.5,195.833 199.5,199.5C 132.833,199.5 66.1667,199.5 -0.5,199.5C -0.5,158.833 -0.5,118.167 -0.5,77.5 Z"/></g>
<g><path style="opacity:1" fill="#b69d66" d="M 175.5,77.5 C 177.049,83.5868 177.716,89.9201 177.5,96.5C 177.404,102.526 177.071,108.526 176.5,114.5C 176.167,114.5 175.833,114.5 175.5,114.5C 176.803,102.168 176.803,89.8351 175.5,77.5 Z"/></g>
<g><path style="opacity:1" fill="#4c7d84" d="M 18.5,105.5 C 19.4915,110.05 20.4915,114.717 21.5,119.5C 19.0439,115.262 18.0439,110.596 18.5,105.5 Z"/></g>
<g><path style="opacity:1" fill="#b99f68" d="M 175.5,114.5 C 174.943,119.165 173.61,123.498 171.5,127.5C 171.674,125.139 172.007,122.806 172.5,120.5C 173.5,118.5 174.5,116.5 175.5,114.5 Z"/></g>
<g><path style="opacity:1" fill="#488395" d="M 178.5,111.5 C 177.833,115.167 177.167,118.833 176.5,122.5C 175.278,125.728 173.612,128.728 171.5,131.5C 171.5,130.833 171.5,130.167 171.5,129.5C 171.5,128.833 171.5,128.167 171.5,127.5C 173.61,123.498 174.943,119.165 175.5,114.5C 175.833,114.5 176.167,114.5 176.5,114.5C 177.167,113.5 177.833,112.5 178.5,111.5 Z"/></g>
<g><path style="opacity:1" fill="#e69531" d="M 131.5,52.5 C 132.664,82.9973 132.831,113.664 132,144.5C 131.623,145.942 130.79,146.942 129.5,147.5C 129.833,146.167 130.167,144.833 130.5,143.5C 131.498,113.338 131.831,83.0046 131.5,52.5 Z"/></g>
<g><path style="opacity:1" fill="#658482" d="M 21.5,119.5 C 21.8333,119.5 22.1667,119.5 22.5,119.5C 23.1495,121.435 23.4828,123.435 23.5,125.5C 21.9261,123.898 21.2594,121.898 21.5,119.5 Z"/></g>
<g><path style="opacity:1" fill="#d2a05a" d="M 64.5,69.5 C 64.3334,94.1689 64.5,118.836 65,143.5C 66.0946,144.693 66.928,146.027 67.5,147.5C 66.1667,147.5 64.8333,147.5 63.5,147.5C 63.5,145.5 63.5,143.5 63.5,141.5C 63.1691,117.328 63.5024,93.3275 64.5,69.5 Z"/></g>
<g><path style="opacity:1" fill="#fef8e0" d="M 86.5,47.5 C 98.3453,47.1717 110.012,47.5051 121.5,48.5C 109.829,48.3335 98.1619,48.5001 86.5,49C 83.3707,50.3988 80.3707,52.0655 77.5,54C 73.6271,56.5205 71.4604,60.0205 71,64.5C 69.3333,65.5 68,66.8333 67,68.5C 66.1675,79.848 66.3342,91.1813 67.5,102.5C 68.7362,101.754 70.0695,101.421 71.5,101.5C 71.6107,100.883 71.944,100.383 72.5,100C 84.837,99.5863 97.1703,99.0863 109.5,98.5C 114.556,98.5025 119.556,99.0025 124.5,100C 125.893,101.171 126.727,102.671 127,104.5C 127.333,112.167 127.667,119.833 128,127.5C 128.797,101.477 128.63,75.4765 127.5,49.5C 127.833,49.5 128.167,49.5 128.5,49.5C 129.167,49.5 129.5,49.8333 129.5,50.5C 129.803,81.8581 129.47,113.191 128.5,144.5C 128.244,146.776 126.91,147.943 124.5,148C 105.456,148.808 86.4565,148.641 67.5,147.5C 66.928,146.027 66.0946,144.693 65,143.5C 64.5,118.836 64.3334,94.1689 64.5,69.5C 65.3649,64.4923 67.6982,60.4923 71.5,57.5C 74.5256,54.8046 77.5256,52.1379 80.5,49.5C 82.2143,48.2616 84.2143,47.595 86.5,47.5 Z"/></g>
<g><path style="opacity:1" fill="#d6b98d" d="M 118.5,101.5 C 106.12,100.854 94.1201,101.521 82.5,103.5C 78.8183,103.335 75.1516,103.501 71.5,104C 70.5442,107.394 70.2108,110.894 70.5,114.5C 69.5073,122.65 69.1739,130.983 69.5,139.5C 68.3405,128.007 68.1739,116.341 69,104.5C 70.045,103.627 70.8783,102.627 71.5,101.5C 87.2943,100.191 102.961,100.191 118.5,101.5 Z"/></g>
<g><path style="opacity:1" fill="#fbf1d0" d="M 82.5,103.5 C 86.4141,115.247 82.4141,118.914 70.5,114.5C 70.2108,110.894 70.5442,107.394 71.5,104C 75.1516,103.501 78.8183,103.335 82.5,103.5 Z"/></g>
<g><path style="opacity:1" fill="#f8fcf5" d="M 74.5,104.5 C 76.8333,104.5 79.1667,104.5 81.5,104.5C 81.5,107.5 81.5,110.5 81.5,113.5C 78.5,113.5 75.5,113.5 72.5,113.5C 72.0914,110.145 72.7581,107.145 74.5,104.5 Z"/></g>
<g><path style="opacity:1" fill="#b19c65" d="M 22.5,119.5 C 23.1667,119.833 23.8333,120.167 24.5,120.5C 25.0949,124.615 26.0949,128.615 27.5,132.5C 25.7945,130.388 24.4611,128.055 23.5,125.5C 23.4828,123.435 23.1495,121.435 22.5,119.5 Z"/></g>
<g><path style="opacity:1" fill="#d59b50" d="M 127.5,45.5 C 129.705,47.3634 131.039,49.6967 131.5,52.5C 131.831,83.0046 131.498,113.338 130.5,143.5C 130.831,112.329 130.498,81.3288 129.5,50.5C 129.5,49.8333 129.167,49.5 128.5,49.5C 127.653,48.0337 126.32,47.2004 124.5,47C 111.66,46.1733 98.9933,46.34 86.5,47.5C 84.2143,47.595 82.2143,48.2616 80.5,49.5C 78.5168,50.4706 76.5168,51.4706 74.5,52.5C 74.5,52.1667 74.5,51.8333 74.5,51.5C 76.5653,48.8736 79.232,47.207 82.5,46.5C 97.4518,45.5322 112.452,45.1988 127.5,45.5 Z"/></g>
<g><path style="opacity:1" fill="#fde5ba" d="M 86.5,47.5 C 98.9933,46.34 111.66,46.1733 124.5,47C 126.32,47.2004 127.653,48.0337 128.5,49.5C 128.167,49.5 127.833,49.5 127.5,49.5C 125.565,48.8505 123.565,48.5172 121.5,48.5C 110.012,47.5051 98.3453,47.1717 86.5,47.5 Z"/></g>
<g><path style="opacity:1" fill="#be9c67" d="M 118.5,101.5 C 121.856,100.862 123.856,102.196 124.5,105.5C 124.667,116.838 124.5,128.172 124,139.5C 123.626,140.416 123.126,141.25 122.5,142C 106.17,142.5 89.8367,142.667 73.5,142.5C 71.5956,142.262 70.2623,141.262 69.5,139.5C 69.1739,130.983 69.5073,122.65 70.5,114.5C 82.4141,118.914 86.4141,115.247 82.5,103.5C 94.1201,101.521 106.12,100.854 118.5,101.5 Z"/></g>
<g><path style="opacity:1" fill="#ecd4ae" d="M 71.5,117.5 C 71.2065,121.437 71.5399,125.27 72.5,129C 88.8299,129.5 105.163,129.667 121.5,129.5C 105.005,130.662 88.3384,130.828 71.5,130C 70.178,125.733 70.178,121.566 71.5,117.5 Z"/></g>
<g><path style="opacity:1" fill="#fbf0d5" d="M 121.5,129.5 C 105.163,129.667 88.8299,129.5 72.5,129C 71.5399,125.27 71.2065,121.437 71.5,117.5C 84.2164,117.795 96.883,117.462 109.5,116.5C 109.783,115.711 110.283,115.044 111,114.5C 111.175,110.789 111.675,107.122 112.5,103.5C 116.063,101.963 119.397,102.296 122.5,104.5C 123.635,112.451 123.802,120.451 123,128.5C 122.617,129.056 122.117,129.389 121.5,129.5 Z"/></g>
<g><path style="opacity:1" fill="#fbfbf5" d="M 109.5,116.5 C 111.017,116.489 112.184,115.823 113,114.5C 113.498,111.183 113.665,107.85 113.5,104.5C 116.272,104.22 118.772,104.887 121,106.5C 121.5,113.492 121.666,120.492 121.5,127.5C 105.532,128.621 89.5318,128.788 73.5,128C 72.5495,124.943 72.2161,121.777 72.5,118.5C 84.5046,118.667 96.5046,118.5 108.5,118C 109.056,117.617 109.389,117.117 109.5,116.5 Z"/></g>
<g><path style="opacity:1" fill="#fbfafb" d="M 118.5,107.5 C 120.456,113.412 121.123,119.745 120.5,126.5C 118.409,126.318 116.409,126.652 114.5,127.5C 113.858,124.203 112.691,123.869 111,126.5C 110.333,125.833 109.667,125.167 109,124.5C 106.521,127.093 104.021,127.093 101.5,124.5C 100.749,125.376 100.249,126.376 100,127.5C 94.5632,126.351 89.0632,126.351 83.5,127.5C 81.192,127.635 79.192,126.969 77.5,125.5C 76.2638,126.246 74.9305,126.579 73.5,126.5C 72.563,119.235 74.2297,118.568 78.5,124.5C 80.6883,122.13 83.1883,121.463 86,122.5C 86.3333,121.5 86.6667,120.5 87,119.5C 89.4607,120.218 91.9607,120.885 94.5,121.5C 99.4456,120.386 104.446,120.219 109.5,121C 110.5,123 111.5,123 112.5,121C 111.833,120.333 111.167,119.667 110.5,119C 113.588,118.421 116.255,117.087 118.5,115C 117.462,112.793 117.462,110.293 118.5,107.5 Z"/></g>
<g><path style="opacity:1" fill="#fbf1d3" d="M 85.5,102.5 C 88.8499,102.335 92.1832,102.502 95.5,103C 96.8333,107 96.8333,111 95.5,115C 92.1832,115.498 88.8499,115.665 85.5,115.5C 85.5,111.167 85.5,106.833 85.5,102.5 Z"/></g>
<g><path style="opacity:1" fill="#fbfcf6" d="M 87.5,104.5 C 90.1667,104.5 92.8333,104.5 95.5,104.5C 95.4921,107.545 95.1587,110.545 94.5,113.5C 86.7661,114.792 84.4327,111.792 87.5,104.5 Z"/></g>
<g><path style="opacity:1" fill="#faedce" d="M 99.5,102.5 C 102.909,102.249 106.242,102.583 109.5,103.5C 112.669,113.893 109.169,117.56 99,114.5C 98.2375,110.413 98.4042,106.413 99.5,102.5 Z"/></g>
<g><path style="opacity:1" fill="#f9fbf6" d="M 101.5,104.5 C 103.833,104.5 106.167,104.5 108.5,104.5C 108.5,107.5 108.5,110.5 108.5,113.5C 105.833,113.5 103.167,113.5 100.5,113.5C 100.264,110.391 100.597,107.391 101.5,104.5 Z"/></g>
<g><path style="opacity:1" fill="#4a8392" d="M 23.5,125.5 C 24.4611,128.055 25.7945,130.388 27.5,132.5C 27.427,134.027 28.0937,135.027 29.5,135.5C 29.3284,136.492 29.6618,137.158 30.5,137.5C 30.5,138.167 30.5,138.833 30.5,139.5C 29.5041,139.586 28.6708,139.252 28,138.5C 26.9617,135.185 25.4617,132.185 23.5,129.5C 23.5,128.167 23.5,126.833 23.5,125.5 Z"/></g>
<g><path style="opacity:1" fill="#869179" d="M 171.5,129.5 C 171.5,130.167 171.5,130.833 171.5,131.5C 170.833,131.833 170.167,132.167 169.5,132.5C 169.427,130.973 170.094,129.973 171.5,129.5 Z"/></g>
<g><path style="opacity:1" fill="#ccf1f8" d="M 5.5,116.5 C 6.91534,121.383 8.41534,126.383 10,131.5C 11.2373,134.448 12.7373,137.115 14.5,139.5C 14.5,139.833 14.5,140.167 14.5,140.5C 14.5,140.833 14.5,141.167 14.5,141.5C 11.9493,139.422 10.116,136.756 9,133.5C 8.74971,130.246 7.74971,127.246 6,124.5C 5.50258,121.854 5.33591,119.187 5.5,116.5 Z"/></g>
<g><path style="opacity:1" fill="#b99e65" d="M 27.5,132.5 C 28.9063,132.973 29.573,133.973 29.5,135.5C 28.0937,135.027 27.427,134.027 27.5,132.5 Z"/></g>
<g><path style="opacity:1" fill="#88947b" d="M 169.5,133.5 C 169.573,135.027 168.906,136.027 167.5,136.5C 167.427,134.973 168.094,133.973 169.5,133.5 Z"/></g>
<g><path style="opacity:1" fill="#fbf1ce" d="M 71.5,131.5 C 75.1817,131.335 78.8484,131.501 82.5,132C 83.6105,134.737 83.7772,137.571 83,140.5C 73.2117,144.305 69.3784,141.305 71.5,131.5 Z"/></g>
<g><path style="opacity:1" fill="#3d7d97" d="M 171.5,131.5 C 171.275,134.546 169.942,136.879 167.5,138.5C 167.5,137.833 167.5,137.167 167.5,136.5C 168.906,136.027 169.573,135.027 169.5,133.5C 169.5,133.167 169.5,132.833 169.5,132.5C 170.167,132.167 170.833,131.833 171.5,131.5 Z"/></g>
<g><path style="opacity:1" fill="#d19d4e" d="M 171.5,127.5 C 171.5,128.167 171.5,128.833 171.5,129.5C 170.094,129.973 169.427,130.973 169.5,132.5C 169.5,132.833 169.5,133.167 169.5,133.5C 168.094,133.973 167.427,134.973 167.5,136.5C 166.094,136.973 165.427,137.973 165.5,139.5C 164.833,140.167 164.167,140.833 163.5,141.5C 163.5,141.167 163.5,140.833 163.5,140.5C 164.795,136.577 166.628,132.91 169,129.5C 169.708,128.619 170.542,127.953 171.5,127.5 Z"/></g>
<g><path style="opacity:1" fill="#ddf8fb" d="M 186.5,132.5 C 186.663,134.857 186.497,137.19 186,139.5C 184.485,141.677 182.985,143.844 181.5,146C 182.287,148.099 182.62,150.266 182.5,152.5C 182.167,152.5 181.833,152.5 181.5,152.5C 181.5,152.167 181.5,151.833 181.5,151.5C 181.007,149.194 180.674,146.861 180.5,144.5C 181.11,143.609 181.443,142.609 181.5,141.5C 183.435,138.629 185.101,135.629 186.5,132.5 Z"/></g>
<g><path style="opacity:1" fill="#fafbf2" d="M 72.5,133.5 C 75.5,133.5 78.5,133.5 81.5,133.5C 81.5,135.5 81.5,137.5 81.5,139.5C 78.8127,139.664 76.146,139.497 73.5,139C 72.5939,137.301 72.2606,135.467 72.5,133.5 Z"/></g>
<g><path style="opacity:1" fill="#959676" d="M 167.5,136.5 C 167.5,137.167 167.5,137.833 167.5,138.5C 166.833,138.833 166.167,139.167 165.5,139.5C 165.427,137.973 166.094,136.973 167.5,136.5 Z"/></g>
<g><path style="opacity:1" fill="#ba9e6a" d="M 30.5,137.5 C 31.9063,137.973 32.573,138.973 32.5,140.5C 31.8333,140.167 31.1667,139.833 30.5,139.5C 30.5,138.833 30.5,138.167 30.5,137.5 Z"/></g>
<g><path style="opacity:1" fill="#faeac5" d="M 86.5,131.5 C 89.8984,131.18 93.2317,131.513 96.5,132.5C 97.5617,135.103 97.7284,137.77 97,140.5C 87.1195,144.308 83.6195,141.308 86.5,131.5 Z"/></g>
<g><path style="opacity:1" fill="#fbfbf3" d="M 87.5,132.5 C 93.9271,130.762 96.5938,133.095 95.5,139.5C 92.8127,139.664 90.146,139.497 87.5,139C 86.232,136.837 86.232,134.67 87.5,132.5 Z"/></g>
<g><path style="opacity:1" fill="#f8eccb" d="M 112.5,131.5 C 115.833,131.5 119.167,131.5 122.5,131.5C 124.226,140.713 120.726,143.713 112,140.5C 111.264,137.408 111.431,134.408 112.5,131.5 Z"/></g>
<g><path style="opacity:1" fill="#fbfaf3" d="M 113.5,133.5 C 116.247,133.187 118.914,133.52 121.5,134.5C 120.691,136.071 120.357,137.738 120.5,139.5C 118.167,139.5 115.833,139.5 113.5,139.5C 113.5,137.5 113.5,135.5 113.5,133.5 Z"/></g>
<g><path style="opacity:1" fill="#f2dcb0" d="M 109.5,132.5 C 110.817,135.23 110.817,138.063 109.5,141C 105.909,141.789 102.409,141.622 99,140.5C 98.2228,137.571 98.3895,134.737 99.5,132C 103.027,131.192 106.36,131.359 109.5,132.5 Z"/></g>
<g><path style="opacity:1" fill="#fcfaea" d="M 109.5,132.5 C 110.262,140.042 107.095,142.375 100,139.5C 99.1041,136.975 99.6041,134.808 101.5,133C 104.146,132.503 106.813,132.336 109.5,132.5 Z"/></g>
<g><path style="opacity:1" fill="#f5ddb3" d="M 124.5,105.5 C 125.659,116.993 125.826,128.659 125,140.5C 124.626,141.416 124.126,142.25 123.5,143C 106.662,143.828 89.9949,143.662 73.5,142.5C 89.8367,142.667 106.17,142.5 122.5,142C 123.126,141.25 123.626,140.416 124,139.5C 124.5,128.172 124.667,116.838 124.5,105.5 Z"/></g>
<g><path style="opacity:1" fill="#548193" d="M 30.5,139.5 C 31.1667,139.833 31.8333,140.167 32.5,140.5C 33.075,142.411 34.075,144.078 35.5,145.5C 35.5,145.833 35.5,146.167 35.5,146.5C 33.9991,145.248 32.3325,144.248 30.5,143.5C 30.5,142.167 30.5,140.833 30.5,139.5 Z"/></g>
<g><path style="opacity:1" fill="#6a847c" d="M 167.5,138.5 C 166.391,140.554 165.391,142.721 164.5,145C 165.944,149.165 167.278,153.332 168.5,157.5C 168.629,159.216 168.962,160.883 169.5,162.5C 169.167,162.5 168.833,162.5 168.5,162.5C 168.5,161.833 168.167,161.5 167.5,161.5C 167.59,158.848 166.924,156.515 165.5,154.5C 165.5,154.167 165.5,153.833 165.5,153.5C 163.998,149.658 163.332,145.658 163.5,141.5C 164.167,140.833 164.833,140.167 165.5,139.5C 166.167,139.167 166.833,138.833 167.5,138.5 Z"/></g>
<g><path style="opacity:1" fill="#138acc" d="M 23.5,129.5 C 25.4617,132.185 26.9617,135.185 28,138.5C 28.6708,139.252 29.5041,139.586 30.5,139.5C 30.5,140.833 30.5,142.167 30.5,143.5C 28.3912,145.85 26.0579,147.35 23.5,148C 24.1117,150.058 25.1117,151.891 26.5,153.5C 26.1667,153.833 25.8333,154.167 25.5,154.5C 21.8051,149.734 18.1384,145.067 14.5,140.5C 14.5,140.167 14.5,139.833 14.5,139.5C 13.9755,135.033 13.6421,130.533 13.5,126C 15.0368,124.89 15.7035,123.39 15.5,121.5C 16.5,121.5 17.5,121.5 18.5,121.5C 18.1684,125.48 19.8351,128.147 23.5,129.5 Z"/></g>
<g><path style="opacity:1" fill="#bba166" d="M 35.5,146.5 C 35.5,146.167 35.5,145.833 35.5,145.5C 36.1667,145.5 36.8333,145.5 37.5,145.5C 38.6005,146.605 39.2671,147.938 39.5,149.5C 38.1667,148.5 36.8333,147.5 35.5,146.5 Z"/></g>
<g><path style="opacity:1" fill="#92cbde" d="M 180.5,144.5 C 180.674,146.861 181.007,149.194 181.5,151.5C 179.466,149.345 179.133,147.012 180.5,144.5 Z"/></g>
<g><path style="opacity:1" fill="#608583" d="M 35.5,146.5 C 36.8333,147.5 38.1667,148.5 39.5,149.5C 40.3382,149.842 40.6716,150.508 40.5,151.5C 41.5,152.833 42.5,154.167 43.5,155.5C 41.9826,155.489 40.8159,154.823 40,153.5C 38.2502,151.266 36.7502,148.932 35.5,146.5 Z"/></g>
<g><path style="opacity:1" fill="#cd9045" d="M 130.5,143.5 C 130.167,144.833 129.833,146.167 129.5,147.5C 128.711,147.783 128.044,148.283 127.5,149C 107.329,149.829 87.3291,149.662 67.5,148.5C 67.5,148.167 67.5,147.833 67.5,147.5C 86.4565,148.641 105.456,148.808 124.5,148C 126.91,147.943 128.244,146.776 128.5,144.5C 129.167,144.167 129.833,143.833 130.5,143.5 Z"/></g>
<g><path style="opacity:1" fill="#e39634" d="M 37.5,145.5 C 38.4959,145.414 39.3292,145.748 40,146.5C 40.5831,148.002 41.4164,149.335 42.5,150.5C 43.7362,149.754 45.0695,149.421 46.5,149.5C 46.3398,151.199 46.5065,152.866 47,154.5C 48.7073,156.037 50.2073,157.704 51.5,159.5C 50.8333,159.5 50.1667,159.5 49.5,159.5C 47.1002,156.097 44.1002,153.43 40.5,151.5C 40.6716,150.508 40.3382,149.842 39.5,149.5C 39.2671,147.938 38.6005,146.605 37.5,145.5 Z"/></g>
<g><path style="opacity:1" fill="#e9942e" d="M 163.5,140.5 C 163.5,140.833 163.5,141.167 163.5,141.5C 162.362,144.304 162.195,147.304 163,150.5C 163.377,151.942 164.21,152.942 165.5,153.5C 165.5,153.833 165.5,154.167 165.5,154.5C 165.41,157.152 166.076,159.485 167.5,161.5C 168.167,161.5 168.5,161.833 168.5,162.5C 168.833,165.167 169.167,167.833 169.5,170.5C 167.194,170.007 164.861,169.674 162.5,169.5C 161.833,168.833 161.167,168.167 160.5,167.5C 162.5,167.5 164.5,167.5 166.5,167.5C 166.703,165.61 166.037,164.11 164.5,163C 164.892,160.646 164.892,158.146 164.5,155.5C 162.654,155.778 161.32,155.111 160.5,153.5C 161.231,149.536 161.398,145.536 161,141.5C 161.671,140.748 162.504,140.414 163.5,140.5 Z"/></g>
<g><path style="opacity:1" fill="#cb9b53" d="M 163.5,141.5 C 163.332,145.658 163.998,149.658 165.5,153.5C 164.21,152.942 163.377,151.942 163,150.5C 162.195,147.304 162.362,144.304 163.5,141.5 Z"/></g>
<g><path style="opacity:1" fill="#ad9c69" d="M 40.5,151.5 C 44.1002,153.43 47.1002,156.097 49.5,159.5C 48.391,159.443 47.391,159.11 46.5,158.5C 45.8333,157.167 44.8333,156.167 43.5,155.5C 42.5,154.167 41.5,152.833 40.5,151.5 Z"/></g>
<g><path style="opacity:1" fill="#1d89c4" d="M 14.5,141.5 C 14.5,141.167 14.5,140.833 14.5,140.5C 18.1384,145.067 21.8051,149.734 25.5,154.5C 25.8333,154.167 26.1667,153.833 26.5,153.5C 25.1117,151.891 24.1117,150.058 23.5,148C 26.0579,147.35 28.3912,145.85 30.5,143.5C 32.3325,144.248 33.9991,145.248 35.5,146.5C 36.7502,148.932 38.2502,151.266 40,153.5C 40.8159,154.823 41.9826,155.489 43.5,155.5C 44.8333,156.167 45.8333,157.167 46.5,158.5C 47.9475,161.264 50.2809,162.931 53.5,163.5C 53.5271,165.199 54.1938,166.533 55.5,167.5C 54.5,167.5 53.5,167.5 52.5,167.5C 52.719,166.325 52.3857,165.325 51.5,164.5C 46.895,161.887 42.395,159.887 38,158.5C 35.8664,162.353 36.033,166.02 38.5,169.5C 33.9281,166.437 29.7615,162.77 26,158.5C 21.6485,153.113 17.8151,147.447 14.5,141.5 Z"/></g>
<g><path style="opacity:1" fill="#d19e53" d="M 165.5,154.5 C 166.924,156.515 167.59,158.848 167.5,161.5C 166.076,159.485 165.41,157.152 165.5,154.5 Z"/></g>
<g><path style="opacity:1" fill="#d7f9fc" d="M 183.5,155.5 C 184.935,157.598 186.102,159.931 187,162.5C 188.888,166.996 190.055,171.663 190.5,176.5C 187.356,169.854 185.023,162.854 183.5,155.5 Z"/></g>
<g><path style="opacity:1" fill="#478297" d="M 168.5,157.5 C 170.143,160.314 171.643,163.314 173,166.5C 173.497,168.81 173.663,171.143 173.5,173.5C 171.585,173.784 169.919,173.451 168.5,172.5C 169.5,172.5 170.5,172.5 171.5,172.5C 171.795,170.265 171.461,168.265 170.5,166.5C 170.167,165.167 169.833,163.833 169.5,162.5C 168.962,160.883 168.629,159.216 168.5,157.5 Z"/></g>
<g><path style="opacity:1" fill="#3986ac" d="M 181.5,152.5 C 181.833,152.5 182.167,152.5 182.5,152.5C 182.263,153.791 182.596,154.791 183.5,155.5C 185.023,162.854 187.356,169.854 190.5,176.5C 190.5,176.833 190.5,177.167 190.5,177.5C 190.5,178.5 190.5,179.5 190.5,180.5C 185.586,171.868 182.586,162.534 181.5,152.5 Z"/></g>
<g><path style="opacity:1" fill="#3588b5" d="M 38.5,169.5 C 42.7952,172.613 47.4619,175.113 52.5,177C 55.3553,179.031 58.022,181.197 60.5,183.5C 53.3626,180.697 46.6959,177.031 40.5,172.5C 39.8333,171.5 39.1667,170.5 38.5,169.5 Z"/></g>
<g><path style="opacity:1" fill="#d9f8fb" d="M 40.5,172.5 C 46.6959,177.031 53.3626,180.697 60.5,183.5C 60.5,183.833 60.5,184.167 60.5,184.5C 58.0733,184.477 55.74,183.977 53.5,183C 50.611,179.611 46.9444,177.778 42.5,177.5C 42.1692,175.678 41.5025,174.011 40.5,172.5 Z"/></g>
<g><path style="opacity:1" fill="#138aca" d="M 190.5,106.5 C 188.805,118.59 185.805,130.256 181.5,141.5C 181.443,142.609 181.11,143.609 180.5,144.5C 179.133,147.012 179.466,149.345 181.5,151.5C 181.5,151.833 181.5,152.167 181.5,152.5C 182.586,162.534 185.586,171.868 190.5,180.5C 191.167,184.5 191.833,188.5 192.5,192.5C 189.5,192.5 186.5,192.5 183.5,192.5C 181.833,191.833 180.167,191.167 178.5,190.5C 166.439,183.821 153.439,179.988 139.5,179C 138.245,181.46 136.245,182.627 133.5,182.5C 128.438,184.07 123.604,183.403 119,180.5C 116.929,181.525 114.762,182.358 112.5,183C 111.874,183.75 111.374,184.584 111,185.5C 109.026,185.374 106.859,185.208 104.5,185C 104,184.5 103.5,184 103,183.5C 102.316,184.784 102.483,185.951 103.5,187C 105.715,187.17 107.715,187.837 109.5,189C 98.4409,189.906 87.4409,189.573 76.5,188C 73.9109,186.803 71.2442,185.803 68.5,185C 68.8333,184 69.1667,183 69.5,182C 67.5318,180.456 65.3651,179.289 63,178.5C 63.1519,180.076 63.9852,181.409 65.5,182.5C 63.9547,183.452 62.288,183.785 60.5,183.5C 58.022,181.197 55.3553,179.031 52.5,177C 47.4619,175.113 42.7952,172.613 38.5,169.5C 36.033,166.02 35.8664,162.353 38,158.5C 42.395,159.887 46.895,161.887 51.5,164.5C 52.3857,165.325 52.719,166.325 52.5,167.5C 53.5,167.5 54.5,167.5 55.5,167.5C 58.2976,168.953 61.2976,169.953 64.5,170.5C 64.6107,171.117 64.944,171.617 65.5,172C 68.5214,172.849 71.5214,173.683 74.5,174.5C 76.4352,175.15 78.4352,175.483 80.5,175.5C 85.7777,177.93 91.4444,178.93 97.5,178.5C 103.077,178.632 108.41,177.965 113.5,176.5C 119.551,175.244 125.551,173.411 131.5,171C 132.381,170.292 133.047,169.458 133.5,168.5C 135.898,168.741 137.898,168.074 139.5,166.5C 143.56,166.485 147.56,166.985 151.5,168C 156.713,170.017 162.046,171.517 167.5,172.5C 167.833,172.5 168.167,172.5 168.5,172.5C 169.919,173.451 171.585,173.784 173.5,173.5C 173.663,171.143 173.497,168.81 173,166.5C 171.643,163.314 170.143,160.314 168.5,157.5C 167.278,153.332 165.944,149.165 164.5,145C 165.391,142.721 166.391,140.554 167.5,138.5C 169.942,136.879 171.275,134.546 171.5,131.5C 173.612,128.728 175.278,125.728 176.5,122.5C 177.268,121.737 177.768,120.737 178,119.5C 178.928,121.335 180.094,121.668 181.5,120.5C 182.065,118.49 183.065,116.824 184.5,115.5C 185.655,112.554 185.821,109.554 185,106.5C 181.474,104.581 181.974,102.415 186.5,100C 185.383,96.9269 185.216,93.7603 186,90.5C 186.824,94.0719 188.157,96.7385 190,98.5C 190.497,101.146 190.664,103.813 190.5,106.5 Z"/></g>
<g><path style="opacity:1" fill="#42819b" d="M 80.5,175.5 C 81.8333,175.5 83.1667,175.5 84.5,175.5C 91.3134,176.491 98.3134,176.825 105.5,176.5C 108.167,176.5 110.833,176.5 113.5,176.5C 108.41,177.965 103.077,178.632 97.5,178.5C 91.4444,178.93 85.7777,177.93 80.5,175.5 Z"/></g>
<g><path style="opacity:1" fill="#678581" d="M 131.5,168.5 C 132.167,168.5 132.833,168.5 133.5,168.5C 133.047,169.458 132.381,170.292 131.5,171C 125.551,173.411 119.551,175.244 113.5,176.5C 110.833,176.5 108.167,176.5 105.5,176.5C 107.167,175.833 108.833,175.167 110.5,174.5C 110.833,174.5 111.167,174.5 111.5,174.5C 118.832,174.275 125.498,172.275 131.5,168.5 Z"/></g>
<g><path style="opacity:1" fill="#c99c56" d="M 78.5,173.5 C 80.8333,173.5 83.1667,173.5 85.5,173.5C 93.7483,174.469 102.082,174.802 110.5,174.5C 108.833,175.167 107.167,175.833 105.5,176.5C 98.3134,176.825 91.3134,176.491 84.5,175.5C 82.5,174.833 80.5,174.167 78.5,173.5 Z"/></g>
<g><path style="opacity:1" fill="#6b867a" d="M 74.5,174.5 C 74.5,174.167 74.5,173.833 74.5,173.5C 75.5,173.5 76.5,173.5 77.5,173.5C 77.8333,173.5 78.1667,173.5 78.5,173.5C 80.5,174.167 82.5,174.833 84.5,175.5C 83.1667,175.5 81.8333,175.5 80.5,175.5C 78.4352,175.483 76.4352,175.15 74.5,174.5 Z"/></g>
<g><path style="opacity:1" fill="#b79e62" d="M 71.5,171.5 C 73.8984,171.259 75.8984,171.926 77.5,173.5C 76.5,173.5 75.5,173.5 74.5,173.5C 73.2905,173.068 72.2905,172.401 71.5,171.5 Z"/></g>
<g><path style="opacity:1" fill="#9f9c7d" d="M 170.5,166.5 C 171.461,168.265 171.795,170.265 171.5,172.5C 170.5,172.5 169.5,172.5 168.5,172.5C 168.167,172.5 167.833,172.5 167.5,172.5C 167.5,172.167 167.5,171.833 167.5,171.5C 168.5,171.5 169.5,171.5 170.5,171.5C 170.5,169.833 170.5,168.167 170.5,166.5 Z"/></g>
<g><path style="opacity:1" fill="#427f99" d="M 64.5,170.5 C 66.2161,170.629 67.8828,170.962 69.5,171.5C 70.1667,171.5 70.8333,171.5 71.5,171.5C 72.2905,172.401 73.2905,173.068 74.5,173.5C 74.5,173.833 74.5,174.167 74.5,174.5C 71.5214,173.683 68.5214,172.849 65.5,172C 64.944,171.617 64.6107,171.117 64.5,170.5 Z"/></g>
<g><path style="opacity:1" fill="#c39e63" d="M 168.5,162.5 C 168.833,162.5 169.167,162.5 169.5,162.5C 169.833,163.833 170.167,165.167 170.5,166.5C 170.5,168.167 170.5,169.833 170.5,171.5C 169.5,171.5 168.5,171.5 167.5,171.5C 165.597,171.204 163.93,170.537 162.5,169.5C 164.861,169.674 167.194,170.007 169.5,170.5C 169.167,167.833 168.833,165.167 168.5,162.5 Z"/></g>
<g><path style="opacity:1" fill="#bf9e62" d="M 131.5,168.5 C 125.498,172.275 118.832,174.275 111.5,174.5C 114.575,172.952 117.909,171.952 121.5,171.5C 124.833,170.5 128.167,169.5 131.5,168.5 Z"/></g>
<g><path style="opacity:1" fill="#889380" d="M 63.5,168.5 C 65.9674,168.755 67.9674,169.755 69.5,171.5C 67.8828,170.962 66.2161,170.629 64.5,170.5C 64.1667,169.833 63.8333,169.167 63.5,168.5 Z"/></g>
<g><path style="opacity:1" fill="#b39c64" d="M 156.5,167.5 C 157.833,167.5 159.167,167.5 160.5,167.5C 161.167,168.167 161.833,168.833 162.5,169.5C 160.102,169.741 158.102,169.074 156.5,167.5 Z"/></g>
<g><path style="opacity:1" fill="#4e808a" d="M 151.5,166.5 C 153.042,167.301 154.708,167.634 156.5,167.5C 158.102,169.074 160.102,169.741 162.5,169.5C 163.93,170.537 165.597,171.204 167.5,171.5C 167.5,171.833 167.5,172.167 167.5,172.5C 162.046,171.517 156.713,170.017 151.5,168C 147.56,166.985 143.56,166.485 139.5,166.5C 140.134,165.053 141.301,164.387 143,164.5C 145.731,165.617 148.565,166.283 151.5,166.5 Z"/></g>
<g><path style="opacity:1" fill="#648485" d="M 137.5,166.5 C 138.167,166.5 138.833,166.5 139.5,166.5C 137.898,168.074 135.898,168.741 133.5,168.5C 134.514,167.326 135.847,166.66 137.5,166.5 Z"/></g>
<g><path style="opacity:1" fill="#a59d7f" d="M 60.5,166.5 C 62.0269,166.427 63.0269,167.094 63.5,168.5C 61.9731,168.573 60.9731,167.906 60.5,166.5 Z"/></g>
<g><path style="opacity:1" fill="#e29639" d="M 160.5,167.5 C 159.167,167.5 157.833,167.5 156.5,167.5C 154.708,167.634 153.042,167.301 151.5,166.5C 147.973,163.871 143.973,163.038 139.5,164C 138.619,164.708 137.953,165.542 137.5,166.5C 135.847,166.66 134.514,167.326 133.5,168.5C 132.833,168.5 132.167,168.5 131.5,168.5C 128.167,169.5 124.833,170.5 121.5,171.5C 123.29,170.239 124.957,168.739 126.5,167C 129.956,166.82 133.289,166.153 136.5,165C 137.337,163.989 137.67,162.822 137.5,161.5C 142.179,161.334 146.845,161.501 151.5,162C 153.751,163.871 156.417,165.037 159.5,165.5C 159.863,166.183 160.196,166.85 160.5,167.5 Z"/></g>
<g><path style="opacity:1" fill="#43839c" d="M 53.5,163.5 C 55.1667,164.167 56.8333,164.833 58.5,165.5C 58.8417,166.338 59.5084,166.672 60.5,166.5C 60.9731,167.906 61.9731,168.573 63.5,168.5C 63.8333,169.167 64.1667,169.833 64.5,170.5C 61.2976,169.953 58.2976,168.953 55.5,167.5C 54.1938,166.533 53.5271,165.199 53.5,163.5 Z"/></g>
<g><path style="opacity:1" fill="#96936e" d="M 151.5,166.5 C 148.565,166.283 145.731,165.617 143,164.5C 141.301,164.387 140.134,165.053 139.5,166.5C 138.833,166.5 138.167,166.5 137.5,166.5C 137.953,165.542 138.619,164.708 139.5,164C 143.973,163.038 147.973,163.871 151.5,166.5 Z"/></g>
<g><path style="opacity:1" fill="#c59c5b" d="M 52.5,161.5 C 55.8559,160.862 57.8559,162.196 58.5,165.5C 56.8333,164.833 55.1667,164.167 53.5,163.5C 53.1667,162.833 52.8333,162.167 52.5,161.5 Z"/></g>
<g><path style="opacity:1" fill="#e0963a" d="M 51.5,159.5 C 52.1667,159.5 52.8333,159.5 53.5,159.5C 56.8367,159.951 59.17,161.785 60.5,165C 64.9214,164.612 68.2547,166.279 70.5,170C 75.7508,170.659 80.7508,171.825 85.5,173.5C 83.1667,173.5 80.8333,173.5 78.5,173.5C 78.1667,173.5 77.8333,173.5 77.5,173.5C 75.8984,171.926 73.8984,171.259 71.5,171.5C 70.8333,171.5 70.1667,171.5 69.5,171.5C 67.9674,169.755 65.9674,168.755 63.5,168.5C 63.0269,167.094 62.0269,166.427 60.5,166.5C 59.5084,166.672 58.8417,166.338 58.5,165.5C 57.8559,162.196 55.8559,160.862 52.5,161.5C 52.1667,160.833 51.8333,160.167 51.5,159.5 Z"/></g>
<g><path style="opacity:1" fill="#ada06e" d="M 49.5,159.5 C 50.1667,159.5 50.8333,159.5 51.5,159.5C 51.8333,160.167 52.1667,160.833 52.5,161.5C 50.9731,161.573 49.9731,160.906 49.5,159.5 Z"/></g>
<g><path style="opacity:1" fill="#4c8087" d="M 46.5,158.5 C 47.391,159.11 48.391,159.443 49.5,159.5C 49.9731,160.906 50.9731,161.573 52.5,161.5C 52.8333,162.167 53.1667,162.833 53.5,163.5C 50.2809,162.931 47.9475,161.264 46.5,158.5 Z"/></g>
<g><path style="opacity:1" fill="#2788c1" d="M 133.5,182.5 C 133.167,183.167 132.833,183.833 132.5,184.5C 121.395,189.761 109.562,192.094 97,191.5C 86.9513,191.314 77.118,189.981 67.5,187.5C 65.5739,185.707 63.2406,184.707 60.5,184.5C 60.5,184.167 60.5,183.833 60.5,183.5C 62.288,183.785 63.9547,183.452 65.5,182.5C 63.9852,181.409 63.1519,180.076 63,178.5C 65.3651,179.289 67.5318,180.456 69.5,182C 69.1667,183 68.8333,184 68.5,185C 71.2442,185.803 73.9109,186.803 76.5,188C 87.4409,189.573 98.4409,189.906 109.5,189C 107.715,187.837 105.715,187.17 103.5,187C 102.483,185.951 102.316,184.784 103,183.5C 103.5,184 104,184.5 104.5,185C 106.859,185.208 109.026,185.374 111,185.5C 111.374,184.584 111.874,183.75 112.5,183C 114.762,182.358 116.929,181.525 119,180.5C 123.604,183.403 128.438,184.07 133.5,182.5 Z"/></g>
<g><path style="opacity:1" fill="#3887b0" d="M 178.5,190.5 C 169.921,187.855 161.254,185.522 152.5,183.5C 150.246,182.131 147.746,181.131 145,180.5C 140.968,182.267 136.801,183.6 132.5,184.5C 132.833,183.833 133.167,183.167 133.5,182.5C 136.245,182.627 138.245,181.46 139.5,179C 153.439,179.988 166.439,183.821 178.5,190.5 Z"/></g>
<g><path style="opacity:1" fill="#e3fafb" d="M 152.5,183.5 C 161.254,185.522 169.921,187.855 178.5,190.5C 180.167,191.167 181.833,191.833 183.5,192.5C 185.975,193.131 188.309,194.131 190.5,195.5C 186.456,196.042 182.789,195.209 179.5,193C 174.805,192.128 170.139,191.128 165.5,190C 161.343,187.255 157.01,185.088 152.5,183.5 Z"/></g>
<g><path style="opacity:1" fill="#e5fbfc" d="M 152.5,183.5 C 149.159,182.995 145.826,182.828 142.5,183C 137.679,184.077 133.346,186.244 129.5,189.5C 124.76,190.357 120.093,191.524 115.5,193C 116.833,193.667 116.833,194.333 115.5,195C 112.653,195.944 110.153,195.444 108,193.5C 106.769,194.108 105.436,194.441 104,194.5C 94.8397,193.616 85.6731,192.783 76.5,192C 73.7284,191.474 71.0618,190.641 68.5,189.5C 68.1373,188.817 67.8039,188.15 67.5,187.5C 77.118,189.981 86.9513,191.314 97,191.5C 109.562,192.094 121.395,189.761 132.5,184.5C 136.801,183.6 140.968,182.267 145,180.5C 147.746,181.131 150.246,182.131 152.5,183.5 Z"/></g>
<g><path style="opacity:1" fill="#3b87b1" d="M 190.5,180.5 C 192.829,184.642 194.495,189.142 195.5,194C 195.164,195.03 194.497,195.53 193.5,195.5C 192.5,195.5 191.5,195.5 190.5,195.5C 188.309,194.131 185.975,193.131 183.5,192.5C 186.5,192.5 189.5,192.5 192.5,192.5C 191.833,188.5 191.167,184.5 190.5,180.5 Z"/></g>
<g><path style="opacity:1" fill="#cfeef2" d="M 190.5,177.5 C 191.943,178.335 192.943,179.668 193.5,181.5C 194.87,184.418 195.87,187.418 196.5,190.5C 197.535,192.205 197.535,193.872 196.5,195.5C 195.386,196.776 194.386,196.776 193.5,195.5C 194.497,195.53 195.164,195.03 195.5,194C 194.495,189.142 192.829,184.642 190.5,180.5C 190.5,179.5 190.5,178.5 190.5,177.5 Z"/></g>
</svg>
