<?xml version="1.0" encoding="UTF-8"?>
<!DOCTYPE svg PUBLIC "-//W3C//DTD SVG 1.1//EN" "http://www.w3.org/Graphics/SVG/1.1/DTD/svg11.dtd">
<svg xmlns="http://www.w3.org/2000/svg" version="1.1" width="520px" height="97px" style="shape-rendering:geometricPrecision; text-rendering:geometricPrecision; image-rendering:optimizeQuality; fill-rule:evenodd; clip-rule:evenodd" xmlns:xlink="http://www.w3.org/1999/xlink">
<g><path style="opacity:1" fill="#fdfefe" d="M -0.5,-0.5 C 172.833,-0.5 346.167,-0.5 519.5,-0.5C 519.5,31.8333 519.5,64.1667 519.5,96.5C 346.167,96.5 172.833,96.5 -0.5,96.5C -0.5,64.1667 -0.5,31.8333 -0.5,-0.5 Z"/></g>
<g><path style="opacity:1" fill="#248ccc" d="M 37.5,0.5 C 67.8836,-2.24214 86.7169,11.0912 94,40.5C 95.1584,51.2143 92.9918,61.2143 87.5,70.5C 90.1667,78.1667 92.8333,85.8333 95.5,93.5C 95,93.8333 94.5,94.1667 94,94.5C 86.1905,92.0633 78.3572,89.7299 70.5,87.5C 44.4173,98.3255 23.2507,92.3255 7,69.5C -3.90127,46.8053 -0.0679358,26.9719 18.5,10C 24.3784,5.72741 30.7117,2.56075 37.5,0.5 Z"/></g>
<g><path style="opacity:1" fill="#f29122" d="M 39.5,7.5 C 61.3195,5.64783 76.4862,14.6478 85,34.5C 88.2297,47.1187 86.3964,58.9521 79.5,70C 81.3125,74.4194 82.4792,78.9194 83,83.5C 78.6362,81.7831 74.1362,80.4498 69.5,79.5C 47.4011,90.3498 28.9011,86.0165 14,66.5C 4.93416,48.7925 7.10083,32.6258 20.5,18C 26.3161,13.4282 32.6495,9.92823 39.5,7.5 Z"/></g>
<g><path style="opacity:1" fill="#fdfbf8" d="M 39.5,21.5 C 46.8409,21.3337 54.1742,21.5003 61.5,22C 62,22.5 62.5,23 63,23.5C 63.6667,38.8333 63.6667,54.1667 63,69.5C 62.5,70 62,70.5 61.5,71C 51.8333,71.6667 42.1667,71.6667 32.5,71C 32,70.5 31.5,70 31,69.5C 30.3333,56.8333 30.3333,44.1667 31,31.5C 32.9779,27.3619 35.8112,24.0286 39.5,21.5 Z"/></g>
<g><path style="opacity:1" fill="#208dce" d="M 247.5,24.5 C 252.248,24.2748 256.915,24.7748 261.5,26C 262.45,28.4321 262.45,30.9321 261.5,33.5C 259.09,32.6114 256.59,31.9448 254,31.5C 247.666,31.4592 246.166,33.9592 249.5,39C 255.487,40.5659 260.32,43.7325 264,48.5C 266.197,57.604 262.697,63.104 253.5,65C 248.362,65.8196 243.362,65.3196 238.5,63.5C 237.509,60.7559 237.843,58.0893 239.5,55.5C 243.974,57.4679 248.64,57.9679 253.5,57C 256.462,53.5118 255.795,50.8451 251.5,49C 238.892,46.1246 235.558,39.1246 241.5,28C 243.727,27.059 245.727,25.8923 247.5,24.5 Z"/></g>
<g><path style="opacity:1" fill="#1f8cce" d="M 384.5,23.5 C 390.643,24.0262 391.976,26.8595 388.5,32C 383,33.1667 380.833,31 382,25.5C 382.995,24.9341 383.828,24.2674 384.5,23.5 Z"/></g>
<g><path style="opacity:1" fill="#168bcd" d="M 106.5,25.5 C 116.833,25.5 127.167,25.5 137.5,25.5C 137.5,27.8333 137.5,30.1667 137.5,32.5C 133.833,32.5 130.167,32.5 126.5,32.5C 126.5,43.1667 126.5,53.8333 126.5,64.5C 123.5,64.5 120.5,64.5 117.5,64.5C 117.5,53.8333 117.5,43.1667 117.5,32.5C 113.833,32.5 110.167,32.5 106.5,32.5C 106.5,30.1667 106.5,27.8333 106.5,25.5 Z"/></g>
<g><path style="opacity:1" fill="#96c4e0" d="M 166.5,25.5 C 158.5,25.5 150.5,25.5 142.5,25.5C 142.5,38.5 142.5,51.5 142.5,64.5C 141.504,51.3438 141.171,38.0105 141.5,24.5C 150.017,24.1739 158.35,24.5073 166.5,25.5 Z"/></g>
<g><path style="opacity:1" fill="#178bce" d="M 166.5,25.5 C 166.5,27.8333 166.5,30.1667 166.5,32.5C 161.5,32.5 156.5,32.5 151.5,32.5C 151.5,35.1667 151.5,37.8333 151.5,40.5C 156.167,40.5 160.833,40.5 165.5,40.5C 165.5,42.8333 165.5,45.1667 165.5,47.5C 160.821,47.3342 156.155,47.5008 151.5,48C 150.549,51.0567 150.216,54.2234 150.5,57.5C 156.167,57.5 161.833,57.5 167.5,57.5C 167.5,59.8333 167.5,62.1667 167.5,64.5C 159.167,64.5 150.833,64.5 142.5,64.5C 142.5,51.5 142.5,38.5 142.5,25.5C 150.5,25.5 158.5,25.5 166.5,25.5 Z"/></g>
<g><path style="opacity:1" fill="#138bcd" d="M 173.5,25.5 C 176.5,25.5 179.5,25.5 182.5,25.5C 182.5,36.1667 182.5,46.8333 182.5,57.5C 187.833,57.5 193.167,57.5 198.5,57.5C 198.5,59.8333 198.5,62.1667 198.5,64.5C 190.167,64.5 181.833,64.5 173.5,64.5C 173.5,51.5 173.5,38.5 173.5,25.5 Z"/></g>
<g><path style="opacity:1" fill="#77b2d8" d="M 313.5,23.5 C 310.833,23.5 308.167,23.5 305.5,23.5C 305.5,37.1667 305.5,50.8333 305.5,64.5C 304.504,50.6766 304.171,36.6766 304.5,22.5C 307.713,22.19 310.713,22.5233 313.5,23.5 Z"/></g>
<g><path style="opacity:1" fill="#0d89ce" d="M 313.5,23.5 C 313.5,37.1667 313.5,50.8333 313.5,64.5C 310.833,64.5 308.167,64.5 305.5,64.5C 305.5,50.8333 305.5,37.1667 305.5,23.5C 308.167,23.5 310.833,23.5 313.5,23.5 Z"/></g>
<g><path style="opacity:1" fill="#238ece" d="M 474.5,35.5 C 487.428,34.4278 493.428,40.4278 492.5,53.5C 486.132,53.1703 479.798,53.5037 473.5,54.5C 474.313,55.8139 475.313,56.9805 476.5,58C 480.871,58.6292 485.204,58.4625 489.5,57.5C 490.231,59.5988 490.231,61.5988 489.5,63.5C 478.727,68.2891 470.56,65.6225 465,55.5C 463.112,46.2925 466.279,39.6258 474.5,35.5 Z"/></g>
<g><path style="opacity:1" fill="#85b9dd" d="M 339.5,36.5 C 342.287,35.5233 345.287,35.19 348.5,35.5C 348.5,44.5 348.5,53.5 348.5,62.5C 347.507,54.0161 347.174,45.3494 347.5,36.5C 344.833,36.5 342.167,36.5 339.5,36.5 Z"/></g>
<g><path style="opacity:1" fill="#1e8cce" d="M 364.5,35.5 C 368.5,35.5 372.5,35.5 376.5,35.5C 376.682,37.5914 376.348,39.5914 375.5,41.5C 366.466,40.7031 362.299,44.7031 363,53.5C 365.854,58.288 369.854,59.6213 375,57.5C 376.202,59.6775 376.702,62.0108 376.5,64.5C 360.54,68.0336 353.04,61.7003 354,45.5C 356.081,40.5837 359.581,37.2504 364.5,35.5 Z"/></g>
<g><path style="opacity:1" fill="#76b2dc" d="M 390.5,36.5 C 387.833,36.5 385.167,36.5 382.5,36.5C 382.5,45.8333 382.5,55.1667 382.5,64.5C 381.506,55.0144 381.173,45.3478 381.5,35.5C 384.713,35.19 387.713,35.5233 390.5,36.5 Z"/></g>
<g><path style="opacity:1" fill="#1c8cce" d="M 406.5,35.5 C 424.567,35.6448 430.067,43.9781 423,60.5C 416.689,65.8931 409.856,66.7265 402.5,63C 396.882,58.0712 395.049,51.9045 397,44.5C 399.256,40.47 402.422,37.47 406.5,35.5 Z"/></g>
<g><path style="opacity:1" fill="#1a8bcd" d="M 432.5,64.5 C 432.5,55.1667 432.5,45.8333 432.5,36.5C 434.833,36.5 437.167,36.5 439.5,36.5C 439.351,37.552 439.517,38.552 440,39.5C 445.667,34.1667 451.333,34.1667 457,39.5C 457.667,40.8333 458.333,42.1667 459,43.5C 459.5,50.4921 459.666,57.4921 459.5,64.5C 456.5,64.5 453.5,64.5 450.5,64.5C 450.666,58.1579 450.5,51.8246 450,45.5C 447,41.5 444,41.5 441,45.5C 440.5,51.8246 440.334,58.1579 440.5,64.5C 437.833,64.5 435.167,64.5 432.5,64.5 Z"/></g>
<g><path style="opacity:1" fill="#208dce" d="M 503.5,35.5 C 507.548,35.3946 511.548,35.7279 515.5,36.5C 515.739,38.4672 515.406,40.3005 514.5,42C 511.867,41.7468 509.2,41.7468 506.5,42C 505.167,43.3333 505.167,44.6667 506.5,46C 513.818,47.2932 517.318,51.4599 517,58.5C 515.612,61.9448 513.112,64.1114 509.5,65C 505.074,65.7907 500.741,65.4573 496.5,64C 495.715,61.9583 496.048,59.9583 497.5,58C 500.652,59.1859 503.985,59.5193 507.5,59C 508.38,57.6439 508.714,56.1439 508.5,54.5C 498.72,53.5901 495.22,48.5901 498,39.5C 499.812,38.0229 501.645,36.6896 503.5,35.5 Z"/></g>
<g><path style="opacity:1" fill="#8bbcdf" d="M 329.5,36.5 C 326.833,36.5 324.167,36.5 321.5,36.5C 321.5,43.5 321.5,50.5 321.5,57.5C 320.508,50.3524 320.175,43.0191 320.5,35.5C 323.713,35.19 326.713,35.5233 329.5,36.5 Z"/></g>
<g><path style="opacity:1" fill="#138acd" d="M 329.5,36.5 C 329.334,42.5092 329.501,48.5092 330,54.5C 332.477,59.3681 335.477,59.7014 339,55.5C 339.5,49.1754 339.666,42.8421 339.5,36.5C 342.167,36.5 344.833,36.5 347.5,36.5C 347.174,45.3494 347.507,54.0161 348.5,62.5C 346.365,64.369 343.698,65.0356 340.5,64.5C 340.719,63.325 340.386,62.325 339.5,61.5C 333.963,66.7946 328.463,66.7946 323,61.5C 322.209,60.255 321.709,58.9217 321.5,57.5C 321.5,50.5 321.5,43.5 321.5,36.5C 324.167,36.5 326.833,36.5 329.5,36.5 Z"/></g>
<g><path style="opacity:1" fill="#0d8acd" d="M 390.5,36.5 C 390.5,45.8333 390.5,55.1667 390.5,64.5C 387.833,64.5 385.167,64.5 382.5,64.5C 382.5,55.1667 382.5,45.8333 382.5,36.5C 385.167,36.5 387.833,36.5 390.5,36.5 Z"/></g>
<g><path style="opacity:1" fill="#1d8cce" d="M 279.5,35.5 C 297.555,35.6168 303.055,43.9501 296,60.5C 286.944,67.7404 278.611,67.0737 271,58.5C 266.753,48.0339 269.586,40.3673 279.5,35.5 Z"/></g>
<g><path style="opacity:1" fill="#f3911f" d="M 224.5,46.5 C 222.573,49.7673 220.239,52.7673 217.5,55.5C 213.955,53.1435 211.455,50.1435 210,46.5C 212.333,44.1667 214.667,41.8333 217,39.5C 219.37,42.0386 221.87,44.3719 224.5,46.5 Z"/></g>
<g><path style="opacity:1" fill="#eaf4f8" d="M 475.5,41.5 C 480.836,40.1845 483.503,42.1845 483.5,47.5C 480.167,47.5 476.833,47.5 473.5,47.5C 473.604,45.2972 474.27,43.2972 475.5,41.5 Z"/></g>
<g><path style="opacity:1" fill="#f8fbfb" d="M 282.5,41.5 C 285.325,41.0807 287.491,42.0807 289,44.5C 289.996,49.2288 289.496,53.7288 287.5,58C 283.525,59.3794 280.691,58.2127 279,54.5C 277.539,49.3265 278.706,44.9932 282.5,41.5 Z"/></g>
<g><path style="opacity:1" fill="#f5f9fb" d="M 409.5,41.5 C 413.601,41.4295 416.101,43.4295 417,47.5C 417.931,51.4123 417.097,54.9123 414.5,58C 410.525,59.3794 407.691,58.2127 406,54.5C 404.668,49.4145 405.835,45.0812 409.5,41.5 Z"/></g>
<g><path style="opacity:1" fill="#80b7dc" d="M 439.5,36.5 C 437.167,36.5 434.833,36.5 432.5,36.5C 432.5,45.8333 432.5,55.1667 432.5,64.5C 431.506,55.0144 431.173,45.3478 431.5,35.5C 434.385,35.1936 437.052,35.5269 439.5,36.5 Z"/></g>
<g><path style="opacity:1" fill="#fbfaf9" d="M 59.5,49.5 C 59.5,53.8333 59.5,58.1667 59.5,62.5C 51.1667,62.5 42.8333,62.5 34.5,62.5C 34.5,60.5 34.5,58.5 34.5,56.5C 40.5092,56.6662 46.5092,56.4995 52.5,56C 53.056,55.6174 53.3893,55.1174 53.5,54.5C 54.4511,53.0813 54.7845,51.4147 54.5,49.5C 56.1667,49.5 57.8333,49.5 59.5,49.5 Z"/></g>
<g><path style="opacity:1" fill="#f6c898" d="M 59.5,49.5 C 57.8333,49.5 56.1667,49.5 54.5,49.5C 54.7845,51.4147 54.4511,53.0813 53.5,54.5C 53.3893,55.1174 53.056,55.6174 52.5,56C 46.5092,56.4995 40.5092,56.6662 34.5,56.5C 34.5,58.5 34.5,60.5 34.5,62.5C 33.1667,62.8333 33.1667,63.1667 34.5,63.5C 34.5,64.8333 34.5,66.1667 34.5,67.5C 34.5,67.8333 34.5,68.1667 34.5,68.5C 33.8826,68.3893 33.3826,68.056 33,67.5C 32.3333,61.5 32.3333,55.5 33,49.5C 33.5,49 34,48.5 34.5,48C 42.5,47.3333 50.5,47.3333 58.5,48C 59.056,48.3826 59.3893,48.8826 59.5,49.5 Z"/></g>
<g><path style="opacity:1" fill="#fcf8f3" d="M 53.5,54.5 C 48.5674,56.575 46.5674,54.9083 47.5,49.5C 49.5,49.5 51.5,49.5 53.5,49.5C 53.5,51.1667 53.5,52.8333 53.5,54.5 Z"/></g>
<g><path style="opacity:1" fill="#fcf8f4" d="M 41.5,49.5 C 43.1667,49.5 44.8333,49.5 46.5,49.5C 46.5,51.5 46.5,53.5 46.5,55.5C 44.8333,55.5 43.1667,55.5 41.5,55.5C 41.5,53.5 41.5,51.5 41.5,49.5 Z"/></g>
<g><path style="opacity:1" fill="#fdf6f0" d="M 34.5,49.5 C 36.1667,49.5 37.8333,49.5 39.5,49.5C 39.5,51.5 39.5,53.5 39.5,55.5C 34.0738,56.4161 32.4071,54.4161 34.5,49.5 Z"/></g>
<g><path style="opacity:1" fill="#95bbce" d="M 224.5,46.5 C 225.573,47.2506 225.74,48.2506 225,49.5C 222.894,52.1177 220.394,54.1177 217.5,55.5C 220.239,52.7673 222.573,49.7673 224.5,46.5 Z"/></g>
<g><path style="opacity:1" fill="#fcfcf9" d="M 34.5,63.5 C 36.5,63.5 38.5,63.5 40.5,63.5C 40.5,64.8333 40.5,66.1667 40.5,67.5C 38.5,67.5 36.5,67.5 34.5,67.5C 34.5,66.1667 34.5,64.8333 34.5,63.5 Z"/></g>
<g><path style="opacity:1" fill="#f0a858" d="M 59.5,49.5 C 60.8333,55.5 60.8333,61.5 59.5,67.5C 51.3501,68.4927 43.0168,68.8261 34.5,68.5C 34.5,68.1667 34.5,67.8333 34.5,67.5C 36.5,67.5 38.5,67.5 40.5,67.5C 40.5,66.1667 40.5,64.8333 40.5,63.5C 38.5,63.5 36.5,63.5 34.5,63.5C 33.1667,63.1667 33.1667,62.8333 34.5,62.5C 42.8333,62.5 51.1667,62.5 59.5,62.5C 59.5,58.1667 59.5,53.8333 59.5,49.5 Z"/></g>
<g><path style="opacity:1" fill="#fcfcfa" d="M 59.5,67.5 C 57.8333,67.5 56.1667,67.5 54.5,67.5C 54.5,66.1667 54.5,64.8333 54.5,63.5C 56.1667,63.5 57.8333,63.5 59.5,63.5C 59.5,64.8333 59.5,66.1667 59.5,67.5 Z"/></g>
<g><path style="opacity:1" fill="#faf9f3" d="M 47.5,63.5 C 49.5,63.5 51.5,63.5 53.5,63.5C 53.5,64.8333 53.5,66.1667 53.5,67.5C 51.5,67.5 49.5,67.5 47.5,67.5C 47.5,66.1667 47.5,64.8333 47.5,63.5 Z"/></g>
<g><path style="opacity:1" fill="#fcfefd" d="M 41.5,63.5 C 43.1667,63.5 44.8333,63.5 46.5,63.5C 46.5,64.8333 46.5,66.1667 46.5,67.5C 44.8333,67.5 43.1667,67.5 41.5,67.5C 41.5,66.1667 41.5,64.8333 41.5,63.5 Z"/></g>
</svg>
