<svg xmlns="http://www.w3.org/2000/svg" width="197px" height="57px" viewBox="0 0 197 57" fill="none">
<g clip-path="url(#clip0_55_92)">
<path d="M156.646 33.0131C156.057 33.8945 155.281 34.6359 154.341 35.2123C153.341 35.8307 152.206 36.144 150.971 36.144C150.025 36.144 149.112 35.9314 148.255 35.5089C147.388 35.0808 146.623 34.5016 145.991 33.7854C145.353 33.0663 144.837 32.2045 144.459 31.2224C144.08 30.2404 143.888 29.1827 143.888 28.0775C143.888 26.9723 144.08 25.9147 144.459 24.9326C144.834 23.9533 145.356 23.0916 146.01 22.3725C146.661 21.6534 147.426 21.0742 148.282 20.6434C149.126 20.2209 150.031 20.0082 150.971 20.0082C152.266 20.0082 153.374 20.2964 154.268 20.8616C155.117 21.4044 155.86 22.0871 156.473 22.8929L156.989 23.57L162.237 17.9209L161.781 17.4005C160.397 15.8225 158.759 14.6249 156.914 13.8387C155.014 13.0301 152.982 12.6216 150.877 12.6216C148.831 12.6216 146.883 13.0245 145.091 13.8191C143.299 14.611 141.732 15.7162 140.427 17.1039C139.124 18.4889 138.076 20.1397 137.316 22.006C136.554 23.8778 136.168 25.9231 136.168 28.0803C136.168 30.2683 136.554 32.336 137.316 34.2246C138.078 36.1133 139.135 37.7641 140.454 39.1323C141.772 40.5005 143.351 41.5889 145.14 42.3639C146.934 43.1417 148.863 43.5362 150.874 43.5362C153.044 43.5362 155.146 43.0914 157.127 42.2156C159.048 41.365 160.724 40.1171 162.11 38.5083L162.561 37.9851L157.143 32.2717L156.646 33.0131Z" fill="#FFFFFF"/>
<path d="M8.74204 36.7847V36.7875L8.55829 36.6924C8.37723 36.6 8.23941 36.5049 8.13132 36.3986C7.73137 36.0069 7.52059 35.299 7.52059 34.3477L7.52059 1.53882L0 1.53882L0 35.5788C0 37.2436 0.175652 38.4187 0.56749 39.3896C1.02148 40.5116 1.58357 41.3706 2.29158 42.0141C2.45642 42.1652 2.63477 42.3079 2.82394 42.4478L2.778 42.4646L3.50222 42.8927C3.67247 43.027 4.6345 43.7013 7.09632 43.8859C7.52059 43.9167 7.96648 43.9335 8.43398 43.9335C9.52302 43.9335 10.7283 43.8468 12.0308 43.6733L12.2848 43.6397L12.2848 36.7819L11.9389 36.8491C10.15 37.1988 9.10686 36.9218 8.74204 36.7847Z" fill="#FFFFFF"/>
<path d="M31.6281 34.2639C30.8039 35.0081 29.9148 35.5593 28.9906 35.9035C27.6827 36.3903 26.6153 36.6169 25.6262 36.6169C24.8615 36.6169 24.0751 36.4491 23.1563 36.0881C22.4753 35.8223 21.8024 35.4054 21.1512 34.8458C20.5837 34.359 20.081 33.749 19.6568 33.0356C19.3676 32.5459 19.1217 32.0283 18.9217 31.4883L39.5703 31.5386L39.6459 30.8755C39.6973 30.4195 39.7459 29.9718 39.7864 29.5409C39.8351 29.0345 39.8594 28.5364 39.8594 28.0664C39.8648 25.8112 39.4757 23.7156 38.7001 21.8381C37.9272 19.9635 36.8571 18.3267 35.5222 16.9697C34.2899 15.719 32.7766 14.7117 30.8931 13.8835C29.2717 13.1728 27.4665 12.8259 25.3695 12.8259C23.213 12.8259 21.3809 13.1868 19.7703 13.9311C17.9462 14.7733 16.4437 15.8337 15.1736 17.1711C13.8522 18.5645 12.8064 20.2041 12.0713 22.0424C11.3201 23.9114 10.9391 25.9343 10.9337 28.0496C10.9282 30.1676 11.3039 32.1906 12.047 34.068C12.7875 35.937 13.8143 37.5878 15.1033 38.9756C16.3734 40.3438 17.9138 41.4546 19.6865 42.2772C21.4349 43.0886 23.3536 43.4999 25.4344 43.4999C27.4152 43.4999 29.3041 43.1949 31.0444 42.5934C32.7712 41.9946 34.5466 40.9762 36.3221 39.5688L36.9652 39.0596L32.1361 33.7994L31.6281 34.2639ZM21.2917 21.3345C22.4618 20.3468 23.8211 19.8432 25.3317 19.8432C26.845 19.8432 28.2259 20.358 29.4419 21.3709C30.4769 22.2354 31.2201 23.2623 31.7092 24.4962L19.0433 24.4962C19.5352 23.2343 20.2756 22.1963 21.2917 21.3345Z" fill="#FFFFFF"/>
<path d="M121.24 0.296448C117.914 0.296448 115.627 1.28413 114.247 3.32104C112.941 5.24604 112.277 8.09156 112.277 11.7737V13.279H108.809V20.6152H112.277V42.61H119.794V20.6124L124.129 20.6124V13.2762H119.794V11.6729C119.794 10.2572 120.059 9.20795 120.556 8.63716C120.992 8.13913 121.832 7.87612 122.989 7.87612C123.529 7.87612 123.988 7.91249 124.478 7.99363L124.996 8.09436V0.648991L124.756 0.604223C123.675 0.40277 122.459 0.296448 121.24 0.296448Z" fill="#FFFFFF"/>
<path d="M134.536 13.2764L127.018 13.2764V42.35H134.536V13.2764Z" fill="#FFFFFF"/>
<path d="M131.114 0C128.434 0 126.334 2.17401 126.334 4.95239C126.334 7.69439 128.434 9.84042 131.114 9.84042C133.719 9.84042 135.838 7.64682 135.838 4.95239C135.838 2.17401 133.763 0 131.114 0Z" fill="#FFFFFF"/>
<path d="M186.512 20.5006C185.969 18.7519 185.156 17.3222 184.031 16.1274C183.091 15.095 181.848 14.2444 180.332 13.5953C178.821 12.949 177.084 12.6244 175.162 12.6244C173.119 12.6244 171.106 13.0329 169.177 13.8415C167.32 14.6165 165.65 15.7245 164.218 17.1291L163.686 17.6523L168.339 22.6187L168.858 22.1402C169.747 21.3204 170.639 20.7413 171.514 20.4251C172.449 20.0865 173.365 19.9131 174.233 19.9131C175.995 19.9131 177.357 20.3607 178.281 21.2449C179.119 22.0479 179.556 23.1139 179.616 24.5017H176.327C174.192 24.5017 172.625 24.6584 171.247 25.0137C169.566 25.4418 168.196 26.0378 167.055 26.8324C165.834 27.6858 164.867 28.7434 164.177 29.9773C163.467 31.2476 163.107 32.7445 163.107 34.4261C163.107 35.7663 163.332 37.003 163.775 38.1082C164.218 39.2162 164.858 40.1927 165.685 41.0097C166.507 41.8239 167.488 42.4562 168.607 42.8899C169.715 43.318 170.966 43.5362 172.322 43.5362C173.749 43.5362 175.16 43.3656 176.514 43.0298C177.584 42.764 178.627 42.3219 179.619 41.7176V42.6101H187.136V26.5554C187.145 23.7435 186.955 21.9304 186.512 20.5006ZM179.624 34.9045C178.748 35.4305 177.878 35.839 177.03 36.1244C176.108 36.4322 175.168 36.5889 174.23 36.5889C173.209 36.5889 172.371 36.3147 171.739 35.7775C171.128 35.2571 170.831 34.6024 170.831 33.777C170.831 33.209 170.977 32.7193 171.263 32.3248C171.568 31.9051 171.993 31.5526 172.525 31.2784C173.063 31.0014 173.733 30.7971 174.519 30.674C175.279 30.5537 176.135 30.4922 177.073 30.4922H179.624V34.9045Z" fill="#FFFFFF"/>
<path d="M73.725 43.1277L74.0439 43.1613V31.8156C74.0601 31.0405 74.0601 30.2627 74.0439 29.5156V25.3775C74.0763 24.8067 74.1412 24.2891 74.2357 23.8498C74.2871 23.6343 74.3601 23.3573 74.4573 23.1055C74.7276 22.4032 75.0924 21.7905 75.5139 21.3316C75.9058 20.9035 76.3328 20.5901 76.7867 20.4027C77.238 20.2152 77.6542 20.1201 78.0244 20.1201C78.7216 20.1201 79.4323 20.3775 80.1322 20.8839C80.3133 21.0154 80.4916 21.1553 80.6646 21.298L80.9213 21.5107L81.0943 21.2197C81.7401 20.1341 83.4804 17.4201 85.6747 15.6881L85.9477 15.4727L85.6963 15.2293C84.891 14.4514 84.0641 13.8107 83.2372 13.3183C82.032 12.6048 80.7808 12.2438 79.5161 12.2438C78.2109 12.2438 77.0137 12.602 75.9571 13.3099C75.2626 13.7743 74.5925 14.3787 73.9871 15.081V12.8986L66.4692 12.8986V41.323L66.6638 41.393C69.2716 42.3303 71.6442 42.9123 73.725 43.1277Z" fill="#FFFFFF"/>
<path d="M83.1048 47.529L83.3831 47.4423C83.3453 47.2632 83.2939 47.0869 83.2318 46.9079L83.1372 46.5945L83.1102 46.6057C82.6211 45.4949 81.6996 44.6247 80.5376 44.1882C79.7728 43.9308 78.8081 43.984 78.2298 44.0511L78.2163 44.04L77.8812 44.1015C76.9219 44.2722 75.8544 44.2778 75.1626 44.2582L74.3357 44.2022C73.9871 44.1798 73.6277 44.1407 73.2467 44.0931C70.3903 43.9001 67.4772 42.8424 65.5396 41.9891L65.1343 41.81V41.8352C64.4641 41.5778 63.7723 41.3036 63.0589 41.0098C62.3347 40.6936 61.6807 40.4194 61.2835 40.2543L60.9727 40.1284C60.5511 39.9465 60.1701 39.7787 59.8404 39.6304C60.1269 39.4065 60.362 39.1491 60.5403 38.8693C60.9268 38.2678 61.1051 37.6382 61.0673 37.0003C61.0294 36.3652 60.7781 35.7552 60.3187 35.1956C60.0728 34.8962 59.7702 34.6304 59.4135 34.4038C59.935 34.0876 60.4376 33.7211 60.9186 33.3126C61.6807 32.6663 62.3806 31.9108 62.9967 31.0602C63.621 30.2013 64.1182 29.2304 64.4776 28.1699C64.8397 27.1039 65.0208 25.954 65.0208 24.7536C65.0208 23.142 64.6911 21.6115 64.0398 20.2041C63.394 18.808 62.5103 17.5741 61.4105 16.5332C60.3647 15.5428 59.127 14.7397 57.6894 14.1354C53.6115 12.3167 50.0147 13.2204 48.242 13.9171C43.5183 15.5595 41.7997 19.639 41.2024 21.9053C41.0862 22.2662 41.0106 22.546 40.97 22.7167C40.8376 23.4274 40.7728 24.0961 40.7728 24.762C40.7755 26.0939 41.0133 27.4005 41.4835 28.6456C41.9537 29.8935 42.6347 31.0462 43.5075 32.0703C44.3777 33.0915 45.4505 33.9729 46.6909 34.6864C47.9339 35.4027 49.3473 35.8839 50.8876 36.1217C51.8361 36.2728 52.5441 36.5023 52.9927 36.8044C53.4899 37.1374 53.5305 37.3416 53.5305 37.3948C53.5305 37.4899 53.3981 37.6774 53.0224 37.8928C52.5739 38.1502 51.8658 38.3265 50.9173 38.4189C47.3611 38.7546 44.556 39.7143 42.5779 41.2756C40.5458 42.8788 39.5135 45.0332 39.5135 47.6857C39.5135 48.36 39.5946 49.0231 39.7513 49.6583C39.9107 50.2934 40.1485 50.9061 40.462 51.4797C41.0862 52.6269 41.9888 53.6258 43.1427 54.454C44.2831 55.271 45.6694 55.9089 47.2665 56.3482C48.85 56.7819 50.6417 57.0029 52.5928 57.0029C52.9468 57.0029 53.2927 56.9917 53.644 56.9777C55.0357 56.877 59.962 56.267 65.2262 52.5793L65.237 52.5821L66.3801 51.7651L59.8864 48.1613L59.8755 48.1669L59.8647 48.1613L58.9486 48.679C57.6407 49.398 56.2679 49.9129 54.8654 50.215H54.8627C54.5033 50.2906 54.1628 50.3521 53.8412 50.3969C53.5008 50.4445 53.163 50.4781 52.8387 50.4976L52.6171 50.5032C52.2469 50.5032 51.901 50.4865 51.5632 50.4613L51.447 50.4781C50.4606 50.3997 49.7067 50.2039 49.25 50.05L49.1689 50.022H49.1662C49.0554 49.9828 48.9554 49.9408 48.8581 49.8989C48.7528 49.8541 48.6609 49.8065 48.5258 49.7366C48.4528 49.6974 48.3852 49.6583 48.3204 49.6191L48.3177 49.6163C48.315 49.6135 48.3096 49.6107 48.3069 49.6079C48.2988 49.6023 48.2934 49.5995 48.2853 49.5939C48.2501 49.5715 48.215 49.5491 48.1799 49.5267C48.1772 49.5267 48.1772 49.524 48.1745 49.524C48.1366 49.4988 48.1096 49.4736 48.0745 49.4512C48.0339 49.4204 47.9934 49.3924 47.9529 49.3617C47.8583 49.2805 47.7772 49.1938 47.7016 49.1043L47.6988 49.1015C47.3854 48.7237 47.234 48.2649 47.234 47.6997C47.234 46.7568 47.6637 46.1132 48.5852 45.6712C49.3013 45.3298 50.1985 45.1032 51.2551 44.9997L52.0388 44.9213C52.3577 44.9073 52.8738 44.9045 53.5575 44.9661C54.1493 45.0025 54.6979 45.0752 55.1789 45.1759L55.3032 45.2039C55.4653 45.2431 55.6167 45.285 55.8058 45.3382C55.9923 45.383 56.1923 45.4361 56.3976 45.4921C56.6922 45.5816 57.0138 45.688 57.3732 45.8223L57.7029 45.9733C57.7191 45.9817 59.3621 46.7344 60.8889 47.5598C63.7588 49.3029 69.4121 52.3891 75.0437 53.4831C77.0624 53.7908 78.7648 53.6649 80.1079 53.1081L80.1322 53.2061L80.978 52.6717C81.0618 52.6185 81.1348 52.5653 81.2077 52.5122L81.3321 52.4226C84.1587 50.3801 83.4128 47.5794 83.3804 47.4619L83.1048 47.529ZM56.9489 26.5835C56.7138 27.1599 56.3922 27.6691 55.9923 28.0916C55.5951 28.5169 55.1249 28.8582 54.6006 29.1101C53.571 29.6025 52.2712 29.5997 51.2146 29.1073C50.6768 28.861 50.2039 28.5197 49.804 28.0916C49.404 27.6663 49.0824 27.1599 48.8473 26.5835C48.6149 26.0127 48.496 25.3972 48.496 24.7508C48.496 24.1073 48.6149 23.5001 48.8473 22.9461C49.0824 22.3838 49.4067 21.8829 49.8067 21.4576C50.2066 21.0323 50.6795 20.691 51.22 20.442C51.7388 20.2014 52.3306 20.0726 52.9252 20.0726C53.5197 20.0726 54.1007 20.1986 54.6033 20.4392C55.1303 20.691 55.5978 21.0323 55.9977 21.4576C56.3976 21.8829 56.7192 22.3838 56.957 22.9461C57.1894 23.4973 57.3083 24.1045 57.3083 24.7508C57.3002 25.3972 57.184 26.0127 56.9489 26.5835Z" fill="#FFFFFF"/>
<path d="M107.731 20.5006C107.193 18.7687 106.377 17.3362 105.24 16.1274C104.299 15.095 103.056 14.2444 101.54 13.5953C100.03 12.949 98.2919 12.6244 96.3733 12.6244C94.3303 12.6244 92.3171 13.0329 90.3876 13.8415C88.5311 14.6193 86.8611 15.7245 85.4288 17.1291L84.8965 17.6523L89.5526 22.6187L90.0714 22.1402C90.3525 21.88 90.6443 21.6394 90.9335 21.4268C91.3821 21.1246 91.8739 20.8672 92.4008 20.6657L92.4657 20.6405L92.4954 20.6294C92.663 20.5734 93.1142 20.4335 93.7385 20.2964C94.8789 20.0446 97.0056 19.7424 98.4378 20.5258C98.8648 20.7329 99.2134 20.9707 99.5053 21.2505C100.338 22.0479 100.789 23.1419 100.854 24.5073H97.5407C95.4058 24.5073 93.8385 24.664 92.4603 25.0193C90.7821 25.4474 89.4094 26.0434 88.269 26.838C87.0475 27.6914 86.0774 28.749 85.391 29.9829C84.6803 31.2532 84.3209 32.7501 84.3209 34.4317C84.3209 35.7719 84.5452 37.0086 84.9883 38.1138C85.4315 39.2218 86.0747 40.1983 86.8989 41.0153C87.7204 41.8295 88.7013 42.4646 89.8201 42.8955C90.9281 43.3236 92.1792 43.5418 93.5385 43.5418C94.9653 43.5418 96.376 43.3712 97.7298 43.0354C98.8162 42.7668 99.8674 42.3219 100.862 41.7148V42.6157H108.38V26.5554C108.377 23.8078 108.177 21.9416 107.731 20.5006ZM100.856 34.8961C99.9782 35.425 99.0999 35.8363 98.2433 36.1245C97.3245 36.4322 96.3814 36.5889 95.441 36.5889C94.4168 36.5889 93.5791 36.3147 92.9467 35.7775C92.336 35.2543 92.0387 34.6024 92.0387 33.777C92.0387 33.209 92.1846 32.7193 92.4711 32.3248C92.7765 31.9023 93.2034 31.5498 93.7331 31.2784C94.2708 31.0014 94.941 30.7971 95.7247 30.674C96.4814 30.5537 97.3407 30.4922 98.2784 30.4922H100.854V34.8961H100.856Z" fill="#FFFFFF"/>
<path d="M188.258 16.5108C188.258 14.0122 190.217 11.9837 192.63 11.9865C195.046 11.9893 197.003 14.015 197 16.5136C196.997 19.015 195.038 21.0407 192.625 21.0379C190.212 21.0323 188.258 19.0094 188.258 16.5108ZM189.147 16.508C189.144 18.4974 190.698 20.1118 192.625 20.1174C194.546 20.123 196.111 18.5086 196.114 16.5136C196.116 14.5215 194.557 12.9042 192.633 12.9042C190.709 12.9042 189.15 14.5159 189.147 16.508Z" fill="#FFFFFF"/>
<path d="M194.617 18.517C194.581 18.517 194.552 18.517 194.519 18.517C194.203 18.517 193.89 18.517 193.573 18.517C193.546 18.517 193.536 18.5086 193.525 18.4834C193.363 18.1393 193.2 17.7951 193.033 17.4538C192.992 17.3699 192.941 17.2915 192.887 17.216C192.798 17.0901 192.674 17.0089 192.525 16.9921C192.382 16.9753 192.236 16.9781 192.087 16.9697C192.087 17.4874 192.087 17.9966 192.087 18.5086C191.749 18.5086 191.414 18.5086 191.079 18.5086C191.079 17.1572 191.079 15.8058 191.079 14.4488C191.09 14.4488 191.098 14.446 191.109 14.446C191.639 14.446 192.171 14.4432 192.701 14.4488C192.957 14.4516 193.214 14.4768 193.46 14.5635C193.619 14.6195 193.765 14.7034 193.881 14.8321C194.008 14.972 194.073 15.1427 194.1 15.3273C194.13 15.5344 194.127 15.7386 194.071 15.9429C193.995 16.2115 193.825 16.399 193.584 16.5193C193.517 16.5528 193.446 16.5808 193.376 16.6088C193.395 16.6144 193.414 16.62 193.433 16.6284C193.598 16.6872 193.725 16.8019 193.83 16.9418C193.922 17.0649 193.995 17.1992 194.06 17.3363C194.241 17.714 194.422 18.0945 194.606 18.4723C194.606 18.4918 194.608 18.503 194.617 18.517ZM192.087 16.2591C192.095 16.2591 192.101 16.2619 192.106 16.2619C192.257 16.2619 192.409 16.2647 192.56 16.2591C192.636 16.2563 192.711 16.2451 192.784 16.2255C192.936 16.1863 193.041 16.0912 193.082 15.9317C193.114 15.803 193.114 15.6715 193.082 15.5428C193.044 15.3945 192.955 15.2938 192.809 15.2574C192.728 15.2378 192.644 15.2238 192.563 15.221C192.411 15.2154 192.257 15.2182 192.106 15.2182C192.098 15.2182 192.093 15.2182 192.084 15.221C192.087 15.5652 192.087 15.9121 192.087 16.2591Z" fill="#FFFFFF"/>
</g>
<defs>
<clipPath id="clip0_55_92">
<rect width="197" height="57" fill="white"/>
</clipPath>
</defs>
</svg>