<svg width="197" height="57" viewBox="0 0 197 57" fill="none" xmlns="http://www.w3.org/2000/svg">
<g clip-path="url(#clip0_14_30)">
<path d="M156.646 33.0131C156.057 33.8945 155.282 34.6359 154.341 35.2123C153.341 35.8306 152.206 36.144 150.971 36.144C150.026 36.144 149.112 35.9314 148.255 35.5089C147.388 35.0808 146.623 34.5016 145.991 33.7853C145.353 33.0663 144.837 32.2045 144.459 31.2224C144.08 30.2403 143.889 29.1827 143.889 28.0775C143.889 26.9723 144.08 25.9147 144.459 24.9326C144.834 23.9533 145.356 23.0915 146.01 22.3725C146.661 21.6534 147.426 21.0742 148.282 20.6433C149.126 20.2208 150.031 20.0082 150.971 20.0082C152.266 20.0082 153.374 20.2964 154.268 20.8616C155.117 21.4044 155.86 22.0871 156.473 22.8929L156.989 23.57L162.237 17.9209L161.781 17.4005C160.397 15.8224 158.759 14.6249 156.914 13.8387C155.014 13.0301 152.982 12.6216 150.877 12.6216C148.831 12.6216 146.883 13.0245 145.091 13.8191C143.299 14.6109 141.732 15.7161 140.427 17.1039C139.124 18.4889 138.076 20.1397 137.316 22.0059C136.554 23.8778 136.168 25.9231 136.168 28.0803C136.168 30.2683 136.554 32.336 137.316 34.2246C138.079 36.1132 139.135 37.764 140.454 39.1322C141.773 40.5004 143.351 41.5888 145.14 42.3639C146.934 43.1417 148.864 43.5362 150.874 43.5362C153.044 43.5362 155.146 43.0913 157.127 42.2156C159.049 41.365 160.724 40.1171 162.11 38.5083L162.562 37.9851L157.143 32.2716L156.646 33.0131Z" fill="#353535"/>
<path d="M8.74204 36.785V36.7877L8.55829 36.6926C8.37723 36.6003 8.23941 36.5052 8.13132 36.3988C7.73137 36.0071 7.52059 35.2992 7.52059 34.3479L7.52059 1.53906L0 1.53906L0 35.579C0 37.2438 0.175652 38.419 0.56749 39.3898C1.02148 40.5118 1.58357 41.3708 2.29158 42.0143C2.45642 42.1654 2.63477 42.3081 2.82394 42.448L2.778 42.4648L3.50222 42.8929C3.67247 43.0272 4.6345 43.7015 7.09632 43.8862C7.52059 43.9169 7.96647 43.9337 8.43398 43.9337C9.52302 43.9337 10.7283 43.847 12.0308 43.6735L12.2848 43.6399L12.2848 36.7822L11.9389 36.8493C10.15 37.199 9.10686 36.9221 8.74204 36.785Z" fill="#353535"/>
<path d="M31.6281 34.2636C30.8039 35.0079 29.9148 35.5591 28.9906 35.9033C27.6827 36.3901 26.6153 36.6167 25.6262 36.6167C24.8615 36.6167 24.0751 36.4488 23.1563 36.0879C22.4753 35.8221 21.8024 35.4052 21.1512 34.8456C20.5837 34.3588 20.081 33.7488 19.6568 33.0353C19.3676 32.5457 19.1217 32.0281 18.9217 31.4881L39.5703 31.5384L39.6459 30.8753C39.6973 30.4192 39.7459 29.9716 39.7864 29.5407C39.8351 29.0343 39.8594 28.5362 39.8594 28.0662C39.8648 25.811 39.4757 23.7153 38.7001 21.8379C37.9272 19.9633 36.8571 18.3265 35.5222 16.9695C34.2899 15.7188 32.7766 14.7115 30.8931 13.8833C29.2717 13.1726 27.4665 12.8257 25.3695 12.8257C23.213 12.8257 21.3809 13.1866 19.7703 13.9309C17.9462 14.7731 16.4437 15.8335 15.1736 17.1709C13.8522 18.5643 12.8064 20.2039 12.0713 22.0422C11.3201 23.9112 10.9391 25.9341 10.9337 28.0494C10.9282 30.1674 11.3039 32.1904 12.047 34.0678C12.7875 35.9368 13.8143 37.5876 15.1033 38.9754C16.3734 40.3436 17.9138 41.4544 19.6865 42.277C21.4349 43.0884 23.3536 43.4997 25.4344 43.4997C27.4152 43.4997 29.3041 43.1947 31.0444 42.5932C32.7712 41.9944 34.5466 40.9759 36.3221 39.5686L36.9652 39.0593L32.1361 33.7992L31.6281 34.2636ZM21.2917 21.3343C22.4618 20.3466 23.8211 19.843 25.3317 19.843C26.845 19.843 28.2259 20.3578 29.4419 21.3706C30.4769 22.2352 31.2201 23.2621 31.7092 24.496L19.0433 24.496C19.5352 23.2341 20.2756 22.196 21.2917 21.3343Z" fill="#353535"/>
<path d="M121.24 0.296387C117.914 0.296387 115.628 1.28407 114.247 3.32098C112.941 5.24598 112.277 8.0915 112.277 11.7736V13.2789H108.81V20.6152H112.277V42.6099H119.795V20.6124L124.129 20.6124V13.2761H119.795V11.6729C119.795 10.2571 120.059 9.20789 120.557 8.6371C120.992 8.13907 121.832 7.87606 122.989 7.87606C123.529 7.87606 123.989 7.91243 124.478 7.99357L124.996 8.0943V0.64893L124.756 0.604162C123.675 0.402709 122.459 0.296387 121.24 0.296387Z" fill="#353535"/>
<path d="M134.535 13.2764L127.018 13.2764V42.35H134.535V13.2764Z" fill="#353535"/>
<path d="M131.114 0C128.434 0 126.334 2.17401 126.334 4.95239C126.334 7.69439 128.434 9.84042 131.114 9.84042C133.719 9.84042 135.838 7.64682 135.838 4.95239C135.838 2.17401 133.763 0 131.114 0Z" fill="#353535"/>
<path d="M186.512 20.5008C185.969 18.752 185.156 17.3223 184.032 16.1276C183.091 15.0951 181.848 14.2445 180.332 13.5954C178.821 12.9491 177.084 12.6245 175.163 12.6245C173.12 12.6245 171.106 13.033 169.177 13.8416C167.32 14.6167 165.65 15.7246 164.218 17.1292L163.686 17.6524L168.339 22.6188L168.858 22.1404C169.747 21.3206 170.639 20.7414 171.514 20.4252C172.449 20.0867 173.365 19.9132 174.233 19.9132C175.995 19.9132 177.357 20.3609 178.281 21.245C179.119 22.048 179.556 23.1141 179.616 24.5018H176.327C174.192 24.5018 172.625 24.6585 171.247 25.0139C169.566 25.442 168.196 26.0379 167.056 26.8325C165.834 27.6859 164.867 28.7435 164.178 29.9774C163.467 31.2477 163.107 32.7446 163.107 34.4262C163.107 35.7664 163.332 37.0031 163.775 38.1083C164.218 39.2163 164.859 40.1928 165.685 41.0098C166.507 41.824 167.488 42.4563 168.607 42.89C169.715 43.3181 170.966 43.5364 172.322 43.5364C173.749 43.5364 175.16 43.3657 176.514 43.0299C177.584 42.7641 178.627 42.322 179.619 41.7177V42.6102H187.137V26.5555C187.145 23.7436 186.955 21.9305 186.512 20.5008ZM179.624 34.9047C178.749 35.4307 177.878 35.8392 177.03 36.1246C176.108 36.4323 175.168 36.589 174.23 36.589C173.209 36.589 172.371 36.3148 171.739 35.7776C171.128 35.2572 170.831 34.6025 170.831 33.7771C170.831 33.2091 170.977 32.7194 171.263 32.3249C171.568 31.9052 171.993 31.5527 172.525 31.2785C173.063 31.0015 173.733 30.7972 174.519 30.6741C175.279 30.5538 176.135 30.4923 177.073 30.4923H179.624V34.9047Z" fill="#353535"/>
<path d="M73.7255 43.1275L74.0444 43.1611V31.8154C74.0606 31.0403 74.0606 30.2625 74.0444 29.5155V25.3773C74.0768 24.8065 74.1416 24.2889 74.2362 23.8496C74.2876 23.6341 74.3605 23.3572 74.4578 23.1053C74.7281 22.403 75.0929 21.7903 75.5144 21.3314C75.9063 20.9033 76.3332 20.59 76.7872 20.4025C77.2385 20.215 77.6547 20.1199 78.0249 20.1199C78.7221 20.1199 79.4328 20.3773 80.1327 20.8838C80.3138 21.0153 80.4921 21.1552 80.6651 21.2979L80.9218 21.5105L81.0948 21.2195C81.7406 20.1339 83.4809 17.4199 85.6752 15.6879L85.9481 15.4725L85.6968 15.2291C84.8915 14.4512 84.0646 13.8105 83.2377 13.3181C82.0325 12.6046 80.7813 12.2437 79.5166 12.2437C78.2114 12.2437 77.0142 12.6018 75.9576 13.3097C75.2631 13.7741 74.5929 14.3785 73.9876 15.0808V12.8984L66.4697 12.8984V41.3229L66.6643 41.3928C69.272 42.3301 71.6447 42.9121 73.7255 43.1275Z" fill="#353535"/>
<path d="M83.105 47.5291L83.3833 47.4424C83.3455 47.2633 83.2941 47.087 83.232 46.908L83.1374 46.5946L83.1104 46.6058C82.6212 45.495 81.6998 44.6248 80.5377 44.1883C79.773 43.9309 78.8083 43.9841 78.23 44.0512L78.2164 44.04L77.8814 44.1016C76.922 44.2723 75.8546 44.2779 75.1628 44.2583L74.3359 44.2023C73.9873 44.1799 73.6279 44.1408 73.2469 44.0932C70.3905 43.9001 67.4774 42.8425 65.5398 41.9891L65.1345 41.8101V41.8353C64.4643 41.5778 63.7725 41.3036 63.0591 41.0099C62.3349 40.6937 61.6809 40.4195 61.2836 40.2544L60.9729 40.1285C60.5513 39.9466 60.1703 39.7788 59.8406 39.6305C60.127 39.4066 60.3621 39.1492 60.5405 38.8694C60.9269 38.2679 61.1053 37.6383 61.0675 37.0004C61.0296 36.3652 60.7783 35.7553 60.3189 35.1957C60.073 34.8963 59.7703 34.6305 59.4136 34.4039C59.9352 34.0877 60.4378 33.7212 60.9188 33.3127C61.6809 32.6663 62.3808 31.9109 62.9969 31.0603C63.6212 30.2013 64.1184 29.2305 64.4778 28.17C64.8399 27.104 65.021 25.954 65.021 24.7537C65.021 23.1421 64.6913 21.6116 64.04 20.2042C63.3942 18.8081 62.5105 17.5742 61.4107 16.5333C60.3649 15.5428 59.1272 14.7398 57.6895 14.1355C53.6117 12.3168 50.0149 13.2205 48.2422 13.9172C43.5185 15.5596 41.7998 19.6391 41.2026 21.9054C41.0864 22.2663 41.0108 22.5461 40.9702 22.7168C40.8378 23.4275 40.773 24.0962 40.773 24.7621C40.7757 26.0939 41.0135 27.4006 41.4837 28.6457C41.9539 29.8936 42.6349 31.0463 43.5077 32.0704C44.3779 33.0916 45.4507 33.973 46.6911 34.6865C47.9341 35.4027 49.3475 35.884 50.8878 36.1218C51.8363 36.2729 52.5443 36.5023 52.9929 36.8045C53.4901 37.1375 53.5307 37.3417 53.5307 37.3949C53.5307 37.49 53.3982 37.6775 53.0226 37.8929C52.574 38.1503 51.866 38.3266 50.9175 38.4189C47.3612 38.7547 44.5562 39.7144 42.5781 41.2757C40.546 42.8789 39.5137 45.0333 39.5137 47.6858C39.5137 48.3601 39.5947 49.0232 39.7515 49.6583C39.9109 50.2935 40.1487 50.9062 40.4622 51.4798C41.0864 52.627 41.989 53.6258 43.1429 54.454C44.2833 55.271 45.6696 55.909 47.2667 56.3483C48.8502 56.7819 50.6419 57.003 52.5929 57.003C52.947 57.003 53.2929 56.9918 53.6442 56.9778C55.0359 56.8771 59.9622 56.2671 65.2263 52.5794L65.2372 52.5822L66.3802 51.7652L59.8865 48.1614L59.8757 48.167L59.8649 48.1614L58.9488 48.6791C57.6409 49.3981 56.2681 49.913 54.8656 50.2151H54.8629C54.5035 50.2907 54.163 50.3522 53.8414 50.397C53.5009 50.4446 53.1631 50.4781 52.8389 50.4977L52.6173 50.5033C52.2471 50.5033 51.9012 50.4865 51.5634 50.4614L51.4472 50.4781C50.4608 50.3998 49.7069 50.2039 49.2502 50.0501L49.1691 50.0221H49.1664C49.0556 49.9829 48.9556 49.9409 48.8583 49.899C48.7529 49.8542 48.6611 49.8066 48.5259 49.7367C48.453 49.6975 48.3854 49.6583 48.3206 49.6192L48.3179 49.6164C48.3152 49.6136 48.3098 49.6108 48.3071 49.608C48.2989 49.6024 48.2935 49.5996 48.2854 49.594C48.2503 49.5716 48.2152 49.5492 48.18 49.5268C48.1773 49.5268 48.1773 49.524 48.1746 49.524C48.1368 49.4989 48.1098 49.4737 48.0747 49.4513C48.0341 49.4205 47.9936 49.3925 47.953 49.3618C47.8585 49.2806 47.7774 49.1939 47.7017 49.1043L47.699 49.1016C47.3856 48.7238 47.2342 48.265 47.2342 47.6998C47.2342 46.7569 47.6639 46.1133 48.5854 45.6713C49.3015 45.3299 50.1987 45.1033 51.2553 44.9997L52.039 44.9214C52.3578 44.9074 52.874 44.9046 53.5577 44.9662C54.1495 45.0025 54.6981 45.0753 55.1791 45.176L55.3034 45.204C55.4655 45.2432 55.6169 45.2851 55.806 45.3383C55.9925 45.3831 56.1925 45.4362 56.3978 45.4922C56.6924 45.5817 57.014 45.688 57.3734 45.8223L57.7031 45.9734C57.7193 45.9818 59.3623 46.7345 60.8891 47.5599C63.759 49.303 69.4123 52.3891 75.0439 53.4832C77.0626 53.7909 78.765 53.665 80.1081 53.1082L80.1324 53.2062L80.9782 52.6717C81.062 52.6186 81.135 52.5654 81.2079 52.5123L81.3322 52.4227C84.1589 50.3802 83.413 47.5795 83.3806 47.4619L83.105 47.5291ZM56.9491 26.5836C56.714 27.16 56.3924 27.6692 55.9925 28.0917C55.5952 28.517 55.125 28.8583 54.6008 29.1101C53.5712 29.6026 52.2714 29.5998 51.2148 29.1073C50.677 28.8611 50.2041 28.5198 49.8041 28.0917C49.4042 27.6664 49.0826 27.16 48.8475 26.5836C48.6151 26.0128 48.4962 25.3973 48.4962 24.7509C48.4962 24.1074 48.6151 23.5002 48.8475 22.9462C49.0826 22.3839 49.4069 21.883 49.8068 21.4577C50.2068 21.0324 50.6797 20.6911 51.2202 20.4421C51.739 20.2014 52.3308 20.0727 52.9253 20.0727C53.5199 20.0727 54.1009 20.1986 54.6035 20.4393C55.1304 20.6911 55.5979 21.0324 55.9979 21.4577C56.3978 21.883 56.7194 22.3839 56.9572 22.9462C57.1896 23.4974 57.3085 24.1046 57.3085 24.7509C57.3004 25.3973 57.1842 26.0128 56.9491 26.5836Z" fill="#353535"/>
<path d="M107.732 20.5008C107.194 18.7688 106.378 17.3363 105.24 16.1276C104.3 15.0951 103.057 14.2445 101.541 13.5954C100.03 12.9491 98.2923 12.6245 96.3737 12.6245C94.3307 12.6245 92.3175 13.033 90.388 13.8416C88.5315 14.6195 86.8615 15.7247 85.4292 17.1292L84.8969 17.6524L89.553 22.6188L90.0718 22.1404C90.3529 21.8802 90.6447 21.6395 90.9339 21.4269C91.3825 21.1247 91.8743 20.8673 92.4013 20.6658L92.4661 20.6407L92.4958 20.6295C92.6634 20.5735 93.1147 20.4336 93.7389 20.2965C94.8793 20.0447 97.006 19.7425 98.4383 20.5259C98.8652 20.733 99.2138 20.9708 99.5057 21.2506C100.338 22.048 100.789 23.142 100.854 24.5074H97.5411C95.4063 24.5074 93.8389 24.6641 92.4607 25.0195C90.7826 25.4476 89.4098 26.0435 88.2694 26.8381C87.0479 27.6915 86.0778 28.7492 85.3914 29.9831C84.6807 31.2533 84.3213 32.7502 84.3213 34.4318C84.3213 35.772 84.5456 37.0087 84.9888 38.1139C85.4319 39.2219 86.0751 40.1984 86.8993 41.0154C87.7208 41.8296 88.7018 42.4647 89.8205 42.8956C90.9285 43.3237 92.1797 43.542 93.5389 43.542C94.9658 43.542 96.3764 43.3713 97.7303 43.0355C98.8166 42.7669 99.8678 42.3221 100.862 41.7149V42.6158H108.38V26.5556C108.377 23.808 108.177 21.9417 107.732 20.5008ZM100.857 34.8963C99.9786 35.4251 99.1003 35.8364 98.2437 36.1246C97.3249 36.4323 96.3818 36.589 95.4414 36.589C94.4172 36.589 93.5795 36.3148 92.9471 35.7776C92.3364 35.2544 92.0391 34.6025 92.0391 33.7771C92.0391 33.2091 92.1851 32.7195 92.4715 32.3249C92.7769 31.9025 93.2038 31.5499 93.7335 31.2785C94.2713 31.0015 94.9415 30.7973 95.7251 30.6741C96.4818 30.5538 97.3411 30.4923 98.2788 30.4923H100.854V34.8963H100.857Z" fill="#353535"/>
<path d="M188.258 16.5106C188.258 14.0121 190.217 11.9835 192.63 11.9863C195.046 11.9891 197.003 14.0149 197 16.5134C196.997 19.0148 195.038 21.0405 192.625 21.0377C190.212 21.0321 188.258 19.0092 188.258 16.5106ZM189.147 16.5078C189.144 18.4972 190.698 20.1116 192.625 20.1172C194.546 20.1228 196.111 18.5084 196.113 16.5134C196.116 14.5213 194.557 12.9041 192.633 12.9041C190.709 12.9041 189.15 14.5157 189.147 16.5078Z" fill="#353535"/>
<path d="M194.617 18.5171C194.581 18.5171 194.552 18.5171 194.519 18.5171C194.203 18.5171 193.89 18.5171 193.573 18.5171C193.546 18.5171 193.536 18.5087 193.525 18.4835C193.363 18.1393 193.2 17.7952 193.033 17.4538C192.992 17.3699 192.941 17.2915 192.887 17.216C192.798 17.0901 192.674 17.0089 192.525 16.9922C192.382 16.9754 192.236 16.9782 192.087 16.9698C192.087 17.4874 192.087 17.9966 192.087 18.5087C191.749 18.5087 191.414 18.5087 191.079 18.5087C191.079 17.1572 191.079 15.8058 191.079 14.4488C191.09 14.4488 191.098 14.446 191.109 14.446C191.639 14.446 192.171 14.4432 192.701 14.4488C192.957 14.4516 193.214 14.4768 193.46 14.5635C193.619 14.6195 193.765 14.7034 193.881 14.8321C194.008 14.972 194.073 15.1427 194.1 15.3274C194.13 15.5344 194.127 15.7387 194.071 15.9429C193.995 16.2115 193.825 16.399 193.584 16.5193C193.517 16.5529 193.446 16.5809 193.376 16.6088C193.395 16.6144 193.414 16.62 193.433 16.6284C193.598 16.6872 193.725 16.8019 193.83 16.9418C193.922 17.0649 193.995 17.1992 194.06 17.3363C194.241 17.714 194.422 18.0946 194.606 18.4723C194.606 18.4919 194.608 18.5031 194.617 18.5171ZM192.087 16.2591C192.095 16.2591 192.101 16.2619 192.106 16.2619C192.257 16.2619 192.409 16.2647 192.56 16.2591C192.636 16.2563 192.711 16.2451 192.784 16.2255C192.936 16.1863 193.041 16.0912 193.082 15.9317C193.114 15.803 193.114 15.6715 193.082 15.5428C193.044 15.3945 192.955 15.2938 192.809 15.2574C192.728 15.2378 192.644 15.2238 192.563 15.221C192.411 15.2155 192.257 15.2183 192.106 15.2183C192.098 15.2183 192.093 15.2183 192.084 15.221C192.087 15.5652 192.087 15.9121 192.087 16.2591Z" fill="#353535"/>
</g>
<defs>
<clipPath id="clip0_14_30">
<rect width="197" height="57" fill="white"/>
</clipPath>
</defs>
</svg>
