<?xml version="1.0" encoding="UTF-8"?>
<!DOCTYPE svg PUBLIC "-//W3C//DTD SVG 1.1//EN" "http://www.w3.org/Graphics/SVG/1.1/DTD/svg11.dtd">
<svg xmlns="http://www.w3.org/2000/svg" version="1.1" width="1200px" height="1200px" style="shape-rendering:geometricPrecision; text-rendering:geometricPrecision; image-rendering:optimizeQuality; fill-rule:evenodd; clip-rule:evenodd" xmlns:xlink="http://www.w3.org/1999/xlink">
<g><path style="opacity:0.983" fill="#32509f" d="M 566.5,-0.5 C 589.5,-0.5 612.5,-0.5 635.5,-0.5C 819.225,14.7622 967.392,94.7622 1080,239.5C 1151.26,336.071 1191.1,444.405 1199.5,564.5C 1199.5,587.5 1199.5,610.5 1199.5,633.5C 1186.73,799.524 1119.07,938.358 996.5,1050C 892.484,1140.09 771.484,1189.92 633.5,1199.5C 610.833,1199.5 588.167,1199.5 565.5,1199.5C 398.699,1187.18 259.532,1119.18 148,995.5C 58.5836,891.609 9.08364,770.942 -0.5,633.5C -0.5,610.5 -0.5,587.5 -0.5,564.5C 13.8495,384.178 91.1828,237.678 231.5,125C 330.33,49.6133 441.996,7.77997 566.5,-0.5 Z"/></g>
<g><path style="opacity:1" fill="#ee4b49" d="M 566.5,17.5 C 761.31,11.6868 922.143,82.0202 1049,228.5C 1149.29,353.745 1192.62,496.745 1179,657.5C 1157.7,832.025 1076.86,971.191 936.5,1075C 824.382,1152.12 700.049,1187.46 563.5,1181C 401.383,1168.02 266.549,1101.19 159,980.5C 54.3507,855.872 7.684,711.872 19,548.5C 35.6971,389.92 103.864,258.753 223.5,155C 317.258,76.882 425.258,31.7154 547.5,19.5C 554.255,20.1229 560.588,19.4563 566.5,17.5 Z"/></g>
<g><path style="opacity:1" fill="#904e7a" d="M 566.5,17.5 C 560.588,19.4563 554.255,20.1229 547.5,19.5C 547.611,18.8826 547.944,18.3826 548.5,18C 554.491,17.5005 560.491,17.3338 566.5,17.5 Z"/></g>
<g><path style="opacity:1" fill="#faf7f5" d="M 606.5,36.5 C 623.837,36.3334 641.17,36.5001 658.5,37C 663.235,42.8409 663.568,48.8409 659.5,55C 658.167,55.6667 656.833,55.6667 655.5,55C 650.324,46.9228 642.991,44.2561 633.5,47C 633,47.5 632.5,48 632,48.5C 631.333,53.1667 631.333,57.8333 632,62.5C 634.333,63.8333 636.667,63.8333 639,62.5C 639.797,59.7796 640.963,57.2796 642.5,55C 646.253,54.074 648.42,55.574 649,59.5C 649.717,65.2247 649.384,70.8913 648,76.5C 647.531,80.8371 645.365,82.5038 641.5,81.5C 640.985,78.2573 639.652,75.4239 637.5,73C 635.765,72.3486 634.098,72.5153 632.5,73.5C 631.337,78.8023 631.171,84.1357 632,89.5C 643.858,94.755 652.692,91.5883 658.5,80C 660.701,79.1751 662.534,79.6751 664,81.5C 665.151,89.3994 662.984,96.2327 657.5,102C 640.5,101.862 623.5,101.195 606.5,100C 604.203,98.7367 603.37,96.9034 604,94.5C 608.695,91.1567 611.028,86.49 611,80.5C 611.667,69.5 611.667,58.5 611,47.5C 609.622,45.7866 607.955,44.4533 606,43.5C 605.297,41.0709 605.463,38.7375 606.5,36.5 Z"/></g>
<g><path style="opacity:1" fill="#fcf9f8" d="M 555.5,37.5 C 595.082,32.379 609.915,49.0457 600,87.5C 594.896,95.9732 587.396,100.807 577.5,102C 565.332,102.92 553.166,103.753 541,104.5C 536.464,103.63 534.797,100.963 536,96.5C 537.955,95.5467 539.622,94.2134 541,92.5C 541.667,79.5 541.667,66.5 541,53.5C 540.667,52.5 540.333,51.5 540,50.5C 537.154,48.9874 534.987,46.8208 533.5,44C 534.101,42.395 535.101,41.0616 536.5,40C 543.014,39.4199 549.347,38.5866 555.5,37.5 Z"/></g>
<g><path style="opacity:1" fill="#ec504b" d="M 564.5,47.5 C 573.689,48.1868 578.856,53.1868 580,62.5C 580.901,70.5788 580.568,78.5788 579,86.5C 575.519,92.6779 570.686,94.3446 564.5,91.5C 562.518,77.5853 562.018,63.5853 563,49.5C 563.717,48.9558 564.217,48.2891 564.5,47.5 Z"/></g>
<g><path style="opacity:1" fill="#f9f8f7" d="M 479.5,56.5 C 481.199,56.3398 482.866,56.5065 484.5,57C 487.333,60.3281 489.666,63.9948 491.5,68C 495.388,69.3784 499.388,70.3784 503.5,71C 508.329,73.8375 508.663,77.1708 504.5,81C 496.321,83.5071 492.487,89.0071 493,97.5C 490.828,101.738 487.662,102.572 483.5,100C 481.752,96.5009 479.752,93.1676 477.5,90C 457.859,87.0942 456.692,80.9275 474,71.5C 475.174,67.9542 475.84,64.2875 476,60.5C 477.032,58.9733 478.199,57.64 479.5,56.5 Z"/></g>
<g><path style="opacity:1" fill="#fbf8f8" d="M 714.5,56.5 C 717.652,55.9586 720.152,56.9586 722,59.5C 723.091,63.4604 724.091,67.4604 725,71.5C 727.408,73.9561 730.241,75.7894 733.5,77C 736.978,79.7065 737.311,82.7065 734.5,86C 730.308,87.7895 725.975,89.1228 721.5,90C 719.273,92.5641 717.439,95.3974 716,98.5C 712.667,102.5 709.333,102.5 706,98.5C 706.538,89.7326 702.705,83.8992 694.5,81C 690.5,77.6667 690.5,74.3333 694.5,71C 698.719,70.8271 702.719,69.8271 706.5,68C 709.079,64.0647 711.746,60.2314 714.5,56.5 Z"/></g>
<g><path style="opacity:1" fill="#faf8f9" d="M 414.5,68.5 C 433.265,69.0902 444.098,78.7569 447,97.5C 449.164,108.009 445.998,116.509 437.5,123C 424.64,130.596 410.974,136.263 396.5,140C 388.167,144.333 379.833,148.667 371.5,153C 368.607,154.149 365.607,154.649 362.5,154.5C 362.274,151.751 362.607,149.084 363.5,146.5C 362.788,144.954 361.622,143.954 360,143.5C 354.59,145.915 349.423,148.749 344.5,152C 343.594,153.699 343.261,155.533 343.5,157.5C 352.9,158.251 353.9,161.751 346.5,168C 341.484,171.188 336.151,173.188 330.5,174C 327.918,171.108 328.084,168.275 331,165.5C 332.791,147.653 330.291,130.487 323.5,114C 326.998,105.093 333.331,102.426 342.5,106C 357.179,114.003 371.179,123.003 384.5,133C 391.343,134.694 394.176,132.194 393,125.5C 389.22,114.824 385.054,104.324 380.5,94C 377.78,93.2033 375.28,92.0367 373,90.5C 372.333,89.1667 372.333,87.8333 373,86.5C 386.144,78.6722 399.977,72.6722 414.5,68.5 Z"/></g>
<g><path style="opacity:1" fill="#ed4f4d" d="M 405.5,81.5 C 411.14,81.5705 415.64,83.9039 419,88.5C 424.691,95.9056 427.358,104.239 427,113.5C 426.332,117.499 424.165,120.332 420.5,122C 418.191,122.756 416.191,122.256 414.5,120.5C 408.683,108.87 404.183,96.8695 401,84.5C 402.652,83.6006 404.152,82.6006 405.5,81.5 Z"/></g>
<g><path style="opacity:1" fill="#fcf9f9" d="M 841.5,96.5 C 851.756,94.9635 861.089,97.1301 869.5,103C 874.377,107.546 879.544,111.713 885,115.5C 885.667,120.167 885.667,124.833 885,129.5C 882.654,134.364 878.987,135.697 874,133.5C 872.123,126.859 869.29,120.692 865.5,115C 862.012,111.692 858.845,111.859 856,115.5C 855.365,117.635 855.699,119.635 857,121.5C 862.445,127.614 867.112,134.28 871,141.5C 873.123,155.027 867.623,163.527 854.5,167C 835.588,167.629 821.421,159.796 812,143.5C 811.19,138.743 811.524,134.076 813,129.5C 814.392,126.606 816.559,124.606 819.5,123.5C 821.766,123.931 823.266,125.264 824,127.5C 822.436,137.875 826.27,145.375 835.5,150C 841.667,151.833 843.833,149.667 842,143.5C 835.823,137.149 831.156,129.816 828,121.5C 826.229,109.705 830.729,101.372 841.5,96.5 Z"/></g>
<g><path style="opacity:1" fill="#32519e" d="M 1070.5,531.5 C 1070.33,535.182 1070.5,538.848 1071,542.5C 1071.42,543.756 1072.25,544.423 1073.5,544.5C 1073.5,547.5 1073.5,550.5 1073.5,553.5C 1073.33,559.176 1073.5,564.843 1074,570.5C 1074.38,571.056 1074.88,571.389 1075.5,571.5C 1075.96,599.544 1075.29,627.544 1073.5,655.5C 1072.25,655.577 1071.42,656.244 1071,657.5C 1070.5,660.482 1070.34,663.482 1070.5,666.5C 1054.11,777.455 1005.44,871.289 924.5,948C 814.98,1046.06 686.647,1087.73 539.5,1073C 388.515,1049.54 272.348,973.71 191,845.5C 136.279,753.063 114.445,653.396 125.5,546.5C 126.268,545.737 126.768,544.737 127,543.5C 127.498,540.183 127.665,536.85 127.5,533.5C 148.405,401.557 211.738,295.39 317.5,215C 447.471,124.005 588.804,100.672 741.5,145C 879.894,191.388 979.061,281.221 1039,414.5C 1054.34,452.203 1064.84,491.203 1070.5,531.5 Z"/></g>
<g><path style="opacity:1" fill="#ea6565" d="M 339.5,127.5 C 343.438,128.219 346.938,129.885 350,132.5C 350.604,136.588 348.77,139.088 344.5,140C 343.167,140.667 341.833,140.667 340.5,140C 338.294,135.983 337.961,131.817 339.5,127.5 Z"/></g>
<g><path style="opacity:1" fill="#f9f7f7" d="M 291.5,133.5 C 309.819,133.641 321.319,142.641 326,160.5C 327.651,172.216 323.817,181.716 314.5,189C 304.844,196.163 294.844,202.83 284.5,209C 280.5,213.667 276.5,218.333 272.5,223C 269.003,225.583 265.336,227.916 261.5,230C 260.167,230.667 258.833,230.667 257.5,230C 256.869,226.471 256.036,222.971 255,219.5C 248.893,210.49 241.727,202.323 233.5,195C 229.833,194 226.167,193 222.5,192C 221.483,190.951 221.316,189.784 222,188.5C 226.888,179.279 234.055,172.445 243.5,168C 249.191,167.549 250.858,170.049 248.5,175.5C 250.551,180.595 253.384,185.262 257,189.5C 262.221,194.721 267.387,199.887 272.5,205C 278.502,205.993 280.668,203.493 279,197.5C 272.5,187.667 266,177.833 259.5,168C 256.623,166.873 253.623,166.206 250.5,166C 249.167,164 249.167,162 250.5,160C 259.938,151.894 269.938,144.561 280.5,138C 284.266,136.441 287.932,134.941 291.5,133.5 Z"/></g>
<g><path style="opacity:1" fill="#f4f4f2" d="M 677.5,146.5 C 669.046,150.048 660.546,153.715 652,157.5C 625.807,141.57 597.974,138.07 568.5,147C 560.897,150.386 553.397,153.886 546,157.5C 537.511,153.669 529.011,150.002 520.5,146.5C 572.82,138.586 625.153,138.586 677.5,146.5 Z"/></g>
<g><path style="opacity:1" fill="#98662f" d="M 677.5,146.5 C 680.91,146.457 684.243,146.957 687.5,148C 688.056,148.383 688.389,148.883 688.5,149.5C 685.074,152.531 683.741,156.198 684.5,160.5C 705.786,166.95 718.952,180.95 724,202.5C 724.051,212.266 724.718,221.933 726,231.5C 736.736,241.733 746.902,252.4 756.5,263.5C 738.164,263.333 719.83,263.5 701.5,264C 697.606,266.125 693.939,265.958 690.5,263.5C 699.753,255.338 706.253,245.338 710,233.5C 711.828,227.524 710.161,222.857 705,219.5C 696.235,242.133 680.068,250.3 656.5,244C 643.097,237.76 635.764,227.26 634.5,212.5C 634.953,207.765 635.453,203.098 636,198.5C 623.634,219.901 611.801,241.567 600.5,263.5C 599.833,263.5 599.167,263.5 598.5,263.5C 587.279,242.061 575.779,220.728 564,199.5C 566.416,233.421 550.916,248.588 517.5,245C 505.507,240.34 497.673,231.84 494,219.5C 490.477,221.716 488.643,224.883 488.5,229C 491.192,242.846 497.859,254.346 508.5,263.5C 486.536,263.835 464.536,263.835 442.5,263.5C 451.764,252.733 461.597,242.4 472,232.5C 473.899,229.626 474.733,226.459 474.5,223C 471.137,196.056 481.471,176.389 505.5,164C 511.686,164.136 514.853,161.303 515,155.5C 512.98,153.449 511.48,151.116 510.5,148.5C 513.877,148.041 517.211,147.374 520.5,146.5C 529.011,150.002 537.511,153.669 546,157.5C 553.397,153.886 560.897,150.386 568.5,147C 597.974,138.07 625.807,141.57 652,157.5C 660.546,153.715 669.046,150.048 677.5,146.5 Z"/></g>
<g><path style="opacity:1" fill="#fbf9f9" d="M 916.5,148.5 C 938.929,146.956 954.096,156.622 962,177.5C 964.44,207.724 950.607,222.224 920.5,221C 898.139,213.434 887.972,197.934 890,174.5C 894.651,161.45 903.484,152.784 916.5,148.5 Z"/></g>
<g><path style="opacity:1" fill="#ef4e4b" d="M 281.5,149.5 C 288.099,149.215 293.599,151.549 298,156.5C 303.061,161.953 306.561,168.287 308.5,175.5C 308.443,183.062 304.777,186.562 297.5,186C 290.667,176.5 283.833,167 277,157.5C 276.333,155.833 276.333,154.167 277,152.5C 278.652,151.601 280.152,150.601 281.5,149.5 Z"/></g>
<g><path style="opacity:1" fill="#fcfcfc" d="M 510.5,148.5 C 511.48,151.116 512.98,153.449 515,155.5C 514.853,161.303 511.686,164.136 505.5,164C 481.471,176.389 471.137,196.056 474.5,223C 474.733,226.459 473.899,229.626 472,232.5C 461.597,242.4 451.764,252.733 442.5,263.5C 441.5,263.5 440.5,263.5 439.5,263.5C 388.664,263.832 337.997,263.499 287.5,262.5C 351.061,204.216 425.395,166.216 510.5,148.5 Z"/></g>
<g><path style="opacity:1" fill="#fbfbfb" d="M 688.5,149.5 C 773.923,166.209 848.256,204.042 911.5,263C 885.811,264.163 859.978,264.663 834,264.5C 808.096,264.496 782.262,264.162 756.5,263.5C 746.902,252.4 736.736,241.733 726,231.5C 724.718,221.933 724.051,212.266 724,202.5C 718.952,180.95 705.786,166.95 684.5,160.5C 683.741,156.198 685.074,152.531 688.5,149.5 Z"/></g>
<g><path style="opacity:1" fill="#f6f5ee" d="M 528.5,160.5 C 537.781,159.558 544.614,163.224 549,171.5C 552.016,177.19 554.683,182.856 557,188.5C 544.071,175.968 529.237,173.135 512.5,180C 502.483,186.182 495.983,195.015 493,206.5C 492.333,200.5 492.333,194.5 493,188.5C 493.667,187.167 494.333,185.833 495,184.5C 499.967,181.29 505.133,178.457 510.5,176C 515.831,169.819 521.831,164.653 528.5,160.5 Z"/></g>
<g><path style="opacity:1" fill="#f7f5f0" d="M 664.5,159.5 C 667.32,159.248 669.986,159.748 672.5,161C 677.833,165 682.5,169.667 686.5,175C 692.595,178.102 698.429,181.602 704,185.5C 708.29,191.563 708.623,197.896 705,204.5C 697.339,181.249 681.506,172.416 657.5,178C 651.709,180.98 646.543,184.813 642,189.5C 644.777,175.898 652.277,165.898 664.5,159.5 Z"/></g>
<g><path style="opacity:1" fill="#ed4f4c" d="M 928.5,165.5 C 939.115,164.351 942.949,169.018 940,179.5C 936.845,189.993 930.678,198.159 921.5,204C 912.674,203.917 909.507,199.417 912,190.5C 915.029,180.415 920.529,172.082 928.5,165.5 Z"/></g>
<g><path style="opacity:1" fill="#f5f5f2" d="M 521.5,183.5 C 544.658,181.832 556.491,192.498 557,215.5C 552.304,233.181 540.804,241.015 522.5,239C 502.427,231.468 496.261,217.634 504,197.5C 508.265,190.721 514.098,186.054 521.5,183.5 Z"/></g>
<g><path style="opacity:1" fill="#f6f5f2" d="M 662.5,183.5 C 686.192,182.031 698.025,193.031 698,216.5C 692.887,233.647 681.387,241.147 663.5,239C 647.92,233.75 640.753,222.917 642,206.5C 644.844,195.162 651.678,187.495 662.5,183.5 Z"/></g>
<g><path style="opacity:1" fill="#373536" d="M 521.5,192.5 C 540.163,190.005 548.996,198.005 548,216.5C 543.114,227.694 534.614,232.194 522.5,230C 509.366,222.905 506.199,212.739 513,199.5C 515.628,196.79 518.461,194.456 521.5,192.5 Z"/></g>
<g><path style="opacity:1" fill="#383637" d="M 665.5,191.5 C 682.059,191.224 689.893,199.224 689,215.5C 683.338,229.39 673.505,233.557 659.5,228C 651.045,221.361 648.545,212.861 652,202.5C 655.213,197.107 659.713,193.441 665.5,191.5 Z"/></g>
<g><path style="opacity:1" fill="#faf8f8" d="M 211.5,196.5 C 217.932,195.347 223.432,197.014 228,201.5C 229.212,204.834 228.379,207.334 225.5,209C 221.205,209.912 216.872,210.579 212.5,211C 210.391,212.141 208.558,213.641 207,215.5C 206.171,220.59 208.338,222.424 213.5,221C 219.046,218.06 224.713,215.394 230.5,213C 241.216,211.697 248.383,216.197 252,226.5C 252.715,239.239 247.882,249.406 237.5,257C 233.084,259.958 228.584,262.792 224,265.5C 223.481,277.516 217.314,284.182 205.5,285.5C 199.218,284.276 193.051,282.61 187,280.5C 183.233,280.266 181.567,281.932 182,285.5C 184.833,287.667 187.667,289.833 190.5,292C 193.833,292.333 197.167,292.667 200.5,293C 201.576,294.726 201.743,296.559 201,298.5C 196.622,307.211 190.455,314.378 182.5,320C 183.894,322.597 183.727,325.097 182,327.5C 173.664,340.168 165.83,353.168 158.5,366.5C 153.013,368.48 150.513,366.48 151,360.5C 140.869,351.264 129.202,344.598 116,340.5C 109.64,342.901 107.974,347.235 111,353.5C 122,367.167 133,380.833 144,394.5C 144.959,398.421 143.792,401.588 140.5,404C 122.833,404.333 105.167,404.667 87.5,405C 84.7886,405.773 82.2886,406.94 80,408.5C 77.5751,407.327 76.4084,405.327 76.5,402.5C 77.7721,391.443 82.6054,382.443 91,375.5C 93.4873,377.271 95.654,379.438 97.5,382C 103.749,382.809 109.916,382.642 116,381.5C 116.52,379.711 116.187,378.044 115,376.5C 112.203,372.701 109.036,369.201 105.5,366C 102.242,365.788 99.0757,365.288 96,364.5C 95.3198,359.196 96.3198,354.196 99,349.5C 109.561,331.544 119.728,313.377 129.5,295C 133.594,294.233 137.594,294.566 141.5,296C 145.077,297.852 146.077,300.518 144.5,304C 134.133,306.03 128.299,312.197 127,322.5C 129.748,324.458 132.582,326.291 135.5,328C 137.235,328.651 138.902,328.485 140.5,327.5C 142.285,323.468 141.451,320.134 138,317.5C 137.333,316.167 137.333,314.833 138,313.5C 146.662,312.819 153.996,315.819 160,322.5C 160.495,324.473 160.662,326.473 160.5,328.5C 157.079,328.026 153.745,328.026 150.5,328.5C 148.744,330.191 148.244,332.191 149,334.5C 152.476,337.155 156.31,339.155 160.5,340.5C 162.728,339.781 164.561,338.448 166,336.5C 168.095,332.548 169.595,328.382 170.5,324C 169.103,320.417 167.436,316.917 165.5,313.5C 166.592,311.404 168.259,310.071 170.5,309.5C 173.285,310.059 175.618,311.392 177.5,313.5C 178.614,312.277 178.781,310.944 178,309.5C 170.296,302.072 162.129,295.238 153.5,289C 149.404,286.483 145.071,285.817 140.5,287C 139.196,286.196 138.529,285.029 138.5,283.5C 139.137,280.893 140.304,278.56 142,276.5C 149.456,266.709 157.289,257.209 165.5,248C 180.705,241.438 189.038,246.438 190.5,263C 193.67,261.94 197.004,261.106 200.5,260.5C 205.348,261.587 210.015,263.254 214.5,265.5C 215.938,265.281 217.271,264.781 218.5,264C 215.333,261.5 212.167,259 209,256.5C 208.333,254.833 208.333,253.167 209,251.5C 214.419,251.092 219.919,250.925 225.5,251C 231.709,249.475 234.876,245.642 235,239.5C 234.196,238.196 233.029,237.529 231.5,237.5C 225.62,240.273 219.62,242.773 213.5,245C 194.227,246.321 186.727,237.488 191,218.5C 192.08,216.004 193.414,213.67 195,211.5C 200.695,206.634 206.195,201.634 211.5,196.5 Z"/></g>
<g><path style="opacity:1" fill="#fbfbf9" d="M 598.5,263.5 C 581.341,264.497 564.008,264.83 546.5,264.5C 533.754,264.813 521.087,264.48 508.5,263.5C 497.859,254.346 491.192,242.846 488.5,229C 488.643,224.883 490.477,221.716 494,219.5C 497.673,231.84 505.507,240.34 517.5,245C 550.916,248.588 566.416,233.421 564,199.5C 575.779,220.728 587.279,242.061 598.5,263.5 Z"/></g>
<g><path style="opacity:1" fill="#fcfbf9" d="M 690.5,263.5 C 680.218,264.452 669.885,264.786 659.5,264.5C 639.66,264.83 619.993,264.497 600.5,263.5C 611.801,241.567 623.634,219.901 636,198.5C 635.453,203.098 634.953,207.765 634.5,212.5C 635.764,227.26 643.097,237.76 656.5,244C 680.068,250.3 696.235,242.133 705,219.5C 710.161,222.857 711.828,227.524 710,233.5C 706.253,245.338 699.753,255.338 690.5,263.5 Z"/></g>
<g><path style="opacity:1" fill="#fdfafa" d="M 994.5,205.5 C 1004.25,207.073 1010.41,212.739 1013,222.5C 1012.88,236.497 1012.88,250.497 1013,264.5C 1017.43,265.13 1021.09,263.464 1024,259.5C 1025.57,244.189 1031.24,242.523 1041,254.5C 1043.95,258.058 1046.11,262.058 1047.5,266.5C 1045.39,271.543 1041.72,272.876 1036.5,270.5C 1033.97,270.763 1031.64,271.596 1029.5,273C 1020.32,279.758 1011.32,286.758 1002.5,294C 998.793,297.038 994.626,299.205 990,300.5C 986.601,299.935 984.768,297.935 984.5,294.5C 985.722,278.839 986.556,263.173 987,247.5C 985.274,246.424 983.441,246.257 981.5,247C 973.606,250.217 969.773,256.05 970,264.5C 966.439,267.163 962.939,266.997 959.5,264C 953.68,259.528 950.013,253.695 948.5,246.5C 948.529,244.971 949.196,243.804 950.5,243C 955.282,242.881 959.949,242.215 964.5,241C 974.158,234.912 982.991,227.745 991,219.5C 992.813,214.966 993.98,210.299 994.5,205.5 Z"/></g>
<g><path style="opacity:1" fill="#f5f2e9" d="M 591.5,211.5 C 596.833,211.5 602.167,211.5 607.5,211.5C 606.527,216.454 604.694,221.121 602,225.5C 599.733,226.935 597.733,226.602 596,224.5C 593.361,220.556 591.861,216.222 591.5,211.5 Z"/></g>
<g><path style="opacity:1" fill="#c7d0e4" d="M 287.5,262.5 C 337.997,263.499 388.664,263.832 439.5,263.5C 388.665,264.831 337.665,264.831 286.5,263.5C 286.624,262.893 286.957,262.56 287.5,262.5 Z"/></g>
<g><path style="opacity:1" fill="#ed565a" d="M 164.5,263.5 C 169.422,263.899 173.255,266.233 176,270.5C 176.755,273.497 175.922,275.997 173.5,278C 168.948,276.49 165.114,273.657 162,269.5C 161.333,268.5 161.333,267.5 162,266.5C 163.045,265.627 163.878,264.627 164.5,263.5 Z"/></g>
<g><path style="opacity:1" fill="#b79674" d="M 598.5,263.5 C 599.167,263.5 599.833,263.5 600.5,263.5C 619.993,264.497 639.66,264.83 659.5,264.5C 621.833,265.833 584.167,265.833 546.5,264.5C 564.008,264.83 581.341,264.497 598.5,263.5 Z"/></g>
<g><path style="opacity:1" fill="#99909d" d="M 910.5,281.5 C 910.5,281.833 910.5,282.167 910.5,282.5C 785.167,282.5 659.833,282.5 534.5,282.5C 524.833,282.5 515.167,282.5 505.5,282.5C 431.833,282.333 358.166,282.5 284.5,283C 284,283.5 283.5,284 283,284.5C 282.5,339.499 282.333,394.499 282.5,449.5C 281.167,422.008 280.5,394.175 280.5,366C 280.502,337.929 280.835,309.929 281.5,282C 491.166,281.5 700.833,281.333 910.5,281.5 Z"/></g>
<g><path style="opacity:1" fill="#f8a632" d="M 505.5,282.5 C 495.262,285.375 486.428,290.708 479,298.5C 473.392,313.459 477.892,324.292 492.5,331C 498.186,332.555 503.353,335.055 508,338.5C 509.193,343.152 508.36,347.319 505.5,351C 503.5,351.667 501.5,351.667 499.5,351C 478.651,342.691 456.984,338.358 434.5,338C 431.606,335.091 430.773,331.591 432,327.5C 433.673,325.083 435.506,325.083 437.5,327.5C 438.654,322.113 436.321,318.946 430.5,318C 423.991,316.241 418.491,317.741 414,322.5C 413.202,324.259 413.369,325.926 414.5,327.5C 416.071,326.691 417.738,326.357 419.5,326.5C 419.5,330.5 419.5,334.5 419.5,338.5C 397.09,338.438 375.59,342.772 355,351.5C 354.055,351.095 353.388,350.428 353,349.5C 352.99,337.963 347.823,329.796 337.5,325C 315.8,319.839 303.133,328.172 299.5,350C 299.614,361.571 304.614,370.237 314.5,376C 329.241,383.489 344.907,386.823 361.5,386C 366.425,386.862 370.925,388.695 375,391.5C 376.324,397.009 374.157,399.676 368.5,399.5C 369.921,393.887 367.921,391.72 362.5,393C 361.548,398.236 363.881,401.07 369.5,401.5C 374.87,401.628 377.37,398.962 377,393.5C 378.473,391.993 380.307,391.326 382.5,391.5C 394.886,394.017 406.719,398.017 418,403.5C 417.625,413.291 414.125,421.791 407.5,429C 398.78,433.719 389.447,435.719 379.5,435C 378.167,436.667 378.167,438.333 379.5,440C 410.5,440.667 441.5,440.667 472.5,440C 473.406,438.301 473.739,436.467 473.5,434.5C 467.824,434.666 462.157,434.499 456.5,434C 449.787,430.625 444.287,425.791 440,419.5C 436.818,414.494 434.818,409.161 434,403.5C 442.724,401.06 451.224,397.893 459.5,394C 476.786,391.931 493.119,386.931 508.5,379C 522.562,368.853 529.395,355.02 529,337.5C 535.134,335.335 541.301,333.169 547.5,331C 559.522,325.656 564.688,316.489 563,303.5C 560.608,297.774 556.774,293.274 551.5,290C 545.774,287.379 540.107,284.879 534.5,282.5C 659.833,282.5 785.167,282.5 910.5,282.5C 912.144,282.286 913.644,282.62 915,283.5C 915.5,338.832 915.667,394.166 915.5,449.5C 704.5,449.5 493.5,449.5 282.5,449.5C 282.333,394.499 282.5,339.499 283,284.5C 283.5,284 284,283.5 284.5,283C 358.166,282.5 431.833,282.333 505.5,282.5 Z"/></g>
<g><path style="opacity:1" fill="#98662d" d="M 505.5,282.5 C 515.167,282.5 524.833,282.5 534.5,282.5C 540.107,284.879 545.774,287.379 551.5,290C 556.774,293.274 560.608,297.774 563,303.5C 564.688,316.489 559.522,325.656 547.5,331C 541.301,333.169 535.134,335.335 529,337.5C 529.395,355.02 522.562,368.853 508.5,379C 493.119,386.931 476.786,391.931 459.5,394C 451.224,397.893 442.724,401.06 434,403.5C 434.818,409.161 436.818,414.494 440,419.5C 444.287,425.791 449.787,430.625 456.5,434C 462.157,434.499 467.824,434.666 473.5,434.5C 473.739,436.467 473.406,438.301 472.5,440C 441.5,440.667 410.5,440.667 379.5,440C 378.167,438.333 378.167,436.667 379.5,435C 389.447,435.719 398.78,433.719 407.5,429C 414.125,421.791 417.625,413.291 418,403.5C 406.719,398.017 394.886,394.017 382.5,391.5C 380.307,391.326 378.473,391.993 377,393.5C 377.37,398.962 374.87,401.628 369.5,401.5C 363.881,401.07 361.548,398.236 362.5,393C 367.921,391.72 369.921,393.887 368.5,399.5C 374.157,399.676 376.324,397.009 375,391.5C 370.925,388.695 366.425,386.862 361.5,386C 344.907,386.823 329.241,383.489 314.5,376C 304.614,370.237 299.614,361.571 299.5,350C 303.133,328.172 315.8,319.839 337.5,325C 347.823,329.796 352.99,337.963 353,349.5C 353.388,350.428 354.055,351.095 355,351.5C 375.59,342.772 397.09,338.438 419.5,338.5C 419.5,334.5 419.5,330.5 419.5,326.5C 417.738,326.357 416.071,326.691 414.5,327.5C 413.369,325.926 413.202,324.259 414,322.5C 418.491,317.741 423.991,316.241 430.5,318C 436.321,318.946 438.654,322.113 437.5,327.5C 435.506,325.083 433.673,325.083 432,327.5C 430.773,331.591 431.606,335.091 434.5,338C 456.984,338.358 478.651,342.691 499.5,351C 501.5,351.667 503.5,351.667 505.5,351C 508.36,347.319 509.193,343.152 508,338.5C 503.353,335.055 498.186,332.555 492.5,331C 477.892,324.292 473.392,313.459 479,298.5C 486.428,290.708 495.262,285.375 505.5,282.5 Z"/></g>
<g><path style="opacity:1" fill="#2b51a7" d="M 921.5,281.5 C 922.822,281.33 923.989,281.663 925,282.5C 925.667,288.167 925.667,293.833 925,299.5C 924.692,300.308 924.192,300.975 923.5,301.5C 922.833,296.167 922.167,290.833 921.5,285.5C 920.996,337.972 920.163,390.306 919,442.5C 918.167,389.83 918.333,337.164 919.5,284.5C 920.425,283.643 921.092,282.643 921.5,281.5 Z"/></g>
<g><path style="opacity:1" fill="#ee4d47" d="M 521.5,287.5 C 523.224,292.747 526.39,297.081 531,300.5C 536.003,310.454 535.503,320.121 529.5,329.5C 522.833,330.833 516.167,330.833 509.5,329.5C 507.836,325.631 506.336,321.631 505,317.5C 504.177,313.262 504.844,309.262 507,305.5C 511.703,300.645 514.87,294.979 516.5,288.5C 517.919,287.549 519.585,287.216 521.5,287.5 Z"/></g>
<g><path style="opacity:1" fill="#fafbfb" d="M 262.5,288.5 C 263.495,300.655 263.829,312.989 263.5,325.5C 260.737,325.744 258.571,327.077 257,329.5C 249.512,344.665 239.345,357.831 226.5,369C 203.469,383.896 192.135,405.063 192.5,432.5C 199.544,428.625 205.878,423.792 211.5,418C 213.367,417.289 214.867,417.789 216,419.5C 216.958,422.075 217.458,424.741 217.5,427.5C 215.258,436.707 213.925,446.041 213.5,455.5C 215.308,455.509 216.975,455.009 218.5,454C 220.983,451.594 223.65,449.427 226.5,447.5C 228.252,454.092 230.585,460.425 233.5,466.5C 238.998,457.177 242.832,447.177 245,436.5C 247.5,440.167 250,443.833 252.5,447.5C 256.161,438.747 257.828,429.581 257.5,420C 256.161,405.638 253.661,391.471 250,377.5C 249.291,367.946 251.291,358.946 256,350.5C 258.608,344.947 261.441,339.613 264.5,334.5C 264.333,468.5 264.5,602.5 265,736.5C 272.146,838.188 319.313,914.688 406.5,966C 438.808,983.986 472.474,998.986 507.5,1011C 527.5,1017.67 547.5,1024.33 567.5,1031C 580.719,1036.72 591.386,1045.55 599.5,1057.5C 607.564,1045.61 618.23,1036.78 631.5,1031C 673.759,1018.03 715.093,1002.69 755.5,985C 795.1,967.13 830.266,942.963 861,912.5C 901.709,867.391 925.376,814.391 932,753.5C 932.862,743.847 933.529,734.18 934,724.5C 934.5,633.501 934.667,542.501 934.5,451.5C 937.45,458.061 940.95,464.394 945,470.5C 950.391,477.049 955.557,483.716 960.5,490.5C 960.392,491.442 960.059,492.275 959.5,493C 947.284,499.621 942.784,509.788 946,523.5C 948.654,529.633 951.488,535.633 954.5,541.5C 950.02,559.419 945.854,577.419 942,595.5C 941.085,601.944 941.419,608.277 943,614.5C 949.081,605.748 955.914,597.582 963.5,590C 964.833,589.333 966.167,589.333 967.5,590C 969.761,592.772 971.261,595.938 972,599.5C 974.502,608.682 976.169,618.015 977,627.5C 978.388,628.554 979.888,628.72 981.5,628C 983.075,616.528 986.575,605.694 992,595.5C 993.062,594.101 994.395,593.101 996,592.5C 1004.77,602.6 1014.27,612.1 1024.5,621C 1029.33,624.581 1034.33,627.915 1039.5,631C 1041.11,631.72 1042.61,631.554 1044,630.5C 1043.76,623.22 1042.1,616.22 1039,609.5C 1030.74,595.296 1022.24,581.296 1013.5,567.5C 1017.43,563.393 1021.26,559.06 1025,554.5C 1034.31,539.099 1031.98,525.766 1018,514.5C 1017.33,512.5 1017.33,510.5 1018,508.5C 1021.72,504.452 1025.05,500.118 1028,495.5C 1031.4,487.791 1034.9,480.125 1038.5,472.5C 1036.93,471.369 1035.26,471.202 1033.5,472C 1028.49,474.501 1023.83,477.501 1019.5,481C 1016.94,482.079 1014.27,482.579 1011.5,482.5C 1014.02,472.763 1016.86,463.096 1020,453.5C 1020.72,449.823 1021.05,446.157 1021,442.5C 1019.95,441.483 1018.78,441.316 1017.5,442C 1010.62,450.066 1002.29,455.899 992.5,459.5C 992.42,444.185 990.253,429.185 986,414.5C 982.75,406.927 977.75,400.927 971,396.5C 969.013,397.154 967.68,398.487 967,400.5C 965.985,404.765 965.485,409.098 965.5,413.5C 966.647,429.856 967.98,446.19 969.5,462.5C 968.448,462.649 967.448,462.483 966.5,462C 957.541,452.194 946.875,445.027 934.5,440.5C 934.5,398.167 934.5,355.833 934.5,313.5C 939.87,320.584 943.37,328.584 945,337.5C 946.336,353.156 944.669,368.489 940,383.5C 938.42,397.821 939.754,411.821 944,425.5C 948.401,413.632 952.401,401.632 956,389.5C 956.499,384.177 956.666,378.844 956.5,373.5C 957.822,373.33 958.989,373.663 960,374.5C 961.396,378.792 963.896,382.292 967.5,385C 975.5,388.667 983.5,392.333 991.5,396C 996.506,400.526 1000.67,405.693 1004,411.5C 1005.01,412.337 1006.18,412.67 1007.5,412.5C 1007.7,409.059 1007.2,405.726 1006,402.5C 999.956,388.228 991.789,375.394 981.5,364C 976.074,360.871 970.907,357.371 966,353.5C 963.016,347.531 960.016,341.531 957,335.5C 948.458,327.093 942.458,317.093 939,305.5C 937.951,303.616 936.451,302.282 934.5,301.5C 934.173,296.786 934.507,292.12 935.5,287.5C 1023.54,383.748 1064.37,497.415 1058,628.5C 1046.19,770.991 983.691,885.157 870.5,971C 768.162,1042.58 654.829,1070.25 530.5,1054C 395.699,1031.06 290.199,963.223 214,850.5C 158.901,764.364 134.567,670.031 141,567.5C 149.402,460.074 189.902,367.074 262.5,288.5 Z"/></g>
<g><path style="opacity:1" fill="#9dacd1" d="M 262.5,288.5 C 262.56,287.957 262.893,287.624 263.5,287.5C 264.499,300.149 264.832,312.816 264.5,325.5C 264.167,325.5 263.833,325.5 263.5,325.5C 263.829,312.989 263.495,300.655 262.5,288.5 Z"/></g>
<g><path style="opacity:1" fill="#e3af2a" d="M 516.5,288.5 C 514.87,294.979 511.703,300.645 507,305.5C 504.844,309.262 504.177,313.262 505,317.5C 506.336,321.631 507.836,325.631 509.5,329.5C 497.874,328.619 489.707,322.953 485,312.5C 484.284,303.446 488.117,296.946 496.5,293C 502.678,289.329 509.345,287.829 516.5,288.5 Z"/></g>
<g><path style="opacity:1" fill="#e3af2c" d="M 521.5,287.5 C 533.907,288.019 544.407,292.686 553,301.5C 557.112,309.511 555.612,316.344 548.5,322C 543.002,326.556 536.669,329.056 529.5,329.5C 535.503,320.121 536.003,310.454 531,300.5C 526.39,297.081 523.224,292.747 521.5,287.5 Z"/></g>
<g><path style="opacity:1" fill="#9a672e" d="M 681.5,293.5 C 686.478,294.82 691.145,296.987 695.5,300C 699.363,301.732 703.363,303.066 707.5,304C 718.13,305.145 728.797,305.812 739.5,306C 748.025,307.431 755.692,310.764 762.5,316C 766.083,320.09 770.083,323.59 774.5,326.5C 780.122,323.613 786.122,322.78 792.5,324C 820.144,330.711 848.144,335.378 876.5,338C 876.957,338.414 877.291,338.914 877.5,339.5C 876.167,341.167 874.833,342.833 873.5,344.5C 875.894,346.68 878.227,348.847 880.5,351C 857.226,380.612 833.56,409.945 809.5,439C 805.449,439.518 801.449,439.184 797.5,438C 773.173,431.891 748.84,425.891 724.5,420C 715.5,421 706.5,422 697.5,423C 693.2,419.702 689.2,416.035 685.5,412C 659.846,397.781 632.512,388.114 603.5,383C 602.572,382.612 601.905,381.945 601.5,381C 603.392,377.397 605.892,374.23 609,371.5C 608.03,369.307 607.363,366.973 607,364.5C 632.032,340.967 656.865,317.3 681.5,293.5 Z"/></g>
<g><path style="opacity:1" fill="#fbf9f9" d="M 1048.5,295.5 C 1070.09,294.371 1084.25,304.038 1091,324.5C 1094.51,346.331 1086.01,361.165 1065.5,369C 1047.92,371.624 1034.42,365.457 1025,350.5C 1013.71,323.767 1021.54,305.433 1048.5,295.5 Z"/></g>
<g><path style="opacity:1" fill="#f9f9f9" d="M 682.5,300.5 C 684.308,300.491 685.975,300.991 687.5,302C 691.382,306.214 696.048,309.214 701.5,311C 713.452,312.225 725.452,312.891 737.5,313C 744.302,314.155 750.635,316.488 756.5,320C 760.833,324.333 765.167,328.667 769.5,333C 774.204,333.163 778.537,331.83 782.5,329C 786.833,328.333 791.167,328.333 795.5,329C 819.232,336.91 843.566,341.91 868.5,344C 846.528,371.966 823.861,399.3 800.5,426C 781.412,422.081 763.079,415.748 745.5,407C 732.678,402.064 720.011,402.397 707.5,408C 705.833,408.667 704.167,408.667 702.5,408C 701.054,402.56 698.054,398.226 693.5,395C 682.243,392.979 670.91,391.312 659.5,390C 646.747,386.751 634.747,381.751 623.5,375C 619.835,373.014 616.835,370.347 614.5,367C 636.691,344.308 659.358,322.141 682.5,300.5 Z"/></g>
<g><path style="opacity:1" fill="#4ab656" d="M 934.5,301.5 C 936.451,302.282 937.951,303.616 939,305.5C 942.458,317.093 948.458,327.093 957,335.5C 960.016,341.531 963.016,347.531 966,353.5C 970.907,357.371 976.074,360.871 981.5,364C 991.789,375.394 999.956,388.228 1006,402.5C 1007.2,405.726 1007.7,409.059 1007.5,412.5C 1006.18,412.67 1005.01,412.337 1004,411.5C 1000.67,405.693 996.506,400.526 991.5,396C 983.5,392.333 975.5,388.667 967.5,385C 963.896,382.292 961.396,378.792 960,374.5C 958.989,373.663 957.822,373.33 956.5,373.5C 956.666,378.844 956.499,384.177 956,389.5C 952.401,401.632 948.401,413.632 944,425.5C 939.754,411.821 938.42,397.821 940,383.5C 944.669,368.489 946.336,353.156 945,337.5C 943.37,328.584 939.87,320.584 934.5,313.5C 933.842,310.844 933.175,308.178 932.5,305.5C 932.34,303.645 933.007,302.312 934.5,301.5 Z"/></g>
<g><path style="opacity:1" fill="#7f7c7a" d="M 685.5,313.5 C 688.767,313.424 690.101,314.757 689.5,317.5C 687.465,316.959 685.465,316.292 683.5,315.5C 684.243,314.818 684.909,314.151 685.5,313.5 Z"/></g>
<g><path style="opacity:1" fill="#ed4f4c" d="M 1063.5,315.5 C 1074.69,317.225 1077.19,322.892 1071,332.5C 1065.01,340.077 1057.51,345.577 1048.5,349C 1042.11,349.781 1038.44,346.948 1037.5,340.5C 1042.9,328.767 1051.57,320.433 1063.5,315.5 Z"/></g>
<g><path style="opacity:1" fill="#5c5d64" d="M 694.5,319.5 C 698.311,318.355 702.311,318.188 706.5,319C 708.904,319.508 709.571,320.675 708.5,322.5C 703.934,320.978 699.268,319.978 694.5,319.5 Z"/></g>
<g><path style="opacity:1" fill="#656564" d="M 675.5,323.5 C 678.445,321.937 681.112,322.437 683.5,325C 680.678,325.428 678.012,324.928 675.5,323.5 Z"/></g>
<g><path style="opacity:1" fill="#737373" d="M 710.5,322.5 C 710.56,321.957 710.893,321.624 711.5,321.5C 713.795,322.432 716.129,323.265 718.5,324C 715.354,326.119 712.687,325.619 710.5,322.5 Z"/></g>
<g><path style="opacity:1" fill="#7a7a7a" d="M 721.5,322.5 C 726.109,324.467 730.776,326.467 735.5,328.5C 733.926,329.631 732.259,329.798 730.5,329C 727.392,326.894 724.059,325.228 720.5,324C 721.056,323.617 721.389,323.117 721.5,322.5 Z"/></g>
<g><path style="opacity:1" fill="#49b555" d="M 263.5,325.5 C 263.833,325.5 264.167,325.5 264.5,325.5C 265.734,328.535 265.734,331.535 264.5,334.5C 261.441,339.613 258.608,344.947 256,350.5C 251.291,358.946 249.291,367.946 250,377.5C 253.661,391.471 256.161,405.638 257.5,420C 257.828,429.581 256.161,438.747 252.5,447.5C 250,443.833 247.5,440.167 245,436.5C 242.832,447.177 238.998,457.177 233.5,466.5C 230.585,460.425 228.252,454.092 226.5,447.5C 223.65,449.427 220.983,451.594 218.5,454C 216.975,455.009 215.308,455.509 213.5,455.5C 213.925,446.041 215.258,436.707 217.5,427.5C 217.458,424.741 216.958,422.075 216,419.5C 214.867,417.789 213.367,417.289 211.5,418C 205.878,423.792 199.544,428.625 192.5,432.5C 192.135,405.063 203.469,383.896 226.5,369C 239.345,357.831 249.512,344.665 257,329.5C 258.571,327.077 260.737,325.744 263.5,325.5 Z"/></g>
<g><path style="opacity:1" fill="#f6a52f" d="M 321.5,325.5 C 339.693,324.864 348.86,333.531 349,351.5C 343.418,360.514 336.584,361.68 328.5,355C 334.23,351.361 334.897,347.028 330.5,342C 323.017,340.311 320.183,343.144 322,350.5C 325.586,359.256 332.086,363.256 341.5,362.5C 341.377,371.083 345.044,377.583 352.5,382C 334.766,382.647 319.599,376.814 307,364.5C 298.882,346.729 303.715,333.729 321.5,325.5 Z"/></g>
<g><path style="opacity:1" fill="#696969" d="M 684.5,325.5 C 688.285,326.884 692.118,327.217 696,326.5C 700.205,328.352 704.372,330.352 708.5,332.5C 707.277,333.614 705.944,333.781 704.5,333C 699.346,329.294 693.68,327.961 687.5,329C 685.574,328.578 684.574,327.411 684.5,325.5 Z"/></g>
<g><path style="opacity:1" fill="#757575" d="M 738.5,328.5 C 739.601,327.402 740.934,327.235 742.5,328C 746.048,329.941 749.714,331.607 753.5,333C 751.5,333.667 749.5,333.667 747.5,333C 744.757,330.962 741.757,329.462 738.5,328.5 Z"/></g>
<g><path style="opacity:1" fill="#727272" d="M 668.5,330.5 C 670.827,330.247 672.827,330.914 674.5,332.5C 671.707,333.972 669.707,333.306 668.5,330.5 Z"/></g>
<g><path style="opacity:1" fill="#737373" d="M 676.5,334.5 C 678.655,334.372 680.655,334.872 682.5,336C 679.839,338.056 677.839,337.556 676.5,334.5 Z"/></g>
<g><path style="opacity:1" fill="#656565" d="M 712.5,332.5 C 713.601,331.402 714.934,331.235 716.5,332C 719.833,333.667 723.167,335.333 726.5,337C 725.167,337.667 723.833,337.667 722.5,337C 719.264,335.214 715.93,333.714 712.5,332.5 Z"/></g>
<g><path style="opacity:1" fill="#797979" d="M 693.5,338.5 C 690.833,338.167 688.167,337.833 685.5,337.5C 685.5,336.5 685.5,335.5 685.5,334.5C 689.26,333.774 691.927,335.107 693.5,338.5 Z"/></g>
<g><path style="opacity:1" fill="#615f61" d="M 659.5,340.5 C 660.274,339.853 661.274,339.52 662.5,339.5C 664.319,339.342 665.652,340.009 666.5,341.5C 666,341.833 665.5,342.167 665,342.5C 663.433,341.144 661.6,340.477 659.5,340.5 Z"/></g>
<g><path style="opacity:1" fill="#646464" d="M 693.5,338.5 C 696.226,338.264 698.559,339.097 700.5,341C 697.386,342.087 695.053,341.254 693.5,338.5 Z"/></g>
<g><path style="opacity:1" fill="#686868" d="M 730.5,337.5 C 731.946,336.387 733.613,336.22 735.5,337C 738.167,338.333 740.833,339.667 743.5,341C 742.167,341.667 740.833,341.667 739.5,341C 736.691,339.259 733.691,338.092 730.5,337.5 Z"/></g>
<g><path style="opacity:1" fill="#666766" d="M 773.5,339.5 C 776.226,339.264 778.559,340.097 780.5,342C 777.306,343.081 774.973,342.247 773.5,339.5 Z"/></g>
<g><path style="opacity:1" fill="#aa8f74" d="M 910.5,282.5 C 910.5,282.167 910.5,281.833 910.5,281.5C 912.792,281.244 914.959,281.577 917,282.5C 917.167,310.333 917.333,338.167 917.5,366C 917.5,394.175 916.833,422.008 915.5,449.5C 915.667,394.166 915.5,338.832 915,283.5C 913.644,282.62 912.144,282.286 910.5,282.5 Z"/></g>
<g><path style="opacity:1" fill="#f5f3ee" d="M 401.5,342.5 C 411.541,342.244 421.541,342.744 431.5,344C 432.833,345.333 432.833,346.667 431.5,348C 412.501,353.221 393.167,354.887 373.5,353C 370.833,351.333 370.833,349.667 373.5,348C 382.824,345.394 392.157,343.561 401.5,342.5 Z"/></g>
<g><path style="opacity:1" fill="#5a5a5a" d="M 667.5,343.5 C 667.735,342.903 668.235,342.57 669,342.5C 671.226,342.978 673.392,343.645 675.5,344.5C 672.565,345.898 669.898,345.565 667.5,343.5 Z"/></g>
<g><path style="opacity:1" fill="#5f5f5f" d="M 676.5,343.5 C 679.665,342.964 682.331,343.797 684.5,346C 682.674,346.292 680.841,346.125 679,345.5C 677.624,345.316 676.791,344.649 676.5,343.5 Z"/></g>
<g><path style="opacity:1" fill="#797979" d="M 705.5,339.5 C 709.826,341.345 714.16,343.345 718.5,345.5C 717.277,346.614 715.944,346.781 714.5,346C 711.036,343.953 707.37,342.287 703.5,341C 704.416,340.722 705.082,340.222 705.5,339.5 Z"/></g>
<g><path style="opacity:1" fill="#6c6c6c" d="M 722.5,345.5 C 723.097,344.861 723.93,344.528 725,344.5C 728.096,344.535 728.762,345.535 727,347.5C 725.415,346.956 723.915,346.289 722.5,345.5 Z"/></g>
<g><path style="opacity:1" fill="#5f605f" d="M 781.5,342.5 C 783.637,343.787 785.97,344.621 788.5,345C 784.932,347.423 782.598,346.589 781.5,342.5 Z"/></g>
<g><path style="opacity:1" fill="#656565" d="M 791.5,345.5 C 792.097,344.861 792.93,344.528 794,344.5C 797.096,344.535 797.762,345.535 796,347.5C 794.594,346.586 793.094,345.92 791.5,345.5 Z"/></g>
<g><path style="opacity:1" fill="#686868" d="M 652.5,347.5 C 655.022,347.128 657.022,347.961 658.5,350C 656.155,350.17 653.821,349.837 651.5,349C 652.056,348.617 652.389,348.117 652.5,347.5 Z"/></g>
<g><path style="opacity:1" fill="#747474" d="M 685.5,348.5 C 688.304,347.362 691.304,347.195 694.5,348C 697.167,348.333 699.833,348.667 702.5,349C 703.902,350.342 703.569,351.176 701.5,351.5C 696.863,350.78 692.197,350.28 687.5,350C 686.956,349.283 686.289,348.783 685.5,348.5 Z"/></g>
<g><path style="opacity:1" fill="#6c6c6c" d="M 729.5,348.5 C 732.019,347.206 734.352,347.706 736.5,350C 733.829,350.833 731.496,350.333 729.5,348.5 Z"/></g>
<g><path style="opacity:1" fill="#6f6f6f" d="M 799.5,347.5 C 801.854,347.838 804.187,348.338 806.5,349C 804.728,350.487 802.728,350.82 800.5,350C 799.748,349.329 799.414,348.496 799.5,347.5 Z"/></g>
<g><path style="opacity:1" fill="#898989" d="M 809.5,348.5 C 814.209,349.994 818.876,351.828 823.5,354C 817.907,354.197 813.24,352.364 809.5,348.5 Z"/></g>
<g><path style="opacity:1" fill="#6e6e6e" d="M 660.5,352.5 C 662.304,351.838 664.304,351.505 666.5,351.5C 669.037,351.397 671.371,351.897 673.5,353C 669.113,353.706 664.78,353.54 660.5,352.5 Z"/></g>
<g><path style="opacity:1" fill="#828282" d="M 704.5,353.5 C 709.316,352.35 714.316,352.184 719.5,353C 720.731,354.183 720.731,355.349 719.5,356.5C 714.599,354.964 709.599,353.964 704.5,353.5 Z"/></g>
<g><path style="opacity:1" fill="#6e6e6e" d="M 765.5,349.5 C 766.601,348.402 767.934,348.235 769.5,349C 772.833,350.667 776.167,352.333 779.5,354C 778.167,354.667 776.833,354.667 775.5,354C 772.264,352.214 768.93,350.714 765.5,349.5 Z"/></g>
<g><path style="opacity:1" fill="#6e6e6e" d="M 826.5,352.5 C 828.199,352.34 829.866,352.506 831.5,353C 833.007,353.837 833.507,355.004 833,356.5C 831.266,355.751 829.433,355.251 827.5,355C 826.748,354.329 826.414,353.496 826.5,352.5 Z"/></g>
<g><path style="opacity:1" fill="#757575" d="M 722.5,355.5 C 724.764,356.219 727.097,356.552 729.5,356.5C 729.5,357.5 729.5,358.5 729.5,359.5C 727.409,359.682 725.409,359.348 723.5,358.5C 722.614,357.675 722.281,356.675 722.5,355.5 Z"/></g>
<g><path style="opacity:1" fill="#6c6c6c" d="M 677.5,354.5 C 682.36,355.988 687.36,356.821 692.5,357C 695.028,357.998 695.028,358.831 692.5,359.5C 687.939,358.768 683.439,357.768 679,356.5C 677.97,356.164 677.47,355.497 677.5,354.5 Z"/></g>
<g><path style="opacity:1" fill="#6c6c6c" d="M 756.5,356.5 C 758.199,356.34 759.866,356.506 761.5,357C 764.388,358.813 767.388,360.479 770.5,362C 768.833,362.667 767.167,362.667 765.5,362C 762.448,360.065 759.115,358.732 755.5,358C 756.056,357.617 756.389,357.117 756.5,356.5 Z"/></g>
<g><path style="opacity:1" fill="#6f6f6f" d="M 783.5,353.5 C 783.735,352.903 784.235,352.57 785,352.5C 789.108,354.471 793.275,356.304 797.5,358C 795.833,358.667 794.167,358.667 792.5,358C 789.586,356.234 786.586,354.734 783.5,353.5 Z"/></g>
<g><path style="opacity:1" fill="#686868" d="M 834.5,357.5 C 837.253,356.341 839.919,356.841 842.5,359C 839.502,359.891 836.836,359.391 834.5,357.5 Z"/></g>
<g><path style="opacity:1" fill="#666666" d="M 643.5,355.5 C 647.635,355.902 651.301,357.402 654.5,360C 658.5,360.333 662.5,360.667 666.5,361C 667.167,361.667 667.833,362.333 668.5,363C 663.545,362.838 658.545,362.505 653.5,362C 649.866,360.034 646.533,357.868 643.5,355.5 Z"/></g>
<g><path style="opacity:1" fill="#5b5b5b" d="M 695.5,360.5 C 695.735,359.903 696.235,359.57 697,359.5C 699.678,360.836 702.511,361.67 705.5,362C 701.928,362.847 698.594,362.347 695.5,360.5 Z"/></g>
<g><path style="opacity:1" fill="#676767" d="M 801.5,356.5 C 806.001,359.393 811.001,361.226 816.5,362C 814.728,363.487 812.728,363.82 810.5,363C 807.446,360.806 804.112,359.139 800.5,358C 801.056,357.617 801.389,357.117 801.5,356.5 Z"/></g>
<g><path style="opacity:1" fill="#5c5c5c" d="M 817.5,361.5 C 820.665,360.964 823.331,361.797 825.5,364C 823.674,364.292 821.841,364.125 820,363.5C 818.624,363.316 817.791,362.649 817.5,361.5 Z"/></g>
<g><path style="opacity:1" fill="#858585" d="M 774.5,362.5 C 775.097,361.861 775.93,361.528 777,361.5C 784.454,362.875 791.621,365.042 798.5,368C 789.99,368.372 781.99,366.539 774.5,362.5 Z"/></g>
<g><path style="opacity:1" fill="#706f6f" d="M 635.5,363.5 C 638.599,363.092 640.933,364.259 642.5,367C 640.155,367.17 637.821,366.837 635.5,366C 634.402,365.23 634.402,364.397 635.5,363.5 Z"/></g>
<g><path style="opacity:1" fill="#6c6c6c" d="M 687.5,367.5 C 682.821,367.666 678.155,367.499 673.5,367C 671.096,366.492 670.429,365.325 671.5,363.5C 675.445,364.268 679.445,364.768 683.5,365C 685.066,365.608 686.4,366.442 687.5,367.5 Z"/></g>
<g><path style="opacity:1" fill="#646464" d="M 714.5,363.5 C 716.637,364.787 718.97,365.621 721.5,366C 717.932,368.423 715.598,367.589 714.5,363.5 Z"/></g>
<g><path style="opacity:1" fill="#8b8b8b" d="M 747.5,364.5 C 749.857,364.337 752.19,364.503 754.5,365C 755.337,366.011 755.67,367.178 755.5,368.5C 753.146,368.162 750.813,367.662 748.5,367C 747.748,366.329 747.414,365.496 747.5,364.5 Z"/></g>
<g><path style="opacity:1" fill="#606060" d="M 826.5,364.5 C 828.901,365.049 831.235,365.882 833.5,367C 830.306,368.081 827.973,367.247 826.5,364.5 Z"/></g>
<g><path style="opacity:1" fill="#666666" d="M 645.5,369.5 C 649.769,368.109 654.102,368.276 658.5,370C 654.08,370.768 649.747,370.602 645.5,369.5 Z"/></g>
<g><path style="opacity:1" fill="#6c6c6c" d="M 687.5,367.5 C 690.054,368.606 692.721,369.439 695.5,370C 691.894,372.298 689.227,371.465 687.5,367.5 Z"/></g>
<g><path style="opacity:1" fill="#6b6b6b" d="M 697.5,370.5 C 698.274,369.853 699.274,369.52 700.5,369.5C 702.319,369.342 703.652,370.009 704.5,371.5C 704,371.833 703.5,372.167 703,372.5C 701.2,371.68 699.366,371.014 697.5,370.5 Z"/></g>
<g><path style="opacity:1" fill="#5f5f5f" d="M 756.5,369.5 C 756.917,368.876 757.584,368.543 758.5,368.5C 762.804,369.21 767.137,369.71 771.5,370C 771.957,370.414 772.291,370.914 772.5,371.5C 769.008,370.726 765.341,370.726 761.5,371.5C 759.486,371.563 757.819,370.897 756.5,369.5 Z"/></g>
<g><path style="opacity:1" fill="#6d6d6d" d="M 802.5,370.5 C 806.741,369.182 811.074,369.348 815.5,371C 811.08,371.768 806.747,371.602 802.5,370.5 Z"/></g>
<g><path style="opacity:1" fill="#686868" d="M 774.5,372.5 C 779.468,373.164 784.468,373.664 789.5,374C 791.26,374.965 791.594,376.132 790.5,377.5C 785.684,375.845 780.684,375.012 775.5,375C 774.748,374.329 774.414,373.496 774.5,372.5 Z"/></g>
<g><path style="opacity:1" fill="#696969" d="M 661.5,372.5 C 661.56,371.957 661.893,371.624 662.5,371.5C 664.385,372.609 666.385,373.443 668.5,374C 667.892,374.87 667.059,375.37 666,375.5C 664.357,374.685 662.857,373.685 661.5,372.5 Z"/></g>
<g><path style="opacity:1" fill="#6d6d6d" d="M 671.5,374.5 C 672.274,373.853 673.274,373.52 674.5,373.5C 676.319,373.342 677.652,374.009 678.5,375.5C 678,375.833 677.5,376.167 677,376.5C 675.2,375.68 673.366,375.014 671.5,374.5 Z"/></g>
<g><path style="opacity:1" fill="#6d6d6d" d="M 706.5,372.5 C 708.801,373.06 711.134,373.56 713.5,374C 711.728,375.487 709.728,375.82 707.5,375C 706.748,374.329 706.414,373.496 706.5,372.5 Z"/></g>
<g><path style="opacity:1" fill="#6f6f6f" d="M 740.5,372.5 C 742.5,372.833 744.5,373.167 746.5,373.5C 746.719,374.675 746.386,375.675 745.5,376.5C 743.465,375.959 741.465,375.292 739.5,374.5C 739.863,373.817 740.196,373.15 740.5,372.5 Z"/></g>
<g><path style="opacity:1" fill="#5f5f5f" d="M 819.5,374.5 C 819.735,373.903 820.235,373.57 821,373.5C 822.811,374.078 824.645,374.578 826.5,375C 823.956,377.088 821.623,376.921 819.5,374.5 Z"/></g>
<g><path style="opacity:1" fill="#6d6d6d" d="M 679.5,375.5 C 681.921,376.891 684.588,377.725 687.5,378C 683.619,380.536 680.952,379.702 679.5,375.5 Z"/></g>
<g><path style="opacity:1" fill="#fcf9f9" d="M 1113.5,376.5 C 1116.61,377.091 1119.11,378.758 1121,381.5C 1125.14,393.576 1129.47,405.576 1134,417.5C 1135.85,440.665 1126.02,448.165 1104.5,440C 1103.72,443.147 1102.89,446.313 1102,449.5C 1097.88,453.89 1093.21,457.557 1088,460.5C 1085.78,469.97 1081.45,470.97 1075,463.5C 1069.5,455.342 1069.17,447.008 1074,438.5C 1079.15,434.257 1084.49,430.257 1090,426.5C 1093.86,418.351 1091.36,415.851 1082.5,419C 1077.03,420.64 1073.36,424.14 1071.5,429.5C 1069.42,430.762 1067.42,430.595 1065.5,429C 1058.84,419.546 1056.01,409.046 1057,397.5C 1060.07,395.365 1063.24,395.531 1066.5,398C 1068.17,398.667 1069.83,398.667 1071.5,398C 1083.5,394 1095.5,390 1107.5,386C 1109.41,382.735 1111.41,379.568 1113.5,376.5 Z"/></g>
<g><path style="opacity:1" fill="#626262" d="M 748.5,377.5 C 748.735,376.903 749.235,376.57 750,376.5C 754.127,377.239 758.294,377.739 762.5,378C 763.167,378.667 763.833,379.333 764.5,380C 758.93,380.21 753.596,379.377 748.5,377.5 Z"/></g>
<g><path style="opacity:1" fill="#828282" d="M 795.5,379.5 C 799.769,378.109 804.102,378.276 808.5,380C 804.08,380.768 799.747,380.602 795.5,379.5 Z"/></g>
<g><path style="opacity:1" fill="#706f70" d="M 689.5,378.5 C 690.601,377.402 691.934,377.235 693.5,378C 696.661,379.413 699.661,381.08 702.5,383C 701.167,383.667 699.833,383.667 698.5,383C 695.752,380.959 692.752,379.459 689.5,378.5 Z"/></g>
<g><path style="opacity:1" fill="#f0a633" d="M 231.5,380.5 C 241.667,380.499 246.501,385.499 246,395.5C 243.033,402.453 237.867,404.953 230.5,403C 220.937,395.094 221.27,387.594 231.5,380.5 Z"/></g>
<g><path style="opacity:1" fill="#717171" d="M 732.5,381.5 C 737.452,383.209 742.452,385.042 747.5,387C 745.5,387.667 743.5,387.667 741.5,387C 738.36,385.284 735.027,383.951 731.5,383C 732.056,382.617 732.389,382.117 732.5,381.5 Z"/></g>
<g><path style="opacity:1" fill="#6b6c6a" d="M 810.5,381.5 C 813.254,381.784 815.92,382.451 818.5,383.5C 818.113,384.72 817.28,385.387 816,385.5C 814.5,385 813,384.5 811.5,384C 810.748,383.329 810.414,382.496 810.5,381.5 Z"/></g>
<g><path style="opacity:1" fill="#6e6e6e" d="M 767.5,382.5 C 771.646,381.353 775.98,381.186 780.5,382C 781.672,382.419 782.672,383.085 783.5,384C 777.95,384.997 772.617,384.497 767.5,382.5 Z"/></g>
<g><path style="opacity:1" fill="#7a7a7a" d="M 751.5,385.5 C 754.061,385.447 756.061,386.447 757.5,388.5C 755.048,389.314 752.715,388.814 750.5,387C 751.056,386.617 751.389,386.117 751.5,385.5 Z"/></g>
<g><path style="opacity:1" fill="#585858" d="M 784.5,386.5 C 784.56,385.957 784.893,385.624 785.5,385.5C 787.854,386.06 790.187,386.727 792.5,387.5C 789.565,388.898 786.898,388.565 784.5,386.5 Z"/></g>
<g><path style="opacity:1" fill="#606060" d="M 793.5,386.5 C 796.665,385.964 799.331,386.797 801.5,389C 798.095,389.968 795.429,389.135 793.5,386.5 Z"/></g>
<g><path style="opacity:1" fill="#727272" d="M 724.5,389.5 C 727.226,389.264 729.559,390.097 731.5,392C 728.743,392.584 726.077,392.25 723.5,391C 724.056,390.617 724.389,390.117 724.5,389.5 Z"/></g>
<g><path style="opacity:1" fill="#626262" d="M 758.5,390.5 C 760.726,389.441 763.059,389.608 765.5,391C 763.037,392.97 760.703,392.804 758.5,390.5 Z"/></g>
<g><path style="opacity:1" fill="#6d6d6d" d="M 768.5,391.5 C 771.122,389.992 773.455,390.492 775.5,393C 772.935,393.609 770.601,393.109 768.5,391.5 Z"/></g>
<g><path style="opacity:1" fill="#717171" d="M 802.5,389.5 C 805.016,389.755 807.35,390.589 809.5,392C 806.19,394.015 803.857,393.181 802.5,389.5 Z"/></g>
<g><path style="opacity:1" fill="#606060" d="M 732.5,392.5 C 734.637,393.787 736.97,394.621 739.5,395C 735.932,397.423 733.598,396.589 732.5,392.5 Z"/></g>
<g><path style="opacity:1" fill="#6d6d6d" d="M 776.5,393.5 C 784.632,395.483 784.966,396.316 777.5,396C 776.748,395.329 776.414,394.496 776.5,393.5 Z"/></g>
<g><path style="opacity:1" fill="#6b6c6c" d="M 785.5,394.5 C 788.157,394.162 790.49,394.829 792.5,396.5C 790.579,397.641 788.579,397.808 786.5,397C 785.748,396.329 785.414,395.496 785.5,394.5 Z"/></g>
<g><path style="opacity:1" fill="#6e6c6d" d="M 741.5,394.5 C 746.85,395.166 751.85,396.999 756.5,400C 754.833,400.667 753.167,400.667 751.5,400C 748.134,397.816 744.467,396.483 740.5,396C 741.056,395.617 741.389,395.117 741.5,394.5 Z"/></g>
<g><path style="opacity:1" fill="#48b555" d="M 934.5,451.5 C 933.665,447.66 933.665,443.994 934.5,440.5C 946.875,445.027 957.541,452.194 966.5,462C 967.448,462.483 968.448,462.649 969.5,462.5C 967.98,446.19 966.647,429.856 965.5,413.5C 965.485,409.098 965.985,404.765 967,400.5C 967.68,398.487 969.013,397.154 971,396.5C 977.75,400.927 982.75,406.927 986,414.5C 990.253,429.185 992.42,444.185 992.5,459.5C 1002.29,455.899 1010.62,450.066 1017.5,442C 1018.78,441.316 1019.95,441.483 1021,442.5C 1021.05,446.157 1020.72,449.823 1020,453.5C 1016.86,463.096 1014.02,472.763 1011.5,482.5C 1014.27,482.579 1016.94,482.079 1019.5,481C 1023.83,477.501 1028.49,474.501 1033.5,472C 1035.26,471.202 1036.93,471.369 1038.5,472.5C 1034.9,480.125 1031.4,487.791 1028,495.5C 1025.05,500.118 1021.72,504.452 1018,508.5C 1017.33,510.5 1017.33,512.5 1018,514.5C 1031.98,525.766 1034.31,539.099 1025,554.5C 1021.26,559.06 1017.43,563.393 1013.5,567.5C 1022.24,581.296 1030.74,595.296 1039,609.5C 1042.1,616.22 1043.76,623.22 1044,630.5C 1042.61,631.554 1041.11,631.72 1039.5,631C 1034.33,627.915 1029.33,624.581 1024.5,621C 1014.27,612.1 1004.77,602.6 996,592.5C 994.395,593.101 993.062,594.101 992,595.5C 986.575,605.694 983.075,616.528 981.5,628C 979.888,628.72 978.388,628.554 977,627.5C 976.169,618.015 974.502,608.682 972,599.5C 971.261,595.938 969.761,592.772 967.5,590C 966.167,589.333 964.833,589.333 963.5,590C 955.914,597.582 949.081,605.748 943,614.5C 941.419,608.277 941.085,601.944 942,595.5C 945.854,577.419 950.02,559.419 954.5,541.5C 951.488,535.633 948.654,529.633 946,523.5C 942.784,509.788 947.284,499.621 959.5,493C 960.059,492.275 960.392,491.442 960.5,490.5C 955.557,483.716 950.391,477.049 945,470.5C 940.95,464.394 937.45,458.061 934.5,451.5 Z"/></g>
<g><path style="opacity:1" fill="#676868" d="M 794.5,399.5 C 796.666,398.371 798.666,398.871 800.5,401C 798.16,401.748 796.16,401.248 794.5,399.5 Z"/></g>
<g><path style="opacity:1" fill="#676566" d="M 760.5,400.5 C 762.288,399.378 764.288,399.211 766.5,400C 769.126,402.146 772.126,403.479 775.5,404C 774.737,404.944 773.737,405.444 772.5,405.5C 768.743,403.289 764.743,401.623 760.5,400.5 Z"/></g>
<g><path style="opacity:1" fill="#6e6e6e" d="M 777.5,403.5 C 779.527,403.338 781.527,403.505 783.5,404C 784.993,405.156 784.826,405.99 783,406.5C 780.552,406.301 778.719,405.301 777.5,403.5 Z"/></g>
<g><path style="opacity:1" fill="#6a6a6a" d="M 785.5,407.5 C 788.253,406.341 790.919,406.841 793.5,409C 790.502,409.891 787.836,409.391 785.5,407.5 Z"/></g>
<g><path style="opacity:1" fill="#ee5455" d="M 1111.5,408.5 C 1119.14,406.941 1121.64,409.608 1119,416.5C 1114.24,420.319 1109.08,421.152 1103.5,419C 1101.81,417.087 1101.31,414.92 1102,412.5C 1105.22,411.083 1108.39,409.749 1111.5,408.5 Z"/></g>
<g><path style="opacity:1" fill="#fbf8f8" d="M 78.5,409.5 C 82.758,415.572 88.4247,420.072 95.5,423C 103.206,425.01 110.873,427.177 118.5,429.5C 120.808,428.099 123.308,427.099 126,426.5C 127.107,426.585 128.107,426.919 129,427.5C 130.254,439.069 127.088,449.236 119.5,458C 118.5,458.667 117.5,458.667 116.5,458C 115.23,454.797 113.23,452.13 110.5,450C 99.9942,445.998 89.3275,442.498 78.5,439.5C 75.5993,439.953 72.9326,440.953 70.5,442.5C 68.9707,442.471 67.804,441.804 67,440.5C 65.8076,428.238 69.641,417.905 78.5,409.5 Z"/></g>
<g><path style="opacity:1" fill="#f9f8f9" d="M 63.5,444.5 C 68.3038,443.712 71.1371,445.712 72,450.5C 72.9025,451.701 74.0692,452.535 75.5,453C 87.8677,455.842 100.201,458.842 112.5,462C 114.746,463.039 116.913,464.206 119,465.5C 119.667,467.167 119.667,468.833 119,470.5C 107.333,478.833 95.6667,487.167 84,495.5C 83.2195,496.944 83.3861,498.277 84.5,499.5C 91.926,503.765 99.0926,503.432 106,498.5C 107.261,498.759 108.261,499.426 109,500.5C 111.245,508.695 109.745,516.195 104.5,523C 102.833,523.667 101.167,523.667 99.5,523C 97.8745,520.372 95.8745,518.039 93.5,516C 82.1522,511.942 70.4856,509.942 58.5,510C 56.3228,511.515 54.1561,513.015 52,514.5C 50.7387,514.241 49.7387,513.574 49,512.5C 47.3436,504.521 48.6769,497.188 53,490.5C 61.9727,484.361 70.806,478.027 79.5,471.5C 80.4519,469.955 80.7852,468.288 80.5,466.5C 77.5123,465.839 74.5123,465.172 71.5,464.5C 68.3978,465.55 65.3978,466.883 62.5,468.5C 60.9707,468.471 59.804,467.804 59,466.5C 57.4393,458.468 58.9393,451.135 63.5,444.5 Z"/></g>
<g><path style="opacity:1" fill="#f8faf9" d="M 678.5,502.5 C 673.167,502.5 667.833,502.5 662.5,502.5C 620.761,502.173 579.094,502.506 537.5,503.5C 453.001,502.667 368.334,502.167 283.5,502C 282.874,501.25 282.374,500.416 282,499.5C 281.333,486.5 281.333,473.5 282,460.5C 282.5,460 283,459.5 283.5,459C 494.5,458.5 705.5,458.333 916.5,458.5C 917.14,473.244 916.473,487.744 914.5,502C 835.834,502.5 757.167,502.667 678.5,502.5 Z"/></g>
<g><path style="opacity:1" fill="#48b555" d="M 171.5,460.5 C 172.496,460.414 173.329,460.748 174,461.5C 176.884,468.66 180.05,475.66 183.5,482.5C 194.029,472.292 205.696,470.792 218.5,478C 221.731,480.727 224.397,483.894 226.5,487.5C 228.197,486.636 229.363,485.303 230,483.5C 231.704,478.597 233.537,473.763 235.5,469C 238.804,467.958 240.971,469.125 242,472.5C 242.826,497.021 235.826,519.021 221,538.5C 211.502,546.656 203.502,555.989 197,566.5C 194.854,577.918 197.187,579.584 204,571.5C 210.869,557.95 220.036,546.117 231.5,536C 232.448,535.517 233.448,535.351 234.5,535.5C 234.176,539.555 234.509,543.555 235.5,547.5C 240.325,543.583 245.658,541.083 251.5,540C 252.059,540.725 252.392,541.558 252.5,542.5C 247.182,555.134 243.016,568.134 240,581.5C 240.174,594.829 240.174,608.162 240,621.5C 239.066,625.637 237.732,629.637 236,633.5C 232.993,637.999 229.826,642.332 226.5,646.5C 231.096,654.939 235.929,663.273 241,671.5C 245.929,682.452 249.762,693.786 252.5,705.5C 251.904,708.246 250.237,709.08 247.5,708C 240.998,704.25 234.665,700.25 228.5,696C 226.655,694.872 224.655,694.372 222.5,694.5C 226.941,710.269 230.441,726.269 233,742.5C 257.993,745.489 267.326,759.155 261,783.5C 257.464,787.415 254.297,791.581 251.5,796C 263.718,808.592 272.218,823.425 277,840.5C 277.758,842.769 277.591,844.936 276.5,847C 273.437,846.957 270.437,846.623 267.5,846C 283.878,866.008 289.711,888.841 285,914.5C 284.081,917.644 282.248,918.644 279.5,917.5C 272.105,903.379 265.272,889.045 259,874.5C 257.411,868.557 256.078,862.557 255,856.5C 253.667,855.167 252.333,855.167 251,856.5C 248.333,863.833 245.667,871.167 243,878.5C 241.612,879.554 240.112,879.72 238.5,879C 233.293,862.651 228.46,846.151 224,829.5C 218.759,826.808 213.259,824.642 207.5,823C 196.964,816.759 192.797,807.593 195,795.5C 197.072,789.686 199.905,784.352 203.5,779.5C 199.268,774.719 195.768,769.386 193,763.5C 189.56,750.124 186.06,736.791 182.5,723.5C 180.926,722.369 179.259,722.202 177.5,723C 173.145,726.013 168.478,728.18 163.5,729.5C 163.34,727.801 163.506,726.134 164,724.5C 169.163,712.674 173.33,700.507 176.5,688C 176.333,686.833 176.167,685.667 176,684.5C 169.597,680.789 163.93,676.122 159,670.5C 152.685,658.583 153.019,646.917 160,635.5C 163.233,632.267 166.4,629.1 169.5,626C 165.549,620.604 161.716,615.104 158,609.5C 150.862,596.361 148.529,582.361 151,567.5C 152.32,562.412 153.153,557.246 153.5,552C 151.622,544.857 149.622,537.69 147.5,530.5C 148.096,527.754 149.763,526.92 152.5,528C 157.883,532.192 163.883,535.025 170.5,536.5C 169.964,531.69 168.797,527.023 167,522.5C 165.27,505.184 165.27,487.85 167,470.5C 167.836,466.809 169.336,463.476 171.5,460.5 Z"/></g>
<g><path style="opacity:1" fill="#3755a1" d="M 372.5,464.5 C 377.179,464.334 381.845,464.501 386.5,465C 396.158,468.004 399.991,474.504 398,484.5C 395.635,490.202 391.469,493.702 385.5,495C 366.283,497.037 359.45,488.87 365,470.5C 367.478,468.361 369.978,466.361 372.5,464.5 Z"/></g>
<g><path style="opacity:1" fill="#3754a0" d="M 449.5,464.5 C 456.549,463.718 463.216,464.885 469.5,468C 476.638,476.955 475.971,485.288 467.5,493C 456.967,497.643 447.8,495.809 440,487.5C 436.077,476.699 439.244,469.032 449.5,464.5 Z"/></g>
<g><path style="opacity:1" fill="#3a56a3" d="M 336.5,464.5 C 343.841,464.334 351.174,464.5 358.5,465C 360.658,466.312 360.991,467.978 359.5,470C 356.666,470.045 354.166,470.879 352,472.5C 351.815,479.747 351.315,486.913 350.5,494C 348.231,494.758 346.064,494.591 344,493.5C 343.667,486.5 343.333,479.5 343,472.5C 340.101,472.023 337.434,471.023 335,469.5C 334.387,467.505 334.887,465.838 336.5,464.5 Z"/></g>
<g><path style="opacity:1" fill="#3755a1" d="M 406.5,464.5 C 414.206,463.665 421.539,464.831 428.5,468C 436.423,475.968 436.423,483.968 428.5,492C 426.913,492.862 425.246,493.529 423.5,494C 416.918,494.81 410.418,494.643 404,493.5C 403.333,484.833 403.333,476.167 404,467.5C 405.045,466.627 405.878,465.627 406.5,464.5 Z"/></g>
<g><path style="opacity:1" fill="#39559c" d="M 571.5,465.5 C 582.283,463.144 590.116,466.81 595,476.5C 596.679,486.315 592.846,492.815 583.5,496C 565.665,498.501 558.499,491.001 562,473.5C 564.325,469.765 567.491,467.099 571.5,465.5 Z"/></g>
<g><path style="opacity:1" fill="#38549f" d="M 642.5,465.5 C 644.792,465.244 646.959,465.577 649,466.5C 649.667,475.167 649.667,483.833 649,492.5C 646.975,494.725 644.642,495.059 642,493.5C 641.195,484.089 641.362,474.756 642.5,465.5 Z"/></g>
<g><path style="opacity:1" fill="#37559d" d="M 656.5,465.5 C 658.792,465.244 660.959,465.577 663,466.5C 663.333,473.167 663.667,479.833 664,486.5C 664.5,487 665,487.5 665.5,488C 668.833,488.333 672.167,488.667 675.5,489C 676.833,490.667 676.833,492.333 675.5,494C 668.918,494.81 662.418,494.643 656,493.5C 655.195,484.089 655.362,474.756 656.5,465.5 Z"/></g>
<g><path style="opacity:1" fill="#3b56a2" d="M 680.5,465.5 C 682.792,465.244 684.959,465.577 687,466.5C 687.333,472.5 687.667,478.5 688,484.5C 689.529,487.516 692.029,488.849 695.5,488.5C 698.325,488.881 700.491,487.881 702,485.5C 702.333,479.5 702.667,473.5 703,467.5C 705.418,465.32 708.084,464.987 711,466.5C 713.615,477.202 711.115,486.368 703.5,494C 695.644,496.759 688.477,495.592 682,490.5C 681.333,489.167 680.667,487.833 680,486.5C 679.205,479.42 679.372,472.42 680.5,465.5 Z"/></g>
<g><path style="opacity:1" fill="#3753a1" d="M 722.5,465.5 C 725.685,465.02 728.519,465.686 731,467.5C 733,472.167 735,476.833 737,481.5C 739.088,475.879 741.922,470.713 745.5,466C 751.088,464.585 754.255,466.751 755,472.5C 756.532,479.477 757.532,486.477 758,493.5C 755.408,494.982 753.075,494.648 751,492.5C 749.971,488.135 748.804,483.801 747.5,479.5C 744.874,483.505 742.707,487.838 741,492.5C 739.192,494.396 737.025,494.896 734.5,494C 731.615,489.063 729.115,483.896 727,478.5C 725.542,483.452 724.209,488.452 723,493.5C 718.944,495.499 716.444,494.332 715.5,490C 717.255,483.226 718.755,476.392 720,469.5C 720.662,468.016 721.496,466.683 722.5,465.5 Z"/></g>
<g><path style="opacity:1" fill="#3c59a6" d="M 764.5,465.5 C 766.792,465.244 768.959,465.577 771,466.5C 771.667,475.167 771.667,483.833 771,492.5C 768.925,494.648 766.592,494.982 764,493.5C 763.195,484.089 763.362,474.756 764.5,465.5 Z"/></g>
<g><path style="opacity:1" fill="#3554a0" d="M 778.5,465.5 C 780.527,465.338 782.527,465.505 784.5,466C 789.534,470.699 794.2,475.699 798.5,481C 799.448,481.483 800.448,481.649 801.5,481.5C 801.334,476.489 801.501,471.489 802,466.5C 804.333,465.167 806.667,465.167 809,466.5C 809.667,475.167 809.667,483.833 809,492.5C 807.192,494.396 805.025,494.896 802.5,494C 797.685,488.35 792.685,482.85 787.5,477.5C 786.914,477.709 786.414,478.043 786,478.5C 785.667,483.167 785.333,487.833 785,492.5C 783.192,494.396 781.025,494.896 778.5,494C 777.179,484.5 777.179,475 778.5,465.5 Z"/></g>
<g><path style="opacity:1" fill="#3956a0" d="M 826.5,464.5 C 829.97,463.875 832.804,464.875 835,467.5C 838.061,474.621 841.394,481.621 845,488.5C 846.5,493.667 844.667,495.5 839.5,494C 832.876,486.678 826.209,486.678 819.5,494C 814.333,495.5 812.5,493.667 814,488.5C 817.399,480.032 821.566,472.032 826.5,464.5 Z"/></g>
<g><path style="opacity:1" fill="#3553a3" d="M 850.5,465.5 C 852.527,465.338 854.527,465.505 856.5,466C 861.315,471.65 866.315,477.15 871.5,482.5C 872.086,482.291 872.586,481.957 873,481.5C 873.333,476.5 873.667,471.5 874,466.5C 876.064,465.409 878.231,465.242 880.5,466C 881.65,475.089 881.817,484.255 881,493.5C 878.455,494.797 875.955,494.631 873.5,493C 868.3,488.135 863.467,482.968 859,477.5C 857.776,482.386 857.109,487.386 857,492.5C 855.116,494.576 852.949,494.91 850.5,493.5C 849.169,484.137 849.169,474.804 850.5,465.5 Z"/></g>
<g><path style="opacity:1" fill="#3d589f" d="M 539.5,465.5 C 541.722,465.178 543.556,465.845 545,467.5C 545.333,474.5 545.667,481.5 546,488.5C 549.411,489.293 552.911,489.793 556.5,490C 559.167,492 559.167,494 556.5,496C 550.584,496.807 544.75,496.641 539,495.5C 537.416,486.242 537.083,476.909 538,467.5C 538.717,466.956 539.217,466.289 539.5,465.5 Z"/></g>
<g><path style="opacity:1" fill="#f3f6f7" d="M 376.5,470.5 C 387.299,470.134 391.132,475.134 388,485.5C 381.863,491.255 376.53,490.588 372,483.5C 370.381,477.968 371.881,473.634 376.5,470.5 Z"/></g>
<g><path style="opacity:1" fill="#f2f4f7" d="M 452.5,470.5 C 463.546,469.918 467.38,474.918 464,485.5C 459,490.833 454,490.833 449,485.5C 446.168,479.42 447.335,474.42 452.5,470.5 Z"/></g>
<g><path style="opacity:1" fill="#eff3f7" d="M 412.5,471.5 C 422.157,469.992 426.323,473.992 425,483.5C 421.801,488.949 417.468,490.282 412,487.5C 411.219,482.083 411.385,476.75 412.5,471.5 Z"/></g>
<g><path style="opacity:1" fill="#f2f6f5" d="M 574.5,471.5 C 584.025,471.523 587.858,476.189 586,485.5C 583.252,489.619 579.419,491.119 574.5,490C 572.333,489.167 570.833,487.667 570,485.5C 568.309,479.61 569.809,474.944 574.5,471.5 Z"/></g>
<g><path style="opacity:1" fill="#d2e3ed" d="M 828.5,474.5 C 832.049,475.957 833.216,478.623 832,482.5C 830.301,483.406 828.467,483.739 826.5,483.5C 826.21,480.215 826.877,477.215 828.5,474.5 Z"/></g>
<g><path style="opacity:1" fill="#4e6199" d="M 508.5,476.5 C 513.894,475.554 515.561,477.554 513.5,482.5C 508.309,483.636 506.642,481.636 508.5,476.5 Z"/></g>
<g><path style="opacity:1" fill="#49609a" d="M 614.5,476.5 C 620.016,476.473 621.349,478.64 618.5,483C 613.57,483.427 612.237,481.26 614.5,476.5 Z"/></g>
<g><path style="opacity:1" fill="#f1a732" d="M 198.5,481.5 C 208.25,480.291 215.417,483.958 220,492.5C 219.491,505.676 212.658,511.842 199.5,511C 188.611,504.682 186.611,496.182 193.5,485.5C 195.21,484.113 196.877,482.779 198.5,481.5 Z"/></g>
<g><path style="opacity:1" fill="#fcf8f9" d="M 1083.5,481.5 C 1088.21,481.672 1091.88,483.839 1094.5,488C 1112.25,495.025 1130.58,498.358 1149.5,498C 1159.21,504.78 1160.04,512.613 1152,521.5C 1138.35,533.488 1123.85,544.322 1108.5,554C 1106.11,555.952 1104.61,558.452 1104,561.5C 1099.87,564.543 1096.87,563.543 1095,558.5C 1091.78,548.394 1090.11,538.061 1090,527.5C 1090.87,524.606 1092.7,523.439 1095.5,524C 1097.05,525.892 1098.89,527.392 1101,528.5C 1102.26,528.241 1103.26,527.574 1104,526.5C 1104.95,518.899 1103.95,511.566 1101,504.5C 1096.69,502.398 1094.19,503.731 1093.5,508.5C 1091.31,509.769 1089.14,509.769 1087,508.5C 1082.64,499.882 1081.47,490.882 1083.5,481.5 Z"/></g>
<g><path style="opacity:1" fill="#f8a632" d="M 662.5,502.5 C 662.414,503.496 662.748,504.329 663.5,505C 688.209,513.384 708.043,528.217 723,549.5C 733.905,570.277 734.238,591.277 724,612.5C 716.669,624.997 706.836,634.997 694.5,642.5C 688.394,637.604 681.728,633.438 674.5,630C 662.876,625.427 650.876,622.427 638.5,621C 631.721,617.226 624.721,613.892 617.5,611C 597.848,605.101 579.848,608.101 563.5,620C 545.718,621.944 529.051,627.277 513.5,636C 510.335,638.335 507.335,640.835 504.5,643.5C 481.22,628.786 468.553,607.62 466.5,580C 467.634,565.235 472.801,552.068 482,540.5C 489.819,531.504 498.652,523.837 508.5,517.5C 517.845,511.993 527.512,507.326 537.5,503.5C 579.094,502.506 620.761,502.173 662.5,502.5 Z"/></g>
<g><path style="opacity:1" fill="#444192" d="M 662.5,502.5 C 667.833,502.5 673.167,502.5 678.5,502.5C 683.985,503.327 689.652,503.827 695.5,504C 691.167,504.333 686.833,504.667 682.5,505C 686.11,506.944 689.443,509.277 692.5,512C 696.219,514.364 700.219,515.864 704.5,516.5C 704.007,518.806 703.674,521.139 703.5,523.5C 706.16,522.653 708.826,522.153 711.5,522C 715.973,529.139 721.806,534.973 729,539.5C 729.528,542.219 729.028,544.719 727.5,547C 727.833,547.833 728.167,548.667 728.5,549.5C 730.122,547.561 731.956,547.228 734,548.5C 734.446,554.834 736.279,560.667 739.5,566C 742.447,566.112 743.78,567.612 743.5,570.5C 742.209,570.263 741.209,570.596 740.5,571.5C 740.881,580.591 740.215,589.591 738.5,598.5C 738.667,599.833 738.833,601.167 739,602.5C 740.045,603.373 740.878,604.373 741.5,605.5C 738.067,606.399 735.234,608.399 733,611.5C 729.015,616.634 726.182,622.301 724.5,628.5C 723.448,628.351 722.448,628.517 721.5,629C 714.841,636.837 707.174,643.337 698.5,648.5C 695.657,647.079 694.324,645.079 694.5,642.5C 706.836,634.997 716.669,624.997 724,612.5C 734.238,591.277 733.905,570.277 723,549.5C 708.043,528.217 688.209,513.384 663.5,505C 662.748,504.329 662.414,503.496 662.5,502.5 Z"/></g>
<g><path style="opacity:1" fill="#efa730" d="M 965.5,501.5 C 978.962,500.795 985.129,507.128 984,520.5C 982.412,524.255 979.912,527.255 976.5,529.5C 971.885,520.942 964.719,516.942 955,517.5C 955.234,510.035 958.734,504.702 965.5,501.5 Z"/></g>
<g><path style="opacity:1" fill="#e95757" d="M 1115.5,506.5 C 1130.32,505.963 1131.99,510.13 1120.5,519C 1119.5,519.667 1118.5,519.667 1117.5,519C 1115.78,515.043 1115.11,510.876 1115.5,506.5 Z"/></g>
<g><path style="opacity:1" fill="#e2af2d" d="M 496.5,512.5 C 497.412,513.738 497.579,515.072 497,516.5C 488.037,523.129 480.037,530.795 473,539.5C 466.75,549.333 461.583,559.667 457.5,570.5C 452.512,572.328 448.178,575.161 444.5,579C 442.635,580.301 440.635,580.635 438.5,580C 421.882,568.208 404.882,557.041 387.5,546.5C 369.879,557.616 352.379,568.949 335,580.5C 317.512,569.422 300.179,558.088 283,546.5C 281.546,535.603 281.046,524.603 281.5,513.5C 283.655,513.372 285.655,513.872 287.5,515C 301.5,524.667 315.5,534.333 329.5,544C 332.366,545.457 335.366,545.79 338.5,545C 353.5,534.667 368.5,524.333 383.5,514C 385.695,512.627 388.029,512.294 390.5,513C 406.689,524.924 423.356,536.091 440.5,546.5C 458.152,536.004 475.152,524.504 491.5,512C 493.265,511.36 494.932,511.527 496.5,512.5 Z"/></g>
<g><path style="opacity:1" fill="#434294" d="M 508.5,517.5 C 498.652,523.837 489.819,531.504 482,540.5C 472.801,552.068 467.634,565.235 466.5,580C 468.553,607.62 481.22,628.786 504.5,643.5C 503.777,651.336 499.443,654.336 491.5,652.5C 491.414,651.504 491.748,650.671 492.5,650C 494.833,649.667 497.167,649.333 499.5,649C 491.333,642.331 483.333,635.498 475.5,628.5C 470.427,620.901 465.927,612.901 462,604.5C 460.586,603.587 459.086,603.587 457.5,604.5C 458.469,601.754 459.136,598.921 459.5,596C 456.576,587.666 455.909,579.166 457.5,570.5C 461.583,559.667 466.75,549.333 473,539.5C 480.037,530.795 488.037,523.129 497,516.5C 497.579,515.072 497.412,513.738 496.5,512.5C 496.56,511.957 496.893,511.624 497.5,511.5C 500.833,514.167 504.167,514.167 507.5,511.5C 508.466,513.396 508.799,515.396 508.5,517.5 Z"/></g>
<g><path style="opacity:1" fill="#dead31" d="M 708.5,512.5 C 741.998,511.336 775.664,511.169 809.5,512C 793.095,524.194 776.095,535.36 758.5,545.5C 756.701,545.423 755.034,544.923 753.5,544C 738.344,533.669 723.344,523.169 708.5,512.5 Z"/></g>
<g><path style="opacity:1" fill="#dfad31" d="M 814.5,512.5 C 847.998,511.336 881.664,511.169 915.5,512C 898.595,523.907 881.429,535.407 864,546.5C 847.227,535.533 830.727,524.2 814.5,512.5 Z"/></g>
<g><path style="opacity:1" fill="#faf7f7" d="M 50.5,518.5 C 53.3733,520.983 56.3733,523.483 59.5,526C 69.9353,526.573 80.2686,527.906 90.5,530C 98.8578,532.36 103.691,537.86 105,546.5C 107.972,560.906 104.472,573.406 94.5,584C 90.0692,586.81 85.2359,587.976 80,587.5C 70.84,586.5 61.6734,586 52.5,586C 50.3586,587.308 48.3586,588.808 46.5,590.5C 45.1861,589.687 44.0195,588.687 43,587.5C 40.1981,576.829 41.3648,566.663 46.5,557C 47.8333,556.333 49.1667,556.333 50.5,557C 52.2272,560.393 54.8938,562.726 58.5,564C 68.2028,565.819 77.8695,565.819 87.5,564C 92.1515,559.464 93.6515,553.964 92,547.5C 90.4371,544.272 87.9371,542.105 84.5,541C 74.8622,539.686 65.1956,539.352 55.5,540C 53.5985,542.613 51.2652,544.28 48.5,545C 47.2986,544.097 46.4652,542.931 46,541.5C 45.3333,536.5 45.3333,531.5 46,526.5C 46.7384,523.352 48.2384,520.685 50.5,518.5 Z"/></g>
<g><path style="opacity:1" fill="#f4a62f" d="M 1002.5,518.5 C 1018.37,518.203 1025.21,525.869 1023,541.5C 1021.88,546.793 1018.71,549.793 1013.5,550.5C 1014.66,539.495 1010,535.661 999.5,539C 997.513,541.14 996.18,543.64 995.5,546.5C 989.919,543.04 988.086,538.04 990,531.5C 992.353,525.315 996.52,520.982 1002.5,518.5 Z"/></g>
<g><path style="opacity:1" fill="#ef4c48" d="M 591.5,529.5 C 597.545,531.862 603.545,534.195 609.5,536.5C 609.5,534.5 609.5,532.5 609.5,530.5C 611.655,530.372 613.655,530.872 615.5,532C 619.132,534.63 622.465,537.63 625.5,541C 630.779,543.751 633.779,542.084 634.5,536C 636.289,535.48 637.956,535.813 639.5,537C 654.497,550.646 656.331,565.812 645,582.5C 634.945,591.608 623.111,597.108 609.5,599C 585.79,602.289 565.957,595.123 550,577.5C 544.049,565.861 545.715,555.528 555,546.5C 555.833,544.5 556.667,542.5 557.5,540.5C 559.65,542.149 561.65,543.982 563.5,546C 567.18,546.682 569.68,545.182 571,541.5C 571.175,537.789 571.675,534.122 572.5,530.5C 575.853,532.177 578.853,534.343 581.5,537C 589.183,540.492 592.517,537.992 591.5,529.5 Z"/></g>
<g><path style="opacity:1" fill="#995174" d="M 127.5,533.5 C 127.665,536.85 127.498,540.183 127,543.5C 126.768,544.737 126.268,545.737 125.5,546.5C 125.335,542.818 125.501,539.152 126,535.5C 126.278,534.584 126.778,533.918 127.5,533.5 Z"/></g>
<g><path style="opacity:1" fill="#8d4c74" d="M 1070.5,531.5 C 1073.16,535.274 1074.16,539.607 1073.5,544.5C 1072.25,544.423 1071.42,543.756 1071,542.5C 1070.5,538.848 1070.33,535.182 1070.5,531.5 Z"/></g>
<g><path style="opacity:1" fill="#e3b02c" d="M 741.5,605.5 C 740.878,604.373 740.045,603.373 739,602.5C 738.833,601.167 738.667,599.833 738.5,598.5C 740.215,589.591 740.881,580.591 740.5,571.5C 741.873,571.343 743.207,571.51 744.5,572C 747.557,574.723 750.89,577.056 754.5,579C 756.5,579.667 758.5,579.667 760.5,579C 776.681,569.412 792.347,559.079 807.5,548C 810.634,547.21 813.634,547.543 816.5,549C 831.167,559 845.833,569 860.5,579C 863.634,579.79 866.634,579.457 869.5,578C 884.405,567.426 899.571,557.26 915,547.5C 915.772,547.645 916.439,547.978 917,548.5C 917.667,559.167 917.667,569.833 917,580.5C 900.759,592.038 884.259,603.205 867.5,614C 865.167,614.667 862.833,614.667 860.5,614C 844.26,602.758 827.76,591.925 811,581.5C 793.926,592.288 777.092,603.455 760.5,615C 759.167,615.667 757.833,615.667 756.5,615C 751.472,611.823 746.472,608.656 741.5,605.5 Z"/></g>
<g><path style="opacity:1" fill="#ddf5df" d="M 980.5,553.5 C 982.614,554.36 983.78,556.027 984,558.5C 984.789,564.237 984.456,569.903 983,575.5C 978.249,568.577 977.416,561.244 980.5,553.5 Z"/></g>
<g><path style="opacity:1" fill="#8b4f6f" d="M 1073.5,553.5 C 1074.22,553.918 1074.72,554.584 1075,555.5C 1075.5,560.823 1075.67,566.156 1075.5,571.5C 1074.88,571.389 1074.38,571.056 1074,570.5C 1073.5,564.843 1073.33,559.176 1073.5,553.5 Z"/></g>
<g><path style="opacity:1" fill="#f8e2db" d="M 576.5,564.5 C 578.144,564.286 579.644,564.62 581,565.5C 581.667,570.167 581.667,574.833 581,579.5C 579.286,580.925 577.953,580.592 577,578.5C 576.501,573.845 576.334,569.179 576.5,564.5 Z"/></g>
<g><path style="opacity:1" fill="#f8e6e2" d="M 623.5,571.5 C 625.167,571.5 626.833,571.5 628.5,571.5C 627.413,577.584 623.746,580.918 617.5,581.5C 617.469,576.887 619.469,573.553 623.5,571.5 Z"/></g>
<g><path style="opacity:1" fill="#e2af2d" d="M 457.5,604.5 C 459.086,603.587 460.586,603.587 462,604.5C 465.927,612.901 470.427,620.901 475.5,628.5C 465.554,634.481 455.887,640.981 446.5,648C 444.61,649.112 442.61,649.946 440.5,650.5C 423.06,639.366 405.56,628.366 388,617.5C 385.679,617.909 383.513,618.743 381.5,620C 366.135,630.679 350.469,640.846 334.5,650.5C 316.437,639.716 298.937,628.049 282,615.5C 281.168,604.485 281.334,593.485 282.5,582.5C 299.872,593.515 317.205,604.515 334.5,615.5C 351.547,605.293 368.214,594.46 384.5,583C 387.303,582.245 389.97,582.578 392.5,584C 407.833,594.667 423.167,605.333 438.5,616C 439.833,616.667 441.167,616.667 442.5,616C 447.685,612.303 452.685,608.47 457.5,604.5 Z"/></g>
<g><path style="opacity:1" fill="#dbf4d9" d="M 174.5,586.5 C 178.229,588.451 181.729,590.784 185,593.5C 185.758,595.769 185.591,597.936 184.5,600C 182.633,600.711 181.133,600.211 180,598.5C 177.881,594.598 176.048,590.598 174.5,586.5 Z"/></g>
<g><path style="opacity:1" fill="#f4a731" d="M 206.5,595.5 C 223.244,595.64 230.078,603.974 227,620.5C 224.186,627.49 219.019,630.823 211.5,630.5C 212.107,617.932 206.107,613.098 193.5,616C 193.109,606.303 197.442,599.469 206.5,595.5 Z"/></g>
<g><path style="opacity:1" fill="#faf8f7" d="M 58.5,603.5 C 60.9892,603.298 63.3225,603.798 65.5,605C 67.2551,607.93 68.4217,611.097 69,614.5C 72.733,618.307 77.233,620.807 82.5,622C 85.2856,625.16 84.9523,627.993 81.5,630.5C 72.5,632.167 67.1667,637.5 65.5,646.5C 62.0051,649.368 58.8384,649.035 56,645.5C 55.0581,642.007 53.7248,638.674 52,635.5C 49.2052,633.354 46.0386,632.187 42.5,632C 37.7023,628.693 37.3689,625.026 41.5,621C 45.6437,619.734 49.4771,617.901 53,615.5C 53.4986,610.839 55.332,606.839 58.5,603.5 Z"/></g>
<g><path style="opacity:1" fill="#faf8f9" d="M 1132.5,603.5 C 1137.45,603.267 1140.62,605.601 1142,610.5C 1142.33,612.167 1142.67,613.833 1143,615.5C 1146.37,618.269 1150.2,620.102 1154.5,621C 1158.63,625.026 1158.3,628.693 1153.5,632C 1149.49,632.519 1145.99,634.019 1143,636.5C 1142.75,639.754 1141.75,642.754 1140,645.5C 1138.14,648.207 1135.64,649.041 1132.5,648C 1129.79,644.758 1127.46,641.258 1125.5,637.5C 1122.68,634.587 1119.35,632.42 1115.5,631C 1111.5,627.667 1111.5,624.333 1115.5,621C 1120.15,620.258 1123.98,618.092 1127,614.5C 1128.18,610.426 1130.01,606.759 1132.5,603.5 Z"/></g>
<g><path style="opacity:1" fill="#98662f" d="M 694.5,642.5 C 694.324,645.079 695.657,647.079 698.5,648.5C 697.316,649.688 697.316,650.855 698.5,652C 701.343,651.743 704.01,651.91 706.5,652.5C 705.949,658.196 705.116,663.863 704,669.5C 703.107,670.081 702.107,670.415 701,670.5C 698.54,669.687 696.04,669.02 693.5,668.5C 691.088,668.406 689.255,669.406 688,671.5C 687.059,678.005 685.393,684.338 683,690.5C 680.667,693.833 678.333,697.167 676,700.5C 670.624,704.375 666.124,709.042 662.5,714.5C 657.253,714.787 653.253,717.12 650.5,721.5C 644.138,722.346 638.471,724.846 633.5,729C 633.639,730.301 634.305,731.134 635.5,731.5C 634.68,733.14 633.847,734.807 633,736.5C 628.001,777.15 623.335,817.817 619,858.5C 618,863.167 617,867.833 616,872.5C 611.675,923.64 605.842,974.307 598.5,1024.5C 590.988,950.68 582.321,877.013 572.5,803.5C 574.971,799.413 575.137,795.08 573,790.5C 571.812,791.563 571.312,792.897 571.5,794.5C 570.539,792.735 570.205,790.735 570.5,788.5C 571.652,783.015 571.818,777.349 571,771.5C 569.903,757.869 567.736,744.535 564.5,731.5C 564.489,729.983 563.823,728.816 562.5,728C 543.283,723.246 526.949,713.746 513.5,699.5C 508.254,690.929 505.087,681.595 504,671.5C 501.26,670.718 498.426,670.218 495.5,670C 494.874,669.25 494.374,668.416 494,667.5C 493.501,662.845 493.334,658.179 493.5,653.5C 492.5,653.5 491.5,653.5 490.5,653.5C 490.5,652.833 490.833,652.5 491.5,652.5C 499.443,654.336 503.777,651.336 504.5,643.5C 507.335,640.835 510.335,638.335 513.5,636C 529.051,627.277 545.718,621.944 563.5,620C 579.848,608.101 597.848,605.101 617.5,611C 624.721,613.892 631.721,617.226 638.5,621C 650.876,622.427 662.876,625.427 674.5,630C 681.728,633.438 688.394,637.604 694.5,642.5 Z"/></g>
<g><path style="opacity:1" fill="#48b555" d="M 958.5,611.5 C 960.903,611.393 962.736,612.393 964,614.5C 972.403,628.64 979.737,643.307 986,658.5C 986.853,662.469 987.519,666.469 988,670.5C 988.689,671.357 989.522,672.023 990.5,672.5C 994.676,669.912 998.676,667.079 1002.5,664C 1011.55,654.946 1020.55,645.946 1029.5,637C 1034.56,634.854 1037.23,636.687 1037.5,642.5C 1034.44,661.717 1025.61,677.717 1011,690.5C 1010.26,692.441 1010.42,694.274 1011.5,696C 1019.42,699.586 1024.92,705.42 1028,713.5C 1028.67,717.167 1028.67,720.833 1028,724.5C 1026,729.833 1024,735.167 1022,740.5C 1022.24,750.126 1020.74,759.46 1017.5,768.5C 1014.39,765.06 1010.73,762.393 1006.5,760.5C 1005.52,760.977 1004.69,761.643 1004,762.5C 999.664,780.674 993.831,798.341 986.5,815.5C 984.653,816.83 983.153,816.497 982,814.5C 980.333,800.829 978.667,787.163 977,773.5C 976.395,771.519 975.395,771.185 974,772.5C 967.999,784.509 965.332,797.176 966,810.5C 969.923,825.807 968.923,840.807 963,855.5C 957.541,871.925 949.375,886.758 938.5,900C 936.866,900.494 935.199,900.66 933.5,900.5C 934.905,888.523 936.238,876.523 937.5,864.5C 937.333,862.833 937.167,861.167 937,859.5C 934.021,861.644 931.188,863.978 928.5,866.5C 927.541,849.257 930.374,832.59 937,816.5C 939.592,812.486 942.758,808.986 946.5,806C 950.589,803.873 954.423,801.373 958,798.5C 960.542,781.432 959.708,764.599 955.5,748C 953.191,747.244 951.191,747.744 949.5,749.5C 948.134,743.922 947.468,738.255 947.5,732.5C 949.005,719.13 950.838,705.797 953,692.5C 956.022,686.011 959.189,679.678 962.5,673.5C 960.106,666.485 957.606,659.485 955,652.5C 952.226,641.232 951.893,629.898 954,618.5C 954.904,615.767 956.404,613.433 958.5,611.5 Z"/></g>
<g><path style="opacity:1" fill="#f5f3ed" d="M 588.5,617.5 C 599.714,616.777 610.714,617.943 621.5,621C 624.503,622.166 627.17,623.833 629.5,626C 609.499,625.352 589.499,625.352 569.5,626C 575.268,621.697 581.601,618.864 588.5,617.5 Z"/></g>
<g><path style="opacity:1" fill="#e3b02c" d="M 706.5,652.5 C 704.01,651.91 701.343,651.743 698.5,652C 697.316,650.855 697.316,649.688 698.5,648.5C 707.174,643.337 714.841,636.837 721.5,629C 722.448,628.517 723.448,628.351 724.5,628.5C 735.103,636.716 746.269,644.05 758,650.5C 760.321,650.091 762.487,649.257 764.5,648C 779.499,636.989 794.999,626.822 811,617.5C 813.321,617.909 815.487,618.743 817.5,620C 832.76,630.546 848.26,640.712 864,650.5C 881,639.5 898,628.5 915,617.5C 915.772,617.645 916.439,617.978 917,618.5C 917.667,628.5 917.667,638.5 917,648.5C 916.333,649.833 915.667,651.167 915,652.5C 898.499,664.346 881.499,675.346 864,685.5C 847.603,675.452 831.436,664.952 815.5,654C 814.127,653.125 812.627,652.625 811,652.5C 794.999,661.822 779.499,671.989 764.5,683C 761.783,685.076 758.783,685.743 755.5,685C 739.285,673.944 722.951,663.111 706.5,652.5 Z"/></g>
<g><path style="opacity:1" fill="#f9faf5" d="M 677.5,650.5 C 625.5,651.833 573.5,651.833 521.5,650.5C 535.244,642.14 550.244,637.306 566.5,636C 591.583,633.68 616.583,634.347 641.5,638C 654.365,639.899 666.365,644.065 677.5,650.5 Z"/></g>
<g><path style="opacity:1" fill="#f2a62f" d="M 187.5,634.5 C 202.675,635.166 208.509,642.832 205,657.5C 202.833,659.667 200.667,661.833 198.5,664C 197.5,664.667 196.5,664.667 195.5,664C 194.167,661.667 192.833,659.333 191.5,657C 187.025,656.123 182.692,654.789 178.5,653C 174.448,648.363 174.615,643.863 179,639.5C 181.682,637.415 184.516,635.748 187.5,634.5 Z"/></g>
<g><path style="opacity:1" fill="#d8f2d6" d="M 966.5,649.5 C 969.292,649.452 971.125,650.785 972,653.5C 973.079,656.063 973.579,658.729 973.5,661.5C 971.61,661.703 970.11,661.037 969,659.5C 967.241,656.392 966.408,653.059 966.5,649.5 Z"/></g>
<g><path style="opacity:1" fill="#b28d63" d="M 521.5,650.5 C 573.5,651.833 625.5,651.833 677.5,650.5C 678.043,650.56 678.376,650.893 678.5,651.5C 625.833,652.833 573.167,652.833 520.5,651.5C 520.624,650.893 520.957,650.56 521.5,650.5 Z"/></g>
<g><path style="opacity:1" fill="#e3b02c" d="M 490.5,653.5 C 491.5,653.5 492.5,653.5 493.5,653.5C 493.334,658.179 493.501,662.845 494,667.5C 494.374,668.416 494.874,669.25 495.5,670C 498.426,670.218 501.26,670.718 504,671.5C 505.087,681.595 508.254,690.929 513.5,699.5C 507.391,696.276 501.391,692.776 495.5,689C 493.833,688.333 492.167,688.333 490.5,689C 474.214,700.46 457.547,711.293 440.5,721.5C 424.368,711.263 408.368,700.763 392.5,690C 389.97,688.578 387.303,688.245 384.5,689C 368.26,700.242 351.76,711.075 335,721.5C 319.601,711.548 304.101,701.715 288.5,692C 287,690.5 285.5,689 284,687.5C 282.544,676.269 282.044,664.936 282.5,653.5C 297.507,662.315 312.174,671.815 326.5,682C 330.411,685.597 334.744,686.263 339.5,684C 355.368,673.237 371.368,662.737 387.5,652.5C 405.167,663.833 422.833,675.167 440.5,686.5C 457.725,676.262 474.392,665.262 490.5,653.5 Z"/></g>
<g><path style="opacity:1" fill="#fbfaf7" d="M 512.5,656.5 C 570.168,656.333 627.834,656.5 685.5,657C 687.673,658.865 688.007,661.031 686.5,663.5C 628.503,664.667 570.503,664.833 512.5,664C 511.221,661.502 511.221,659.002 512.5,656.5 Z"/></g>
<g><path style="opacity:1" fill="#934c73" d="M 1073.5,655.5 C 1073.66,658.518 1073.5,661.518 1073,664.5C 1072.29,665.381 1071.46,666.047 1070.5,666.5C 1070.34,663.482 1070.5,660.482 1071,657.5C 1071.42,656.244 1072.25,655.577 1073.5,655.5 Z"/></g>
<g><path style="opacity:1" fill="#f8f5f1" d="M 548.5,670.5 C 560.242,671.559 571.408,674.559 582,679.5C 583.203,683.963 581.536,686.63 577,687.5C 567.388,685.055 557.888,682.222 548.5,679C 545.899,676.17 545.899,673.337 548.5,670.5 Z"/></g>
<g><path style="opacity:1" fill="#f7f4f0" d="M 640.5,670.5 C 644.182,670.335 647.848,670.501 651.5,671C 652.833,673.333 652.833,675.667 651.5,678C 641.854,681.271 632.187,684.438 622.5,687.5C 615.881,685.567 614.881,682.067 619.5,677C 626.643,674.894 633.643,672.727 640.5,670.5 Z"/></g>
<g><path style="opacity:1" fill="#f4faf4" d="M 208.5,679.5 C 209.822,679.33 210.989,679.663 212,680.5C 212.296,691.334 210.962,702.001 208,712.5C 207.667,717.5 207.333,722.5 207,727.5C 206.261,728.574 205.261,729.241 204,729.5C 197.698,725.204 192.865,719.704 189.5,713C 193.273,706.638 197.439,700.472 202,694.5C 204.466,689.594 206.632,684.594 208.5,679.5 Z"/></g>
<g><path style="opacity:1" fill="#f3a830" d="M 972.5,684.5 C 983.105,683.605 989.105,688.438 990.5,699C 989.433,707.733 984.599,712.9 976,714.5C 964.956,712.144 960.289,705.477 962,694.5C 964.738,690.26 968.238,686.926 972.5,684.5 Z"/></g>
<g><path style="opacity:1" fill="#e2b02c" d="M 911.5,690.5 C 912.822,690.33 913.989,690.663 915,691.5C 915.5,704.829 915.667,718.163 915.5,731.5C 822.167,731.5 728.833,731.5 635.5,731.5C 634.305,731.134 633.639,730.301 633.5,729C 638.471,724.846 644.138,722.346 650.5,721.5C 655.984,721.677 659.984,719.344 662.5,714.5C 664.593,713.955 666.593,713.122 668.5,712C 680.472,703.439 692.639,695.272 705,687.5C 721.672,697.492 737.839,708.325 753.5,720C 756.5,722 759.5,722 762.5,720C 777.008,710.246 791.341,700.246 805.5,690C 809.167,688 812.833,688 816.5,690C 831.865,700.679 847.531,710.846 863.5,720.5C 865.942,719.964 868.275,719.131 870.5,718C 883.851,708.327 897.517,699.161 911.5,690.5 Z"/></g>
<g><path style="opacity:1" fill="#f3a731" d="M 1000.5,702.5 C 1017.42,703.899 1023.26,712.566 1018,728.5C 1005.78,740.352 995.778,738.685 988,723.5C 987.016,713.472 991.183,706.472 1000.5,702.5 Z"/></g>
<g><path style="opacity:1" fill="#f9faf8" d="M 567.5,705.5 C 588.503,705.333 609.503,705.5 630.5,706C 633.442,706.94 634.775,708.94 634.5,712C 633.3,717.807 629.633,721.14 623.5,722C 606.833,722.667 590.167,722.667 573.5,722C 566.84,719.713 564.007,715.213 565,708.5C 566.045,707.627 566.878,706.627 567.5,705.5 Z"/></g>
<g><path style="opacity:1" fill="#b09c6c" d="M 915.5,731.5 C 915.667,718.163 915.5,704.829 915,691.5C 913.989,690.663 912.822,690.33 911.5,690.5C 912.638,687.733 914.472,687.066 917,688.5C 917.167,695.667 917.333,702.833 917.5,710C 917.497,717.533 916.831,724.699 915.5,731.5 Z"/></g>
<g><path style="opacity:1" fill="#425492" d="M 662.5,714.5 C 659.984,719.344 655.984,721.677 650.5,721.5C 653.253,717.12 657.253,714.787 662.5,714.5 Z"/></g>
<g><path style="opacity:1" fill="#81725f" d="M 564.5,731.5 C 567.736,744.535 569.903,757.869 571,771.5C 571.818,777.349 571.652,783.015 570.5,788.5C 567.979,772.896 565.979,757.23 564.5,741.5C 470.167,741.5 375.833,741.5 281.5,741.5C 375.665,740.501 469.999,740.167 564.5,740.5C 564.5,737.5 564.5,734.5 564.5,731.5 Z"/></g>
<g><path style="opacity:1" fill="#f7f6f2" d="M 583.5,740.5 C 594.415,740.18 605.248,740.513 616,741.5C 611.946,795.529 607.28,849.529 602,903.5C 601.333,890.167 601.333,876.833 602,863.5C 603.501,829.157 604.834,794.824 606,760.5C 605.5,760 605,759.5 604.5,759C 600.5,758.333 596.5,758.333 592.5,759C 592,759.5 591.5,760 591,760.5C 590.667,786.167 590.333,811.833 590,837.5C 586.521,805.153 584.355,772.82 583.5,740.5 Z"/></g>
<g><path style="opacity:1" fill="#e4b02b" d="M 281.5,741.5 C 375.833,741.5 470.167,741.5 564.5,741.5C 565.979,757.23 567.979,772.896 570.5,788.5C 570.205,790.735 570.539,792.735 571.5,794.5C 571.19,797.713 571.523,800.713 572.5,803.5C 582.321,877.013 590.988,950.68 598.5,1024.5C 598.5,1026.5 598.5,1028.5 598.5,1030.5C 585.83,1024.98 573.164,1019.15 560.5,1013C 514.624,1000.22 470.957,982.225 429.5,959C 388.114,934.619 352.614,903.452 323,865.5C 296.484,828.452 282.65,787.118 281.5,741.5 Z"/></g>
<g><path style="opacity:1" fill="#eea633" d="M 236.5,755.5 C 240.182,755.335 243.848,755.501 247.5,756C 257.077,759.829 259.744,766.495 255.5,776C 255.167,776.167 254.833,776.333 254.5,776.5C 253.679,773.553 253.179,770.553 253,767.5C 252.261,766.426 251.261,765.759 250,765.5C 244.282,770.348 237.782,772.681 230.5,772.5C 228.832,765.509 230.832,759.842 236.5,755.5 Z"/></g>
<g><path style="opacity:1" fill="#f1a736" d="M 214.5,784.5 C 233.192,784.212 239.359,792.879 233,810.5C 225.446,819.537 221.113,818.537 220,807.5C 217.504,801.009 213.504,795.676 208,791.5C 207.333,790.5 207.333,789.5 208,788.5C 210.013,786.752 212.18,785.418 214.5,784.5 Z"/></g>
<g><path style="opacity:1" fill="#71635d" d="M 572.5,803.5 C 571.523,800.713 571.19,797.713 571.5,794.5C 571.312,792.897 571.812,791.563 573,790.5C 575.137,795.08 574.971,799.413 572.5,803.5 Z"/></g>
<g><path style="opacity:1" fill="#fbf8f8" d="M 634.5,1090.5 C 638.287,1089.81 641.454,1090.81 644,1093.5C 644.333,1105.83 644.667,1118.17 645,1130.5C 646.892,1131.13 648.559,1132.13 650,1133.5C 650.179,1136.55 650.679,1139.55 651.5,1142.5C 661.073,1135.77 667.739,1126.94 671.5,1116C 671.187,1112.69 669.353,1111.19 666,1111.5C 662.115,1112.42 658.448,1113.76 655,1115.5C 649.91,1115.15 648.243,1112.48 650,1107.5C 659.942,1096.19 672.442,1092.02 687.5,1095C 700.731,1098.62 704.231,1106.45 698,1118.5C 694.132,1123.36 689.965,1127.86 685.5,1132C 686.197,1134.53 687.864,1135.69 690.5,1135.5C 694.374,1134.29 698.04,1132.63 701.5,1130.5C 703.088,1131.01 704.255,1132.01 705,1133.5C 706.037,1141.06 703.87,1147.56 698.5,1153C 694.423,1154.98 691.089,1153.98 688.5,1150C 674.146,1149.75 659.813,1149.25 645.5,1148.5C 645.784,1151.78 645.451,1154.94 644.5,1158C 637.833,1158.67 631.167,1158.67 624.5,1158C 623.718,1155.26 623.218,1152.43 623,1149.5C 622.5,1149 622,1148.5 621.5,1148C 613.833,1147.67 606.167,1147.33 598.5,1147C 597.069,1146.53 595.903,1145.7 595,1144.5C 594.818,1141.77 594.318,1139.11 593.5,1136.5C 588.45,1144.72 582.45,1152.22 575.5,1159C 570.137,1162.25 564.803,1162.25 559.5,1159C 558.426,1158.26 557.759,1157.26 557.5,1156C 559.615,1152.88 562.115,1150.05 565,1147.5C 566.885,1145.09 567.552,1142.42 567,1139.5C 548.053,1139.21 539.719,1129.54 542,1110.5C 545.405,1102.1 551.572,1096.93 560.5,1095C 570.305,1093.39 579.638,1094.73 588.5,1099C 594.973,1103.61 598.306,1109.94 598.5,1118C 597.799,1122.2 597.299,1126.36 597,1130.5C 607.126,1118.04 617.626,1105.87 628.5,1094C 630.727,1093.06 632.727,1091.89 634.5,1090.5 Z"/></g>
<g><path style="opacity:1" fill="#fdf9f8" d="M 517.5,1094.5 C 523.842,1094.33 530.175,1094.5 536.5,1095C 538.325,1096.47 538.825,1098.3 538,1100.5C 535.333,1101.83 533.333,1103.83 532,1106.5C 531.101,1116.89 531.434,1127.23 533,1137.5C 533.833,1138.33 534.667,1139.17 535.5,1140C 538.571,1140.15 541.404,1140.98 544,1142.5C 544.825,1144.7 544.325,1146.53 542.5,1148C 529.974,1151.5 517.308,1152.17 504.5,1150C 500.549,1149.46 497.049,1147.96 494,1145.5C 493.289,1143.63 493.789,1142.13 495.5,1141C 498.5,1140.67 501.5,1140.33 504.5,1140C 505.701,1139.1 506.535,1137.93 507,1136.5C 507.667,1127.83 507.667,1119.17 507,1110.5C 503.733,1108.9 500.233,1108.07 496.5,1108C 495.446,1106.61 495.28,1105.11 496,1103.5C 502.718,1099.22 509.885,1096.22 517.5,1094.5 Z"/></g>
<g><path style="opacity:1" fill="#ec5250" d="M 566.5,1108.5 C 573.374,1109.01 576.708,1112.84 576.5,1120C 576.875,1125.14 574.541,1126.81 569.5,1125C 566.035,1122.47 564.368,1118.97 564.5,1114.5C 564.363,1112.16 565.03,1110.16 566.5,1108.5 Z"/></g>
<g><path style="opacity:1" fill="#ee5451" d="M 618.5,1114.5 C 619.93,1114.42 621.264,1114.75 622.5,1115.5C 623.495,1121.13 623.829,1126.79 623.5,1132.5C 618.167,1132.5 612.833,1132.5 607.5,1132.5C 607.372,1130.35 607.872,1128.35 609,1126.5C 612.381,1122.62 615.547,1118.62 618.5,1114.5 Z"/></g>
</svg>
