<svg width="223" height="223" viewBox="0 0 223 223" fill="none" xmlns="http://www.w3.org/2000/svg">
<rect width="223" height="223" rx="16" fill="black"/>
<path d="M110.846 40L111.742 40.8965L114.432 47.1719L119.213 57.6309L122.5 65.1016L128.178 77.9512L137.74 99.4668L142.82 110.225L147.602 120.982L148.797 120.385L150.889 118.891L150.291 120.086L148.199 122.477L144.912 126.361L138.338 132.936L135.947 135.027L131.465 138.613L127.58 141.602L123.396 144.59L118.018 148.176L111.443 152.359L107.559 154.75L101.283 158.336L93.5137 162.52L82.7559 167.898L74.3887 171.783L64.2285 176.564L58.252 179.254L47.793 184.035L46 184.334L46.5977 182.541L49.8848 175.668L53.1719 168.496L57.9531 158.336L62.7344 147.578L67.5156 137.418L69.6074 132.637L72.2969 126.66L75.584 119.488L79.1699 111.42L83.0547 102.754L87.2383 93.4902L91.123 84.5254L95.9043 74.0664L100.686 63.0098L106.363 50.1602L110.547 40.2988L110.846 40ZM110.248 86.6172L107.26 95.2832L102.777 107.535L98.5938 118.592L95.3066 127.557L90.8242 139.51L86.043 152.359L84.8477 155.348V155.945L87.5371 155.049L106.662 145.486L115.627 140.705L120.109 138.016L125.488 134.729L127.281 133.533L126.982 131.74L123.994 123.074L120.408 112.914L117.121 103.65L113.535 93.4902L112.041 89.3066L110.846 86.6172H110.248Z" fill="#FEFEFE"/>
<path d="M150.889 128.752H151.486L155.072 136.521L159.256 145.188L162.543 152.061L178.082 183.139L177.783 184.035L173.6 181.943L157.463 175.07L144.912 169.691L140.131 167.6L139.234 166.404L135.051 155.348L132.959 149.371L131.764 146.084L132.361 144.59L137.441 140.705L142.223 136.82L145.211 134.131L147.602 132.039L149.693 130.246L150.889 128.752Z" fill="#FEFEFE"/>
</svg>
