<svg width="273" height="42" viewBox="0 0 273 42" fill="none" xmlns="http://www.w3.org/2000/svg">
<path d="M0 10.6412C0.125101 4.72994 3.13235 0 9.71941 0C13.9632 0 18.2889 2.26849 18.2889 6.12775C18.2889 7.4926 17.6297 8.28799 16.5182 8.28799C16.3931 8.28799 16.3113 8.28799 16.191 8.25975C14.0883 8.04325 14.9159 6.17952 15.3682 4.37696C15.4067 4.24048 15.4067 4.10399 15.4067 3.9675C15.4067 3.12035 14.7475 2.32497 13.5927 1.69901C12.3995 1.06835 10.956 0.85186 9.92631 0.85186H9.55582C5.0666 1.07306 2.96394 4.98409 2.96394 10.9189C2.96394 15.8418 4.98 19.8328 9.92631 19.9458C10.1332 19.9458 10.9175 19.974 10.956 19.974C12.3995 19.974 14.786 19.2916 14.786 16.5007V13.1921C14.786 11.7707 13.5109 11.7943 13.0538 11.7143C12.9287 11.686 12.8469 11.5778 12.8469 11.4413V11.333C12.8854 11.1965 13.0105 11.0601 13.1741 11.0601H19.3955C19.5206 11.0601 19.6024 11.1165 19.6024 11.2248L19.6409 11.446C19.6409 11.5825 19.5591 11.6907 19.434 11.719C19.1068 11.799 18.5679 11.6907 18.1156 12.2367C17.6633 12.8673 17.6633 13.7945 17.62 14.5334C17.62 15.4653 17.62 17.7055 17.2929 18.4162C17.1293 18.9339 16.1814 19.6446 14.8197 20.1952C13.458 20.7411 11.8558 21.0141 10.4123 21.0141C10.1236 21.0141 9.7964 21.0141 9.4644 20.9859C4.44591 20.6517 1.56377 17.7243 0.534087 14.251C0.163594 13.0744 0 11.8696 0 10.6412Z" fill="#353535"/>
<path d="M27.965 20.4588C27.965 20.3788 28.0083 20.3223 28.1286 20.3223C28.5808 20.2423 29.6923 20.3505 29.6923 18.628V2.3532C29.6923 0.738906 28.6626 0.658897 28.167 0.658897C28.0419 0.630659 27.9601 0.55065 27.9601 0.414164V0.216495C27.9601 0.108247 28.0419 0 28.2055 0H33.7677C33.9313 0 34.0131 0.108247 34.0131 0.244733V0.461228C34.0131 0.541237 33.9313 0.625952 33.888 0.654191C33.3924 0.790677 32.281 0.597714 32.281 2.3485L32.2425 19.8516L35.6587 19.8799H35.9474C41.6299 19.8799 41.5096 17.3102 41.8368 16.1336C41.8801 16.0253 42.0004 15.9406 42.164 15.9406H42.3709C42.5345 15.9406 42.5778 16.0489 42.5778 16.1853C42.3709 17.1407 41.755 20.7788 41.755 20.8353C41.4663 21.0282 33.9698 20.9435 29.9762 20.9435H28.1237C27.9986 20.9435 27.9601 20.887 27.9601 20.807V20.4588H27.965Z" fill="#353535"/>
<path d="M49.1023 20.2658H49.4295C49.9251 20.2658 50.666 20.2658 50.8729 19.6116C52.5185 15.3711 55.8962 5.36062 57.7102 0.272993C57.7535 0.136507 57.9171 0.0282593 58.0807 0.0282593H59.1104C59.2355 0.0282593 59.3991 0.136507 59.4376 0.272993L65.3703 17.9973C65.7023 18.8727 66.193 19.8281 67.2227 20.1576C67.3045 20.1858 67.4296 20.214 67.5932 20.2423L68.0888 20.294C68.2139 20.294 68.2957 20.4305 68.2957 20.5388V20.7317C68.2957 20.84 68.2139 20.9482 68.0503 20.9482H61.4199C61.2564 20.9482 61.1746 20.84 61.1746 20.7317V20.5152C61.1746 20.407 61.2564 20.2705 61.4199 20.2705H61.8722C62.3245 20.2705 62.9019 20.0258 62.9019 19.2869C62.9019 18.6044 62.5747 17.9455 62.4063 17.3196L60.8426 12.7544H54.7896C53.9235 15.0793 52.7302 18.4162 52.403 19.6728V19.781C52.403 20.2752 53.2258 20.2987 53.8465 20.2987C53.9716 20.2987 54.0534 20.3788 54.0534 20.5717V20.7364C54.0534 20.8447 53.9716 20.9529 53.808 20.9529H49.1119C48.9483 20.9529 48.8665 20.8447 48.8665 20.7364V20.4917C48.8569 20.374 48.9387 20.2658 49.1023 20.2658ZM55.0735 11.7331H60.549L57.8738 3.91105L55.0735 11.7331Z" fill="#353535"/>
<path d="M77.149 20.294C78.8379 20.1576 79.1266 17.9691 79.1266 15.6723V2.43321C79.0015 0.790677 78.1402 0.682429 77.5628 0.682429C77.3992 0.682429 77.2741 0.60242 77.2741 0.409458V0.272972C77.2741 0.080009 77.3559 0 77.5628 0H81.2293C81.518 0 81.6816 0.108247 81.8067 0.329449L90.0056 16.1665L97.2904 0.409458C97.3337 0.216495 97.6175 0.080009 97.8244 0.080009L100.134 0H101.948C102.112 0 102.193 0.080009 102.193 0.192963V0.494173C102.193 0.60242 102.068 0.687136 102.03 0.687136C101.452 0.767145 100.298 0.607127 100.298 2.48969V17.9126C100.298 19.9646 100.995 20.1811 102.03 20.2658C102.155 20.294 102.193 20.3458 102.193 20.4588V20.7882C102.193 20.8965 102.15 20.9529 102.03 20.9529H96.0971C95.972 20.9529 95.8902 20.8965 95.8902 20.7882V20.4588C95.8902 20.4023 95.9335 20.3505 95.972 20.3223L96.0538 20.2658C97.0402 20.1858 97.6993 19.8563 97.6993 18.0491V2.51793L89.5918 20.294C89.5485 20.487 89.3849 20.487 89.2646 20.294L80.4883 3.30861V15.6441C80.4883 17.9691 80.6952 20.1576 82.4658 20.294C82.5909 20.294 82.6727 20.3505 82.6727 20.4588V20.7882C82.6294 20.8965 82.5909 20.9529 82.4658 20.9529H77.1538C77.0287 20.9529 76.9902 20.8965 76.9902 20.7882V20.4588C76.9854 20.3505 77.0287 20.294 77.149 20.294Z" fill="#353535"/>
<path d="M124.846 20.2658C125.135 20.2658 125.669 20.2093 125.876 20.1011C126.372 19.8281 126.535 19.0327 126.535 18.435V17.8608C126.535 12.8014 126.574 9.46459 126.574 7.79381C126.574 6.12775 126.574 4.42873 126.535 2.73442C126.535 0.654191 125.631 0.710668 125.092 0.710668C124.967 0.710668 124.846 0.60242 124.846 0.465935V0.216495C124.846 0.080009 124.971 0 125.092 0H128.84C129.004 0 129.167 0.080009 129.21 0.192963L140.21 17.1502V5.60533C140.21 4.29225 140.21 3.11564 140.248 2.07553C140.248 0.955401 139.632 0.682429 139.093 0.682429H138.555C138.429 0.682429 138.348 0.60242 138.348 0.465935V0.216495C138.348 0.080009 138.473 0 138.593 0H143.126C143.289 0 143.371 0.080009 143.371 0.216495V0.461228C143.371 0.597714 143.289 0.677723 143.126 0.677723C141.725 0.677723 141.6 1.36015 141.6 2.3485L141.518 20.7553C141.518 20.8918 141.437 20.9718 141.273 20.9718L139.873 20.9435C139.709 20.9435 139.546 20.8635 139.502 20.7506L127.935 3.09211V18.4632C127.935 19.0939 128.06 19.8328 128.469 20.1058C128.676 20.2423 129.254 20.2705 129.581 20.2705C129.706 20.2705 129.788 20.3505 129.788 20.4917V20.7364C129.788 20.8729 129.745 20.9529 129.581 20.9529H124.846C124.683 20.9529 124.601 20.8729 124.601 20.7364V20.4917C124.596 20.3505 124.678 20.2658 124.846 20.2658Z" fill="#353535"/>
<path d="M166.361 10.6412C166.486 4.72994 169.493 0 176.08 0C180.324 0 184.65 2.26849 184.65 6.12775C184.65 7.4926 183.99 8.28799 182.879 8.28799C182.754 8.28799 182.672 8.28799 182.552 8.25975C180.449 8.04325 181.277 6.17952 181.729 4.37696C181.772 4.24048 181.772 4.10399 181.772 3.9675C181.772 3.12035 181.113 2.32497 179.958 1.69901C178.765 1.06835 177.322 0.85186 176.292 0.85186H175.921C171.432 1.07306 169.329 4.98409 169.329 10.9189C169.329 15.8418 171.35 19.8328 176.292 19.9458C176.499 19.9458 177.283 19.974 177.322 19.974C178.765 19.974 181.152 19.2916 181.152 16.5007V13.1921C181.152 11.7707 179.876 11.7943 179.419 11.7143C179.294 11.686 179.212 11.5778 179.212 11.4413V11.333C179.251 11.1965 179.376 11.0601 179.54 11.0601H185.761C185.886 11.0601 185.968 11.1165 185.968 11.2248L186.006 11.446C186.006 11.5825 185.925 11.6907 185.8 11.719C185.472 11.799 184.933 11.6907 184.481 12.2367C184.029 12.8673 184.029 13.7945 183.986 14.5334C183.986 15.4653 183.986 17.7055 183.658 18.4162C183.495 18.9339 182.547 19.6446 181.185 20.1952C179.824 20.7411 178.221 21.0141 176.778 21.0141C176.489 21.0141 176.162 21.0141 175.83 20.9859C170.807 20.6564 167.92 17.7338 166.89 14.2604C166.524 13.0744 166.361 11.8696 166.361 10.6412Z" fill="#353535"/>
<path d="M194.326 20.4588C194.326 20.3788 194.369 20.3223 194.489 20.3223C194.942 20.2423 196.053 20.3505 196.053 18.628V2.3532C196.053 0.738906 195.023 0.658897 194.528 0.658897C194.403 0.630659 194.321 0.55065 194.321 0.414164V0.216495C194.321 0.108247 194.403 0 194.566 0H200.128C200.292 0 200.374 0.108247 200.374 0.244733V0.461228C200.374 0.541237 200.292 0.625952 200.249 0.654191C199.753 0.790677 198.642 0.597714 198.642 2.3485L198.598 19.8516L202.019 19.8799H202.308C207.991 19.8799 207.87 17.3102 208.198 16.1336C208.241 16.0253 208.361 15.9406 208.525 15.9406H208.732C208.895 15.9406 208.938 16.0489 208.938 16.1853C208.732 17.1407 208.116 20.7788 208.116 20.8353C207.827 21.0282 200.331 20.9435 196.337 20.9435H194.484C194.359 20.9435 194.321 20.887 194.321 20.807V20.4588H194.326Z" fill="#353535"/>
<path d="M226.164 0.0800171C232.342 0.0800171 235.595 5.08293 235.595 10.6365C235.595 15.8888 231.972 20.9765 226.164 20.9765C220.356 20.9765 216.69 15.8088 216.69 10.6365C216.69 5.08764 219.904 0.0800171 226.164 0.0800171ZM219.822 10.6412C219.822 13.4603 220.438 20.1858 226.164 20.1858C231.928 20.1858 232.467 13.2674 232.467 10.42C232.467 7.65734 231.89 0.847162 226.246 0.847162C221.343 0.847162 220.024 5.57711 219.904 8.89042C219.861 9.57285 219.822 10.147 219.822 10.6412Z" fill="#353535"/>
<path d="M241.691 0H248.321C248.446 0 248.567 0.080009 248.567 0.216495L248.528 0.437696C248.528 0.545944 248.446 0.682429 248.321 0.682429C247.787 0.682429 246.758 0.654191 246.758 1.83079C246.758 2.02376 246.801 2.24025 246.839 2.43321L252.113 18.0208L256.766 5.79359C256.313 4.78171 255.447 1.33662 254.172 0.842447C253.965 0.762438 253.513 0.677723 253.143 0.649485C253.017 0.649485 252.897 0.541237 252.897 0.43299V0.216495C252.897 0.080009 252.979 0 253.143 0H260.596C260.759 0 260.841 0.108247 260.841 0.244733V0.409458C260.841 0.545944 260.759 0.654191 260.596 0.654191C259.811 0.7342 258.166 0.625953 258.166 1.83079V2.132C258.166 2.24025 258.166 2.3485 258.209 2.43321L263.483 18.0255L268.674 3.39332C268.881 2.76266 269.17 2.10847 269.17 1.42604C269.17 0.687136 268.386 0.687136 267.895 0.687136C267.77 0.687136 267.688 0.607127 267.688 0.465935V0.216495C267.688 0.080009 267.77 0 267.933 0H272.793C272.918 0 273 0.080009 273 0.216495V0.437696C273 0.545944 272.918 0.654191 272.755 0.654191C272.259 0.654191 271.393 0.654191 270.941 1.55782C270.652 2.132 270.445 2.87091 270.156 3.5251L264.099 20.7035C264.06 20.84 263.892 20.9247 263.771 20.9247L262.082 20.9529C261.919 20.9529 261.75 20.8729 261.712 20.7364L257.348 7.96325L252.652 20.7082C252.608 20.8447 252.445 20.9294 252.281 20.9294L250.674 20.9576C250.549 20.9576 250.386 20.8776 250.347 20.7411L244.453 3.80278C243.466 0.823622 243.091 0.931869 241.691 0.630659C241.527 0.630659 241.446 0.522411 241.446 0.385926V0.216495C241.446 0.080009 241.527 0 241.691 0Z" fill="#353535"/>
<path d="M95.7651 40.1739C95.7651 41.0587 95.0289 41.8918 93.8164 41.8918H90.9439V36.1782H93.8164C95.0289 36.1782 95.7651 36.7994 95.7651 37.6889C95.7651 38.2914 95.4571 38.7808 95.053 38.9173C95.4571 39.0585 95.7651 39.5668 95.7651 40.1739ZM91.6993 38.602H93.8789C94.6007 38.602 94.9856 38.2914 94.9856 37.6889C94.9856 37.1289 94.5718 36.8041 93.8164 36.8041H91.6993V38.602ZM93.8164 41.2658C94.5718 41.2658 94.9856 40.7246 94.9856 40.1739C94.9856 39.5621 94.6007 39.2562 93.8789 39.2562H91.6993V41.2658H93.8164Z" fill="#353535"/>
<path d="M100.428 41.8965H99.6817V39.5668L97.0979 36.1782H98.0361L100.052 38.922L102.063 36.1782H103.002L100.428 39.5668V41.8965Z" fill="#353535"/>
<path d="M110.022 40.461L109.339 41.8965H108.497L111.177 36.1782H112.047L114.728 41.8965H113.89L113.222 40.461H110.022ZM111.614 36.9171L110.325 39.8398H112.933L111.614 36.9171Z" fill="#353535"/>
<path d="M121.401 41.8965H117.21V36.1782H117.966V41.2658H121.401V41.8965Z" fill="#353535"/>
<path d="M128.412 41.8965H123.894V36.1782H128.335V36.8041H124.649V38.6961H127.825V39.3173H124.649V41.2658H128.412V41.8965Z" fill="#353535"/>
<path d="M140.773 41.8965V37.063L138.579 41.2752H137.741L135.547 37.0536V41.8965H134.792V36.1782H135.913L138.155 40.4845L140.407 36.1782H141.528V41.8965H140.773Z" fill="#353535"/>
<path d="M143.953 39.3173V36.1782H144.742V39.3173C144.742 40.7857 145.272 41.3646 146.595 41.3646C147.903 41.3646 148.438 40.7952 148.438 39.3173V36.1782H149.227V39.3173C149.227 40.8563 148.63 42 146.59 42C144.574 42 143.953 40.8893 143.953 39.3173Z" fill="#353535"/>
<path d="M155.573 41.8965L153.576 39.242H152.407L152.397 41.9059H151.652V36.1876H154.524C155.737 36.1876 156.473 36.8041 156.473 37.6983C156.473 38.5831 155.737 39.2373 154.524 39.2373H154.447L156.54 41.8918H155.573V41.8965ZM152.412 38.602H154.529C155.284 38.602 155.698 38.2396 155.698 37.6889C155.698 37.1289 155.284 36.8041 154.529 36.8041H152.412V38.602Z" fill="#353535"/>
<path d="M159.774 36.1782H159.018V41.8965H159.774V36.1782Z" fill="#353535"/>
<path d="M167.102 41.8965H162.911V36.1782H163.666V41.2658H167.102V41.8965Z" fill="#353535"/>
<path d="M173.785 41.8965H169.594V36.1782H170.35V41.2658H173.785V41.8965Z" fill="#353535"/>
<path d="M175.387 39.0303C175.387 37.2842 176.802 36.0746 178.717 36.0746C180.642 36.0746 182.056 37.2889 182.056 39.0303C182.056 40.7857 180.642 41.9953 178.717 41.9953C176.802 42 175.387 40.7857 175.387 39.0303ZM181.272 39.0303C181.272 37.656 180.228 36.71 178.712 36.71C177.211 36.71 176.162 37.6654 176.162 39.0303C176.162 40.4139 177.206 41.3599 178.712 41.3599C180.228 41.3599 181.272 40.4092 181.272 39.0303Z" fill="#353535"/>
</svg>
