<svg width="252" height="80" viewBox="0 0 252 80" fill="none" xmlns="http://www.w3.org/2000/svg">
<g clip-path="url(#clip0_167_2)">
<path d="M251.03 77.0615C249.895 73.0941 248.725 70.2204 246.241 65.2998C241.384 55.6797 235.47 46.5599 227.943 37.0815C223.426 31.3952 218.145 25.792 213.984 22.2726C199.804 10.2793 183.072 4.82782 161.795 5.26913C156.563 5.37755 153.643 5.64225 149.507 6.3827C146.859 6.85677 142.827 7.90864 141.155 8.56157C140.636 8.76406 140.173 8.89115 140.126 8.84409C139.818 8.53982 145.566 5.6874 149.151 4.3645C154.836 2.2671 160.503 1.06495 168.405 0.279655C171.969 -0.0744804 172.238 -0.0776358 176.231 0.187472C189.21 1.0492 196.679 2.62473 204.646 6.18156C219.91 12.9965 234.415 28.2772 244.43 48.0933C248.849 56.8372 250.849 62.2956 251.529 67.4721C251.823 69.7161 252.109 77.4058 251.958 79.037L251.87 80L251.03 77.0615ZM183.706 47.4089C181.058 46.7023 178.291 44.4021 177.039 41.8656C175.745 39.2453 175.331 36.3344 175.921 34.0178C176.069 33.4402 176.559 32.2219 177.01 31.3105C178.377 28.5516 180.408 26.8473 183.536 25.8352C184.202 25.6195 184.776 25.471 184.81 25.5052C184.844 25.5394 184.579 26.281 184.22 27.1532C183.591 28.6852 183.569 28.8105 183.582 30.8533C183.593 32.6245 183.663 33.1392 184.009 34.0248C185.295 37.3137 188.273 39.7754 192.3 40.8783C193.172 41.1171 194.188 41.3617 194.558 41.4219L195.231 41.5314L194.74 42.4473C194.051 43.7328 191.632 46.0991 190.417 46.6761C188.346 47.6593 185.72 47.9462 183.706 47.4089Z" fill="#E7B310"/>
<path d="M16.2849 66.2503C10.0932 65.5168 6.19541 63.5756 3.54854 59.9071C0.350814 55.4751 -0.290938 50.0126 0.10413 30.589C0.223371 24.726 0.26507 18.7596 0.196794 17.3301L0.0726353 14.7313H4.96911H9.8656L9.92677 32.1307C9.98767 49.4556 9.98963 49.5365 10.3834 51.0111C10.6009 51.8256 10.9972 52.896 11.2641 53.3898C12.8204 56.2692 16.4781 57.9096 20.8133 57.6726C25.0965 57.4384 27.6457 55.5018 28.6829 51.6942C28.955 50.6953 28.9903 48.84 29.045 32.6593L29.1056 14.7313L33.9453 14.7315L38.7851 14.7318L38.8454 30.369C38.9091 46.8526 38.8038 50.3771 38.1535 53.5387C36.6699 60.7511 32.6883 64.5521 25.1713 65.9319C23.722 66.1979 17.6727 66.4147 16.2849 66.2503ZM131.543 66.2565C131.298 66.2147 130.498 66.0933 129.764 65.9865C127.01 65.5859 123.943 64.3438 121.839 62.7767C118.587 60.3545 116.406 56.6247 115.353 51.685C114.917 49.6403 114.91 49.1394 115.312 49.0288C115.899 48.8677 124.238 48.1385 124.34 48.2395C124.395 48.2948 124.639 49.084 124.882 49.9929C126.045 54.3597 128.125 56.5475 132.005 57.485C133.634 57.8784 136.91 57.8815 138.524 57.4912C141.078 56.8735 143.211 55.36 144.125 53.5176C144.557 52.6462 144.616 52.3244 144.615 50.8527C144.615 49.4732 144.547 49.0548 144.231 48.474C143.276 46.7217 141.767 45.9178 136.903 44.5687C128.632 42.2743 126.258 41.4423 123.76 39.961C119.746 37.5815 117.231 33.8407 116.798 29.6073C116.373 25.4584 117.737 21.5379 120.599 18.6798C122.855 16.4257 125.326 15.192 129.266 14.3519C130.807 14.0232 131.677 13.9595 134.744 13.9503C138.648 13.9378 140.017 14.0993 142.481 14.8586C147.203 16.3132 150.432 19.3957 151.991 23.9365C152.462 25.3058 153.196 28.9327 153.035 29.0918C152.931 29.195 146.657 29.5326 144.842 29.5327C143.292 29.5328 143.288 29.5318 143.181 29.0483C142.312 25.1238 140.833 23.44 137.497 22.5794C136.091 22.2166 132.795 22.2238 131.133 22.5939C127.688 23.3596 126.029 24.935 126.029 27.4402C126.029 29.2473 126.928 30.4048 129.226 31.5581C130.615 32.2548 131.56 32.5554 137.056 34.0491C145.136 36.2448 147.475 37.2828 150.284 39.9186C152.844 42.3202 154.16 45.3777 154.423 49.5319C154.886 56.8624 150.854 62.864 143.954 65.1135C141.319 65.9722 139.651 66.207 135.722 66.2717C133.668 66.3056 131.787 66.2983 131.543 66.2565ZM180.901 66.1585C170.511 64.8666 163.407 57.8974 161.3 46.9296C160.86 44.6428 160.859 37.3645 161.298 34.4662C162.216 28.3963 164.153 24.1511 167.687 20.4643C171.577 16.4058 175.792 14.557 182.353 14.0321C188.581 13.5337 194.384 15.0304 198.77 18.2663C206.287 23.8128 209.497 34.5165 207.381 46.9762C205.312 59.1624 196.668 66.4547 184.435 66.3356C183.176 66.3231 181.585 66.2436 180.901 66.1585ZM187.215 57.3649C190.099 56.6841 193.072 54.8396 194.674 52.7379C196.052 50.9296 197.005 48.406 197.648 44.8618C198.072 42.5223 198.066 37.1467 197.637 34.7305C196.678 29.3338 194.397 25.8675 190.573 23.9974C188.325 22.8977 186.842 22.6073 184.014 22.7125C180.139 22.8567 177.918 23.7582 175.452 26.1887C174.12 27.5007 173.795 27.9481 173.016 29.5427C172.521 30.5547 171.983 31.8981 171.821 32.528C170.258 38.5946 170.7 45.9729 172.892 50.412C174.281 53.2248 176.292 55.2519 178.949 56.5203C181.523 57.7487 184.361 58.0387 187.215 57.3649ZM49.3681 40.203C49.3681 26.3023 49.4337 14.889 49.5138 14.8399C49.5939 14.7908 51.6914 14.7369 54.1749 14.7198L58.6903 14.6888L59.0213 15.1069C59.2033 15.3369 60.0781 16.7937 60.9652 18.3442C62.3985 20.8494 77.7229 46.7884 78.5572 48.1215C78.8812 48.6391 78.8881 48.297 78.8911 31.6911L78.894 14.7322H83.4296H87.9652V40.1074V65.4826L83.1183 65.4358L78.2715 65.389L77.5091 64.2437C77.0898 63.6138 75.559 61.0369 74.1073 58.5173C72.6556 55.9977 69.9702 51.4386 68.1398 48.386C66.3094 45.3333 63.398 40.4681 61.67 37.5742L58.5283 32.3126L58.4829 48.8949L58.4375 65.4771H53.9028H49.3681V40.203ZM98.2815 40.1045V14.7321H103.084H107.886V40.1045V65.4769H103.084H98.2815V40.1045ZM214.962 44.4042V23.3315L216.681 24.8904C218.309 26.3671 222.312 30.5324 223.601 32.0905L224.196 32.8098L224.248 49.1434L224.3 65.477L219.631 65.477L214.962 65.4769L214.962 44.4042ZM249.42 58.7346C248.85 56.7141 244.107 46.7975 241.72 42.6338L240.522 40.545L240.553 27.7707L240.584 14.9964L245.16 14.9496L249.735 14.9028L249.686 36.4458C249.658 48.2944 249.618 58.2663 249.597 58.6054C249.558 59.2136 249.555 59.2152 249.42 58.7346Z" fill="white"/>
</g>
<defs>
<clipPath id="clip0_167_2">
<rect width="252" height="80" fill="white"/>
</clipPath>
</defs>
</svg>
