<svg width="79" height="79" viewBox="0 0 79 79" fill="none" xmlns="http://www.w3.org/2000/svg">
<path d="M78.1513 41.0842L45.4259 39.5L78.1513 37.9159V41.0842Z" fill="#13CEC4"/>
<path d="M77.8281 34.2016L45.3318 38.3833L77.2839 31.0789L77.8281 34.2016Z" fill="#13CEC4"/>
<path d="M76.3305 27.4804L45.0454 37.3037L75.2585 24.4983L76.3305 27.4804Z" fill="#13CEC4"/>
<path d="M73.6995 21.1232L44.5749 36.2904L72.1324 18.3768L73.6995 21.1232Z" fill="#13CEC4"/>
<path d="M70.017 15.3244L43.9407 35.3722L67.9998 12.8965L70.017 15.3244Z" fill="#13CEC4"/>
<path d="M65.3934 10.2618L43.1591 34.5822L62.9916 8.22266L65.3934 10.2618Z" fill="#13CEC4"/>
<path d="M59.9719 6.08426L42.2508 33.9411L57.255 4.50012L59.9719 6.08426Z" fill="#13CEC4"/>
<path d="M53.9162 2.92424L41.2483 33.4654L50.9661 1.84058L53.9162 2.92424Z" fill="#13CEC4"/>
<path d="M47.4063 0.876873L40.1763 33.1759L44.3171 0.322632L47.4063 0.876873Z" fill="#13CEC4"/>
<path d="M40.6428 0L39.0756 33.0807L37.5044 0H40.6428Z" fill="#13CEC4"/>
<path d="M33.8342 0.322632L37.9709 33.1759L30.745 0.876873L33.8342 0.322632Z" fill="#13CEC4"/>
<path d="M27.1852 1.84058L36.903 33.4654L24.2351 2.92424L27.1852 1.84058Z" fill="#13CEC4"/>
<path d="M20.8963 4.50012L35.9005 33.9411L18.1794 6.08426L20.8963 4.50012Z" fill="#13CEC4"/>
<path d="M15.1597 8.22266L34.9921 34.5822L12.7579 10.2618L15.1597 8.22266Z" fill="#13CEC4"/>
<path d="M10.1515 12.8965L34.2106 35.3722L8.13428 15.3244L10.1515 12.8965Z" fill="#13CEC4"/>
<path d="M6.01887 18.3768L33.5764 36.2904L4.45175 21.1232L6.01887 18.3768Z" fill="#13CEC4"/>
<path d="M2.89282 24.4983L33.1059 37.3037L1.8208 27.4804L2.89282 24.4983Z" fill="#13CEC4"/>
<path d="M0.867439 31.0789L32.8195 38.3833L0.319153 34.2016L0.867439 31.0789Z" fill="#13CEC4"/>
<path d="M0 37.9159L32.7253 39.5L0 41.0842V37.9159Z" fill="#13CEC4"/>
<path d="M0.319153 44.7983L32.8195 40.6167L0.867439 47.9211L0.319153 44.7983Z" fill="#13CEC4"/>
<path d="M1.8208 51.5196L33.1059 41.6963L2.89282 54.5017L1.8208 51.5196Z" fill="#13CEC4"/>
<path d="M4.45175 57.8768L33.5764 42.7096L6.01887 60.6232L4.45175 57.8768Z" fill="#13CEC4"/>
<path d="M8.13428 63.6756L34.2106 43.6278L10.1515 66.1035L8.13428 63.6756Z" fill="#13CEC4"/>
<path d="M12.7579 68.7383L34.9921 44.4178L15.1597 70.7774L12.7579 68.7383Z" fill="#13CEC4"/>
<path d="M18.1794 72.9158L35.9005 45.059L20.8963 74.4999L18.1794 72.9158Z" fill="#13CEC4"/>
<path d="M24.2351 76.0758L36.903 45.5347L27.1852 77.1595L24.2351 76.0758Z" fill="#13CEC4"/>
<path d="M30.745 78.1231L37.9709 45.8241L33.8342 78.6732L30.745 78.1231Z" fill="#13CEC4"/>
<path d="M37.5044 79L39.0756 45.9193L40.6428 79H37.5044Z" fill="#13CEC4"/>
<path d="M44.3171 78.6732L40.1763 45.8241L47.4063 78.1231L44.3171 78.6732Z" fill="#13CEC4"/>
<path d="M50.9661 77.1595L41.2483 45.5347L53.9162 76.0758L50.9661 77.1595Z" fill="#13CEC4"/>
<path d="M57.255 74.4999L42.2508 45.059L59.9719 72.9158L57.255 74.4999Z" fill="#13CEC4"/>
<path d="M62.9916 70.7774L43.1591 44.4178L65.3934 68.7383L62.9916 70.7774Z" fill="#13CEC4"/>
<path d="M67.9998 66.1035L43.9407 43.6278L70.017 63.6756L67.9998 66.1035Z" fill="#13CEC4"/>
<path d="M72.1324 60.6232L44.5749 42.7096L73.6995 57.8768L72.1324 60.6232Z" fill="#13CEC4"/>
<path d="M75.2585 54.5017L45.0454 41.6963L76.3305 51.5196L75.2585 54.5017Z" fill="#13CEC4"/>
<path d="M77.2839 47.9211L45.3318 40.6167L77.8281 44.7983L77.2839 47.9211Z" fill="#13CEC4"/>
<path d="M59.0677 40.7947C59.4646 39.9302 59.8001 39.0368 60.0619 38.1104L45.426 39.5001L59.0677 40.7947Z" fill="#13CEC4"/>
<path d="M60.3033 37.159C60.5284 36.1705 60.6675 35.1489 60.7289 34.1066L45.3318 38.3833L60.3033 37.159Z" fill="#13CEC4"/>
<path d="M60.778 33.1511C60.778 33.0932 60.7862 33.0353 60.7862 32.9774C60.7862 31.9186 60.7084 30.8804 60.5734 29.8629L45.0414 37.3079L60.778 33.1511Z" fill="#13CEC4"/>
<path d="M60.4343 28.9405C60.2297 27.77 59.9433 26.6325 59.575 25.5282L44.5749 36.2904L60.4343 28.9405Z" fill="#13CEC4"/>
<path d="M59.2722 24.6678C58.8303 23.4973 58.2943 22.3723 57.6806 21.3052L43.9407 35.3721L59.2722 24.6678Z" fill="#13CEC4"/>
<path d="M57.2223 20.5441C56.5267 19.4357 55.7452 18.3892 54.8818 17.4172L43.1551 34.578L57.2223 20.5441Z" fill="#13CEC4"/>
<path d="M54.2967 16.7886C53.3597 15.8125 52.3368 14.915 51.2443 14.1167L42.2549 33.9411L54.2967 16.7886Z" fill="#13CEC4"/>
<path d="M50.5529 13.6286C49.4031 12.851 48.1756 12.1768 46.8908 11.6143L41.2484 33.4695L50.5529 13.6286Z" fill="#13CEC4"/>
<path d="M46.1256 11.3C44.8122 10.783 43.4415 10.3818 42.0258 10.1171L40.1763 33.1801L46.1256 11.3Z" fill="#13CEC4"/>
<path d="M36.903 9.71167V9.73235C37.1935 9.72408 37.4799 9.71167 37.7704 9.71167H36.903Z" fill="#13CEC4"/>
<path d="M41.2238 9.97225C40.0986 9.80267 38.9447 9.71167 37.7745 9.71167C37.484 9.71167 37.1976 9.72408 36.907 9.73235L39.0756 33.0808L41.2238 9.97225Z" fill="#13CEC4"/>
<path d="M31.817 10.543L37.9709 33.1759L36.0969 9.78198L31.817 10.543Z" fill="#13CEC4"/>
<path d="M36.903 33.4654L31.0396 10.7581L26.9561 12.2595L36.903 33.4654Z" fill="#13CEC4"/>
<path d="M35.9005 33.9411L26.2236 12.6028L22.4593 14.7991L35.9005 33.9411Z" fill="#13CEC4"/>
<path d="M34.9922 34.5822L21.7965 15.2706L18.4699 18.0915L34.9922 34.5822Z" fill="#13CEC4"/>
<path d="M34.2106 35.3722L17.8971 18.6705L15.1065 22.0332L34.2106 35.3722Z" fill="#13CEC4"/>
<path d="M33.5764 36.2904L14.6401 22.7032L12.4674 26.5085L33.5764 36.2904Z" fill="#13CEC4"/>
<path d="M33.1059 37.3038L12.1278 27.2489L10.6425 31.3768L33.1059 37.3038Z" fill="#13CEC4"/>
<path d="M10.4297 32.1626L9.67685 36.489L27.7089 37.9656C27.6803 37.6306 27.6639 37.2914 27.6598 36.9481L10.4297 32.1626Z" fill="#13CEC4"/>
<path d="M27.6599 36.9521C27.6639 37.2954 27.6844 37.6305 27.709 37.9696L32.8195 38.3874L27.6599 36.9521Z" fill="#13CEC4"/>
<path d="M27.844 39.0367C27.8931 39.3428 27.9422 39.6489 28.0076 39.9467L32.7254 39.5L27.844 39.0367Z" fill="#13CEC4"/>
<path d="M9.6073 37.3037V41.6963L28.0076 39.9467C27.9422 39.6489 27.8931 39.3428 27.844 39.0367L9.6073 37.3037Z" fill="#13CEC4"/>
<path d="M9.67685 42.5111L10.4297 46.8375L28.5518 41.8038C28.4536 41.535 28.3554 41.2661 28.2736 40.989L9.67685 42.5111Z" fill="#13CEC4"/>
<path d="M28.2736 40.9891C28.3554 41.2662 28.4577 41.535 28.5518 41.8039L32.8195 40.6168L28.2736 40.9891Z" fill="#13CEC4"/>
<path d="M28.9446 42.7923C29.0551 43.0405 29.1697 43.2845 29.2924 43.5203L33.1059 41.6921L28.9446 42.7923Z" fill="#13CEC4"/>
<path d="M10.6425 47.6234L12.1278 51.7512L29.2965 43.5245C29.1737 43.2846 29.0592 43.0405 28.9487 42.7965L10.6425 47.6234Z" fill="#13CEC4"/>
<path d="M29.8162 44.451C29.9512 44.6744 30.0821 44.8977 30.2253 45.1128L33.5723 42.7097L29.8162 44.451Z" fill="#13CEC4"/>
<path d="M12.4674 52.4917L14.6401 56.2969L30.2253 45.1128C30.078 44.8978 29.9512 44.6744 29.8161 44.451L12.4674 52.4917Z" fill="#13CEC4"/>
<path d="M30.8595 45.9648C31.0191 46.1675 31.1869 46.3578 31.3546 46.5522L34.2106 43.6279L30.8595 45.9648Z" fill="#13CEC4"/>
<path d="M32.0748 47.3297C32.2589 47.5117 32.4512 47.6812 32.6435 47.855L34.9921 44.4178L32.0748 47.3297Z" fill="#13CEC4"/>
<path d="M33.4619 48.5333C33.6746 48.6987 33.8833 48.8683 34.1042 49.0172L35.9005 45.059L33.4619 48.5333Z" fill="#13CEC4"/>
<path d="M35.0044 49.5757C35.2499 49.7204 35.4995 49.8528 35.7532 49.9851L36.903 45.5347L35.0044 49.5757Z" fill="#13CEC4"/>
<path d="M36.7148 50.4443C36.9971 50.5642 37.2876 50.6635 37.574 50.7627L37.9709 45.8201L36.7148 50.4443Z" fill="#13CEC4"/>
<path d="M38.5969 51.0729C38.9202 51.1598 39.2434 51.2466 39.5789 51.3087L39.0797 45.9193L38.5969 51.0729Z" fill="#13CEC4"/>
<path d="M40.6305 51.4742C40.9947 51.5197 41.3629 51.5403 41.7353 51.5569L40.1763 45.8242L40.6305 51.4742Z" fill="#13CEC4"/>
<path d="M42.8073 51.5651C43.2246 51.5569 43.6379 51.5403 44.0512 51.5031L41.2524 45.5347L42.8073 51.5651Z" fill="#13CEC4"/>
<path d="M45.1109 51.3624C45.5773 51.2921 46.0397 51.2094 46.498 51.106L42.2549 45.0631L45.1109 51.3624Z" fill="#13CEC4"/>
<path d="M47.5413 50.833C48.0569 50.68 48.5602 50.5021 49.0594 50.3077L43.1591 44.422L47.5413 50.833Z" fill="#13CEC4"/>
<path d="M50.0455 49.8776C50.6019 49.617 51.142 49.3316 51.6699 49.0214L43.9407 43.6238L50.0455 49.8776Z" fill="#13CEC4"/>
<path d="M52.5864 48.4589C53.1633 48.0701 53.7157 47.6441 54.2436 47.1933L44.5749 42.7097L52.5864 48.4589Z" fill="#13CEC4"/>
<path d="M55.021 46.4777C55.5897 45.9358 56.1298 45.365 56.629 44.7529L45.0454 41.6963L55.021 46.4777Z" fill="#13CEC4"/>
<path d="M57.2428 43.9257C57.7542 43.2184 58.2248 42.4822 58.6339 41.7046L45.3318 40.6168L57.2428 43.9257Z" fill="#13CEC4"/>
</svg>
