<svg width="269" height="79" viewBox="0 0 269 79" fill="none" xmlns="http://www.w3.org/2000/svg">
<path d="M78.1513 41.0842L45.426 39.5L78.1513 37.9159V41.0842Z" fill="#13CEC4"/>
<path d="M77.8281 34.2016L45.3318 38.3833L77.2839 31.0789L77.8281 34.2016Z" fill="#13CEC4"/>
<path d="M76.3305 27.4804L45.0454 37.3037L75.2585 24.4983L76.3305 27.4804Z" fill="#13CEC4"/>
<path d="M73.6995 21.1232L44.5749 36.2904L72.1324 18.3768L73.6995 21.1232Z" fill="#13CEC4"/>
<path d="M70.017 15.3244L43.9407 35.3722L67.9998 12.8965L70.017 15.3244Z" fill="#13CEC4"/>
<path d="M65.3934 10.2618L43.1592 34.5822L62.9916 8.22266L65.3934 10.2618Z" fill="#13CEC4"/>
<path d="M59.9719 6.08426L42.2508 33.9411L57.255 4.50012L59.9719 6.08426Z" fill="#13CEC4"/>
<path d="M53.9162 2.92424L41.2484 33.4654L50.9661 1.84058L53.9162 2.92424Z" fill="#13CEC4"/>
<path d="M47.4063 0.876873L40.1763 33.1759L44.3171 0.322632L47.4063 0.876873Z" fill="#13CEC4"/>
<path d="M40.6428 0L39.0757 33.0807L37.5045 0H40.6428Z" fill="#13CEC4"/>
<path d="M33.8342 0.322632L37.9709 33.1759L30.7449 0.876873L33.8342 0.322632Z" fill="#13CEC4"/>
<path d="M27.1852 1.84058L36.903 33.4654L24.2351 2.92424L27.1852 1.84058Z" fill="#13CEC4"/>
<path d="M20.8963 4.50012L35.9005 33.9411L18.1794 6.08426L20.8963 4.50012Z" fill="#13CEC4"/>
<path d="M15.1597 8.22266L34.9921 34.5822L12.7579 10.2618L15.1597 8.22266Z" fill="#13CEC4"/>
<path d="M10.1515 12.8965L34.2106 35.3722L8.13428 15.3244L10.1515 12.8965Z" fill="#13CEC4"/>
<path d="M6.0189 18.3768L33.5764 36.2904L4.45178 21.1232L6.0189 18.3768Z" fill="#13CEC4"/>
<path d="M2.89282 24.4983L33.1059 37.3037L1.8208 27.4804L2.89282 24.4983Z" fill="#13CEC4"/>
<path d="M0.867439 31.0789L32.8195 38.3833L0.319153 34.2016L0.867439 31.0789Z" fill="#13CEC4"/>
<path d="M0 37.9159L32.7253 39.5L0 41.0842V37.9159Z" fill="#13CEC4"/>
<path d="M0.319153 44.7983L32.8195 40.6167L0.867439 47.9211L0.319153 44.7983Z" fill="#13CEC4"/>
<path d="M1.8208 51.5196L33.1059 41.6963L2.89282 54.5017L1.8208 51.5196Z" fill="#13CEC4"/>
<path d="M4.45178 57.8768L33.5764 42.7096L6.0189 60.6232L4.45178 57.8768Z" fill="#13CEC4"/>
<path d="M8.13428 63.6756L34.2106 43.6278L10.1515 66.1035L8.13428 63.6756Z" fill="#13CEC4"/>
<path d="M12.7579 68.7383L34.9921 44.4178L15.1597 70.7774L12.7579 68.7383Z" fill="#13CEC4"/>
<path d="M18.1794 72.9158L35.9005 45.059L20.8963 74.4999L18.1794 72.9158Z" fill="#13CEC4"/>
<path d="M24.2351 76.0758L36.903 45.5347L27.1852 77.1595L24.2351 76.0758Z" fill="#13CEC4"/>
<path d="M30.7449 78.1231L37.9709 45.8241L33.8342 78.6732L30.7449 78.1231Z" fill="#13CEC4"/>
<path d="M37.5045 79L39.0757 45.9193L40.6428 79H37.5045Z" fill="#13CEC4"/>
<path d="M44.3171 78.6732L40.1763 45.8241L47.4063 78.1231L44.3171 78.6732Z" fill="#13CEC4"/>
<path d="M50.9661 77.1595L41.2484 45.5347L53.9162 76.0758L50.9661 77.1595Z" fill="#13CEC4"/>
<path d="M57.255 74.4999L42.2508 45.059L59.9719 72.9158L57.255 74.4999Z" fill="#13CEC4"/>
<path d="M62.9916 70.7774L43.1592 44.4178L65.3934 68.7383L62.9916 70.7774Z" fill="#13CEC4"/>
<path d="M67.9998 66.1035L43.9407 43.6278L70.017 63.6756L67.9998 66.1035Z" fill="#13CEC4"/>
<path d="M72.1324 60.6232L44.5749 42.7096L73.6995 57.8768L72.1324 60.6232Z" fill="#13CEC4"/>
<path d="M75.2585 54.5017L45.0454 41.6963L76.3305 51.5196L75.2585 54.5017Z" fill="#13CEC4"/>
<path d="M77.2839 47.9211L45.3318 40.6167L77.8281 44.7983L77.2839 47.9211Z" fill="#13CEC4"/>
<path d="M59.0677 40.7947C59.4646 39.9302 59.8001 39.0368 60.0619 38.1104L45.426 39.5001L59.0677 40.7947Z" fill="#13CEC4"/>
<path d="M60.3033 37.159C60.5284 36.1705 60.6675 35.1489 60.7289 34.1066L45.3318 38.3833L60.3033 37.159Z" fill="#13CEC4"/>
<path d="M60.778 33.1511C60.778 33.0932 60.7861 33.0353 60.7861 32.9774C60.7861 31.9186 60.7084 30.8804 60.5734 29.8629L45.0413 37.3079L60.778 33.1511Z" fill="#13CEC4"/>
<path d="M60.4343 28.9405C60.2297 27.77 59.9433 26.6325 59.575 25.5282L44.5749 36.2904L60.4343 28.9405Z" fill="#13CEC4"/>
<path d="M59.2722 24.6678C58.8303 23.4973 58.2943 22.3723 57.6806 21.3052L43.9407 35.3721L59.2722 24.6678Z" fill="#13CEC4"/>
<path d="M57.2223 20.5441C56.5267 19.4357 55.7452 18.3892 54.8819 17.4172L43.1551 34.578L57.2223 20.5441Z" fill="#13CEC4"/>
<path d="M54.2967 16.7886C53.3597 15.8125 52.3368 14.915 51.2443 14.1167L42.2549 33.9411L54.2967 16.7886Z" fill="#13CEC4"/>
<path d="M50.5529 13.6286C49.4031 12.851 48.1756 12.1768 46.8908 11.6143L41.2484 33.4695L50.5529 13.6286Z" fill="#13CEC4"/>
<path d="M46.1256 11.3C44.8122 10.783 43.4415 10.3818 42.0258 10.1171L40.1763 33.1801L46.1256 11.3Z" fill="#13CEC4"/>
<path d="M36.903 9.71167V9.73235C37.1935 9.72408 37.4799 9.71167 37.7704 9.71167H36.903Z" fill="#13CEC4"/>
<path d="M41.2238 9.97225C40.0986 9.80267 38.9447 9.71167 37.7745 9.71167C37.484 9.71167 37.1976 9.72408 36.907 9.73235L39.0756 33.0808L41.2238 9.97225Z" fill="#13CEC4"/>
<path d="M31.817 10.543L37.9709 33.1759L36.0969 9.78198L31.817 10.543Z" fill="#13CEC4"/>
<path d="M36.903 33.4654L31.0396 10.7581L26.9561 12.2595L36.903 33.4654Z" fill="#13CEC4"/>
<path d="M35.9005 33.9411L26.2236 12.6028L22.4593 14.7991L35.9005 33.9411Z" fill="#13CEC4"/>
<path d="M34.9922 34.5822L21.7965 15.2706L18.4699 18.0915L34.9922 34.5822Z" fill="#13CEC4"/>
<path d="M34.2106 35.3722L17.897 18.6705L15.1065 22.0332L34.2106 35.3722Z" fill="#13CEC4"/>
<path d="M33.5764 36.2904L14.6401 22.7032L12.4674 26.5085L33.5764 36.2904Z" fill="#13CEC4"/>
<path d="M33.1059 37.3038L12.1278 27.2489L10.6425 31.3768L33.1059 37.3038Z" fill="#13CEC4"/>
<path d="M10.4298 32.1626L9.67688 36.489L27.709 37.9656C27.6803 37.6306 27.6639 37.2914 27.6599 36.9481L10.4298 32.1626Z" fill="#13CEC4"/>
<path d="M27.6599 36.9521C27.6639 37.2954 27.6844 37.6305 27.709 37.9696L32.8195 38.3874L27.6599 36.9521Z" fill="#13CEC4"/>
<path d="M27.844 39.0367C27.8931 39.3428 27.9422 39.6489 28.0077 39.9467L32.7254 39.5L27.844 39.0367Z" fill="#13CEC4"/>
<path d="M9.6073 37.3037V41.6963L28.0076 39.9467C27.9422 39.6489 27.8931 39.3428 27.844 39.0367L9.6073 37.3037Z" fill="#13CEC4"/>
<path d="M9.67688 42.5111L10.4298 46.8375L28.5518 41.8038C28.4536 41.535 28.3554 41.2661 28.2736 40.989L9.67688 42.5111Z" fill="#13CEC4"/>
<path d="M28.2736 40.9891C28.3554 41.2662 28.4577 41.535 28.5518 41.8039L32.8194 40.6168L28.2736 40.9891Z" fill="#13CEC4"/>
<path d="M28.9446 42.7923C29.0551 43.0405 29.1697 43.2845 29.2924 43.5203L33.1059 41.6921L28.9446 42.7923Z" fill="#13CEC4"/>
<path d="M10.6425 47.6234L12.1278 51.7512L29.2965 43.5245C29.1738 43.2846 29.0592 43.0405 28.9487 42.7965L10.6425 47.6234Z" fill="#13CEC4"/>
<path d="M29.8162 44.451C29.9512 44.6744 30.0821 44.8977 30.2253 45.1128L33.5723 42.7097L29.8162 44.451Z" fill="#13CEC4"/>
<path d="M12.4674 52.4917L14.6401 56.2969L30.2253 45.1128C30.078 44.8978 29.9512 44.6744 29.8162 44.451L12.4674 52.4917Z" fill="#13CEC4"/>
<path d="M30.8596 45.9648C31.0191 46.1675 31.1869 46.3578 31.3547 46.5522L34.2107 43.6279L30.8596 45.9648Z" fill="#13CEC4"/>
<path d="M32.0748 47.3297C32.2589 47.5117 32.4512 47.6812 32.6435 47.855L34.9921 44.4178L32.0748 47.3297Z" fill="#13CEC4"/>
<path d="M33.4619 48.5333C33.6746 48.6987 33.8833 48.8683 34.1042 49.0172L35.9005 45.059L33.4619 48.5333Z" fill="#13CEC4"/>
<path d="M35.0044 49.5757C35.2499 49.7204 35.4995 49.8528 35.7532 49.9851L36.9029 45.5347L35.0044 49.5757Z" fill="#13CEC4"/>
<path d="M36.7147 50.4443C36.997 50.5642 37.2876 50.6635 37.574 50.7627L37.9709 45.8201L36.7147 50.4443Z" fill="#13CEC4"/>
<path d="M38.5969 51.0729C38.9202 51.1598 39.2434 51.2466 39.5789 51.3087L39.0797 45.9193L38.5969 51.0729Z" fill="#13CEC4"/>
<path d="M40.6305 51.4742C40.9947 51.5197 41.3629 51.5403 41.7353 51.5569L40.1763 45.8242L40.6305 51.4742Z" fill="#13CEC4"/>
<path d="M42.8073 51.5651C43.2246 51.5569 43.6379 51.5403 44.0512 51.5031L41.2524 45.5347L42.8073 51.5651Z" fill="#13CEC4"/>
<path d="M45.1109 51.3624C45.5773 51.2921 46.0397 51.2094 46.498 51.106L42.2549 45.0631L45.1109 51.3624Z" fill="#13CEC4"/>
<path d="M47.5414 50.833C48.0569 50.68 48.5602 50.5021 49.0594 50.3077L43.1592 44.422L47.5414 50.833Z" fill="#13CEC4"/>
<path d="M50.0455 49.8776C50.6019 49.617 51.142 49.3316 51.6699 49.0214L43.9407 43.6238L50.0455 49.8776Z" fill="#13CEC4"/>
<path d="M52.5864 48.4589C53.1633 48.0701 53.7157 47.6441 54.2436 47.1933L44.5749 42.7097L52.5864 48.4589Z" fill="#13CEC4"/>
<path d="M55.021 46.4777C55.5897 45.9358 56.1298 45.365 56.629 44.7529L45.0454 41.6963L55.021 46.4777Z" fill="#13CEC4"/>
<path d="M57.2428 43.9257C57.7542 43.2184 58.2248 42.4822 58.6339 41.7046L45.3318 40.6168L57.2428 43.9257Z" fill="#13CEC4"/>
<path d="M134.117 48.4175C127.44 48.4175 121.932 43.2391 121.331 36.642H114.936C115.549 46.8127 123.905 54.8657 134.117 54.8657C144.334 54.8657 152.686 46.8127 153.299 36.642H146.904C146.302 43.2391 140.799 48.4175 134.117 48.4175Z" fill="white"/>
<path d="M134.117 16.0027C123.9 16.0027 115.549 24.0599 114.936 34.2265H121.331C121.932 27.6335 127.44 22.4509 134.117 22.4509C139.04 22.4509 143.324 25.2635 145.48 29.3872H125.238L123.7 34.2306L123.688 34.2678H146.908H153.168L153.16 34.2306H153.303C152.69 24.0599 144.334 16.0027 134.117 16.0027Z" fill="white"/>
<path d="M198.226 34.2265C198.828 27.6335 204.335 22.4509 211.013 22.4509C217.69 22.4509 223.198 27.6335 223.799 34.2265H230.194C229.581 24.0557 221.225 16.0027 211.013 16.0027C200.796 16.0027 192.444 24.0599 191.831 34.2265H198.226Z" fill="white"/>
<path d="M211.013 48.4175C204.335 48.4175 198.828 43.2391 198.226 36.642H191.831C192.444 46.8127 200.8 54.8657 211.013 54.8657C221.23 54.8657 229.581 46.8127 230.194 36.642H223.799C223.198 43.2391 217.69 48.4175 211.013 48.4175Z" fill="white"/>
<path d="M185.71 16.0524L177.125 34.2265L175.98 36.6461L172.567 43.8719L169.15 36.6461L168.009 34.2265L159.42 16.0524H151.564L160.153 34.2265L161.294 36.6461L169.928 54.9195H177.784L175.308 49.6791H177.678L183.836 36.6461L184.977 34.2265L193.566 16.0524H185.71Z" fill="white"/>
<path d="M240.906 0.988525H234.478V54.9153H240.906V0.988525Z" fill="white"/>
<path d="M268.795 14.4144H258.889C261.569 12.1643 263.816 7.09345 264.696 1.22428L264.732 0.988525H264.495H258.284H258.104L258.079 1.17051C257.588 5.00057 256.213 8.24743 254.106 10.5595C251.774 13.1198 248.713 14.4185 244.998 14.4185H244.794V14.6253V20.7096V20.9164H244.998H253.108V44.5709C253.108 50.0843 258.116 54.9195 263.824 54.9195H268.791H268.996V54.7127V48.6284V48.4216H268.791H263.824C260.878 48.4216 259.536 46.0268 259.536 43.7974V20.9164H268.791H268.996V20.7096V14.6212V14.4144H268.795Z" fill="white"/>
<path d="M103.622 16.0027H97.194V54.7085H103.622V16.0027Z" fill="white"/>
<path d="M109.293 24.4486C111.664 24.4486 113.585 22.506 113.585 20.1098C113.585 17.7135 111.664 15.771 109.293 15.771C106.923 15.771 105.001 17.7135 105.001 20.1098C105.001 22.506 106.923 24.4486 109.293 24.4486Z" fill="white"/>
<path d="M115.787 71.1497C115.803 72.5353 116.519 74.2105 118.324 74.2105C119.694 74.2105 120.443 73.3956 120.742 72.221H121.683C121.282 73.9871 120.267 75.0087 118.328 75.0087C115.881 75.0087 114.854 73.1102 114.854 70.8933C114.854 68.8418 115.885 66.7778 118.328 66.7778C120.803 66.7778 121.789 68.9658 121.711 71.1497H115.787ZM120.77 70.3514C120.725 68.9203 119.846 67.5761 118.324 67.5761C116.789 67.5761 115.938 68.9328 115.787 70.3514H120.77Z" fill="white"/>
<path d="M122.411 67.0052H123.454L125.873 73.834H125.901L128.287 67.0052H129.256L126.376 74.7853H125.378L122.411 67.0052Z" fill="white"/>
<path d="M137.37 70.8933C137.37 73.1268 136.086 75.0087 133.729 75.0087C131.372 75.0087 130.091 73.1226 130.091 70.8933C130.091 68.6639 131.376 66.7778 133.729 66.7778C136.09 66.7778 137.37 68.6639 137.37 70.8933ZM131.032 70.8933C131.032 72.5519 131.928 74.2105 133.733 74.2105C135.537 74.2105 136.433 72.5519 136.433 70.8933C136.433 69.2347 135.537 67.5761 133.733 67.5761C131.924 67.5761 131.032 69.2347 131.032 70.8933Z" fill="white"/>
<path d="M139.085 64.019H140.026V74.7854H139.085V64.019Z" fill="white"/>
<path d="M148.365 74.7853H147.501V73.3832H147.473C146.982 74.4255 145.967 75.0128 144.817 75.0128C142.878 75.0128 142.117 73.8671 142.117 72.0596V67.0052H143.058V72.072C143.103 73.4741 143.627 74.2145 145.116 74.2145C146.728 74.2145 147.428 72.6759 147.428 71.0917V67.0052H148.369V74.7853H148.365Z" fill="white"/>
<path d="M155.865 69.4498C155.611 68.2875 154.911 67.5803 153.688 67.5803C151.884 67.5803 150.987 69.2388 150.987 70.8974C150.987 72.556 151.884 74.2146 153.688 74.2146C154.85 74.2146 155.807 73.2964 155.926 71.9976H156.867C156.614 73.8672 155.406 75.0129 153.692 75.0129C151.335 75.0129 150.055 73.1268 150.055 70.8974C150.055 68.6681 151.339 66.782 153.692 66.782C155.333 66.782 156.601 67.6712 156.81 69.4498H155.865Z" fill="white"/>
<path d="M158.492 64.019H159.433V65.5411H158.492V64.019ZM158.492 67.0053H159.433V74.7854H158.492V67.0053Z" fill="white"/>
<path d="M168.426 70.8932C168.426 73.1267 167.141 75.0087 164.785 75.0087C162.428 75.0087 161.147 73.1226 161.147 70.8932C161.147 68.6639 162.432 66.7778 164.785 66.7778C167.146 66.7778 168.426 68.6639 168.426 70.8932ZM162.088 70.8932C162.088 72.5518 162.984 74.2104 164.789 74.2104C166.593 74.2104 167.489 72.5518 167.489 70.8932C167.489 69.2347 166.593 67.5761 164.789 67.5761C162.98 67.5761 162.088 69.2347 162.088 70.8932ZM164.666 65.9216H163.905L165.472 63.7957H166.634L164.666 65.9216Z" fill="white"/>
<path d="M170.112 67.0053H171.053V68.3454H171.082C171.425 67.4107 172.452 66.7778 173.545 66.7778C175.709 66.7778 176.364 67.9235 176.364 69.7765V74.7812H175.423V69.9254C175.423 68.5853 174.989 67.572 173.467 67.572C171.974 67.572 171.082 68.7177 171.049 70.2398V74.7771H170.108V67.0053H170.112Z" fill="white"/>
<path d="M183.43 71.1497C183.447 72.5353 184.163 74.2105 185.967 74.2105C187.338 74.2105 188.087 73.3956 188.386 72.221H189.327C188.926 73.9871 187.911 75.0087 185.971 75.0087C183.525 75.0087 182.498 73.1102 182.498 70.8933C182.498 68.8418 183.529 66.7778 185.971 66.7778C188.447 66.7778 189.433 68.9658 189.355 71.1497H183.43ZM188.414 70.3514C188.369 68.9203 187.489 67.5761 185.967 67.5761C184.433 67.5761 183.582 68.9328 183.43 70.3514H188.414Z" fill="white"/>
<path d="M190.906 67.0053H191.847V68.3454H191.876C192.219 67.4107 193.246 66.7778 194.335 66.7778C196.499 66.7778 197.154 67.9235 197.154 69.7765V74.7812H196.213V69.9254C196.213 68.5853 195.779 67.572 194.257 67.572C192.764 67.572 191.872 68.7177 191.839 70.2398V74.7771H190.898V67.0053H190.906Z" fill="white"/>
<path d="M199.781 71.1497C199.797 72.5353 200.513 74.2105 202.318 74.2105C203.688 74.2105 204.437 73.3956 204.736 72.221H205.677C205.276 73.9871 204.261 75.0087 202.322 75.0087C199.875 75.0087 198.848 73.1102 198.848 70.8933C198.848 68.8418 199.879 66.7778 202.322 66.7778C204.797 66.7778 205.783 68.9658 205.706 71.1497H199.781ZM204.76 70.3514C204.715 68.9203 203.836 67.5761 202.314 67.5761C200.779 67.5761 199.928 68.9328 199.777 70.3514H204.76Z" fill="white"/>
<path d="M207.269 67.0052H208.132V68.8293H208.161C208.639 67.576 209.683 66.8398 211.07 66.8977V67.849C209.368 67.758 208.206 69.0237 208.206 70.6368V74.7812H207.265V67.0052H207.269Z" fill="white"/>
<path d="M218.77 74.1525C218.754 76.4729 217.874 77.8916 215.354 77.8916C213.819 77.8916 212.297 77.1967 212.162 75.5381H213.103C213.312 76.6838 214.31 77.0892 215.354 77.0892C217.085 77.0892 217.829 76.051 217.829 74.1484V73.0937H217.801C217.367 74.045 216.459 74.6902 215.354 74.6902C212.891 74.6902 211.88 72.9117 211.88 70.6947C211.88 68.5522 213.132 66.7737 215.354 66.7737C216.471 66.7737 217.428 67.481 217.801 68.3413H217.829V67.0053H218.77V74.1525ZM217.829 70.8064C217.829 69.2843 217.13 67.5802 215.354 67.5802C213.562 67.5802 212.817 69.1933 212.817 70.8064C212.817 72.374 213.623 73.8961 215.354 73.8961C216.978 73.8961 217.829 72.3864 217.829 70.8064Z" fill="white"/>
<path d="M221.41 71.1497C221.426 72.5353 222.142 74.2104 223.946 74.2104C225.317 74.2104 226.066 73.3956 226.365 72.2209H227.306C226.905 73.9871 225.89 75.0087 223.95 75.0087C221.504 75.0087 220.477 73.1102 220.477 70.8932C220.477 68.8417 221.508 66.7778 223.95 66.7778C226.426 66.7778 227.412 68.9658 227.334 71.1497H221.41ZM226.393 70.3514C226.348 68.9203 225.469 67.5761 223.946 67.5761C222.412 67.5761 221.561 68.9327 221.41 70.3514H226.393ZM223.705 65.9216H222.944L224.511 63.7957H225.673L223.705 65.9216Z" fill="white"/>
<path d="M230.391 67.0052H231.958V67.8035H230.391V73.0523C230.391 73.6727 230.481 74.0325 231.152 74.078C231.422 74.078 231.688 74.0615 231.958 74.0325V74.8473C231.676 74.8473 231.406 74.8763 231.123 74.8763C229.871 74.8763 229.437 74.4544 229.454 73.1267V67.8035H228.112V67.0052H229.454V64.6683H230.395V67.0052H230.391Z" fill="white"/>
<path d="M233.627 64.019H234.568V65.5411H233.627V64.019ZM233.627 67.0053H234.568V74.7854H233.627V67.0053Z" fill="white"/>
<path d="M242.097 69.4498C241.843 68.2875 241.144 67.5803 239.92 67.5803C238.116 67.5803 237.22 69.2388 237.22 70.8974C237.22 72.556 238.116 74.2146 239.92 74.2146C241.082 74.2146 242.04 73.2964 242.159 71.9976H243.1C242.846 73.8672 241.639 75.0129 239.924 75.0129C237.568 75.0129 236.287 73.1268 236.287 70.8974C236.287 68.6681 237.568 66.782 239.924 66.782C241.565 66.782 242.834 67.6712 243.042 69.4498H242.097Z" fill="white"/>
<path d="M244.618 69.3877C244.708 67.5637 245.976 66.7778 247.735 66.7778C249.094 66.7778 250.571 67.1997 250.571 69.2802V73.4122C250.571 73.7762 250.751 73.9871 251.123 73.9871C251.226 73.9871 251.348 73.9581 251.422 73.9251V74.7233C251.213 74.7688 251.062 74.7854 250.812 74.7854C249.859 74.7854 249.708 74.2435 249.708 73.4287H249.679C249.024 74.4379 248.353 75.0129 246.876 75.0129C245.461 75.0129 244.294 74.3056 244.294 72.738C244.294 70.55 246.398 70.4755 248.427 70.2356C249.204 70.1446 249.634 70.0412 249.634 69.1809C249.634 67.8987 248.726 67.5844 247.621 67.5844C246.459 67.5844 245.591 68.1262 245.563 69.396H244.618V69.3877ZM249.63 70.5334H249.601C249.483 70.7609 249.065 70.8354 248.812 70.8809C247.216 71.1663 245.231 71.1539 245.231 72.676C245.231 73.6273 246.066 74.2146 246.946 74.2146C248.378 74.2146 249.646 73.2964 249.63 71.7701V70.5334Z" fill="white"/>
</svg>
