<svg width="151" height="28" viewBox="0 0 151 28" fill="none" xmlns="http://www.w3.org/2000/svg">
<g id="Frame" clip-path="url(#clip0_6510_147)">
<g id="Group">
<path id="Vector" d="M5.88004 23.3387C3.23659 20.5366 2.89392 15.8084 2.8686 13.8975C6.67341 14.6994 9.21728 21.1409 10.279 24.9997C10.2841 24.9795 10.2909 24.9575 10.2959 24.9356C9.94313 23.6729 9.35569 21.8195 8.51674 19.9812C6.50461 15.5788 4.41483 14.1609 2.82471 13.8452C2.84496 15.7257 3.17075 20.5264 5.84797 23.3657C6.97726 24.5625 8.42053 25.2833 10.1491 25.5179C10.1524 25.5044 10.1558 25.4892 10.1592 25.4757C8.44078 25.2445 7.00427 24.5288 5.88004 23.3387Z" fill="white"/>
<path id="Vector_2" d="M22.4815 12.9185L22.4359 12.164C22.4123 11.7622 22.0797 11.45 21.678 11.45H20.9234C17.6858 11.45 14.7858 13.9449 12.539 18.6629C12.144 19.4934 11.7996 20.3256 11.5025 21.1156C11.2055 20.3239 10.8611 19.4934 10.4661 18.6629C8.21596 13.9449 5.31592 11.45 2.07828 11.45H1.32204C0.920291 11.45 0.587749 11.7622 0.564117 12.164L0.51854 12.9185C0.499972 13.2325 0.0982206 20.6463 4.15624 24.9542C5.76831 26.6675 7.83108 27.6449 10.2973 27.8728C10.3834 27.9066 10.4762 27.9251 10.5724 27.9251H11.4418H11.5616H12.431C12.5255 27.9251 12.6183 27.9066 12.7061 27.8728C15.1723 27.6449 17.2351 26.6675 18.8472 24.9542C22.9018 20.6463 22.5001 13.2325 22.4815 12.9185ZM9.35875 24.5457C8.21089 24.2402 7.23015 23.6612 6.4334 22.8171C4.38413 20.6446 3.81864 17.1555 3.67347 15.0016C6.31692 16.4263 8.3358 21.1308 9.35875 24.5457ZM16.57 22.8138C15.7733 23.6612 14.7908 24.2402 13.6413 24.5474C14.6625 21.1308 16.6797 16.4229 19.3283 14.9999C19.1848 17.1487 18.6227 20.6328 16.57 22.8138Z" fill="white"/>
<path id="Vector_3" d="M17.6151 4.04283C17.2809 3.23595 16.8066 2.52023 16.2006 1.91591C15.5979 1.3116 14.8822 0.837263 14.072 0.501345C13.2651 0.168803 12.3991 0 11.5011 0C10.5997 0 9.73372 0.168803 8.92516 0.503033C8.11659 0.837263 7.40086 1.31329 6.79824 1.91591C6.19392 2.52023 5.7179 3.23595 5.38367 4.04452C5.05113 4.8514 4.88232 5.71736 4.88232 6.61708C4.88232 7.98945 5.27057 9.24365 6.03356 10.3426C6.77461 11.4128 7.72328 12.2045 8.86101 12.7007C8.8627 12.7007 9.03657 12.7851 9.38599 13.1346C9.40624 13.1616 9.46701 13.3101 9.47714 13.6241C9.5109 14.7179 10.4072 15.5873 11.5011 15.5873H11.5028C12.5983 15.5873 13.493 14.7162 13.5267 13.6224C13.5385 13.2426 13.6162 13.1194 13.6162 13.1194C13.9319 12.7936 14.0956 12.7092 14.0939 12.7092C15.2553 12.2163 16.2225 11.4212 16.9703 10.3442C17.7333 9.24196 18.1215 7.98944 18.1215 6.61876C18.1182 5.71904 17.9494 4.85477 17.6151 4.04283ZM14.5412 8.69842C14.1192 9.30611 13.5858 9.74668 12.941 10.0201C12.6658 10.1383 12.3637 10.3679 12.0294 10.7105C11.6969 11.0532 11.5197 11.5478 11.5011 12.1943C11.4808 11.5478 11.3002 11.0549 10.9575 10.7105C10.6149 10.3679 10.306 10.1383 10.0325 10.0201C9.40624 9.74668 8.88127 9.30611 8.46095 8.69842C8.03894 8.09073 7.82962 7.40539 7.82962 6.6424C7.82962 6.1343 7.92247 5.65321 8.10815 5.20251C8.29383 4.7518 8.55379 4.36018 8.88633 4.02764C9.21887 3.6951 9.6105 3.43514 10.0612 3.24946C10.5119 3.06377 10.9913 2.97093 11.5011 2.97093C12.0092 2.97093 12.4886 3.06377 12.941 3.24946C13.3917 3.43514 13.7833 3.6951 14.1158 4.02764C14.4484 4.36018 14.7083 4.7518 14.894 5.20251C15.0797 5.65321 15.1726 6.13261 15.1726 6.6424C15.1726 7.40707 14.9615 8.09241 14.5412 8.69842Z" fill="white"/>
</g>
<g id="Group_2">
<g id="Group_3">
<path id="Vector_4" d="M45.6801 6.54108C46.0718 6.14945 46.5495 5.95364 47.1133 5.95364C47.6771 5.95364 48.1548 6.14439 48.5464 6.52251C48.938 6.90231 49.1339 7.37327 49.1339 7.93708V13.9633C49.1339 15.1146 48.9195 16.1865 48.4907 17.179C48.062 18.1716 47.4678 19.046 46.7082 19.8056C45.9485 20.5652 45.0674 21.1594 44.063 21.5882C43.0586 22.0169 41.9935 22.2313 40.8659 22.2313C39.7147 22.2313 38.6428 22.0169 37.6519 21.5882C36.6593 21.1594 35.7832 20.5652 35.0253 19.8056C34.2657 19.046 33.6715 18.1699 33.2427 17.179C32.814 16.1865 32.5996 15.1163 32.5996 13.9633V7.93708C32.5996 7.37327 32.7954 6.89556 33.187 6.50394C33.5787 6.11232 34.0564 5.9165 34.6202 5.9165C35.184 5.9165 35.6617 6.11232 36.0533 6.50394C36.4449 6.89556 36.6408 7.37327 36.6408 7.93708V13.9633C36.6408 14.8209 36.8805 15.6041 37.3582 16.3148C37.8359 17.0254 38.4419 17.5268 39.1762 17.8205C39.4952 17.9673 39.8497 18.2374 40.2413 18.6291C40.6329 19.0207 40.8406 19.5845 40.8659 20.3188C40.8895 19.5845 41.0988 19.0207 41.4905 18.6291C41.8821 18.2374 42.2248 17.9673 42.5202 17.8205C43.2798 17.5268 43.8976 17.0254 44.3753 16.3148C44.853 15.6041 45.091 14.8209 45.091 13.9633V7.97421C45.0927 7.41041 45.2885 6.9327 45.6801 6.54108Z" fill="white"/>
</g>
<g id="Group_4">
<path id="Vector_5" d="M71.2151 20.4285C71.2151 20.918 71.0311 21.3417 70.6632 21.6962C70.2952 22.0507 69.8664 22.2296 69.3769 22.2296C68.8873 22.2296 68.4636 22.0524 68.1092 21.6962C67.7547 21.3417 67.5757 20.9197 67.5757 20.4285V13.9633C67.5757 13.3269 67.4525 12.726 67.2078 12.1622C66.963 11.5984 66.6321 11.1038 66.2152 10.675C65.7982 10.2463 65.3087 9.91036 64.7449 9.6656C64.1811 9.42084 63.5819 9.29761 62.9455 9.29761C62.1133 9.29761 61.3537 9.50017 60.6683 9.90361C59.9813 10.3071 59.431 10.8405 59.0141 11.5022V20.0267C59.0141 20.6648 58.7997 21.1898 58.3709 21.6067C57.9422 22.0237 57.4459 22.2313 56.8838 22.2313C56.271 22.2313 55.7511 22.0237 55.3223 21.6067C54.8936 21.1898 54.6792 20.6766 54.6792 20.0639C54.6792 19.3532 54.6792 18.7101 54.6792 18.1344C54.6792 17.5588 54.6792 16.9039 54.6792 16.1696C54.6792 15.4353 54.6792 14.6875 54.6792 13.9279C54.6792 12.1403 54.691 10.1062 54.7163 7.82902C54.7163 7.21796 54.924 6.70817 55.3409 6.30473C55.7579 5.90129 56.271 5.69873 56.8838 5.69873C57.3007 5.69873 57.6738 5.80339 58.0046 6.01102C58.3355 6.21864 58.5988 6.49548 58.7946 6.83815C59.3821 6.47016 60.0488 6.18995 60.7966 5.99245C61.5427 5.79664 62.272 5.69873 62.9826 5.69873C64.306 5.69873 65.518 5.98063 66.6203 6.54443C67.7226 7.10824 68.6527 7.85434 69.4123 8.78614C70.1719 7.85603 71.1088 7.10824 72.2229 6.54443C73.337 5.98063 74.5439 5.69873 75.842 5.69873C76.9679 5.69873 78.0331 5.91311 79.0392 6.34187C80.0435 6.77063 80.9247 7.36482 81.6843 8.12443C82.4439 8.88404 83.0381 9.76519 83.4669 10.7696C83.8956 11.7739 84.11 12.8391 84.11 13.9667V20.4335C84.11 20.9231 83.926 21.3468 83.558 21.7013C83.19 22.0557 82.7613 22.2347 82.2717 22.2347C81.7822 22.2347 81.3585 22.0574 81.004 21.7013C80.6495 21.3468 80.4706 20.9248 80.4706 20.4335V13.9633C80.4706 13.3269 80.3474 12.726 80.1026 12.1622C79.8579 11.5984 79.527 11.1038 79.1101 10.675C78.6931 10.2463 78.2036 9.91036 77.6398 9.6656C77.076 9.42084 76.4767 9.29761 75.8387 9.29761C75.2023 9.29761 74.6013 9.42084 74.0392 9.6656C73.4754 9.91036 72.9859 10.248 72.5689 10.675C72.152 11.1038 71.8211 11.6001 71.5764 12.1622C71.3316 12.726 71.2084 13.3269 71.2084 13.9633V20.4285H71.2151Z" fill="white"/>
</g>
<g id="Group_5">
<path id="Vector_6" d="M101.893 21.0902C101.306 21.4582 100.638 21.7401 99.8915 21.9359C99.1437 22.1318 98.4161 22.2297 97.7055 22.2297C96.5542 22.2297 95.4823 22.0153 94.4898 21.5865C93.4972 21.1578 92.6211 20.5636 91.8632 19.804C91.1036 19.0444 90.5094 18.1683 90.0806 17.1774C89.6519 16.1848 89.4375 15.1146 89.4375 13.9617C89.4375 12.8358 89.6519 11.7706 90.0806 10.7646C90.5094 9.76019 91.1036 8.87904 91.8632 8.11942C92.6228 7.35981 93.4989 6.76562 94.4898 6.33687C95.4823 5.90811 96.5525 5.69373 97.7055 5.69373C98.4161 5.69373 99.1437 5.79163 99.8915 5.98744C100.638 6.18325 101.306 6.46516 101.893 6.83315C102.089 6.49048 102.353 6.21533 102.683 6.00601C103.014 5.79838 103.387 5.69373 103.804 5.69373C104.417 5.69373 104.93 5.89629 105.347 6.29973C105.764 6.70317 105.972 7.21295 105.972 7.82402V13.96V20.1331C105.972 20.7459 105.764 21.2472 105.347 21.6389C104.93 22.0305 104.415 22.2263 103.804 22.2263C103.387 22.2263 103.014 22.1216 102.683 21.914C102.353 21.7098 102.089 21.4346 101.893 21.0902ZM93.1123 13.9634C93.1123 14.9188 93.3757 15.7763 93.9023 16.5359C94.429 17.2956 95.084 17.8459 95.8672 18.1885C96.2099 18.3354 96.5947 18.624 97.0252 19.0528C97.454 19.4816 97.6801 20.0994 97.7055 20.9079C97.7291 20.0994 97.9502 19.4816 98.3672 19.0528C98.7841 18.624 99.1622 18.3371 99.5066 18.1885C100.315 17.8459 100.982 17.2956 101.509 16.5359C102.035 15.7763 102.299 14.9188 102.299 13.9634C102.299 13.327 102.182 12.7261 101.949 12.1623C101.716 11.5985 101.392 11.1089 100.975 10.692C100.558 10.275 100.069 9.95094 99.5066 9.71799C98.9428 9.48504 98.3435 9.36857 97.7072 9.36857C97.0691 9.36857 96.4698 9.48504 95.906 9.71799C95.3422 9.95094 94.8527 10.275 94.4374 10.692C94.0205 11.1089 93.6964 11.5985 93.4634 12.1623C93.2288 12.7261 93.1123 13.327 93.1123 13.9634Z" fill="white"/>
</g>
<g id="Group_6">
<path id="Vector_7" d="M128.824 20.4286C128.824 20.9181 128.64 21.3418 128.272 21.6963C127.904 22.0508 127.475 22.2297 126.986 22.2297C126.496 22.2297 126.073 22.0525 125.718 21.6963C125.362 21.3418 125.185 20.9198 125.185 20.4286V13.9634C125.185 13.327 125.061 12.7261 124.817 12.1623C124.572 11.5985 124.241 11.1039 123.824 10.6751C123.407 10.2464 122.918 9.91047 122.354 9.6657C121.79 9.42094 121.191 9.29771 120.554 9.29771C119.722 9.29771 118.963 9.50027 118.277 9.90371C117.592 10.3072 117.04 10.8406 116.623 11.5023V20.0268C116.623 20.5906 116.427 21.0987 116.036 21.5511C115.644 22.0052 115.129 22.2314 114.493 22.2314C113.88 22.2314 113.36 22.0238 112.931 21.6068C112.502 21.1899 112.288 20.6767 112.288 20.064C112.288 19.3533 112.288 18.7102 112.288 18.1345C112.288 17.5589 112.288 16.904 112.288 16.1697C112.288 15.4354 112.288 14.6876 112.288 13.928V7.82744C112.288 7.21637 112.502 6.70659 112.931 6.30315C113.36 5.89971 113.88 5.69714 114.493 5.69714C114.91 5.69714 115.283 5.8018 115.614 6.00943C115.944 6.21706 116.208 6.49389 116.404 6.83656C116.991 6.46857 117.659 6.18836 118.406 5.99086C119.152 5.79505 119.881 5.69714 120.592 5.69714C121.717 5.69714 122.783 5.91828 123.787 6.35885C124.791 6.79943 125.666 7.39361 126.414 8.14141C127.16 8.88921 127.749 9.77036 128.178 10.7866C128.606 11.8027 128.821 12.8746 128.821 14.0023V20.4286H128.824Z" fill="white"/>
</g>
<g id="Group_7">
<path id="Vector_8" d="M146.422 21.0902C145.834 21.4582 145.166 21.7401 144.42 21.9359C143.672 22.1318 142.944 22.2297 142.234 22.2297C141.083 22.2297 140.011 22.0153 139.018 21.5865C138.026 21.1578 137.149 20.5636 136.392 19.804C135.632 19.0444 135.038 18.1683 134.609 17.1774C134.18 16.1848 133.966 15.1146 133.966 13.9617C133.966 12.8358 134.18 11.7706 134.609 10.7646C135.038 9.76019 135.632 8.87904 136.392 8.11942C137.151 7.35981 138.027 6.76562 139.018 6.33687C140.011 5.90811 141.081 5.69373 142.234 5.69373C142.944 5.69373 143.672 5.79163 144.42 5.98744C145.166 6.18325 145.834 6.46516 146.422 6.83315C146.618 6.49048 146.881 6.21533 147.212 6.00601C147.543 5.79838 147.916 5.69373 148.333 5.69373C148.945 5.69373 149.459 5.89629 149.875 6.29973C150.292 6.70317 150.5 7.21295 150.5 7.82402V13.96V20.1331C150.5 20.7459 150.292 21.2472 149.875 21.6389C149.459 22.0305 148.944 22.2263 148.333 22.2263C147.916 22.2263 147.543 22.1216 147.212 21.914C146.881 21.7098 146.618 21.4346 146.422 21.0902ZM137.641 13.9634C137.641 14.9188 137.904 15.7763 138.431 16.5359C138.957 17.2956 139.612 17.8459 140.396 18.1885C140.738 18.3354 141.123 18.624 141.554 19.0528C141.982 19.4816 142.208 20.0994 142.234 20.9079C142.257 20.0994 142.479 19.4816 142.896 19.0528C143.312 18.624 143.691 18.3371 144.035 18.1885C144.843 17.8459 145.51 17.2956 146.037 16.5359C146.564 15.7763 146.827 14.9188 146.827 13.9634C146.827 13.327 146.71 12.7261 146.478 12.1623C146.245 11.5985 145.92 11.1089 145.504 10.692C145.087 10.275 144.597 9.95094 144.035 9.71799C143.471 9.48504 142.872 9.36857 142.235 9.36857C141.597 9.36857 140.998 9.48504 140.434 9.71799C139.871 9.95094 139.381 10.275 138.966 10.692C138.549 11.1089 138.225 11.5985 137.992 12.1623C137.757 12.7261 137.641 13.327 137.641 13.9634Z" fill="white"/>
</g>
</g>
</g>
<defs>
<clipPath id="clip0_6510_147">
<rect width="150" height="27.9251" fill="white" transform="translate(0.5)"/>
</clipPath>
</defs>
</svg>
