<svg width="20" height="26" viewBox="0 0 20 26" fill="none" xmlns="http://www.w3.org/2000/svg">
<g id="Vector">
<path d="M19.9827 12.0279L19.9413 11.3254C19.9198 10.9513 19.6175 10.6606 19.2523 10.6606H18.5663C15.6232 10.6606 12.9869 12.9835 10.9445 17.3763C10.5854 18.1496 10.2724 18.9244 10.0023 19.6599C9.73222 18.9228 9.41918 18.1496 9.06011 17.3763C7.01462 12.9835 4.37835 10.6606 1.43518 10.6606H0.74772C0.382509 10.6606 0.0802122 10.9513 0.0587292 11.3254L0.0172977 12.0279C0.000418219 12.3203 -0.364793 19.223 3.32415 23.2339C4.78959 24.8291 6.66475 25.7391 8.90666 25.9513C8.98492 25.9827 9.06932 26 9.15678 26H10.8463C10.9322 26 11.0166 25.9827 11.0964 25.9513C13.3383 25.7391 15.2135 24.8291 16.6789 23.2339C20.3648 19.223 19.9996 12.3203 19.9827 12.0279ZM8.05348 22.8535C7.01002 22.5691 6.11847 22.03 5.39419 21.2442C3.5313 19.2214 3.01725 15.9728 2.88528 13.9674C5.28831 15.2938 7.12357 19.6741 8.05348 22.8535ZM14.6089 21.241C13.8846 22.03 12.9915 22.5691 11.9465 22.8551C12.8749 19.6741 14.7086 15.2907 17.1162 13.9658C16.9858 15.9665 16.4748 19.2104 14.6089 21.241Z" fill="url(#paint0_linear_3096_5623)"/>
<path d="M15.5587 3.76413C15.2549 3.01288 14.8237 2.34649 14.2728 1.78384C13.725 1.22118 13.0744 0.779544 12.3378 0.466784C11.6043 0.157166 10.8171 0 10.0008 0C9.18133 0 8.39414 0.157166 7.65911 0.468355C6.92408 0.779544 6.27346 1.22275 5.72564 1.78384C5.17629 2.34649 4.74356 3.01288 4.43973 3.7657C4.13743 4.51696 3.98398 5.32322 3.98398 6.16091C3.98398 7.43868 4.33692 8.60642 5.03051 9.62957C5.70416 10.626 6.56655 11.3631 7.6008 11.8252C7.6008 11.8252 7.76039 11.9038 8.07803 12.2291C8.09644 12.2542 8.15168 12.3926 8.16089 12.6849C8.19158 13.7033 9.0064 14.5127 10.0008 14.5127H10.0023C10.9982 14.5127 11.8115 13.7017 11.8422 12.6833C11.8529 12.3297 11.9235 12.215 11.9235 12.215C12.2104 11.9116 12.3577 11.833 12.3577 11.833C13.4135 11.3741 14.2928 10.6339 14.9725 9.63114C15.6661 8.60485 16.0191 7.43867 16.0191 6.16249C16.016 5.32479 15.8625 4.5201 15.5587 3.76413ZM12.7644 8.09877C12.3808 8.66457 11.8959 9.07477 11.3097 9.32938C11.0596 9.4394 10.7849 9.65315 10.4811 9.97219C10.1788 10.2912 10.0176 10.7517 10.0008 11.3537C9.98234 10.7517 9.81815 10.2928 9.50665 9.97219C9.19514 9.65315 8.91433 9.4394 8.66574 9.32938C8.09644 9.07477 7.61921 8.66457 7.23712 8.09877C6.8535 7.53297 6.66322 6.89488 6.66322 6.18449C6.66322 5.71142 6.74762 5.2635 6.91641 4.84386C7.08521 4.42423 7.32152 4.0596 7.62382 3.74999C7.92611 3.44037 8.28212 3.19833 8.69183 3.02545C9.10154 2.85257 9.53734 2.76612 10.0008 2.76612C10.4626 2.76612 10.8984 2.85257 11.3097 3.02545C11.7194 3.19833 12.0754 3.44037 12.3777 3.74999C12.68 4.0596 12.9163 4.42423 13.0851 4.84386C13.2539 5.2635 13.3383 5.70985 13.3383 6.18449C13.3383 6.89645 13.1465 7.53455 12.7644 8.09877Z" fill="url(#paint1_linear_3096_5623)"/>
</g>
<defs>
<linearGradient id="paint0_linear_3096_5623" x1="0" y1="13" x2="20" y2="13" gradientUnits="userSpaceOnUse">
<stop offset="0.23516" stop-color="#4536EF"/>
<stop offset="0.913242" stop-color="#FF00B8"/>
</linearGradient>
<linearGradient id="paint1_linear_3096_5623" x1="0" y1="13" x2="20" y2="13" gradientUnits="userSpaceOnUse">
<stop offset="0.23516" stop-color="#4536EF"/>
<stop offset="0.913242" stop-color="#FF00B8"/>
</linearGradient>
</defs>
</svg>
